solid V2-Joystick
facet normal -1.0 0.0 0.0
  outer loop
    vertex 35.83899667371036 37.98944431746702 29.187200000000008
    vertex 35.83899667371036 18.68944431746702 24.687200000000008
    vertex 35.83899667371036 18.68944431746702 29.187200000000008
  endloop
endfacet
facet normal -1.0 0.0 0.0
  outer loop
    vertex 35.83899667371036 18.68944431746702 24.687200000000008
    vertex 35.83899667371036 37.98944431746702 29.187200000000008
    vertex 35.83899667371036 37.98944431746702 24.687200000000008
  endloop
endfacet
facet normal 0.0 -1.0 0.0
  outer loop
    vertex 27.588996673710362 27.939444317467014 23.187200000000008
    vertex 23.58899667371037 27.939444317467014 17.687200000000004
    vertex 27.588996673710362 27.939444317467014 17.687200000000004
  endloop
endfacet
facet normal 0.0 -1.0 0.0
  outer loop
    vertex 23.58899667371037 27.939444317467014 17.687200000000004
    vertex 27.588996673710362 27.939444317467014 23.187200000000008
    vertex 23.58899667371037 27.939444317467014 23.187200000000008
  endloop
endfacet
facet normal 0.0 1.0 0.0
  outer loop
    vertex 23.58899667371037 24.93944431746702 23.187200000000008
    vertex 27.588996673710362 24.93944431746702 17.687200000000004
    vertex 23.58899667371037 24.93944431746702 17.687200000000004
  endloop
endfacet
facet normal 0.0 1.0 0.0
  outer loop
    vertex 27.588996673710362 24.93944431746702 17.687200000000004
    vertex 23.58899667371037 24.93944431746702 23.187200000000008
    vertex 27.588996673710362 24.93944431746702 23.187200000000008
  endloop
endfacet
facet normal 0.0 0.0 -1.0
  outer loop
    vertex 27.588996673710362 27.939444317467014 23.187200000000008
    vertex 23.58899667371037 24.93944431746702 23.187200000000008
    vertex 23.58899667371037 27.939444317467014 23.187200000000008
  endloop
endfacet
facet normal 0.0 0.0 -1.0
  outer loop
    vertex 23.58899667371037 24.93944431746702 23.187200000000008
    vertex 27.588996673710362 27.939444317467014 23.187200000000008
    vertex 27.588996673710362 24.93944431746702 23.187200000000008
  endloop
endfacet
facet normal 0.6034426701855369 6.042860151821177e-18 -0.7974063856023158
  outer loop
    vertex 36.838996673710355 38.98944431746702 24.687200000000008
    vertex 27.588996673710362 24.93944431746702 17.687200000000004
    vertex 27.588996673710362 27.939444317467014 17.687200000000004
  endloop
endfacet
facet normal 0.6034426701855369 6.042860151821177e-18 -0.7974063856023158
  outer loop
    vertex 27.588996673710362 24.93944431746702 17.687200000000004
    vertex 36.838996673710355 38.98944431746702 24.687200000000008
    vertex 36.838996673710355 17.689444317467025 24.687200000000008
  endloop
endfacet
facet normal -1.0 0.0 0.0
  outer loop
    vertex 27.588996673710362 27.939444317467014 23.187200000000008
    vertex 27.588996673710362 24.93944431746702 17.687200000000004
    vertex 27.588996673710362 24.93944431746702 23.187200000000008
  endloop
endfacet
facet normal -1.0 0.0 0.0
  outer loop
    vertex 27.588996673710362 24.93944431746702 17.687200000000004
    vertex 27.588996673710362 27.939444317467014 23.187200000000008
    vertex 27.588996673710362 27.939444317467014 17.687200000000004
  endloop
endfacet
facet normal 0.9999999778970772 -0.00011530680384730375 0.00017581292974440857
  outer loop
    vertex 23.588923884018808 26.181680223390913 17.687232872763932
    vertex 23.58899667371037 24.93944431746702 23.187200000000008
    vertex 23.58899667371037 24.93944431746702 17.687200000000004
  endloop
endfacet
facet normal 0.9999999778970772 -0.00011530680384730375 0.00017581292974440857
  outer loop
    vertex 23.58899667371037 24.93944431746702 23.187200000000008
    vertex 23.588923884018808 26.181680223390913 17.687232872763932
    vertex 23.58899667371037 27.939444317467014 23.187200000000008
  endloop
endfacet
facet normal 0.9999999778970772 -0.00011530680384730375 0.00017581292974440857
  outer loop
    vertex 23.58899667371037 27.939444317467014 23.187200000000008
    vertex 23.588923884018808 26.181680223390913 17.687232872763932
    vertex 23.592935539200038 26.703769580024577 17.685421157520793
  endloop
endfacet
facet normal 0.9999999778970772 -0.00011530680384730375 0.00017581292974440857
  outer loop
    vertex 23.58899667371037 27.939444317467014 23.187200000000008
    vertex 23.592935539200038 26.703769580024577 17.685421157520793
    vertex 23.58899667371037 27.939444317467014 17.687200000000004
  endloop
endfacet
facet normal 0.6087614290088208 -0.7933533402911583 -5.18874047329557e-16
  outer loop
    vertex 15.638996673710283 36.44207226162994 23.073480145623563
    vertex 15.411179214405143 36.267261776772216 27.687200000000004
    vertex 15.41117921440512 36.267261776772195 22.962740471958046
  endloop
endfacet
facet normal 0.6087614290088208 -0.7933533402911583 -5.18874047329557e-16
  outer loop
    vertex 15.411179214405143 36.267261776772216 27.687200000000004
    vertex 15.638996673710283 36.44207226162994 23.073480145623563
    vertex 15.638996673710306 36.44207226162989 27.687200000000004
  endloop
endfacet
facet normal 0.793353340291239 -0.6087614290087157 1.3300876223961934e-16
  outer loop
    vertex 15.41117921440512 36.267261776772195 22.962740471958046
    vertex 15.236368729547449 36.039444317467 27.687200000000004
    vertex 15.236368729547449 36.03944431746699 22.818421719457003
  endloop
endfacet
facet normal 0.793353340291239 -0.6087614290087157 1.3300876223961934e-16
  outer loop
    vertex 15.236368729547449 36.039444317467 27.687200000000004
    vertex 15.41117921440512 36.267261776772195 22.962740471958046
    vertex 15.411179214405143 36.267261776772216 27.687200000000004
  endloop
endfacet
facet normal 0.9238795325112888 -0.38268343236508473 1.3326348255694275e-16
  outer loop
    vertex 15.236368729547449 36.03944431746699 22.818421719457003
    vertex 15.126478264792356 35.77414526707977 27.687200000000004
    vertex 15.126478264792356 35.77414526707977 22.650358972605357
  endloop
endfacet
facet normal 0.9238795325112888 -0.38268343236508473 1.3326348255694275e-16
  outer loop
    vertex 15.126478264792356 35.77414526707977 27.687200000000004
    vertex 15.236368729547449 36.03944431746699 22.818421719457003
    vertex 15.236368729547449 36.039444317467 27.687200000000004
  endloop
endfacet
facet normal 0.991444861373814 -0.13052619222002418 -8.198262630667278e-17
  outer loop
    vertex 15.08899667371034 35.48944431746701 22.470005429864255
    vertex 15.126478264792356 35.77414526707977 27.687200000000004
    vertex 15.08899667371034 35.489444317467004 27.687200000000004
  endloop
endfacet
facet normal 0.991444861373814 -0.13052619222002418 -8.198262630667278e-17
  outer loop
    vertex 15.126478264792356 35.77414526707977 27.687200000000004
    vertex 15.08899667371034 35.48944431746701 22.470005429864255
    vertex 15.126478264792356 35.77414526707977 22.650358972605357
  endloop
endfacet
facet normal 0.9914448613738046 0.13052619222009637 -1.8684604610178133e-17
  outer loop
    vertex 15.08899667371034 35.48944431746701 22.470005429864255
    vertex 15.126478264792379 35.204743367854235 27.687200000000004
    vertex 15.126478264792379 35.20474336785423 22.289651887123124
  endloop
endfacet
facet normal 0.9914448613738046 0.13052619222009637 -1.8684604610178133e-17
  outer loop
    vertex 15.126478264792379 35.204743367854235 27.687200000000004
    vertex 15.08899667371034 35.48944431746701 22.470005429864255
    vertex 15.08899667371034 35.489444317467004 27.687200000000004
  endloop
endfacet
facet normal 0.9238795325113095 0.3826834323650352 9.598146339472555e-16
  outer loop
    vertex 15.126478264792379 35.20474336785423 22.289651887123124
    vertex 15.236368729547449 34.939444317467 27.687200000000004
    vertex 15.23636872954747 34.93944431746699 22.121589140271478
  endloop
endfacet
facet normal 0.9238795325113095 0.3826834323650352 9.598146339472555e-16
  outer loop
    vertex 15.236368729547449 34.939444317467 27.687200000000004
    vertex 15.126478264792379 35.20474336785423 22.289651887123124
    vertex 15.126478264792379 35.204743367854235 27.687200000000004
  endloop
endfacet
facet normal 0.7933533402911866 0.6087614290087839 7.869272087876988e-16
  outer loop
    vertex 15.23636872954747 34.93944431746699 22.121589140271478
    vertex 15.411179214405166 34.71162685816179 27.687200000000004
    vertex 15.411179214405166 34.71162685816179 21.97727038777046
  endloop
endfacet
facet normal 0.7933533402911866 0.6087614290087839 7.869272087876988e-16
  outer loop
    vertex 15.411179214405166 34.71162685816179 27.687200000000004
    vertex 15.23636872954747 34.93944431746699 22.121589140271478
    vertex 15.236368729547449 34.939444317467 27.687200000000004
  endloop
endfacet
facet normal 0.6087614290087199 0.7933533402912359 -2.2697591990177303e-15
  outer loop
    vertex 15.411179214405166 34.71162685816179 21.97727038777046
    vertex 15.638996673710373 34.53681637330412 27.687200000000004
    vertex 15.638996673710373 34.536816373304084 21.866530714104954
  endloop
endfacet
facet normal 0.6087614290087199 0.7933533402912359 -2.2697591990177303e-15
  outer loop
    vertex 15.638996673710373 34.53681637330412 27.687200000000004
    vertex 15.411179214405166 34.71162685816179 21.97727038777046
    vertex 15.411179214405166 34.71162685816179 27.687200000000004
  endloop
endfacet
facet normal 0.38268343236498775 0.9238795325113291 -1.6479731548184703e-15
  outer loop
    vertex 15.638996673710373 34.536816373304084 21.866530714104954
    vertex 15.904295724097619 34.42692590854904 27.687200000000004
    vertex 15.904295724097642 34.42692590854904 21.796916845029344
  endloop
endfacet
facet normal 0.38268343236498775 0.9238795325113291 -1.6479731548184703e-15
  outer loop
    vertex 15.904295724097619 34.42692590854904 27.687200000000004
    vertex 15.638996673710373 34.536816373304084 21.866530714104954
    vertex 15.638996673710373 34.53681637330412 27.687200000000004
  endloop
endfacet
facet normal 0.13052619222002254 0.9914448613738143 1.014525153006617e-15
  outer loop
    vertex 15.904295724097642 34.42692590854904 21.796916845029344
    vertex 16.188996673710385 34.389444317467024 27.687200000000004
    vertex 16.188996673710406 34.389444317467024 21.773172850678744
  endloop
endfacet
facet normal 0.13052619222002254 0.9914448613738143 1.014525153006617e-15
  outer loop
    vertex 16.188996673710385 34.389444317467024 27.687200000000004
    vertex 15.904295724097642 34.42692590854904 21.796916845029344
    vertex 15.904295724097619 34.42692590854904 27.687200000000004
  endloop
endfacet
facet normal -0.13052619222028217 0.9914448613737802 -1.1516751534570211e-14
  outer loop
    vertex 16.188996673710385 34.389444317467024 27.687200000000004
    vertex 16.473697623323172 34.42692590854909 21.79691684502937
    vertex 16.188996673710406 34.389444317467024 21.773172850678744
  endloop
endfacet
facet normal -0.13052619222028217 0.9914448613737802 -1.1516751534570211e-14
  outer loop
    vertex 16.473697623323172 34.42692590854909 21.79691684502937
    vertex 16.188996673710385 34.389444317467024 27.687200000000004
    vertex 16.473697623323194 34.42692590854915 27.687200000000004
  endloop
endfacet
facet normal -0.3826834323649881 0.9238795325113288 -7.24671638940455e-15
  outer loop
    vertex 16.473697623323194 34.42692590854915 27.687200000000004
    vertex 16.73899667371035 34.536816373304156 21.86653071410497
    vertex 16.473697623323172 34.42692590854909 21.79691684502937
  endloop
endfacet
facet normal -0.3826834323649881 0.9238795325113288 -7.24671638940455e-15
  outer loop
    vertex 16.73899667371035 34.536816373304156 21.86653071410497
    vertex 16.473697623323194 34.42692590854915 27.687200000000004
    vertex 16.73899667371037 34.536816373304156 27.687200000000004
  endloop
endfacet
facet normal -0.6087614290087494 0.7933533402912132 1.4785297202680954e-15
  outer loop
    vertex 16.73899667371037 34.536816373304156 27.687200000000004
    vertex 16.96681413301558 34.711626858161864 21.977270387770485
    vertex 16.73899667371035 34.536816373304156 21.86653071410497
  endloop
endfacet
facet normal -0.6087614290087494 0.7933533402912132 1.4785297202680954e-15
  outer loop
    vertex 16.96681413301558 34.711626858161864 21.977270387770485
    vertex 16.73899667371037 34.536816373304156 27.687200000000004
    vertex 16.966814133015557 34.71162685816184 27.687200000000004
  endloop
endfacet
facet normal -0.7933533402912625 0.6087614290086851 1.553190379807133e-16
  outer loop
    vertex 17.14162461787323 34.93944431746705 27.687200000000004
    vertex 16.96681413301558 34.711626858161864 21.977270387770485
    vertex 16.966814133015557 34.71162685816184 27.687200000000004
  endloop
endfacet
facet normal -0.7933533402912625 0.6087614290086851 1.553190379807133e-16
  outer loop
    vertex 16.96681413301558 34.711626858161864 21.977270387770485
    vertex 17.14162461787323 34.93944431746705 27.687200000000004
    vertex 17.14162461787323 34.93944431746706 22.121589140271514
  endloop
endfacet
facet normal -0.9238795325112966 0.38268343236506625 5.946346844428568e-16
  outer loop
    vertex 17.25151508262832 35.20474336785429 27.687200000000004
    vertex 17.14162461787323 34.93944431746706 22.121589140271514
    vertex 17.14162461787323 34.93944431746705 27.687200000000004
  endloop
endfacet
facet normal -0.9238795325112966 0.38268343236506625 5.946346844428568e-16
  outer loop
    vertex 17.14162461787323 34.93944431746706 22.121589140271514
    vertex 17.25151508262832 35.20474336785429 27.687200000000004
    vertex 17.25151508262832 35.204743367854306 22.28965188712317
  endloop
endfacet
facet normal -0.9914448613738145 0.13052619222002076 1.8907040379347763e-17
  outer loop
    vertex 17.288996673710336 35.48944431746707 27.687200000000004
    vertex 17.25151508262832 35.204743367854306 22.28965188712317
    vertex 17.25151508262832 35.20474336785429 27.687200000000004
  endloop
endfacet
facet normal -0.9914448613738145 0.13052619222002076 1.8907040379347763e-17
  outer loop
    vertex 17.25151508262832 35.204743367854306 22.28965188712317
    vertex 17.288996673710336 35.48944431746707 27.687200000000004
    vertex 17.288996673710336 35.489444317467054 22.470005429864276
  endloop
endfacet
facet normal -0.9914448613738094 -0.13052619222006032 1.1565488843791728e-15
  outer loop
    vertex 17.288996673710336 35.48944431746707 27.687200000000004
    vertex 17.2515150826283 35.77414526707979 22.650358972605382
    vertex 17.288996673710336 35.489444317467054 22.470005429864276
  endloop
endfacet
facet normal -0.9914448613738094 -0.13052619222006032 1.1565488843791728e-15
  outer loop
    vertex 17.2515150826283 35.77414526707979 22.650358972605382
    vertex 17.288996673710336 35.48944431746707 27.687200000000004
    vertex 17.25151508262832 35.77414526707981 27.687200000000004
  endloop
endfacet
facet normal -0.9238795325113076 -0.38268343236503943 1.4244347661782692e-15
  outer loop
    vertex 17.25151508262832 35.77414526707981 27.687200000000004
    vertex 17.14162461787323 36.039444317467044 22.81842171945704
    vertex 17.2515150826283 35.77414526707979 22.650358972605382
  endloop
endfacet
facet normal -0.9238795325113076 -0.38268343236503943 1.4244347661782692e-15
  outer loop
    vertex 17.14162461787323 36.039444317467044 22.81842171945704
    vertex 17.25151508262832 35.77414526707981 27.687200000000004
    vertex 17.14162461787323 36.03944431746706 27.687200000000004
  endloop
endfacet
facet normal -0.793353340291131 -0.6087614290088562 2.1451718056328832e-16
  outer loop
    vertex 17.14162461787323 36.03944431746706 27.687200000000004
    vertex 16.96681413301549 36.26726177677225 22.962740471958078
    vertex 17.14162461787323 36.039444317467044 22.81842171945704
  endloop
endfacet
facet normal -0.793353340291131 -0.6087614290088562 2.1451718056328832e-16
  outer loop
    vertex 16.96681413301549 36.26726177677225 22.962740471958078
    vertex 17.14162461787323 36.03944431746706 27.687200000000004
    vertex 16.96681413301549 36.26726177677225 27.687200000000004
  endloop
endfacet
facet normal -0.6087614290086837 -0.7933533402912635 1.947956312835595e-18
  outer loop
    vertex 16.96681413301549 36.26726177677225 27.687200000000004
    vertex 16.738996673710304 36.4420722616299 23.073480145623563
    vertex 16.96681413301549 36.26726177677225 22.962740471958078
  endloop
endfacet
facet normal -0.6087614290086837 -0.7933533402912635 1.947956312835595e-18
  outer loop
    vertex 16.738996673710304 36.4420722616299 23.073480145623563
    vertex 16.96681413301549 36.26726177677225 27.687200000000004
    vertex 16.738996673710304 36.4420722616299 27.687200000000004
  endloop
endfacet
facet normal -0.38268343236512375 -0.9238795325112726 2.026197034711511e-16
  outer loop
    vertex 16.738996673710304 36.4420722616299 27.687200000000004
    vertex 16.47369762332308 36.551962726384986 23.143094014699177
    vertex 16.738996673710304 36.4420722616299 23.073480145623563
  endloop
endfacet
facet normal -0.38268343236512375 -0.9238795325112726 2.026197034711511e-16
  outer loop
    vertex 16.47369762332308 36.551962726384986 23.143094014699177
    vertex 16.738996673710304 36.4420722616299 27.687200000000004
    vertex 16.473697623323105 36.55196272638501 27.687200000000004
  endloop
endfacet
facet normal -0.13052619222002584 -0.9914448613738138 2.8350847266943694e-16
  outer loop
    vertex 16.473697623323105 36.55196272638501 27.687200000000004
    vertex 16.18899667371034 36.589444317467 23.16683800904977
    vertex 16.47369762332308 36.551962726384986 23.143094014699177
  endloop
endfacet
facet normal -0.13052619222002584 -0.9914448613738138 2.8350847266943694e-16
  outer loop
    vertex 16.18899667371034 36.589444317467 23.16683800904977
    vertex 16.473697623323105 36.55196272638501 27.687200000000004
    vertex 16.18899667371034 36.58944431746702 27.687200000000004
  endloop
endfacet
facet normal 0.13052619222020265 -0.9914448613737906 9.351216870705035e-16
  outer loop
    vertex 16.18899667371034 36.589444317467 23.16683800904977
    vertex 15.904295724097551 36.551962726384986 27.687200000000004
    vertex 15.904295724097619 36.55196272638487 23.1430940146991
  endloop
endfacet
facet normal 0.13052619222020265 -0.9914448613737906 9.351216870705035e-16
  outer loop
    vertex 15.904295724097551 36.551962726384986 27.687200000000004
    vertex 16.18899667371034 36.589444317467 23.16683800904977
    vertex 16.18899667371034 36.58944431746702 27.687200000000004
  endloop
endfacet
facet normal 0.38268343236487273 -0.9238795325113768 2.7004163100161866e-16
  outer loop
    vertex 15.904295724097619 36.55196272638487 23.1430940146991
    vertex 15.638996673710306 36.44207226162989 27.687200000000004
    vertex 15.638996673710283 36.44207226162994 23.073480145623563
  endloop
endfacet
facet normal 0.38268343236487273 -0.9238795325113768 2.7004163100161866e-16
  outer loop
    vertex 15.638996673710306 36.44207226162989 27.687200000000004
    vertex 15.904295724097619 36.55196272638487 23.1430940146991
    vertex 15.904295724097551 36.551962726384986 27.687200000000004
  endloop
endfacet
facet normal 0.7933533402912436 -0.6087614290087097 1.2699595676519781e-14
  outer loop
    vertex 29.41117921440532 36.26726177677208 22.962740471957964
    vertex 29.23636872954747 36.03944431746704 27.687200000000004
    vertex 29.23636872954765 36.039444317466895 22.818421719456946
  endloop
endfacet
facet normal 0.7933533402912436 -0.6087614290087097 1.2699595676519781e-14
  outer loop
    vertex 29.23636872954747 36.03944431746704 27.687200000000004
    vertex 29.41117921440532 36.26726177677208 22.962740471957964
    vertex 29.41117921440514 36.267261776772244 27.687200000000004
  endloop
endfacet
facet normal 0.923879532511064 -0.38268343236562746 -3.917205783935699e-15
  outer loop
    vertex 29.126478264792127 35.77414526707988 22.65035897260544
    vertex 29.23636872954747 36.03944431746704 27.687200000000004
    vertex 29.126478264792354 35.77414526707979 27.687200000000004
  endloop
endfacet
facet normal 0.923879532511064 -0.38268343236562746 -3.917205783935699e-15
  outer loop
    vertex 29.23636872954747 36.03944431746704 27.687200000000004
    vertex 29.126478264792127 35.77414526707988 22.65035897260544
    vertex 29.23636872954765 36.039444317466895 22.818421719456946
  endloop
endfacet
facet normal 0.9914448613738513 -0.13052619221974093 -1.0168511536296469e-14
  outer loop
    vertex 29.126478264792127 35.77414526707988 22.65035897260544
    vertex 29.088996673710337 35.48944431746701 27.687200000000004
    vertex 29.088996673710337 35.48944431746699 22.47000542986424
  endloop
endfacet
facet normal 0.9914448613738513 -0.13052619221974093 -1.0168511536296469e-14
  outer loop
    vertex 29.088996673710337 35.48944431746701 27.687200000000004
    vertex 29.126478264792127 35.77414526707988 22.65035897260544
    vertex 29.126478264792354 35.77414526707979 27.687200000000004
  endloop
endfacet
facet normal 0.9914448613738035 0.1305261922201049 -3.606337525349183e-16
  outer loop
    vertex 29.088996673710337 35.48944431746699 22.47000542986424
    vertex 29.126478264792375 35.204743367854256 27.687200000000004
    vertex 29.126478264792375 35.204743367854235 22.289651887123124
  endloop
endfacet
facet normal 0.9914448613738035 0.1305261922201049 -3.606337525349183e-16
  outer loop
    vertex 29.126478264792375 35.204743367854256 27.687200000000004
    vertex 29.088996673710337 35.48944431746699 22.47000542986424
    vertex 29.088996673710337 35.48944431746701 27.687200000000004
  endloop
endfacet
facet normal 0.9238795325112851 0.3826834323650943 -1.2175739778808463e-15
  outer loop
    vertex 29.126478264792375 35.204743367854235 22.289651887123124
    vertex 29.23636872954747 34.939444317467036 27.687200000000004
    vertex 29.23636872954747 34.939444317467014 22.121589140271492
  endloop
endfacet
facet normal 0.9238795325112851 0.3826834323650943 -1.2175739778808463e-15
  outer loop
    vertex 29.23636872954747 34.939444317467036 27.687200000000004
    vertex 29.126478264792375 35.204743367854235 22.289651887123124
    vertex 29.126478264792375 35.204743367854256 27.687200000000004
  endloop
endfacet
facet normal 0.7933533402912447 0.6087614290087082 -9.983182714178364e-16
  outer loop
    vertex 29.23636872954747 34.939444317467014 22.121589140271492
    vertex 29.41117921440514 34.71162685816183 27.687200000000004
    vertex 29.41117921440514 34.71162685816183 21.977270387770474
  endloop
endfacet
facet normal 0.7933533402912447 0.6087614290087082 -9.983182714178364e-16
  outer loop
    vertex 29.41117921440514 34.71162685816183 27.687200000000004
    vertex 29.23636872954747 34.939444317467014 22.121589140271492
    vertex 29.23636872954747 34.939444317467036 27.687200000000004
  endloop
endfacet
facet normal 0.6087614290085107 0.7933533402913961 2.202845669012778e-14
  outer loop
    vertex 29.41117921440514 34.71162685816183 21.977270387770474
    vertex 29.63899667371035 34.536816373304134 27.687200000000004
    vertex 29.63899667371046 34.53681637330437 21.866530714105107
  endloop
endfacet
facet normal 0.6087614290085107 0.7933533402913961 2.202845669012778e-14
  outer loop
    vertex 29.63899667371035 34.536816373304134 27.687200000000004
    vertex 29.41117921440514 34.71162685816183 21.977270387770474
    vertex 29.41117921440514 34.71162685816183 27.687200000000004
  endloop
endfacet
facet normal 0.38268343236485847 0.9238795325113827 6.437043581469274e-14
  outer loop
    vertex 29.63899667371046 34.53681637330437 21.866530714105107
    vertex 29.90429572409757 34.42692590854904 27.687200000000004
    vertex 29.904295724097683 34.42692590854928 21.796916845029486
  endloop
endfacet
facet normal 0.38268343236485847 0.9238795325113827 6.437043581469274e-14
  outer loop
    vertex 29.90429572409757 34.42692590854904 27.687200000000004
    vertex 29.63899667371046 34.53681637330437 21.866530714105107
    vertex 29.63899667371035 34.536816373304134 27.687200000000004
  endloop
endfacet
facet normal 0.1305261922204165 0.9914448613737625 4.2821966298308963e-14
  outer loop
    vertex 29.904295724097683 34.42692590854928 21.796916845029486
    vertex 30.188996673710335 34.38944431746704 27.687200000000004
    vertex 30.188996673710335 34.38944431746704 21.773172850678744
  endloop
endfacet
facet normal 0.1305261922204165 0.9914448613737625 4.2821966298308963e-14
  outer loop
    vertex 30.188996673710335 34.38944431746704 27.687200000000004
    vertex 29.904295724097683 34.42692590854928 21.796916845029486
    vertex 29.90429572409757 34.42692590854904 27.687200000000004
  endloop
endfacet
facet normal -0.13052619221991524 0.9914448613738284 -1.3431823329935472e-14
  outer loop
    vertex 30.188996673710335 34.38944431746704 27.687200000000004
    vertex 30.473697623323122 34.42692590854899 21.796916845029305
    vertex 30.188996673710335 34.38944431746704 21.773172850678744
  endloop
endfacet
facet normal -0.13052619221991524 0.9914448613738284 -1.3431823329935472e-14
  outer loop
    vertex 30.473697623323122 34.42692590854899 21.796916845029305
    vertex 30.188996673710335 34.38944431746704 27.687200000000004
    vertex 30.473697623323122 34.426925908549066 27.687200000000004
  endloop
endfacet
facet normal -0.3826834323651515 0.9238795325112613 -1.8743962732604433e-14
  outer loop
    vertex 30.473697623323122 34.426925908549066 27.687200000000004
    vertex 30.738996673710368 34.53681637330408 21.866530714104933
    vertex 30.473697623323122 34.42692590854899 21.796916845029305
  endloop
endfacet
facet normal -0.3826834323651515 0.9238795325112613 -1.8743962732604433e-14
  outer loop
    vertex 30.738996673710368 34.53681637330408 21.866530714104933
    vertex 30.473697623323122 34.426925908549066 27.687200000000004
    vertex 30.738996673710346 34.536816373304156 27.687200000000004
  endloop
endfacet
facet normal -0.6087614290088029 0.793353340291172 -6.557738491806298e-15
  outer loop
    vertex 30.738996673710346 34.536816373304156 27.687200000000004
    vertex 30.966814133015532 34.71162685816183 21.977270387770474
    vertex 30.738996673710368 34.53681637330408 21.866530714104933
  endloop
endfacet
facet normal -0.6087614290088029 0.793353340291172 -6.557738491806298e-15
  outer loop
    vertex 30.966814133015532 34.71162685816183 21.977270387770474
    vertex 30.738996673710346 34.536816373304156 27.687200000000004
    vertex 30.966814133015532 34.71162685816183 27.687200000000004
  endloop
endfacet
facet normal -0.7933533402911982 0.6087614290087688 4.990736193243978e-16
  outer loop
    vertex 31.141624617873248 34.93944431746705 27.687200000000004
    vertex 30.966814133015532 34.71162685816183 21.977270387770474
    vertex 30.966814133015532 34.71162685816183 27.687200000000004
  endloop
endfacet
facet normal -0.7933533402911982 0.6087614290087688 4.990736193243978e-16
  outer loop
    vertex 30.966814133015532 34.71162685816183 21.977270387770474
    vertex 31.141624617873248 34.93944431746705 27.687200000000004
    vertex 31.141624617873248 34.93944431746706 22.121589140271524
  endloop
endfacet
facet normal -0.9238795325113275 0.3826834323649917 -1.3013908047023915e-15
  outer loop
    vertex 31.251515082628295 35.20474336785427 27.687200000000004
    vertex 31.141624617873248 34.93944431746706 22.121589140271524
    vertex 31.141624617873248 34.93944431746705 27.687200000000004
  endloop
endfacet
facet normal -0.9238795325113275 0.3826834323649917 -1.3013908047023915e-15
  outer loop
    vertex 31.141624617873248 34.93944431746706 22.121589140271524
    vertex 31.251515082628295 35.20474336785427 27.687200000000004
    vertex 31.25151508262832 35.204743367854256 22.289651887123135
  endloop
endfacet
facet normal -0.9914448613738145 0.13052619222002143 -2.848083866753038e-15
  outer loop
    vertex 31.251515082628295 35.20474336785427 27.687200000000004
    vertex 31.288996673710333 35.48944431746703 22.470005429864266
    vertex 31.25151508262832 35.204743367854256 22.289651887123135
  endloop
endfacet
facet normal -0.9914448613738145 0.13052619222002143 -2.848083866753038e-15
  outer loop
    vertex 31.288996673710333 35.48944431746703 22.470005429864266
    vertex 31.251515082628295 35.20474336785427 27.687200000000004
    vertex 31.28899667371031 35.48944431746703 27.687200000000004
  endloop
endfacet
facet normal -0.9914448613738016 -0.13052619222011844 -1.3455153210638218e-15
  outer loop
    vertex 31.251515082628273 35.77414526707981 27.687200000000004
    vertex 31.288996673710333 35.48944431746703 22.470005429864266
    vertex 31.28899667371031 35.48944431746703 27.687200000000004
  endloop
endfacet
facet normal -0.9914448613738016 -0.13052619222011844 -1.3455153210638218e-15
  outer loop
    vertex 31.288996673710333 35.48944431746703 22.470005429864266
    vertex 31.251515082628273 35.77414526707981 27.687200000000004
    vertex 31.251515082628273 35.774145267079824 22.650358972605403
  endloop
endfacet
facet normal -0.923879532511309 -0.3826834323650362 -5.571290911780927e-17
  outer loop
    vertex 31.1416246178732 36.03944431746704 27.687200000000004
    vertex 31.251515082628273 35.774145267079824 22.650358972605403
    vertex 31.251515082628273 35.77414526707981 27.687200000000004
  endloop
endfacet
facet normal -0.923879532511309 -0.3826834323650362 -5.571290911780927e-17
  outer loop
    vertex 31.251515082628273 35.774145267079824 22.650358972605403
    vertex 31.1416246178732 36.03944431746704 27.687200000000004
    vertex 31.1416246178732 36.03944431746702 22.818421719457014
  endloop
endfacet
facet normal -0.7933533402912547 -0.6087614290086953 3.738927562420664e-16
  outer loop
    vertex 31.1416246178732 36.03944431746704 27.687200000000004
    vertex 30.966814133015532 36.26726177677223 22.962740471958057
    vertex 31.1416246178732 36.03944431746702 22.818421719457014
  endloop
endfacet
facet normal -0.7933533402912547 -0.6087614290086953 3.738927562420664e-16
  outer loop
    vertex 30.966814133015532 36.26726177677223 22.962740471958057
    vertex 31.1416246178732 36.03944431746704 27.687200000000004
    vertex 30.966814133015532 36.267261776772244 27.687200000000004
  endloop
endfacet
facet normal -0.6087614290086882 -0.7933533402912601 6.104390753226558e-16
  outer loop
    vertex 30.966814133015532 36.267261776772244 27.687200000000004
    vertex 30.738996673710368 36.442072261629846 23.073480145623517
    vertex 30.966814133015532 36.26726177677223 22.962740471958057
  endloop
endfacet
facet normal -0.6087614290086882 -0.7933533402912601 6.104390753226558e-16
  outer loop
    vertex 30.738996673710368 36.442072261629846 23.073480145623517
    vertex 30.966814133015532 36.267261776772244 27.687200000000004
    vertex 30.738996673710346 36.4420722616299 27.687200000000004
  endloop
endfacet
facet normal -0.3826834323650715 -0.9238795325112943 8.44722336113282e-16
  outer loop
    vertex 30.738996673710346 36.4420722616299 27.687200000000004
    vertex 30.473697623323144 36.551962726384936 23.143094014699145
    vertex 30.738996673710368 36.442072261629846 23.073480145623517
  endloop
endfacet
facet normal -0.3826834323650715 -0.9238795325112943 8.44722336113282e-16
  outer loop
    vertex 30.473697623323144 36.551962726384936 23.143094014699145
    vertex 30.738996673710346 36.4420722616299 27.687200000000004
    vertex 30.473697623323122 36.551962726384986 27.687200000000004
  endloop
endfacet
facet normal -0.13052619222012546 -0.9914448613738007 2.448957170333873e-16
  outer loop
    vertex 30.473697623323122 36.551962726384986 27.687200000000004
    vertex 30.18899667371038 36.58944431746702 23.166838009049787
    vertex 30.473697623323144 36.551962726384936 23.143094014699145
  endloop
endfacet
facet normal -0.13052619222012546 -0.9914448613738007 2.448957170333873e-16
  outer loop
    vertex 30.18899667371038 36.58944431746702 23.166838009049787
    vertex 30.473697623323122 36.551962726384986 27.687200000000004
    vertex 30.188996673710356 36.58944431746701 27.687200000000004
  endloop
endfacet
facet normal 0.13052619222000222 -0.991444861373817 -1.149895849447095e-16
  outer loop
    vertex 30.18899667371038 36.58944431746702 23.166838009049787
    vertex 29.904295724097548 36.55196272638499 27.687200000000004
    vertex 29.90429572409757 36.55196272638501 23.143094014699184
  endloop
endfacet
facet normal 0.13052619222000222 -0.991444861373817 -1.149895849447095e-16
  outer loop
    vertex 29.904295724097548 36.55196272638499 27.687200000000004
    vertex 30.18899667371038 36.58944431746702 23.166838009049787
    vertex 30.188996673710356 36.58944431746701 27.687200000000004
  endloop
endfacet
facet normal 0.3826834323650696 -0.9238795325112951 7.703810173982397e-17
  outer loop
    vertex 29.90429572409757 36.55196272638501 23.143094014699184
    vertex 29.638996673710324 36.44207226162992 27.687200000000004
    vertex 29.63899667371037 36.442072261629924 23.073480145623584
  endloop
endfacet
facet normal 0.3826834323650696 -0.9238795325112951 7.703810173982397e-17
  outer loop
    vertex 29.638996673710324 36.44207226162992 27.687200000000004
    vertex 29.90429572409757 36.55196272638501 23.143094014699184
    vertex 29.904295724097548 36.55196272638499 27.687200000000004
  endloop
endfacet
facet normal 0.6087614290089323 -0.7933533402910727 5.444600130624342e-15
  outer loop
    vertex 29.63899667371037 36.442072261629924 23.073480145623584
    vertex 29.41117921440514 36.267261776772244 27.687200000000004
    vertex 29.41117921440532 36.26726177677208 22.962740471957964
  endloop
endfacet
facet normal 0.6087614290089323 -0.7933533402910727 5.444600130624342e-15
  outer loop
    vertex 29.41117921440514 36.267261776772244 27.687200000000004
    vertex 29.63899667371037 36.442072261629924 23.073480145623584
    vertex 29.638996673710324 36.44207226162992 27.687200000000004
  endloop
endfacet
facet normal 3.8091842010491206e-17 7.700102148414455e-17 1.0
  outer loop
    vertex 28.463996673710344 18.689444317467025 24.687200000000008
    vertex 18.463996673710344 20.68944431746703 24.687200000000008
    vertex 18.463996673710344 18.68944431746702 24.687200000000008
  endloop
endfacet
facet normal 3.8091842010491206e-17 7.700102148414455e-17 1.0
  outer loop
    vertex 35.83899667371036 18.68944431746702 24.687200000000008
    vertex 32.838996673710355 20.68944431746703 24.687200000000008
    vertex 32.838996673710355 18.689444317467025 24.687200000000008
  endloop
endfacet
facet normal 3.8091842010491206e-17 7.700102148414455e-17 1.0
  outer loop
    vertex 32.838996673710355 20.68944431746703 24.687200000000008
    vertex 35.83899667371036 18.68944431746702 24.687200000000008
    vertex 32.83899667371036 32.98944431746702 24.687200000000008
  endloop
endfacet
facet normal 3.8091842010491206e-17 7.700102148414455e-17 1.0
  outer loop
    vertex 32.83899667371036 32.98944431746702 24.687200000000008
    vertex 35.83899667371036 18.68944431746702 24.687200000000008
    vertex 32.83899667371036 37.98944431746702 24.687200000000008
  endloop
endfacet
facet normal 3.8091842010491206e-17 7.700102148414455e-17 1.0
  outer loop
    vertex 32.83899667371036 37.98944431746702 24.687200000000008
    vertex 35.83899667371036 18.68944431746702 24.687200000000008
    vertex 35.83899667371036 37.98944431746702 24.687200000000008
  endloop
endfacet
facet normal 3.8091842010491206e-17 7.700102148414455e-17 1.0
  outer loop
    vertex 18.463996673710344 20.68944431746703 24.687200000000008
    vertex 13.088996896277688 32.98979308767796 24.686631234660442
    vertex 13.088996896277688 20.689793087677966 24.686631234660442
  endloop
endfacet
facet normal 3.8091842010491206e-17 7.700102148414455e-17 1.0
  outer loop
    vertex 13.088996896277688 32.98979308767796 24.686631234660442
    vertex 18.463996673710344 20.68944431746703 24.687200000000008
    vertex 32.83899667371036 32.98944431746702 24.687200000000008
  endloop
endfacet
facet normal 3.8091842010491206e-17 7.700102148414455e-17 1.0
  outer loop
    vertex 32.83899667371036 32.98944431746702 24.687200000000008
    vertex 18.463996673710344 20.68944431746703 24.687200000000008
    vertex 28.463996673710344 20.68944431746703 24.687200000000008
  endloop
endfacet
facet normal 3.8091842010491206e-17 7.700102148414455e-17 1.0
  outer loop
    vertex 28.463996673710344 20.68944431746703 24.687200000000008
    vertex 18.463996673710344 20.68944431746703 24.687200000000008
    vertex 28.463996673710344 18.689444317467025 24.687200000000008
  endloop
endfacet
facet normal 3.8091842010491206e-17 7.700102148414455e-17 1.0
  outer loop
    vertex 32.83899667371036 32.98944431746702 24.687200000000008
    vertex 28.463996673710344 20.68944431746703 24.687200000000008
    vertex 32.838996673710355 20.68944431746703 24.687200000000008
  endloop
endfacet
facet normal -0.41158672242649735 -1.8106625406044155e-16 -0.9113705996586755
  outer loop
    vertex 23.58899667371037 27.939444317467014 17.687200000000004
    vertex 14.088996673710328 20.495895930370242 21.977522580645168
    vertex 14.088996673710328 34.71202496262832 21.977522580645168
  endloop
endfacet
facet normal -0.41158672242649735 -1.8106625406044155e-16 -0.9113705996586755
  outer loop
    vertex 14.088996673710328 20.495895930370242 21.977522580645168
    vertex 23.58899667371037 27.939444317467014 17.687200000000004
    vertex 23.588923884018808 26.181680223390913 17.687232872763932
  endloop
endfacet
facet normal -0.41158672242649735 -1.8106625406044155e-16 -0.9113705996586755
  outer loop
    vertex 23.588923884018808 26.181680223390913 17.687232872763932
    vertex 23.58899667371037 27.939444317467014 17.687200000000004
    vertex 23.592935539200038 26.703769580024577 17.685421157520793
  endloop
endfacet
facet normal -0.41158672242649735 -1.8106625406044155e-16 -0.9113705996586755
  outer loop
    vertex 23.58899667371037 24.93944431746702 17.687200000000004
    vertex 14.088996673710328 20.495895930370242 21.977522580645168
    vertex 23.588923884018808 26.181680223390913 17.687232872763932
  endloop
endfacet
facet normal 6.974979642530143e-17 0.5351430166282042 -0.8447614762488083
  outer loop
    vertex 14.088996673710328 34.71202496262832 21.977522580645168
    vertex 15.411179214405166 34.71162685816179 21.97727038777046
    vertex 23.58899667371037 27.939444317467014 17.687200000000004
  endloop
endfacet
facet normal 6.974979642530143e-17 0.5351430166282042 -0.8447614762488083
  outer loop
    vertex 15.411179214405166 34.71162685816179 21.97727038777046
    vertex 14.088996673710328 34.71202496262832 21.977522580645168
    vertex 15.23636872954747 34.93944431746699 22.121589140271478
  endloop
endfacet
facet normal 6.974979642530143e-17 0.5351430166282042 -0.8447614762488083
  outer loop
    vertex 15.23636872954747 34.93944431746699 22.121589140271478
    vertex 14.088996673710328 34.71202496262832 21.977522580645168
    vertex 15.126478264792379 35.20474336785423 22.289651887123124
  endloop
endfacet
facet normal 6.974979642530143e-17 0.5351430166282042 -0.8447614762488083
  outer loop
    vertex 15.126478264792379 35.20474336785423 22.289651887123124
    vertex 14.088996673710328 34.71202496262832 21.977522580645168
    vertex 15.08899667371034 35.48944431746701 22.470005429864255
  endloop
endfacet
facet normal 6.974979642530143e-17 0.5351430166282042 -0.8447614762488083
  outer loop
    vertex 23.58899667371037 27.939444317467014 17.687200000000004
    vertex 15.411179214405166 34.71162685816179 21.97727038777046
    vertex 15.638996673710373 34.536816373304084 21.866530714104954
  endloop
endfacet
facet normal 6.974979642530143e-17 0.5351430166282042 -0.8447614762488083
  outer loop
    vertex 23.58899667371037 27.939444317467014 17.687200000000004
    vertex 15.638996673710373 34.536816373304084 21.866530714104954
    vertex 15.904295724097642 34.42692590854904 21.796916845029344
  endloop
endfacet
facet normal 6.974979642530143e-17 0.5351430166282042 -0.8447614762488083
  outer loop
    vertex 23.58899667371037 27.939444317467014 17.687200000000004
    vertex 15.904295724097642 34.42692590854904 21.796916845029344
    vertex 16.188996673710406 34.389444317467024 21.773172850678744
  endloop
endfacet
facet normal 6.974979642530143e-17 0.5351430166282042 -0.8447614762488083
  outer loop
    vertex 23.58899667371037 27.939444317467014 17.687200000000004
    vertex 16.188996673710406 34.389444317467024 21.773172850678744
    vertex 16.473697623323172 34.42692590854909 21.79691684502937
  endloop
endfacet
facet normal 6.974979642530143e-17 0.5351430166282042 -0.8447614762488083
  outer loop
    vertex 23.58899667371037 27.939444317467014 17.687200000000004
    vertex 16.473697623323172 34.42692590854909 21.79691684502937
    vertex 16.73899667371035 34.536816373304156 21.86653071410497
  endloop
endfacet
facet normal 6.974979642530143e-17 0.5351430166282042 -0.8447614762488083
  outer loop
    vertex 23.58899667371037 27.939444317467014 17.687200000000004
    vertex 16.73899667371035 34.536816373304156 21.86653071410497
    vertex 16.96681413301558 34.711626858161864 21.977270387770485
  endloop
endfacet
facet normal 6.974979642530143e-17 0.5351430166282042 -0.8447614762488083
  outer loop
    vertex 23.58899667371037 27.939444317467014 17.687200000000004
    vertex 16.96681413301558 34.711626858161864 21.977270387770485
    vertex 17.14162461787323 34.93944431746706 22.121589140271514
  endloop
endfacet
facet normal 6.974979642530143e-17 0.5351430166282042 -0.8447614762488083
  outer loop
    vertex 23.58899667371037 27.939444317467014 17.687200000000004
    vertex 17.14162461787323 34.93944431746706 22.121589140271514
    vertex 17.25151508262832 35.204743367854306 22.28965188712317
  endloop
endfacet
facet normal 6.974979642530143e-17 0.5351430166282042 -0.8447614762488083
  outer loop
    vertex 23.58899667371037 27.939444317467014 17.687200000000004
    vertex 17.25151508262832 35.204743367854306 22.28965188712317
    vertex 17.288996673710336 35.489444317467054 22.470005429864276
  endloop
endfacet
facet normal 6.974979642530143e-17 0.5351430166282042 -0.8447614762488083
  outer loop
    vertex 13.088996896277688 38.98979308767796 24.686631234660442
    vertex 15.638996673710283 36.44207226162994 23.073480145623563
    vertex 13.088996896277688 34.71237373283926 21.976953815305603
  endloop
endfacet
facet normal 6.974979642530143e-17 0.5351430166282042 -0.8447614762488083
  outer loop
    vertex 15.638996673710283 36.44207226162994 23.073480145623563
    vertex 13.088996896277688 38.98979308767796 24.686631234660442
    vertex 15.904295724097619 36.55196272638487 23.1430940146991
  endloop
endfacet
facet normal 6.974979642530143e-17 0.5351430166282042 -0.8447614762488083
  outer loop
    vertex 15.904295724097619 36.55196272638487 23.1430940146991
    vertex 13.088996896277688 38.98979308767796 24.686631234660442
    vertex 16.18899667371034 36.589444317467 23.16683800904977
  endloop
endfacet
facet normal 6.974979642530143e-17 0.5351430166282042 -0.8447614762488083
  outer loop
    vertex 16.18899667371034 36.589444317467 23.16683800904977
    vertex 13.088996896277688 38.98979308767796 24.686631234660442
    vertex 36.838996673710355 38.98944431746702 24.687200000000008
  endloop
endfacet
facet normal 6.974979642530143e-17 0.5351430166282042 -0.8447614762488083
  outer loop
    vertex 13.088996896277688 34.71237373283926 21.976953815305603
    vertex 15.638996673710283 36.44207226162994 23.073480145623563
    vertex 15.41117921440512 36.267261776772195 22.962740471958046
  endloop
endfacet
facet normal 6.974979642530143e-17 0.5351430166282042 -0.8447614762488083
  outer loop
    vertex 13.088996896277688 34.71237373283926 21.976953815305603
    vertex 15.41117921440512 36.267261776772195 22.962740471958046
    vertex 14.088996673710328 34.71202496262832 21.977522580645168
  endloop
endfacet
facet normal 6.974979642530143e-17 0.5351430166282042 -0.8447614762488083
  outer loop
    vertex 14.088996673710328 34.71202496262832 21.977522580645168
    vertex 15.41117921440512 36.267261776772195 22.962740471958046
    vertex 15.236368729547449 36.03944431746699 22.818421719457003
  endloop
endfacet
facet normal 6.974979642530143e-17 0.5351430166282042 -0.8447614762488083
  outer loop
    vertex 14.088996673710328 34.71202496262832 21.977522580645168
    vertex 15.236368729547449 36.03944431746699 22.818421719457003
    vertex 15.126478264792356 35.77414526707977 22.650358972605357
  endloop
endfacet
facet normal 6.974979642530143e-17 0.5351430166282042 -0.8447614762488083
  outer loop
    vertex 14.088996673710328 34.71202496262832 21.977522580645168
    vertex 15.126478264792356 35.77414526707977 22.650358972605357
    vertex 15.08899667371034 35.48944431746701 22.470005429864255
  endloop
endfacet
facet normal 6.974979642530143e-17 0.5351430166282042 -0.8447614762488083
  outer loop
    vertex 16.18899667371034 36.589444317467 23.16683800904977
    vertex 36.838996673710355 38.98944431746702 24.687200000000008
    vertex 16.47369762332308 36.551962726384986 23.143094014699177
  endloop
endfacet
facet normal 6.974979642530143e-17 0.5351430166282042 -0.8447614762488083
  outer loop
    vertex 16.47369762332308 36.551962726384986 23.143094014699177
    vertex 36.838996673710355 38.98944431746702 24.687200000000008
    vertex 16.738996673710304 36.4420722616299 23.073480145623563
  endloop
endfacet
facet normal 6.974979642530143e-17 0.5351430166282042 -0.8447614762488083
  outer loop
    vertex 16.738996673710304 36.4420722616299 23.073480145623563
    vertex 36.838996673710355 38.98944431746702 24.687200000000008
    vertex 16.96681413301549 36.26726177677225 22.962740471958078
  endloop
endfacet
facet normal 6.974979642530143e-17 0.5351430166282042 -0.8447614762488083
  outer loop
    vertex 16.96681413301549 36.26726177677225 22.962740471958078
    vertex 36.838996673710355 38.98944431746702 24.687200000000008
    vertex 17.14162461787323 36.039444317467044 22.81842171945704
  endloop
endfacet
facet normal 6.974979642530143e-17 0.5351430166282042 -0.8447614762488083
  outer loop
    vertex 17.14162461787323 36.039444317467044 22.81842171945704
    vertex 36.838996673710355 38.98944431746702 24.687200000000008
    vertex 17.2515150826283 35.77414526707979 22.650358972605382
  endloop
endfacet
facet normal 6.974979642530143e-17 0.5351430166282042 -0.8447614762488083
  outer loop
    vertex 17.2515150826283 35.77414526707979 22.650358972605382
    vertex 36.838996673710355 38.98944431746702 24.687200000000008
    vertex 17.288996673710336 35.489444317467054 22.470005429864276
  endloop
endfacet
facet normal 6.974979642530143e-17 0.5351430166282042 -0.8447614762488083
  outer loop
    vertex 17.288996673710336 35.489444317467054 22.470005429864276
    vertex 36.838996673710355 38.98944431746702 24.687200000000008
    vertex 29.90429572409757 36.55196272638501 23.143094014699184
  endloop
endfacet
facet normal 6.974979642530143e-17 0.5351430166282042 -0.8447614762488083
  outer loop
    vertex 17.288996673710336 35.489444317467054 22.470005429864276
    vertex 29.90429572409757 36.55196272638501 23.143094014699184
    vertex 29.63899667371037 36.442072261629924 23.073480145623584
  endloop
endfacet
facet normal 6.974979642530143e-17 0.5351430166282042 -0.8447614762488083
  outer loop
    vertex 17.288996673710336 35.489444317467054 22.470005429864276
    vertex 29.63899667371037 36.442072261629924 23.073480145623584
    vertex 29.41117921440532 36.26726177677208 22.962740471957964
  endloop
endfacet
facet normal 6.974979642530143e-17 0.5351430166282042 -0.8447614762488083
  outer loop
    vertex 17.288996673710336 35.489444317467054 22.470005429864276
    vertex 29.41117921440532 36.26726177677208 22.962740471957964
    vertex 29.23636872954765 36.039444317466895 22.818421719456946
  endloop
endfacet
facet normal 6.974979642530143e-17 0.5351430166282042 -0.8447614762488083
  outer loop
    vertex 17.288996673710336 35.489444317467054 22.470005429864276
    vertex 29.23636872954765 36.039444317466895 22.818421719456946
    vertex 23.58899667371037 27.939444317467014 17.687200000000004
  endloop
endfacet
facet normal 6.974979642530143e-17 0.5351430166282042 -0.8447614762488083
  outer loop
    vertex 23.58899667371037 27.939444317467014 17.687200000000004
    vertex 29.23636872954765 36.039444317466895 22.818421719456946
    vertex 29.126478264792127 35.77414526707988 22.65035897260544
  endloop
endfacet
facet normal 6.974979642530143e-17 0.5351430166282042 -0.8447614762488083
  outer loop
    vertex 23.58899667371037 27.939444317467014 17.687200000000004
    vertex 29.126478264792127 35.77414526707988 22.65035897260544
    vertex 27.588996673710362 27.939444317467014 17.687200000000004
  endloop
endfacet
facet normal 6.974979642530143e-17 0.5351430166282042 -0.8447614762488083
  outer loop
    vertex 27.588996673710362 27.939444317467014 17.687200000000004
    vertex 29.126478264792127 35.77414526707988 22.65035897260544
    vertex 29.088996673710337 35.48944431746699 22.47000542986424
  endloop
endfacet
facet normal 6.974979642530143e-17 0.5351430166282042 -0.8447614762488083
  outer loop
    vertex 29.90429572409757 36.55196272638501 23.143094014699184
    vertex 36.838996673710355 38.98944431746702 24.687200000000008
    vertex 30.18899667371038 36.58944431746702 23.166838009049787
  endloop
endfacet
facet normal 6.974979642530143e-17 0.5351430166282042 -0.8447614762488083
  outer loop
    vertex 30.18899667371038 36.58944431746702 23.166838009049787
    vertex 36.838996673710355 38.98944431746702 24.687200000000008
    vertex 30.473697623323144 36.551962726384936 23.143094014699145
  endloop
endfacet
facet normal 6.974979642530143e-17 0.5351430166282042 -0.8447614762488083
  outer loop
    vertex 30.473697623323144 36.551962726384936 23.143094014699145
    vertex 36.838996673710355 38.98944431746702 24.687200000000008
    vertex 30.738996673710368 36.442072261629846 23.073480145623517
  endloop
endfacet
facet normal 6.974979642530143e-17 0.5351430166282042 -0.8447614762488083
  outer loop
    vertex 30.738996673710368 36.442072261629846 23.073480145623517
    vertex 36.838996673710355 38.98944431746702 24.687200000000008
    vertex 30.966814133015532 36.26726177677223 22.962740471958057
  endloop
endfacet
facet normal 6.974979642530143e-17 0.5351430166282042 -0.8447614762488083
  outer loop
    vertex 30.966814133015532 36.26726177677223 22.962740471958057
    vertex 36.838996673710355 38.98944431746702 24.687200000000008
    vertex 31.1416246178732 36.03944431746702 22.818421719457014
  endloop
endfacet
facet normal 6.974979642530143e-17 0.5351430166282042 -0.8447614762488083
  outer loop
    vertex 31.1416246178732 36.03944431746702 22.818421719457014
    vertex 36.838996673710355 38.98944431746702 24.687200000000008
    vertex 31.251515082628273 35.774145267079824 22.650358972605403
  endloop
endfacet
facet normal 6.974979642530143e-17 0.5351430166282042 -0.8447614762488083
  outer loop
    vertex 31.251515082628273 35.774145267079824 22.650358972605403
    vertex 36.838996673710355 38.98944431746702 24.687200000000008
    vertex 31.288996673710333 35.48944431746703 22.470005429864266
  endloop
endfacet
facet normal 6.974979642530143e-17 0.5351430166282042 -0.8447614762488083
  outer loop
    vertex 27.588996673710362 27.939444317467014 17.687200000000004
    vertex 30.738996673710368 34.53681637330408 21.866530714104933
    vertex 36.838996673710355 38.98944431746702 24.687200000000008
  endloop
endfacet
facet normal 6.974979642530143e-17 0.5351430166282042 -0.8447614762488083
  outer loop
    vertex 30.738996673710368 34.53681637330408 21.866530714104933
    vertex 27.588996673710362 27.939444317467014 17.687200000000004
    vertex 30.473697623323122 34.42692590854899 21.796916845029305
  endloop
endfacet
facet normal 6.974979642530143e-17 0.5351430166282042 -0.8447614762488083
  outer loop
    vertex 30.473697623323122 34.42692590854899 21.796916845029305
    vertex 27.588996673710362 27.939444317467014 17.687200000000004
    vertex 30.188996673710335 34.38944431746704 21.773172850678744
  endloop
endfacet
facet normal 6.974979642530143e-17 0.5351430166282042 -0.8447614762488083
  outer loop
    vertex 30.188996673710335 34.38944431746704 21.773172850678744
    vertex 27.588996673710362 27.939444317467014 17.687200000000004
    vertex 29.904295724097683 34.42692590854928 21.796916845029486
  endloop
endfacet
facet normal 6.974979642530143e-17 0.5351430166282042 -0.8447614762488083
  outer loop
    vertex 29.904295724097683 34.42692590854928 21.796916845029486
    vertex 27.588996673710362 27.939444317467014 17.687200000000004
    vertex 29.63899667371046 34.53681637330437 21.866530714105107
  endloop
endfacet
facet normal 6.974979642530143e-17 0.5351430166282042 -0.8447614762488083
  outer loop
    vertex 29.63899667371046 34.53681637330437 21.866530714105107
    vertex 27.588996673710362 27.939444317467014 17.687200000000004
    vertex 29.41117921440514 34.71162685816183 21.977270387770474
  endloop
endfacet
facet normal 6.974979642530143e-17 0.5351430166282042 -0.8447614762488083
  outer loop
    vertex 29.41117921440514 34.71162685816183 21.977270387770474
    vertex 27.588996673710362 27.939444317467014 17.687200000000004
    vertex 29.23636872954747 34.939444317467014 22.121589140271492
  endloop
endfacet
facet normal 6.974979642530143e-17 0.5351430166282042 -0.8447614762488083
  outer loop
    vertex 29.23636872954747 34.939444317467014 22.121589140271492
    vertex 27.588996673710362 27.939444317467014 17.687200000000004
    vertex 29.126478264792375 35.204743367854235 22.289651887123124
  endloop
endfacet
facet normal 6.974979642530143e-17 0.5351430166282042 -0.8447614762488083
  outer loop
    vertex 29.126478264792375 35.204743367854235 22.289651887123124
    vertex 27.588996673710362 27.939444317467014 17.687200000000004
    vertex 29.088996673710337 35.48944431746699 22.47000542986424
  endloop
endfacet
facet normal 6.974979642530143e-17 0.5351430166282042 -0.8447614762488083
  outer loop
    vertex 36.838996673710355 38.98944431746702 24.687200000000008
    vertex 30.738996673710368 34.53681637330408 21.866530714104933
    vertex 30.966814133015532 34.71162685816183 21.977270387770474
  endloop
endfacet
facet normal 6.974979642530143e-17 0.5351430166282042 -0.8447614762488083
  outer loop
    vertex 36.838996673710355 38.98944431746702 24.687200000000008
    vertex 30.966814133015532 34.71162685816183 21.977270387770474
    vertex 31.141624617873248 34.93944431746706 22.121589140271524
  endloop
endfacet
facet normal 6.974979642530143e-17 0.5351430166282042 -0.8447614762488083
  outer loop
    vertex 36.838996673710355 38.98944431746702 24.687200000000008
    vertex 31.141624617873248 34.93944431746706 22.121589140271524
    vertex 31.25151508262832 35.204743367854256 22.289651887123135
  endloop
endfacet
facet normal 6.974979642530143e-17 0.5351430166282042 -0.8447614762488083
  outer loop
    vertex 36.838996673710355 38.98944431746702 24.687200000000008
    vertex 31.25151508262832 35.204743367854256 22.289651887123135
    vertex 31.288996673710333 35.48944431746703 22.470005429864266
  endloop
endfacet
facet normal 0.0 1.0 0.0
  outer loop
    vertex 13.088996896277688 38.98979308767796 29.186631234660442
    vertex 36.838996673710355 38.98944431746702 24.687200000000008
    vertex 13.088996896277688 38.98979308767796 24.686631234660442
  endloop
endfacet
facet normal 0.0 1.0 0.0
  outer loop
    vertex 36.838996673710355 38.98944431746702 24.687200000000008
    vertex 13.088996896277688 38.98979308767796 29.186631234660442
    vertex 36.838996673710355 38.98944431746702 29.187200000000008
  endloop
endfacet
facet normal 0.0 1.0 0.0
  outer loop
    vertex 36.838996673710355 38.98944431746702 29.187200000000008
    vertex 13.088996896277688 38.98979308767796 29.186631234660442
    vertex 35.83899667371036 38.98944431746702 29.187200000000008
  endloop
endfacet
facet normal 1.0 0.0 0.0
  outer loop
    vertex 36.838996673710355 38.98944431746702 24.687200000000008
    vertex 36.838996673710355 17.689444317467025 29.187200000000008
    vertex 36.838996673710355 17.689444317467025 24.687200000000008
  endloop
endfacet
facet normal 1.0 0.0 0.0
  outer loop
    vertex 36.838996673710355 17.689444317467025 29.187200000000008
    vertex 36.838996673710355 38.98944431746702 24.687200000000008
    vertex 36.838996673710355 38.98944431746702 29.187200000000008
  endloop
endfacet
facet normal 0.0 -1.0 0.0
  outer loop
    vertex 36.838996673710355 17.689444317467025 24.687200000000008
    vertex 13.076264896277687 17.689793087677963 29.186631234660442
    vertex 13.076264896277687 17.689793087677963 24.686631234660442
  endloop
endfacet
facet normal 0.0 -1.0 0.0
  outer loop
    vertex 13.076264896277687 17.689793087677963 29.186631234660442
    vertex 36.838996673710355 17.689444317467025 24.687200000000008
    vertex 36.838996673710355 17.689444317467025 29.187200000000008
  endloop
endfacet
facet normal 0.0 -1.0 0.0
  outer loop
    vertex 35.83899667371036 37.98944431746702 29.187200000000008
    vertex 32.83899667371036 37.98944431746702 24.687200000000008
    vertex 35.83899667371036 37.98944431746702 24.687200000000008
  endloop
endfacet
facet normal 0.0 -1.0 0.0
  outer loop
    vertex 32.83899667371036 37.98944431746702 24.687200000000008
    vertex 35.83899667371036 37.98944431746702 29.187200000000008
    vertex 32.83899667371036 37.98944431746702 27.687200000000004
  endloop
endfacet
facet normal 0.0 -1.0 0.0
  outer loop
    vertex 32.83899667371036 37.98944431746702 27.687200000000004
    vertex 35.83899667371036 37.98944431746702 29.187200000000008
    vertex 13.088996896277688 37.98979308767796 29.186631234660442
  endloop
endfacet
facet normal 0.0 -1.0 0.0
  outer loop
    vertex 13.088996896277688 37.98979308767796 29.186631234660442
    vertex 13.088996896277688 37.98979308767796 27.68663123466044
    vertex 32.83899667371036 37.98944431746702 27.687200000000004
  endloop
endfacet
facet normal 0.0 0.0 1.0
  outer loop
    vertex 36.838996673710355 17.689444317467025 29.187200000000008
    vertex 13.076264896277687 18.68979308767796 29.186631234660442
    vertex 13.076264896277687 17.689793087677963 29.186631234660442
  endloop
endfacet
facet normal 0.0 0.0 1.0
  outer loop
    vertex 13.076264896277687 18.68979308767796 29.186631234660442
    vertex 36.838996673710355 17.689444317467025 29.187200000000008
    vertex 35.83899667371036 18.68944431746702 29.187200000000008
  endloop
endfacet
facet normal 0.0 0.0 1.0
  outer loop
    vertex 35.83899667371036 18.68944431746702 29.187200000000008
    vertex 36.838996673710355 17.689444317467025 29.187200000000008
    vertex 35.83899667371036 37.98944431746702 29.187200000000008
  endloop
endfacet
facet normal 0.0 0.0 1.0
  outer loop
    vertex 35.83899667371036 37.98944431746702 29.187200000000008
    vertex 36.838996673710355 17.689444317467025 29.187200000000008
    vertex 35.83899667371036 38.98944431746702 29.187200000000008
  endloop
endfacet
facet normal 0.0 0.0 1.0
  outer loop
    vertex 35.83899667371036 38.98944431746702 29.187200000000008
    vertex 36.838996673710355 17.689444317467025 29.187200000000008
    vertex 36.838996673710355 38.98944431746702 29.187200000000008
  endloop
endfacet
facet normal 0.0 0.0 1.0
  outer loop
    vertex 35.83899667371036 37.98944431746702 29.187200000000008
    vertex 13.088996896277688 38.98979308767796 29.186631234660442
    vertex 13.088996896277688 37.98979308767796 29.186631234660442
  endloop
endfacet
facet normal 0.0 0.0 1.0
  outer loop
    vertex 13.088996896277688 38.98979308767796 29.186631234660442
    vertex 35.83899667371036 37.98944431746702 29.187200000000008
    vertex 35.83899667371036 38.98944431746702 29.187200000000008
  endloop
endfacet
facet normal 0.0 0.0 1.0
  outer loop
    vertex 13.088996896277688 32.98979308767796 27.68663123466044
    vertex 15.236368729547449 34.939444317467 27.687200000000004
    vertex 13.088996896277688 37.98979308767796 27.68663123466044
  endloop
endfacet
facet normal 0.0 0.0 1.0
  outer loop
    vertex 15.236368729547449 34.939444317467 27.687200000000004
    vertex 13.088996896277688 32.98979308767796 27.68663123466044
    vertex 15.411179214405166 34.71162685816179 27.687200000000004
  endloop
endfacet
facet normal 0.0 0.0 1.0
  outer loop
    vertex 15.411179214405166 34.71162685816179 27.687200000000004
    vertex 13.088996896277688 32.98979308767796 27.68663123466044
    vertex 15.638996673710373 34.53681637330412 27.687200000000004
  endloop
endfacet
facet normal 0.0 0.0 1.0
  outer loop
    vertex 15.638996673710373 34.53681637330412 27.687200000000004
    vertex 13.088996896277688 32.98979308767796 27.68663123466044
    vertex 15.904295724097619 34.42692590854904 27.687200000000004
  endloop
endfacet
facet normal 0.0 0.0 1.0
  outer loop
    vertex 15.904295724097619 34.42692590854904 27.687200000000004
    vertex 13.088996896277688 32.98979308767796 27.68663123466044
    vertex 16.188996673710385 34.389444317467024 27.687200000000004
  endloop
endfacet
facet normal 0.0 0.0 1.0
  outer loop
    vertex 16.188996673710385 34.389444317467024 27.687200000000004
    vertex 13.088996896277688 32.98979308767796 27.68663123466044
    vertex 32.83899667371036 32.98944431746702 27.687200000000004
  endloop
endfacet
facet normal 0.0 0.0 1.0
  outer loop
    vertex 13.088996896277688 37.98979308767796 27.68663123466044
    vertex 15.236368729547449 34.939444317467 27.687200000000004
    vertex 15.126478264792379 35.204743367854235 27.687200000000004
  endloop
endfacet
facet normal 0.0 0.0 1.0
  outer loop
    vertex 13.088996896277688 37.98979308767796 27.68663123466044
    vertex 15.126478264792379 35.204743367854235 27.687200000000004
    vertex 15.08899667371034 35.489444317467004 27.687200000000004
  endloop
endfacet
facet normal 0.0 0.0 1.0
  outer loop
    vertex 16.188996673710385 34.389444317467024 27.687200000000004
    vertex 32.83899667371036 32.98944431746702 27.687200000000004
    vertex 16.473697623323194 34.42692590854915 27.687200000000004
  endloop
endfacet
facet normal 0.0 0.0 1.0
  outer loop
    vertex 16.473697623323194 34.42692590854915 27.687200000000004
    vertex 32.83899667371036 32.98944431746702 27.687200000000004
    vertex 16.73899667371037 34.536816373304156 27.687200000000004
  endloop
endfacet
facet normal 0.0 0.0 1.0
  outer loop
    vertex 16.73899667371037 34.536816373304156 27.687200000000004
    vertex 32.83899667371036 32.98944431746702 27.687200000000004
    vertex 16.966814133015557 34.71162685816184 27.687200000000004
  endloop
endfacet
facet normal 0.0 0.0 1.0
  outer loop
    vertex 16.966814133015557 34.71162685816184 27.687200000000004
    vertex 32.83899667371036 32.98944431746702 27.687200000000004
    vertex 17.14162461787323 34.93944431746705 27.687200000000004
  endloop
endfacet
facet normal 0.0 0.0 1.0
  outer loop
    vertex 17.14162461787323 34.93944431746705 27.687200000000004
    vertex 32.83899667371036 32.98944431746702 27.687200000000004
    vertex 17.25151508262832 35.20474336785429 27.687200000000004
  endloop
endfacet
facet normal 0.0 0.0 1.0
  outer loop
    vertex 17.25151508262832 35.20474336785429 27.687200000000004
    vertex 32.83899667371036 32.98944431746702 27.687200000000004
    vertex 17.288996673710336 35.48944431746707 27.687200000000004
  endloop
endfacet
facet normal 0.0 0.0 1.0
  outer loop
    vertex 17.288996673710336 35.48944431746707 27.687200000000004
    vertex 32.83899667371036 32.98944431746702 27.687200000000004
    vertex 29.63899667371035 34.536816373304134 27.687200000000004
  endloop
endfacet
facet normal 0.0 0.0 1.0
  outer loop
    vertex 17.288996673710336 35.48944431746707 27.687200000000004
    vertex 29.63899667371035 34.536816373304134 27.687200000000004
    vertex 29.41117921440514 34.71162685816183 27.687200000000004
  endloop
endfacet
facet normal 0.0 0.0 1.0
  outer loop
    vertex 17.288996673710336 35.48944431746707 27.687200000000004
    vertex 29.41117921440514 34.71162685816183 27.687200000000004
    vertex 29.23636872954747 34.939444317467036 27.687200000000004
  endloop
endfacet
facet normal 0.0 0.0 1.0
  outer loop
    vertex 17.288996673710336 35.48944431746707 27.687200000000004
    vertex 29.23636872954747 34.939444317467036 27.687200000000004
    vertex 29.126478264792375 35.204743367854256 27.687200000000004
  endloop
endfacet
facet normal 0.0 0.0 1.0
  outer loop
    vertex 17.288996673710336 35.48944431746707 27.687200000000004
    vertex 29.126478264792375 35.204743367854256 27.687200000000004
    vertex 29.088996673710337 35.48944431746701 27.687200000000004
  endloop
endfacet
facet normal 0.0 0.0 1.0
  outer loop
    vertex 29.63899667371035 34.536816373304134 27.687200000000004
    vertex 32.83899667371036 32.98944431746702 27.687200000000004
    vertex 29.90429572409757 34.42692590854904 27.687200000000004
  endloop
endfacet
facet normal 0.0 0.0 1.0
  outer loop
    vertex 29.90429572409757 34.42692590854904 27.687200000000004
    vertex 32.83899667371036 32.98944431746702 27.687200000000004
    vertex 30.188996673710335 34.38944431746704 27.687200000000004
  endloop
endfacet
facet normal 0.0 0.0 1.0
  outer loop
    vertex 30.188996673710335 34.38944431746704 27.687200000000004
    vertex 32.83899667371036 32.98944431746702 27.687200000000004
    vertex 30.473697623323122 34.426925908549066 27.687200000000004
  endloop
endfacet
facet normal 0.0 0.0 1.0
  outer loop
    vertex 30.473697623323122 34.426925908549066 27.687200000000004
    vertex 32.83899667371036 32.98944431746702 27.687200000000004
    vertex 30.738996673710346 34.536816373304156 27.687200000000004
  endloop
endfacet
facet normal 0.0 0.0 1.0
  outer loop
    vertex 30.738996673710346 34.536816373304156 27.687200000000004
    vertex 32.83899667371036 32.98944431746702 27.687200000000004
    vertex 30.966814133015532 34.71162685816183 27.687200000000004
  endloop
endfacet
facet normal 0.0 0.0 1.0
  outer loop
    vertex 30.966814133015532 34.71162685816183 27.687200000000004
    vertex 32.83899667371036 32.98944431746702 27.687200000000004
    vertex 31.141624617873248 34.93944431746705 27.687200000000004
  endloop
endfacet
facet normal 0.0 0.0 1.0
  outer loop
    vertex 31.141624617873248 34.93944431746705 27.687200000000004
    vertex 32.83899667371036 32.98944431746702 27.687200000000004
    vertex 31.251515082628295 35.20474336785427 27.687200000000004
  endloop
endfacet
facet normal 0.0 0.0 1.0
  outer loop
    vertex 31.251515082628295 35.20474336785427 27.687200000000004
    vertex 32.83899667371036 32.98944431746702 27.687200000000004
    vertex 31.28899667371031 35.48944431746703 27.687200000000004
  endloop
endfacet
facet normal 0.0 0.0 1.0
  outer loop
    vertex 13.088996896277688 37.98979308767796 27.68663123466044
    vertex 16.18899667371034 36.58944431746702 27.687200000000004
    vertex 32.83899667371036 37.98944431746702 27.687200000000004
  endloop
endfacet
facet normal 0.0 0.0 1.0
  outer loop
    vertex 16.18899667371034 36.58944431746702 27.687200000000004
    vertex 13.088996896277688 37.98979308767796 27.68663123466044
    vertex 15.904295724097551 36.551962726384986 27.687200000000004
  endloop
endfacet
facet normal 0.0 0.0 1.0
  outer loop
    vertex 15.904295724097551 36.551962726384986 27.687200000000004
    vertex 13.088996896277688 37.98979308767796 27.68663123466044
    vertex 15.638996673710306 36.44207226162989 27.687200000000004
  endloop
endfacet
facet normal 0.0 0.0 1.0
  outer loop
    vertex 15.638996673710306 36.44207226162989 27.687200000000004
    vertex 13.088996896277688 37.98979308767796 27.68663123466044
    vertex 15.411179214405143 36.267261776772216 27.687200000000004
  endloop
endfacet
facet normal 0.0 0.0 1.0
  outer loop
    vertex 15.411179214405143 36.267261776772216 27.687200000000004
    vertex 13.088996896277688 37.98979308767796 27.68663123466044
    vertex 15.236368729547449 36.039444317467 27.687200000000004
  endloop
endfacet
facet normal 0.0 0.0 1.0
  outer loop
    vertex 15.236368729547449 36.039444317467 27.687200000000004
    vertex 13.088996896277688 37.98979308767796 27.68663123466044
    vertex 15.126478264792356 35.77414526707977 27.687200000000004
  endloop
endfacet
facet normal 0.0 0.0 1.0
  outer loop
    vertex 15.126478264792356 35.77414526707977 27.687200000000004
    vertex 13.088996896277688 37.98979308767796 27.68663123466044
    vertex 15.08899667371034 35.489444317467004 27.687200000000004
  endloop
endfacet
facet normal 0.0 0.0 1.0
  outer loop
    vertex 32.83899667371036 37.98944431746702 27.687200000000004
    vertex 16.18899667371034 36.58944431746702 27.687200000000004
    vertex 16.473697623323105 36.55196272638501 27.687200000000004
  endloop
endfacet
facet normal 0.0 0.0 1.0
  outer loop
    vertex 32.83899667371036 37.98944431746702 27.687200000000004
    vertex 16.473697623323105 36.55196272638501 27.687200000000004
    vertex 16.738996673710304 36.4420722616299 27.687200000000004
  endloop
endfacet
facet normal 0.0 0.0 1.0
  outer loop
    vertex 32.83899667371036 37.98944431746702 27.687200000000004
    vertex 16.738996673710304 36.4420722616299 27.687200000000004
    vertex 16.96681413301549 36.26726177677225 27.687200000000004
  endloop
endfacet
facet normal 0.0 0.0 1.0
  outer loop
    vertex 32.83899667371036 37.98944431746702 27.687200000000004
    vertex 16.96681413301549 36.26726177677225 27.687200000000004
    vertex 17.14162461787323 36.03944431746706 27.687200000000004
  endloop
endfacet
facet normal 0.0 0.0 1.0
  outer loop
    vertex 32.83899667371036 37.98944431746702 27.687200000000004
    vertex 17.14162461787323 36.03944431746706 27.687200000000004
    vertex 17.25151508262832 35.77414526707981 27.687200000000004
  endloop
endfacet
facet normal 0.0 0.0 1.0
  outer loop
    vertex 32.83899667371036 37.98944431746702 27.687200000000004
    vertex 17.25151508262832 35.77414526707981 27.687200000000004
    vertex 17.288996673710336 35.48944431746707 27.687200000000004
  endloop
endfacet
facet normal 0.0 0.0 1.0
  outer loop
    vertex 32.83899667371036 37.98944431746702 27.687200000000004
    vertex 17.288996673710336 35.48944431746707 27.687200000000004
    vertex 29.638996673710324 36.44207226162992 27.687200000000004
  endloop
endfacet
facet normal 0.0 0.0 1.0
  outer loop
    vertex 29.638996673710324 36.44207226162992 27.687200000000004
    vertex 17.288996673710336 35.48944431746707 27.687200000000004
    vertex 29.41117921440514 36.267261776772244 27.687200000000004
  endloop
endfacet
facet normal 0.0 0.0 1.0
  outer loop
    vertex 29.41117921440514 36.267261776772244 27.687200000000004
    vertex 17.288996673710336 35.48944431746707 27.687200000000004
    vertex 29.23636872954747 36.03944431746704 27.687200000000004
  endloop
endfacet
facet normal 0.0 0.0 1.0
  outer loop
    vertex 29.23636872954747 36.03944431746704 27.687200000000004
    vertex 17.288996673710336 35.48944431746707 27.687200000000004
    vertex 29.126478264792354 35.77414526707979 27.687200000000004
  endloop
endfacet
facet normal 0.0 0.0 1.0
  outer loop
    vertex 29.126478264792354 35.77414526707979 27.687200000000004
    vertex 17.288996673710336 35.48944431746707 27.687200000000004
    vertex 29.088996673710337 35.48944431746701 27.687200000000004
  endloop
endfacet
facet normal 0.0 0.0 1.0
  outer loop
    vertex 32.83899667371036 37.98944431746702 27.687200000000004
    vertex 29.638996673710324 36.44207226162992 27.687200000000004
    vertex 29.904295724097548 36.55196272638499 27.687200000000004
  endloop
endfacet
facet normal 0.0 0.0 1.0
  outer loop
    vertex 32.83899667371036 37.98944431746702 27.687200000000004
    vertex 29.904295724097548 36.55196272638499 27.687200000000004
    vertex 30.188996673710356 36.58944431746701 27.687200000000004
  endloop
endfacet
facet normal 0.0 0.0 1.0
  outer loop
    vertex 32.83899667371036 37.98944431746702 27.687200000000004
    vertex 30.188996673710356 36.58944431746701 27.687200000000004
    vertex 30.473697623323122 36.551962726384986 27.687200000000004
  endloop
endfacet
facet normal 0.0 0.0 1.0
  outer loop
    vertex 32.83899667371036 37.98944431746702 27.687200000000004
    vertex 30.473697623323122 36.551962726384986 27.687200000000004
    vertex 30.738996673710346 36.4420722616299 27.687200000000004
  endloop
endfacet
facet normal 0.0 0.0 1.0
  outer loop
    vertex 32.83899667371036 37.98944431746702 27.687200000000004
    vertex 30.738996673710346 36.4420722616299 27.687200000000004
    vertex 30.966814133015532 36.267261776772244 27.687200000000004
  endloop
endfacet
facet normal 0.0 0.0 1.0
  outer loop
    vertex 32.83899667371036 37.98944431746702 27.687200000000004
    vertex 30.966814133015532 36.267261776772244 27.687200000000004
    vertex 31.1416246178732 36.03944431746704 27.687200000000004
  endloop
endfacet
facet normal 0.0 0.0 1.0
  outer loop
    vertex 32.83899667371036 37.98944431746702 27.687200000000004
    vertex 31.1416246178732 36.03944431746704 27.687200000000004
    vertex 31.251515082628273 35.77414526707981 27.687200000000004
  endloop
endfacet
facet normal 0.0 0.0 1.0
  outer loop
    vertex 32.83899667371036 37.98944431746702 27.687200000000004
    vertex 31.251515082628273 35.77414526707981 27.687200000000004
    vertex 31.28899667371031 35.48944431746703 27.687200000000004
  endloop
endfacet
facet normal 0.0 0.0 1.0
  outer loop
    vertex 32.83899667371036 37.98944431746702 27.687200000000004
    vertex 31.28899667371031 35.48944431746703 27.687200000000004
    vertex 32.83899667371036 32.98944431746702 27.687200000000004
  endloop
endfacet
facet normal 1.0 0.0 0.0
  outer loop
    vertex 32.83899667371036 37.98944431746702 24.687200000000008
    vertex 32.83899667371036 32.98944431746702 27.687200000000004
    vertex 32.83899667371036 32.98944431746702 24.687200000000008
  endloop
endfacet
facet normal 1.0 0.0 0.0
  outer loop
    vertex 32.83899667371036 32.98944431746702 27.687200000000004
    vertex 32.83899667371036 37.98944431746702 24.687200000000008
    vertex 32.83899667371036 37.98944431746702 27.687200000000004
  endloop
endfacet
facet normal 0.0 -1.0 0.0
  outer loop
    vertex 32.83899667371036 32.98944431746702 24.687200000000008
    vertex 13.088996896277688 32.98979308767796 27.68663123466044
    vertex 13.088996896277688 32.98979308767796 24.686631234660442
  endloop
endfacet
facet normal 0.0 -1.0 0.0
  outer loop
    vertex 13.088996896277688 32.98979308767796 27.68663123466044
    vertex 32.83899667371036 32.98944431746702 24.687200000000008
    vertex 32.83899667371036 32.98944431746702 27.687200000000004
  endloop
endfacet
facet normal 0.0 0.0 1.0
  outer loop
    vertex 32.838996673710355 18.689444317467025 27.687200000000004
    vertex 28.463996673710344 20.68944431746703 27.687200000000004
    vertex 28.463996673710344 18.689444317467025 27.687200000000004
  endloop
endfacet
facet normal 0.0 0.0 1.0
  outer loop
    vertex 28.463996673710344 20.68944431746703 27.687200000000004
    vertex 32.838996673710355 18.689444317467025 27.687200000000004
    vertex 32.838996673710355 20.68944431746703 27.687200000000004
  endloop
endfacet
facet normal 1.0 0.0 0.0
  outer loop
    vertex 32.838996673710355 20.68944431746703 24.687200000000008
    vertex 32.838996673710355 18.689444317467025 27.687200000000004
    vertex 32.838996673710355 18.689444317467025 24.687200000000008
  endloop
endfacet
facet normal 1.0 0.0 0.0
  outer loop
    vertex 32.838996673710355 18.689444317467025 27.687200000000004
    vertex 32.838996673710355 20.68944431746703 24.687200000000008
    vertex 32.838996673710355 20.68944431746703 27.687200000000004
  endloop
endfacet
facet normal 0.0 1.0 0.0
  outer loop
    vertex 28.463996673710344 20.68944431746703 24.687200000000008
    vertex 32.838996673710355 20.68944431746703 27.687200000000004
    vertex 32.838996673710355 20.68944431746703 24.687200000000008
  endloop
endfacet
facet normal 0.0 1.0 0.0
  outer loop
    vertex 32.838996673710355 20.68944431746703 27.687200000000004
    vertex 28.463996673710344 20.68944431746703 24.687200000000008
    vertex 28.463996673710344 20.68944431746703 27.687200000000004
  endloop
endfacet
facet normal 0.0 0.0 1.0
  outer loop
    vertex 18.463996673710344 18.68944431746702 27.687200000000004
    vertex 13.088996896277688 20.689793087677966 27.68663123466044
    vertex 13.088996896277688 18.68979308767796 27.68663123466044
  endloop
endfacet
facet normal 0.0 0.0 1.0
  outer loop
    vertex 13.088996896277688 20.689793087677966 27.68663123466044
    vertex 18.463996673710344 18.68944431746702 27.687200000000004
    vertex 18.463996673710344 20.68944431746703 27.687200000000004
  endloop
endfacet
facet normal 1.0 0.0 0.0
  outer loop
    vertex 18.463996673710344 20.68944431746703 24.687200000000008
    vertex 18.463996673710344 18.68944431746702 27.687200000000004
    vertex 18.463996673710344 18.68944431746702 24.687200000000008
  endloop
endfacet
facet normal 1.0 0.0 0.0
  outer loop
    vertex 18.463996673710344 18.68944431746702 27.687200000000004
    vertex 18.463996673710344 20.68944431746703 24.687200000000008
    vertex 18.463996673710344 20.68944431746703 27.687200000000004
  endloop
endfacet
facet normal -1.0 0.0 0.0
  outer loop
    vertex 28.463996673710344 20.68944431746703 27.687200000000004
    vertex 28.463996673710344 18.689444317467025 24.687200000000008
    vertex 28.463996673710344 18.689444317467025 27.687200000000004
  endloop
endfacet
facet normal -1.0 0.0 0.0
  outer loop
    vertex 28.463996673710344 18.689444317467025 24.687200000000008
    vertex 28.463996673710344 20.68944431746703 27.687200000000004
    vertex 28.463996673710344 20.68944431746703 24.687200000000008
  endloop
endfacet
facet normal 0.0 1.0 0.0
  outer loop
    vertex 13.088996896277688 20.689793087677966 27.68663123466044
    vertex 18.463996673710344 20.68944431746703 24.687200000000008
    vertex 13.088996896277688 20.689793087677966 24.686631234660442
  endloop
endfacet
facet normal 0.0 1.0 0.0
  outer loop
    vertex 18.463996673710344 20.68944431746703 24.687200000000008
    vertex 13.088996896277688 20.689793087677966 27.68663123466044
    vertex 18.463996673710344 20.68944431746703 27.687200000000004
  endloop
endfacet
facet normal -6.930658951675129e-17 1.0 1.265194672488706e-16
  outer loop
    vertex 13.076264896277687 18.68979308767796 29.186631234660442
    vertex 18.463996673710344 18.68944431746702 27.687200000000004
    vertex 13.088996896277688 18.68979308767796 27.68663123466044
  endloop
endfacet
facet normal -6.930658951675129e-17 1.0 1.265194672488706e-16
  outer loop
    vertex 18.463996673710344 18.68944431746702 27.687200000000004
    vertex 13.076264896277687 18.68979308767796 29.186631234660442
    vertex 28.463996673710344 18.689444317467025 27.687200000000004
  endloop
endfacet
facet normal -6.930658951675129e-17 1.0 1.265194672488706e-16
  outer loop
    vertex 28.463996673710344 18.689444317467025 27.687200000000004
    vertex 13.076264896277687 18.68979308767796 29.186631234660442
    vertex 32.838996673710355 18.689444317467025 27.687200000000004
  endloop
endfacet
facet normal -6.930658951675129e-17 1.0 1.265194672488706e-16
  outer loop
    vertex 32.838996673710355 18.689444317467025 27.687200000000004
    vertex 35.83899667371036 18.68944431746702 24.687200000000008
    vertex 32.838996673710355 18.689444317467025 24.687200000000008
  endloop
endfacet
facet normal -6.930658951675129e-17 1.0 1.265194672488706e-16
  outer loop
    vertex 35.83899667371036 18.68944431746702 24.687200000000008
    vertex 32.838996673710355 18.689444317467025 27.687200000000004
    vertex 35.83899667371036 18.68944431746702 29.187200000000008
  endloop
endfacet
facet normal -6.930658951675129e-17 1.0 1.265194672488706e-16
  outer loop
    vertex 35.83899667371036 18.68944431746702 29.187200000000008
    vertex 32.838996673710355 18.689444317467025 27.687200000000004
    vertex 13.076264896277687 18.68979308767796 29.186631234660442
  endloop
endfacet
facet normal -6.930658951675129e-17 1.0 1.265194672488706e-16
  outer loop
    vertex 18.463996673710344 18.68944431746702 27.687200000000004
    vertex 28.463996673710344 18.689444317467025 24.687200000000008
    vertex 18.463996673710344 18.68944431746702 24.687200000000008
  endloop
endfacet
facet normal -6.930658951675129e-17 1.0 1.265194672488706e-16
  outer loop
    vertex 28.463996673710344 18.689444317467025 24.687200000000008
    vertex 18.463996673710344 18.68944431746702 27.687200000000004
    vertex 28.463996673710344 18.689444317467025 27.687200000000004
  endloop
endfacet
facet normal 9.37739844154642e-17 -0.6945945136995676 -0.7194014606174088
  outer loop
    vertex 13.088996896277688 20.49624470058118 21.976953815305606
    vertex 36.838996673710355 17.689444317467025 24.687200000000008
    vertex 13.076264896277687 17.689793087677963 24.686631234660442
  endloop
endfacet
facet normal 9.37739844154642e-17 -0.6945945136995676 -0.7194014606174088
  outer loop
    vertex 36.838996673710355 17.689444317467025 24.687200000000008
    vertex 13.088996896277688 20.49624470058118 21.976953815305606
    vertex 14.088996673710328 20.495895930370242 21.977522580645168
  endloop
endfacet
facet normal 9.37739844154642e-17 -0.6945945136995676 -0.7194014606174088
  outer loop
    vertex 36.838996673710355 17.689444317467025 24.687200000000008
    vertex 14.088996673710328 20.495895930370242 21.977522580645168
    vertex 23.58899667371037 24.93944431746702 17.687200000000004
  endloop
endfacet
facet normal 9.37739844154642e-17 -0.6945945136995676 -0.7194014606174088
  outer loop
    vertex 36.838996673710355 17.689444317467025 24.687200000000008
    vertex 23.58899667371037 24.93944431746702 17.687200000000004
    vertex 27.588996673710362 24.93944431746702 17.687200000000004
  endloop
endfacet
facet normal -0.9999997774326395 0.00034877021093755034 -0.0005687653395618057
  outer loop
    vertex 13.088996896277688 38.98979308767796 29.186631234660442
    vertex 13.088996896277688 37.98979308767796 27.68663123466044
    vertex 13.088996896277688 37.98979308767796 29.186631234660442
  endloop
endfacet
facet normal -0.9999997774326395 0.00034877021093755034 -0.0005687653395618057
  outer loop
    vertex 13.088996896277688 37.98979308767796 27.68663123466044
    vertex 13.088996896277688 32.98979308767796 24.686631234660442
    vertex 13.088996896277688 32.98979308767796 27.68663123466044
  endloop
endfacet
facet normal -0.9999997774326395 0.00034877021093755034 -0.0005687653395618057
  outer loop
    vertex 13.088996896277688 32.98979308767796 24.686631234660442
    vertex 13.088996896277688 37.98979308767796 27.68663123466044
    vertex 13.088996896277688 34.71237373283926 21.976953815305603
  endloop
endfacet
facet normal -0.9999997774326395 0.00034877021093755034 -0.0005687653395618057
  outer loop
    vertex 13.088996896277688 34.71237373283926 21.976953815305603
    vertex 13.088996896277688 37.98979308767796 27.68663123466044
    vertex 13.088996896277688 38.98979308767796 24.686631234660442
  endloop
endfacet
facet normal -0.9999997774326395 0.00034877021093755034 -0.0005687653395618057
  outer loop
    vertex 13.088996896277688 38.98979308767796 24.686631234660442
    vertex 13.088996896277688 37.98979308767796 27.68663123466044
    vertex 13.088996896277688 38.98979308767796 29.186631234660442
  endloop
endfacet
facet normal -0.9999997774326395 0.00034877021093755034 -0.0005687653395618057
  outer loop
    vertex 13.076264896277687 18.68979308767796 29.186631234660442
    vertex 13.076264896277687 17.689793087677963 24.686631234660442
    vertex 13.076264896277687 17.689793087677963 29.186631234660442
  endloop
endfacet
facet normal -0.9999997774326395 0.00034877021093755034 -0.0005687653395618057
  outer loop
    vertex 13.076264896277687 17.689793087677963 24.686631234660442
    vertex 13.076264896277687 18.68979308767796 29.186631234660442
    vertex 13.088996896277688 18.68979308767796 27.68663123466044
  endloop
endfacet
facet normal -0.9999997774326395 0.00034877021093755034 -0.0005687653395618057
  outer loop
    vertex 13.076264896277687 17.689793087677963 24.686631234660442
    vertex 13.088996896277688 18.68979308767796 27.68663123466044
    vertex 13.088996896277688 20.49624470058118 21.976953815305606
  endloop
endfacet
facet normal -0.9999997774326395 0.00034877021093755034 -0.0005687653395618057
  outer loop
    vertex 13.088996896277688 20.49624470058118 21.976953815305606
    vertex 13.088996896277688 18.68979308767796 27.68663123466044
    vertex 13.088996896277688 20.689793087677966 27.68663123466044
  endloop
endfacet
facet normal -0.9999997774326395 0.00034877021093755034 -0.0005687653395618057
  outer loop
    vertex 13.088996896277688 20.49624470058118 21.976953815305606
    vertex 13.088996896277688 20.689793087677966 27.68663123466044
    vertex 13.088996896277688 20.689793087677966 24.686631234660442
  endloop
endfacet
facet normal -0.9999997774326395 0.00034877021093755034 -0.0005687653395618057
  outer loop
    vertex 13.088996896277688 20.49624470058118 21.976953815305606
    vertex 13.088996896277688 20.689793087677966 24.686631234660442
    vertex 13.088996896277688 34.71237373283926 21.976953815305603
  endloop
endfacet
facet normal -0.9999997774326395 0.00034877021093755034 -0.0005687653395618057
  outer loop
    vertex 13.088996896277688 34.71237373283926 21.976953815305603
    vertex 13.088996896277688 20.689793087677966 24.686631234660442
    vertex 13.088996896277688 32.98979308767796 24.686631234660442
  endloop
endfacet
facet normal 0.0005687653741543045 -1.9836384574365038e-16 -0.9999998382529616
  outer loop
    vertex 14.088996673710328 34.71202496262832 21.977522580645168
    vertex 13.088996896277688 20.49624470058118 21.976953815305606
    vertex 13.088996896277688 34.71237373283926 21.976953815305603
  endloop
endfacet
facet normal 0.0005687653741543045 -1.9836384574365038e-16 -0.9999998382529616
  outer loop
    vertex 13.088996896277688 20.49624470058118 21.976953815305606
    vertex 14.088996673710328 34.71202496262832 21.977522580645168
    vertex 14.088996673710328 20.495895930370242 21.977522580645168
  endloop
endfacet
endsolid V2-Joystick
