solid V2-Joystick
facet normal 0.0 -1.0 0.0
  outer loop
    vertex 27.588996673710362 27.939444317467014 23.687200000000008
    vertex 23.588936780489774 27.939517599711245 18.187200008957493
    vertex 27.588936780489767 27.939517599711245 18.187200008957493
  endloop
endfacet
facet normal 0.0 -1.0 0.0
  outer loop
    vertex 23.588936780489774 27.939517599711245 18.187200008957493
    vertex 27.588996673710362 27.939444317467014 23.687200000000008
    vertex 23.58899667371037 27.939444317467014 23.687200000000008
  endloop
endfacet
facet normal 0.0 1.0 0.0
  outer loop
    vertex 23.58899667371037 24.93944431746702 23.687200000000008
    vertex 27.588936780489767 24.939517599711255 18.187200008957493
    vertex 23.588936780489774 24.939517599711255 18.187200008957493
  endloop
endfacet
facet normal 0.0 1.0 0.0
  outer loop
    vertex 27.588936780489767 24.939517599711255 18.187200008957493
    vertex 23.58899667371037 24.93944431746702 23.687200000000008
    vertex 27.588996673710362 24.93944431746702 23.687200000000008
  endloop
endfacet
facet normal 0.0 0.0 -1.0
  outer loop
    vertex 27.588996673710362 27.939444317467014 23.687200000000008
    vertex 23.58899667371037 24.93944431746702 23.687200000000008
    vertex 23.58899667371037 27.939444317467014 23.687200000000008
  endloop
endfacet
facet normal 0.0 0.0 -1.0
  outer loop
    vertex 23.58899667371037 24.93944431746702 23.687200000000008
    vertex 27.588996673710362 27.939444317467014 23.687200000000008
    vertex 27.588996673710362 24.93944431746702 23.687200000000008
  endloop
endfacet
facet normal -1.0 0.0 0.0
  outer loop
    vertex 27.588996673710362 27.939444317467014 23.687200000000008
    vertex 27.588936780489767 24.939517599711255 18.187200008957493
    vertex 27.588996673710362 24.93944431746702 23.687200000000008
  endloop
endfacet
facet normal -1.0 0.0 0.0
  outer loop
    vertex 27.588936780489767 24.939517599711255 18.187200008957493
    vertex 27.588996673710362 27.939444317467014 23.687200000000008
    vertex 27.588936780489767 27.939517599711245 18.187200008957493
  endloop
endfacet
facet normal 0.6087614290088379 -0.7933533402911451 -4.359452466547879e-15
  outer loop
    vertex 15.63900867845646 36.442072258784144 23.68669229547764
    vertex 15.411179214405143 36.267261776772216 27.687200000000004
    vertex 15.411191219151283 36.267261773926435 23.68668684143076
  endloop
endfacet
facet normal 0.6087614290088379 -0.7933533402911451 -4.359452466547879e-15
  outer loop
    vertex 15.411179214405143 36.267261776772216 27.687200000000004
    vertex 15.63900867845646 36.442072258784144 23.68669229547764
    vertex 15.638996673710306 36.44207226162989 27.687200000000004
  endloop
endfacet
facet normal 0.793353340291246 -0.6087614290087064 1.4109789117476772e-16
  outer loop
    vertex 15.411191219151283 36.267261773926435 23.68668684143076
    vertex 15.236368729547449 36.039444317467 27.687200000000004
    vertex 15.236380734293604 36.03944431462123 23.686682656862864
  endloop
endfacet
facet normal 0.793353340291246 -0.6087614290087064 1.4109789117476772e-16
  outer loop
    vertex 15.236368729547449 36.039444317467 27.687200000000004
    vertex 15.411191219151283 36.267261773926435 23.68668684143076
    vertex 15.411179214405143 36.267261776772216 27.687200000000004
  endloop
endfacet
facet normal 0.991444861373814 -0.13052619222002432 6.044147072679157e-16
  outer loop
    vertex 15.126490269538529 35.774145264234 23.686680026945332
    vertex 15.08899667371034 35.489444317467004 27.687200000000004
    vertex 15.089008678456514 35.48944431462124 23.68667913090271
  endloop
endfacet
facet normal 0.991444861373814 -0.13052619222002432 6.044147072679157e-16
  outer loop
    vertex 15.08899667371034 35.489444317467004 27.687200000000004
    vertex 15.126490269538529 35.774145264234 23.686680026945332
    vertex 15.126478264792356 35.77414526707977 27.687200000000004
  endloop
endfacet
facet normal 0.7933533402911882 0.6087614290087818 7.711544722647282e-16
  outer loop
    vertex 15.236380734293611 34.93944431462122 23.68668266237538
    vertex 15.411179214405166 34.71162685816179 27.687200000000004
    vertex 15.411191219151316 34.71162685531603 23.686686849226636
  endloop
endfacet
facet normal 0.7933533402911882 0.6087614290087818 7.711544722647282e-16
  outer loop
    vertex 15.411179214405166 34.71162685816179 27.687200000000004
    vertex 15.236380734293611 34.93944431462122 23.68668266237538
    vertex 15.236368729547449 34.939444317467 27.687200000000004
  endloop
endfacet
facet normal -0.7933533402912736 0.6087614290086708 3.1017306114625637e-16
  outer loop
    vertex 16.966814133015557 34.71162685816184 27.687200000000004
    vertex 17.14163662261938 34.93944431462129 23.686728282338194
    vertex 16.96682613776173 34.711626855316084 23.686724097770295
  endloop
endfacet
facet normal -0.7933533402912736 0.6087614290086708 3.1017306114625637e-16
  outer loop
    vertex 17.14163662261938 34.93944431462129 23.686728282338194
    vertex 16.966814133015557 34.71162685816184 27.687200000000004
    vertex 17.14162461787323 34.93944431746705 27.687200000000004
  endloop
endfacet
facet normal -0.9238795325112854 0.3826834323650931 5.736732464619339e-16
  outer loop
    vertex 17.14162461787323 34.93944431746705 27.687200000000004
    vertex 17.251527087374495 35.204743365008525 23.686730912255715
    vertex 17.14163662261938 34.93944431462129 23.686728282338194
  endloop
endfacet
facet normal -0.9238795325112854 0.3826834323650931 5.736732464619339e-16
  outer loop
    vertex 17.251527087374495 35.204743365008525 23.686730912255715
    vertex 17.14162461787323 34.93944431746705 27.687200000000004
    vertex 17.25151508262832 35.20474336785429 27.687200000000004
  endloop
endfacet
facet normal -0.991444861373817 0.13052619222000156 -3.0097861916418453e-16
  outer loop
    vertex 17.25151508262832 35.20474336785429 27.687200000000004
    vertex 17.289008678456494 35.4894443146213 23.686731808298337
    vertex 17.251527087374495 35.204743365008525 23.686730912255715
  endloop
endfacet
facet normal -0.991444861373817 0.13052619222000156 -3.0097861916418453e-16
  outer loop
    vertex 17.289008678456494 35.4894443146213 23.686731808298337
    vertex 17.25151508262832 35.20474336785429 27.687200000000004
    vertex 17.288996673710336 35.48944431746707 27.687200000000004
  endloop
endfacet
facet normal -0.9914448613738096 -0.13052619222005818 2.094351528420226e-15
  outer loop
    vertex 17.288996673710336 35.48944431746707 27.687200000000004
    vertex 17.25152708737448 35.774145264234036 23.68673090940223
    vertex 17.289008678456494 35.4894443146213 23.686731808298337
  endloop
endfacet
facet normal -0.9914448613738096 -0.13052619222005818 2.094351528420226e-15
  outer loop
    vertex 17.25152708737448 35.774145264234036 23.68673090940223
    vertex 17.288996673710336 35.48944431746707 27.687200000000004
    vertex 17.25151508262832 35.77414526707981 27.687200000000004
  endloop
endfacet
facet normal -0.923879532511314 -0.38268343236502383 2.4092951332673467e-15
  outer loop
    vertex 17.25151508262832 35.77414526707981 27.687200000000004
    vertex 17.1416366226194 36.03944431462129 23.68672827682568
    vertex 17.25152708737448 35.774145264234036 23.68673090940223
  endloop
endfacet
facet normal -0.923879532511314 -0.38268343236502383 2.4092951332673467e-15
  outer loop
    vertex 17.1416366226194 36.03944431462129 23.68672827682568
    vertex 17.25151508262832 35.77414526707981 27.687200000000004
    vertex 17.14162461787323 36.03944431746706 27.687200000000004
  endloop
endfacet
facet normal -0.7933533402911114 -0.6087614290088822 5.6888157681578445e-16
  outer loop
    vertex 17.14162461787323 36.03944431746706 27.687200000000004
    vertex 16.96682613776163 36.267261773926485 23.68672408997442
    vertex 17.1416366226194 36.03944431462129 23.68672827682568
  endloop
endfacet
facet normal -0.7933533402911114 -0.6087614290088822 5.6888157681578445e-16
  outer loop
    vertex 16.96682613776163 36.267261773926485 23.68672408997442
    vertex 17.14162461787323 36.03944431746706 27.687200000000004
    vertex 16.96681413301549 36.26726177677225 27.687200000000004
  endloop
endfacet
facet normal -0.6087614290086688 -0.7933533402912751 1.2218523780861366e-15
  outer loop
    vertex 16.96682613776163 36.267261773926485 23.68672408997442
    vertex 16.738996673710304 36.4420722616299 27.687200000000004
    vertex 16.739008678456447 36.44207225878411 23.686718634175453
  endloop
endfacet
facet normal -0.6087614290086688 -0.7933533402912751 1.2218523780861366e-15
  outer loop
    vertex 16.738996673710304 36.4420722616299 27.687200000000004
    vertex 16.96682613776163 36.267261773926485 23.68672408997442
    vertex 16.96681413301549 36.26726177677225 27.687200000000004
  endloop
endfacet
facet normal -0.38268343236518315 -0.9238795325112482 2.262041774920914e-15
  outer loop
    vertex 16.739008678456447 36.44207225878411 23.686718634175453
    vertex 16.473697623323105 36.55196272638501 27.687200000000004
    vertex 16.47370962806927 36.55196272353926 23.686712281232467
  endloop
endfacet
facet normal -0.38268343236518315 -0.9238795325112482 2.262041774920914e-15
  outer loop
    vertex 16.473697623323105 36.55196272638501 27.687200000000004
    vertex 16.739008678456447 36.44207225878411 23.686718634175453
    vertex 16.738996673710304 36.4420722616299 27.687200000000004
  endloop
endfacet
facet normal -0.13052619221997994 -0.9914448613738199 3.262970865296715e-15
  outer loop
    vertex 16.47370962806927 36.55196272353926 23.686712281232467
    vertex 16.18899667371034 36.58944431746702 27.687200000000004
    vertex 16.1890086784565 36.58944431462124 23.68670546408801
  endloop
endfacet
facet normal -0.13052619221997994 -0.9914448613738199 3.262970865296715e-15
  outer loop
    vertex 16.18899667371034 36.58944431746702 27.687200000000004
    vertex 16.47370962806927 36.55196272353926 23.686712281232467
    vertex 16.473697623323105 36.55196272638501 27.687200000000004
  endloop
endfacet
facet normal 0.13052619222025455 -0.9914448613737838 1.4278670289602024e-14
  outer loop
    vertex 16.1890086784565 36.58944431462124 23.68670546408801
    vertex 15.904295724097551 36.551962726384986 27.687200000000004
    vertex 15.904307728843758 36.55196272353916 23.68669864731923
  endloop
endfacet
facet normal 0.13052619222025455 -0.9914448613737838 1.4278670289602024e-14
  outer loop
    vertex 15.904295724097551 36.551962726384986 27.687200000000004
    vertex 16.1890086784565 36.58944431462124 23.68670546408801
    vertex 16.18899667371034 36.58944431746702 27.687200000000004
  endloop
endfacet
facet normal 0.3826834323647775 -0.9238795325114162 7.99161158915091e-15
  outer loop
    vertex 15.904307728843758 36.55196272353916 23.68669864731923
    vertex 15.638996673710306 36.44207226162989 27.687200000000004
    vertex 15.63900867845646 36.442072258784144 23.68669229547764
  endloop
endfacet
facet normal 0.3826834323647775 -0.9238795325114162 7.99161158915091e-15
  outer loop
    vertex 15.638996673710306 36.44207226162989 27.687200000000004
    vertex 15.904307728843758 36.55196272353916 23.68669864731923
    vertex 15.904295724097551 36.551962726384986 27.687200000000004
  endloop
endfacet
facet normal 0.7933533402912396 -0.6087614290087148 4.246033799459175e-14
  outer loop
    vertex 29.411191219151338 36.267261773926414 23.68702206122109
    vertex 29.23636872954747 36.03944431746704 27.687200000000004
    vertex 29.23638073429368 36.03944431462123 23.687017876653194
  endloop
endfacet
facet normal 0.7933533402912396 -0.6087614290087148 4.246033799459175e-14
  outer loop
    vertex 29.23636872954747 36.03944431746704 27.687200000000004
    vertex 29.411191219151338 36.267261773926414 23.68702206122109
    vertex 29.41117921440514 36.267261776772244 27.687200000000004
  endloop
endfacet
facet normal 0.9238795325110005 -0.3826834323657806 -3.0698426419173735e-15
  outer loop
    vertex 29.23638073429368 36.03944431462123 23.687017876653194
    vertex 29.126478264792354 35.77414526707979 27.687200000000004
    vertex 29.12649026953844 35.77414526423405 23.687015246735665
  endloop
endfacet
facet normal 0.9238795325110005 -0.3826834323657806 -3.0698426419173735e-15
  outer loop
    vertex 29.126478264792354 35.77414526707979 27.687200000000004
    vertex 29.23638073429368 36.03944431462123 23.687017876653194
    vertex 29.23636872954747 36.03944431746704 27.687200000000004
  endloop
endfacet
facet normal 0.9914448613738035 0.13052619222010475 3.857005593190545e-16
  outer loop
    vertex 29.089008678456516 35.489444314621245 23.687014350693044
    vertex 29.126478264792375 35.204743367854256 27.687200000000004
    vertex 29.12649026953855 35.20474336500849 23.687015249589155
  endloop
endfacet
facet normal 0.9914448613738035 0.13052619222010475 3.857005593190545e-16
  outer loop
    vertex 29.126478264792375 35.204743367854256 27.687200000000004
    vertex 29.089008678456516 35.489444314621245 23.687014350693044
    vertex 29.088996673710337 35.48944431746701 27.687200000000004
  endloop
endfacet
facet normal 0.9238795325112953 0.3826834323650696 -1.0665303383119453e-15
  outer loop
    vertex 29.12649026953855 35.20474336500849 23.687015249589155
    vertex 29.23636872954747 34.939444317467036 27.687200000000004
    vertex 29.236380734293622 34.93944431462126 23.687017882165712
  endloop
endfacet
facet normal 0.9238795325112953 0.3826834323650696 -1.0665303383119453e-15
  outer loop
    vertex 29.23636872954747 34.939444317467036 27.687200000000004
    vertex 29.12649026953855 35.20474336500849 23.687015249589155
    vertex 29.126478264792375 35.204743367854256 27.687200000000004
  endloop
endfacet
facet normal 0.7933533402912376 0.6087614290087174 -1.037824715687526e-15
  outer loop
    vertex 29.236380734293622 34.93944431462126 23.687017882165712
    vertex 29.41117921440514 34.71162685816183 27.687200000000004
    vertex 29.411191219151295 34.71162685531607 23.68702206901697
  endloop
endfacet
facet normal 0.7933533402912376 0.6087614290087174 -1.037824715687526e-15
  outer loop
    vertex 29.41117921440514 34.71162685816183 27.687200000000004
    vertex 29.236380734293622 34.93944431462126 23.687017882165712
    vertex 29.23636872954747 34.939444317467036 27.687200000000004
  endloop
endfacet
facet normal -0.7933533402911965 0.6087614290087712 4.742001719955094e-16
  outer loop
    vertex 30.966814133015532 34.71162685816183 27.687200000000004
    vertex 31.1416366226194 34.93944431462127 23.687063502128524
    vertex 30.96682613776169 34.71162685531606 23.687059317560628
  endloop
endfacet
facet normal -0.7933533402911965 0.6087614290087712 4.742001719955094e-16
  outer loop
    vertex 31.1416366226194 34.93944431462127 23.687063502128524
    vertex 30.966814133015532 34.71162685816183 27.687200000000004
    vertex 31.141624617873248 34.93944431746705 27.687200000000004
  endloop
endfacet
facet normal -0.9238795325113275 0.38268343236499186 -1.7002860279554135e-15
  outer loop
    vertex 31.141624617873248 34.93944431746705 27.687200000000004
    vertex 31.25152708737445 35.2047433650085 23.68706613204605
    vertex 31.1416366226194 34.93944431462127 23.687063502128524
  endloop
endfacet
facet normal -0.9238795325113275 0.38268343236499186 -1.7002860279554135e-15
  outer loop
    vertex 31.25152708737445 35.2047433650085 23.68706613204605
    vertex 31.141624617873248 34.93944431746705 27.687200000000004
    vertex 31.251515082628295 35.20474336785427 27.687200000000004
  endloop
endfacet
facet normal -0.9914448613738145 0.1305261922200208 -3.778425339012741e-15
  outer loop
    vertex 31.251515082628295 35.20474336785427 27.687200000000004
    vertex 31.289008678456465 35.48944431462127 23.687067028088666
    vertex 31.25152708737445 35.2047433650085 23.68706613204605
  endloop
endfacet
facet normal -0.9914448613738145 0.1305261922200208 -3.778425339012741e-15
  outer loop
    vertex 31.289008678456465 35.48944431462127 23.687067028088666
    vertex 31.251515082628295 35.20474336785427 27.687200000000004
    vertex 31.28899667371031 35.48944431746703 27.687200000000004
  endloop
endfacet
facet normal -0.9914448613738035 -0.13052619222010364 -2.301252513447199e-15
  outer loop
    vertex 31.28899667371031 35.48944431746703 27.687200000000004
    vertex 31.251527087374438 35.77414526423405 23.68706612919256
    vertex 31.289008678456465 35.48944431462127 23.687067028088666
  endloop
endfacet
facet normal -0.9914448613738035 -0.13052619222010364 -2.301252513447199e-15
  outer loop
    vertex 31.251527087374438 35.77414526423405 23.68706612919256
    vertex 31.28899667371031 35.48944431746703 27.687200000000004
    vertex 31.251515082628273 35.77414526707981 27.687200000000004
  endloop
endfacet
facet normal -0.9238795325113082 -0.3826834323650384 -7.347746534746129e-16
  outer loop
    vertex 31.251515082628273 35.77414526707981 27.687200000000004
    vertex 31.14163662261937 36.03944431462127 23.68706349661601
    vertex 31.251527087374438 35.77414526423405 23.68706612919256
  endloop
endfacet
facet normal -0.9238795325113082 -0.3826834323650384 -7.347746534746129e-16
  outer loop
    vertex 31.14163662261937 36.03944431462127 23.68706349661601
    vertex 31.251515082628273 35.77414526707981 27.687200000000004
    vertex 31.1416246178732 36.03944431746704 27.687200000000004
  endloop
endfacet
facet normal -0.7933533402912402 -0.6087614290087141 1.0201386529853864e-15
  outer loop
    vertex 31.1416246178732 36.03944431746704 27.687200000000004
    vertex 30.96682613776168 36.267261773926464 23.687059309764752
    vertex 31.14163662261937 36.03944431462127 23.68706349661601
  endloop
endfacet
facet normal -0.7933533402912402 -0.6087614290087141 1.0201386529853864e-15
  outer loop
    vertex 30.96682613776168 36.267261773926464 23.687059309764752
    vertex 31.1416246178732 36.03944431746704 27.687200000000004
    vertex 30.966814133015532 36.267261776772244 27.687200000000004
  endloop
endfacet
facet normal -0.6087614290086957 -0.7933533402912544 3.491378278498137e-15
  outer loop
    vertex 30.96682613776168 36.267261773926464 23.687059309764752
    vertex 30.738996673710346 36.4420722616299 27.687200000000004
    vertex 30.739008678456546 36.4420722587841 23.687053853965782
  endloop
endfacet
facet normal -0.6087614290086957 -0.7933533402912544 3.491378278498137e-15
  outer loop
    vertex 30.738996673710346 36.4420722616299 27.687200000000004
    vertex 30.96682613776168 36.267261773926464 23.687059309764752
    vertex 30.966814133015532 36.267261776772244 27.687200000000004
  endloop
endfacet
facet normal -0.38268343236508656 -0.9238795325112881 6.781647007222068e-15
  outer loop
    vertex 30.739008678456546 36.4420722587841 23.687053853965782
    vertex 30.473697623323122 36.551962726384986 27.687200000000004
    vertex 30.473709628069305 36.551962723539205 23.687047501022796
  endloop
endfacet
facet normal -0.38268343236508656 -0.9238795325112881 6.781647007222068e-15
  outer loop
    vertex 30.473697623323122 36.551962726384986 27.687200000000004
    vertex 30.739008678456546 36.4420722587841 23.687053853965782
    vertex 30.738996673710346 36.4420722616299 27.687200000000004
  endloop
endfacet
facet normal -0.13052619222016235 -0.991444861373796 1.6664192181323266e-15
  outer loop
    vertex 30.473709628069305 36.551962723539205 23.687047501022796
    vertex 30.188996673710356 36.58944431746701 27.687200000000004
    vertex 30.189008678456528 36.58944431462126 23.687040683878344
  endloop
endfacet
facet normal -0.13052619222016235 -0.991444861373796 1.6664192181323266e-15
  outer loop
    vertex 30.188996673710356 36.58944431746701 27.687200000000004
    vertex 30.473709628069305 36.551962723539205 23.687047501022796
    vertex 30.473697623323122 36.551962726384986 27.687200000000004
  endloop
endfacet
facet normal 0.13052619222002967 -0.9914448613738134 -1.9585308972851215e-15
  outer loop
    vertex 30.189008678456528 36.58944431462126 23.687040683878344
    vertex 29.904295724097548 36.55196272638499 27.687200000000004
    vertex 29.90430772884373 36.551962723539226 23.687033867109562
  endloop
endfacet
facet normal 0.13052619222002967 -0.9914448613738134 -1.9585308972851215e-15
  outer loop
    vertex 29.904295724097548 36.55196272638499 27.687200000000004
    vertex 30.189008678456528 36.58944431462126 23.687040683878344
    vertex 30.188996673710356 36.58944431746701 27.687200000000004
  endloop
endfacet
facet normal 0.3826834323650496 -0.9238795325113034 5.363750748321272e-16
  outer loop
    vertex 29.90430772884373 36.551962723539226 23.687033867109562
    vertex 29.638996673710324 36.44207226162992 27.687200000000004
    vertex 29.639008678456513 36.442072258784165 23.68702751526797
  endloop
endfacet
facet normal 0.3826834323650496 -0.9238795325113034 5.363750748321272e-16
  outer loop
    vertex 29.638996673710324 36.44207226162992 27.687200000000004
    vertex 29.90430772884373 36.551962723539226 23.687033867109562
    vertex 29.904295724097548 36.55196272638499 27.687200000000004
  endloop
endfacet
facet normal 0.6087614290089944 -0.7933533402910252 2.3657673594555427e-14
  outer loop
    vertex 29.639008678456513 36.442072258784165 23.68702751526797
    vertex 29.41117921440514 36.267261776772244 27.687200000000004
    vertex 29.411191219151338 36.267261773926414 23.68702206122109
  endloop
endfacet
facet normal 0.6087614290089944 -0.7933533402910252 2.3657673594555427e-14
  outer loop
    vertex 29.41117921440514 36.267261776772244 27.687200000000004
    vertex 29.639008678456513 36.442072258784165 23.68702751526797
    vertex 29.638996673710324 36.44207226162992 27.687200000000004
  endloop
endfacet
facet normal 1.0 0.0 0.0
  outer loop
    vertex 32.838996673710355 20.68944431746703 24.687200000000008
    vertex 32.838996673710355 18.689444317467025 27.687200000000004
    vertex 32.838996673710355 18.689444317467025 24.687200000000008
  endloop
endfacet
facet normal 1.0 0.0 0.0
  outer loop
    vertex 32.838996673710355 18.689444317467025 27.687200000000004
    vertex 32.838996673710355 20.68944431746703 24.687200000000008
    vertex 32.838996673710355 20.68944431746703 27.687200000000004
  endloop
endfacet
facet normal -2.2237272164384229e-07 0.9999999999984706 1.7348340359564436e-06
  outer loop
    vertex 28.463996673710344 20.68944431746703 27.687200000000004
    vertex 31.060404717260795 20.689460021970174 24.687209630092585
    vertex 28.463996673710344 20.68944431746703 24.687200000000008
  endloop
endfacet
facet normal -2.2237272164384229e-07 0.9999999999984706 1.7348340359564436e-06
  outer loop
    vertex 31.060404717260795 20.689460021970174 24.687209630092585
    vertex 32.838996673710355 20.68944431746703 27.687200000000004
    vertex 32.838996673710355 20.68944431746703 24.687200000000008
  endloop
endfacet
facet normal -2.2237272164384229e-07 0.9999999999984706 1.7348340359564436e-06
  outer loop
    vertex 32.838996673710355 20.68944431746703 27.687200000000004
    vertex 31.060404717260795 20.689460021970174 24.687209630092585
    vertex 28.463996673710344 20.68944431746703 27.687200000000004
  endloop
endfacet
facet normal 0.0 0.0 1.0
  outer loop
    vertex 18.463996673710344 18.68944431746702 27.687200000000004
    vertex 13.088996896277688 20.689793087677966 27.68663123466044
    vertex 13.088996896277688 18.68979308767796 27.68663123466044
  endloop
endfacet
facet normal 0.0 0.0 1.0
  outer loop
    vertex 13.088996896277688 20.689793087677966 27.68663123466044
    vertex 18.463996673710344 18.68944431746702 27.687200000000004
    vertex 18.463996673710344 20.68944431746703 27.687200000000004
  endloop
endfacet
facet normal 1.0 0.0 0.0
  outer loop
    vertex 18.463996673710344 20.68944431746703 24.687200000000008
    vertex 18.463996673710344 18.68944431746702 27.687200000000004
    vertex 18.463996673710344 18.68944431746702 24.687200000000008
  endloop
endfacet
facet normal 1.0 0.0 0.0
  outer loop
    vertex 18.463996673710344 18.68944431746702 27.687200000000004
    vertex 18.463996673710344 20.68944431746703 24.687200000000008
    vertex 18.463996673710344 20.68944431746703 27.687200000000004
  endloop
endfacet
facet normal -1.0 0.0 0.0
  outer loop
    vertex 28.463996673710344 20.68944431746703 27.687200000000004
    vertex 28.463996673710344 18.689444317467025 24.687200000000008
    vertex 28.463996673710344 18.689444317467025 27.687200000000004
  endloop
endfacet
facet normal -1.0 0.0 0.0
  outer loop
    vertex 28.463996673710344 18.689444317467025 24.687200000000008
    vertex 28.463996673710344 20.68944431746703 27.687200000000004
    vertex 28.463996673710344 20.68944431746703 24.687200000000008
  endloop
endfacet
facet normal 6.55570239630771e-05 0.9999999978498673 1.594442353124377e-06
  outer loop
    vertex 13.088996896277688 20.689793087677966 27.68663123466044
    vertex 13.754035600274273 20.68976563949299 24.686711237028362
    vertex 13.088996896277688 20.689793087677966 24.686631234660442
  endloop
endfacet
facet normal 6.55570239630771e-05 0.9999999978498673 1.594442353124377e-06
  outer loop
    vertex 13.754035600274273 20.68976563949299 24.686711237028362
    vertex 13.088996896277688 20.689793087677966 27.68663123466044
    vertex 18.463996673710344 20.68944431746703 24.687200000000008
  endloop
endfacet
facet normal 6.55570239630771e-05 0.9999999978498673 1.594442353124377e-06
  outer loop
    vertex 18.463996673710344 20.68944431746703 24.687200000000008
    vertex 13.088996896277688 20.689793087677966 27.68663123466044
    vertex 18.463996673710344 20.68944431746703 27.687200000000004
  endloop
endfacet
facet normal -6.930658951675129e-17 1.0 1.265194672488706e-16
  outer loop
    vertex 13.076264896277687 18.68979308767796 29.186631234660442
    vertex 18.463996673710344 18.68944431746702 27.687200000000004
    vertex 13.088996896277688 18.68979308767796 27.68663123466044
  endloop
endfacet
facet normal -6.930658951675129e-17 1.0 1.265194672488706e-16
  outer loop
    vertex 18.463996673710344 18.68944431746702 27.687200000000004
    vertex 13.076264896277687 18.68979308767796 29.186631234660442
    vertex 28.463996673710344 18.689444317467025 27.687200000000004
  endloop
endfacet
facet normal -6.930658951675129e-17 1.0 1.265194672488706e-16
  outer loop
    vertex 28.463996673710344 18.689444317467025 27.687200000000004
    vertex 13.076264896277687 18.68979308767796 29.186631234660442
    vertex 32.838996673710355 18.689444317467025 27.687200000000004
  endloop
endfacet
facet normal -6.930658951675129e-17 1.0 1.265194672488706e-16
  outer loop
    vertex 32.838996673710355 18.689444317467025 27.687200000000004
    vertex 35.83899667371036 18.68944431746702 24.687200000000008
    vertex 32.838996673710355 18.689444317467025 24.687200000000008
  endloop
endfacet
facet normal -6.930658951675129e-17 1.0 1.265194672488706e-16
  outer loop
    vertex 35.83899667371036 18.68944431746702 24.687200000000008
    vertex 32.838996673710355 18.689444317467025 27.687200000000004
    vertex 35.83899667371036 18.68944431746702 29.187200000000008
  endloop
endfacet
facet normal -6.930658951675129e-17 1.0 1.265194672488706e-16
  outer loop
    vertex 35.83899667371036 18.68944431746702 29.187200000000008
    vertex 32.838996673710355 18.689444317467025 27.687200000000004
    vertex 13.076264896277687 18.68979308767796 29.186631234660442
  endloop
endfacet
facet normal -6.930658951675129e-17 1.0 1.265194672488706e-16
  outer loop
    vertex 18.463996673710344 18.68944431746702 27.687200000000004
    vertex 28.463996673710344 18.689444317467025 24.687200000000008
    vertex 18.463996673710344 18.68944431746702 24.687200000000008
  endloop
endfacet
facet normal -6.930658951675129e-17 1.0 1.265194672488706e-16
  outer loop
    vertex 28.463996673710344 18.689444317467025 24.687200000000008
    vertex 18.463996673710344 18.68944431746702 27.687200000000004
    vertex 28.463996673710344 18.689444317467025 27.687200000000004
  endloop
endfacet
facet normal 0.0 -1.0 0.0
  outer loop
    vertex 36.83901970216018 17.68944145733743 23.68719995493018
    vertex 13.076264896277687 17.689793087677963 29.186631234660442
    vertex 13.076287924727524 17.689790227548368 23.686631189590617
  endloop
endfacet
facet normal 0.0 -1.0 0.0
  outer loop
    vertex 13.076264896277687 17.689793087677963 29.186631234660442
    vertex 36.83901970216018 17.68944145733743 23.68719995493018
    vertex 36.838996673710355 17.689444317467025 29.187200000000008
  endloop
endfacet
facet normal 1.4850657333083852e-05 0.9999999998896949 2.6090090913662755e-07
  outer loop
    vertex 13.088996896277688 38.98979308767796 29.186631234660442
    vertex 36.83901970216018 38.989441457337406 23.68719995493018
    vertex 13.089019924727525 38.98979022754835 23.686631189590617
  endloop
endfacet
facet normal 1.4850657333083852e-05 0.9999999998896949 2.6090090913662755e-07
  outer loop
    vertex 36.83901970216018 38.989441457337406 23.68719995493018
    vertex 13.088996896277688 38.98979308767796 29.186631234660442
    vertex 36.838996673710355 38.98944431746702 29.187200000000008
  endloop
endfacet
facet normal 1.0 0.0 0.0
  outer loop
    vertex 36.83901970216018 38.989441457337406 23.68719995493018
    vertex 36.838996673710355 17.689444317467025 29.187200000000008
    vertex 36.83901970216018 17.68944145733743 23.68719995493018
  endloop
endfacet
facet normal 1.0 0.0 0.0
  outer loop
    vertex 36.838996673710355 17.689444317467025 29.187200000000008
    vertex 36.83901970216018 38.989441457337406 23.68719995493018
    vertex 36.838996673710355 38.98944431746702 29.187200000000008
  endloop
endfacet
facet normal 0.0 0.0 1.0
  outer loop
    vertex 32.838996673710355 18.689444317467025 27.687200000000004
    vertex 28.463996673710344 20.68944431746703 27.687200000000004
    vertex 28.463996673710344 18.689444317467025 27.687200000000004
  endloop
endfacet
facet normal 0.0 0.0 1.0
  outer loop
    vertex 28.463996673710344 20.68944431746703 27.687200000000004
    vertex 32.838996673710355 18.689444317467025 27.687200000000004
    vertex 32.838996673710355 20.68944431746703 27.687200000000004
  endloop
endfacet
facet normal 0.0 0.0 1.0
  outer loop
    vertex 13.088996896277688 32.98979308767796 27.68663123466044
    vertex 15.236368729547449 34.939444317467 27.687200000000004
    vertex 13.088996896277688 37.98979308767796 27.68663123466044
  endloop
endfacet
facet normal 0.0 0.0 1.0
  outer loop
    vertex 15.236368729547449 34.939444317467 27.687200000000004
    vertex 13.088996896277688 32.98979308767796 27.68663123466044
    vertex 15.411179214405166 34.71162685816179 27.687200000000004
  endloop
endfacet
facet normal 0.0 0.0 1.0
  outer loop
    vertex 15.411179214405166 34.71162685816179 27.687200000000004
    vertex 13.088996896277688 32.98979308767796 27.68663123466044
    vertex 15.638996673710373 34.53681637330412 27.687200000000004
  endloop
endfacet
facet normal 0.0 0.0 1.0
  outer loop
    vertex 15.638996673710373 34.53681637330412 27.687200000000004
    vertex 13.088996896277688 32.98979308767796 27.68663123466044
    vertex 15.904295724097619 34.42692590854904 27.687200000000004
  endloop
endfacet
facet normal 0.0 0.0 1.0
  outer loop
    vertex 15.904295724097619 34.42692590854904 27.687200000000004
    vertex 13.088996896277688 32.98979308767796 27.68663123466044
    vertex 16.188996673710385 34.389444317467024 27.687200000000004
  endloop
endfacet
facet normal 0.0 0.0 1.0
  outer loop
    vertex 16.188996673710385 34.389444317467024 27.687200000000004
    vertex 13.088996896277688 32.98979308767796 27.68663123466044
    vertex 32.83899667371036 32.98944431746702 27.687200000000004
  endloop
endfacet
facet normal 0.0 0.0 1.0
  outer loop
    vertex 13.088996896277688 37.98979308767796 27.68663123466044
    vertex 15.236368729547449 34.939444317467 27.687200000000004
    vertex 15.126478264792379 35.204743367854235 27.687200000000004
  endloop
endfacet
facet normal 0.0 0.0 1.0
  outer loop
    vertex 13.088996896277688 37.98979308767796 27.68663123466044
    vertex 15.126478264792379 35.204743367854235 27.687200000000004
    vertex 15.08899667371034 35.489444317467004 27.687200000000004
  endloop
endfacet
facet normal 0.0 0.0 1.0
  outer loop
    vertex 16.188996673710385 34.389444317467024 27.687200000000004
    vertex 32.83899667371036 32.98944431746702 27.687200000000004
    vertex 16.473697623323194 34.42692590854915 27.687200000000004
  endloop
endfacet
facet normal 0.0 0.0 1.0
  outer loop
    vertex 16.473697623323194 34.42692590854915 27.687200000000004
    vertex 32.83899667371036 32.98944431746702 27.687200000000004
    vertex 16.73899667371037 34.536816373304156 27.687200000000004
  endloop
endfacet
facet normal 0.0 0.0 1.0
  outer loop
    vertex 16.73899667371037 34.536816373304156 27.687200000000004
    vertex 32.83899667371036 32.98944431746702 27.687200000000004
    vertex 16.966814133015557 34.71162685816184 27.687200000000004
  endloop
endfacet
facet normal 0.0 0.0 1.0
  outer loop
    vertex 16.966814133015557 34.71162685816184 27.687200000000004
    vertex 32.83899667371036 32.98944431746702 27.687200000000004
    vertex 17.14162461787323 34.93944431746705 27.687200000000004
  endloop
endfacet
facet normal 0.0 0.0 1.0
  outer loop
    vertex 17.14162461787323 34.93944431746705 27.687200000000004
    vertex 32.83899667371036 32.98944431746702 27.687200000000004
    vertex 17.25151508262832 35.20474336785429 27.687200000000004
  endloop
endfacet
facet normal 0.0 0.0 1.0
  outer loop
    vertex 17.25151508262832 35.20474336785429 27.687200000000004
    vertex 32.83899667371036 32.98944431746702 27.687200000000004
    vertex 17.288996673710336 35.48944431746707 27.687200000000004
  endloop
endfacet
facet normal 0.0 0.0 1.0
  outer loop
    vertex 17.288996673710336 35.48944431746707 27.687200000000004
    vertex 32.83899667371036 32.98944431746702 27.687200000000004
    vertex 29.63899667371035 34.536816373304134 27.687200000000004
  endloop
endfacet
facet normal 0.0 0.0 1.0
  outer loop
    vertex 17.288996673710336 35.48944431746707 27.687200000000004
    vertex 29.63899667371035 34.536816373304134 27.687200000000004
    vertex 29.41117921440514 34.71162685816183 27.687200000000004
  endloop
endfacet
facet normal 0.0 0.0 1.0
  outer loop
    vertex 17.288996673710336 35.48944431746707 27.687200000000004
    vertex 29.41117921440514 34.71162685816183 27.687200000000004
    vertex 29.23636872954747 34.939444317467036 27.687200000000004
  endloop
endfacet
facet normal 0.0 0.0 1.0
  outer loop
    vertex 17.288996673710336 35.48944431746707 27.687200000000004
    vertex 29.23636872954747 34.939444317467036 27.687200000000004
    vertex 29.126478264792375 35.204743367854256 27.687200000000004
  endloop
endfacet
facet normal 0.0 0.0 1.0
  outer loop
    vertex 17.288996673710336 35.48944431746707 27.687200000000004
    vertex 29.126478264792375 35.204743367854256 27.687200000000004
    vertex 29.088996673710337 35.48944431746701 27.687200000000004
  endloop
endfacet
facet normal 0.0 0.0 1.0
  outer loop
    vertex 29.63899667371035 34.536816373304134 27.687200000000004
    vertex 32.83899667371036 32.98944431746702 27.687200000000004
    vertex 29.90429572409757 34.42692590854904 27.687200000000004
  endloop
endfacet
facet normal 0.0 0.0 1.0
  outer loop
    vertex 29.90429572409757 34.42692590854904 27.687200000000004
    vertex 32.83899667371036 32.98944431746702 27.687200000000004
    vertex 30.188996673710335 34.38944431746704 27.687200000000004
  endloop
endfacet
facet normal 0.0 0.0 1.0
  outer loop
    vertex 30.188996673710335 34.38944431746704 27.687200000000004
    vertex 32.83899667371036 32.98944431746702 27.687200000000004
    vertex 30.473697623323122 34.426925908549066 27.687200000000004
  endloop
endfacet
facet normal 0.0 0.0 1.0
  outer loop
    vertex 30.473697623323122 34.426925908549066 27.687200000000004
    vertex 32.83899667371036 32.98944431746702 27.687200000000004
    vertex 30.738996673710346 34.536816373304156 27.687200000000004
  endloop
endfacet
facet normal 0.0 0.0 1.0
  outer loop
    vertex 30.738996673710346 34.536816373304156 27.687200000000004
    vertex 32.83899667371036 32.98944431746702 27.687200000000004
    vertex 30.966814133015532 34.71162685816183 27.687200000000004
  endloop
endfacet
facet normal 0.0 0.0 1.0
  outer loop
    vertex 30.966814133015532 34.71162685816183 27.687200000000004
    vertex 32.83899667371036 32.98944431746702 27.687200000000004
    vertex 31.141624617873248 34.93944431746705 27.687200000000004
  endloop
endfacet
facet normal 0.0 0.0 1.0
  outer loop
    vertex 31.141624617873248 34.93944431746705 27.687200000000004
    vertex 32.83899667371036 32.98944431746702 27.687200000000004
    vertex 31.251515082628295 35.20474336785427 27.687200000000004
  endloop
endfacet
facet normal 0.0 0.0 1.0
  outer loop
    vertex 31.251515082628295 35.20474336785427 27.687200000000004
    vertex 32.83899667371036 32.98944431746702 27.687200000000004
    vertex 31.28899667371031 35.48944431746703 27.687200000000004
  endloop
endfacet
facet normal 0.0 0.0 1.0
  outer loop
    vertex 13.088996896277688 37.98979308767796 27.68663123466044
    vertex 16.18899667371034 36.58944431746702 27.687200000000004
    vertex 32.83899667371036 37.98944431746702 27.687200000000004
  endloop
endfacet
facet normal 0.0 0.0 1.0
  outer loop
    vertex 16.18899667371034 36.58944431746702 27.687200000000004
    vertex 13.088996896277688 37.98979308767796 27.68663123466044
    vertex 15.904295724097551 36.551962726384986 27.687200000000004
  endloop
endfacet
facet normal 0.0 0.0 1.0
  outer loop
    vertex 15.904295724097551 36.551962726384986 27.687200000000004
    vertex 13.088996896277688 37.98979308767796 27.68663123466044
    vertex 15.638996673710306 36.44207226162989 27.687200000000004
  endloop
endfacet
facet normal 0.0 0.0 1.0
  outer loop
    vertex 15.638996673710306 36.44207226162989 27.687200000000004
    vertex 13.088996896277688 37.98979308767796 27.68663123466044
    vertex 15.411179214405143 36.267261776772216 27.687200000000004
  endloop
endfacet
facet normal 0.0 0.0 1.0
  outer loop
    vertex 15.411179214405143 36.267261776772216 27.687200000000004
    vertex 13.088996896277688 37.98979308767796 27.68663123466044
    vertex 15.236368729547449 36.039444317467 27.687200000000004
  endloop
endfacet
facet normal 0.0 0.0 1.0
  outer loop
    vertex 15.236368729547449 36.039444317467 27.687200000000004
    vertex 13.088996896277688 37.98979308767796 27.68663123466044
    vertex 15.126478264792356 35.77414526707977 27.687200000000004
  endloop
endfacet
facet normal 0.0 0.0 1.0
  outer loop
    vertex 15.126478264792356 35.77414526707977 27.687200000000004
    vertex 13.088996896277688 37.98979308767796 27.68663123466044
    vertex 15.08899667371034 35.489444317467004 27.687200000000004
  endloop
endfacet
facet normal 0.0 0.0 1.0
  outer loop
    vertex 32.83899667371036 37.98944431746702 27.687200000000004
    vertex 16.18899667371034 36.58944431746702 27.687200000000004
    vertex 16.473697623323105 36.55196272638501 27.687200000000004
  endloop
endfacet
facet normal 0.0 0.0 1.0
  outer loop
    vertex 32.83899667371036 37.98944431746702 27.687200000000004
    vertex 16.473697623323105 36.55196272638501 27.687200000000004
    vertex 16.738996673710304 36.4420722616299 27.687200000000004
  endloop
endfacet
facet normal 0.0 0.0 1.0
  outer loop
    vertex 32.83899667371036 37.98944431746702 27.687200000000004
    vertex 16.738996673710304 36.4420722616299 27.687200000000004
    vertex 16.96681413301549 36.26726177677225 27.687200000000004
  endloop
endfacet
facet normal 0.0 0.0 1.0
  outer loop
    vertex 32.83899667371036 37.98944431746702 27.687200000000004
    vertex 16.96681413301549 36.26726177677225 27.687200000000004
    vertex 17.14162461787323 36.03944431746706 27.687200000000004
  endloop
endfacet
facet normal 0.0 0.0 1.0
  outer loop
    vertex 32.83899667371036 37.98944431746702 27.687200000000004
    vertex 17.14162461787323 36.03944431746706 27.687200000000004
    vertex 17.25151508262832 35.77414526707981 27.687200000000004
  endloop
endfacet
facet normal 0.0 0.0 1.0
  outer loop
    vertex 32.83899667371036 37.98944431746702 27.687200000000004
    vertex 17.25151508262832 35.77414526707981 27.687200000000004
    vertex 17.288996673710336 35.48944431746707 27.687200000000004
  endloop
endfacet
facet normal 0.0 0.0 1.0
  outer loop
    vertex 32.83899667371036 37.98944431746702 27.687200000000004
    vertex 17.288996673710336 35.48944431746707 27.687200000000004
    vertex 29.638996673710324 36.44207226162992 27.687200000000004
  endloop
endfacet
facet normal 0.0 0.0 1.0
  outer loop
    vertex 29.638996673710324 36.44207226162992 27.687200000000004
    vertex 17.288996673710336 35.48944431746707 27.687200000000004
    vertex 29.41117921440514 36.267261776772244 27.687200000000004
  endloop
endfacet
facet normal 0.0 0.0 1.0
  outer loop
    vertex 29.41117921440514 36.267261776772244 27.687200000000004
    vertex 17.288996673710336 35.48944431746707 27.687200000000004
    vertex 29.23636872954747 36.03944431746704 27.687200000000004
  endloop
endfacet
facet normal 0.0 0.0 1.0
  outer loop
    vertex 29.23636872954747 36.03944431746704 27.687200000000004
    vertex 17.288996673710336 35.48944431746707 27.687200000000004
    vertex 29.126478264792354 35.77414526707979 27.687200000000004
  endloop
endfacet
facet normal 0.0 0.0 1.0
  outer loop
    vertex 29.126478264792354 35.77414526707979 27.687200000000004
    vertex 17.288996673710336 35.48944431746707 27.687200000000004
    vertex 29.088996673710337 35.48944431746701 27.687200000000004
  endloop
endfacet
facet normal 0.0 0.0 1.0
  outer loop
    vertex 32.83899667371036 37.98944431746702 27.687200000000004
    vertex 29.638996673710324 36.44207226162992 27.687200000000004
    vertex 29.904295724097548 36.55196272638499 27.687200000000004
  endloop
endfacet
facet normal 0.0 0.0 1.0
  outer loop
    vertex 32.83899667371036 37.98944431746702 27.687200000000004
    vertex 29.904295724097548 36.55196272638499 27.687200000000004
    vertex 30.188996673710356 36.58944431746701 27.687200000000004
  endloop
endfacet
facet normal 0.0 0.0 1.0
  outer loop
    vertex 32.83899667371036 37.98944431746702 27.687200000000004
    vertex 30.188996673710356 36.58944431746701 27.687200000000004
    vertex 30.473697623323122 36.551962726384986 27.687200000000004
  endloop
endfacet
facet normal 0.0 0.0 1.0
  outer loop
    vertex 32.83899667371036 37.98944431746702 27.687200000000004
    vertex 30.473697623323122 36.551962726384986 27.687200000000004
    vertex 30.738996673710346 36.4420722616299 27.687200000000004
  endloop
endfacet
facet normal 0.0 0.0 1.0
  outer loop
    vertex 32.83899667371036 37.98944431746702 27.687200000000004
    vertex 30.738996673710346 36.4420722616299 27.687200000000004
    vertex 30.966814133015532 36.267261776772244 27.687200000000004
  endloop
endfacet
facet normal 0.0 0.0 1.0
  outer loop
    vertex 32.83899667371036 37.98944431746702 27.687200000000004
    vertex 30.966814133015532 36.267261776772244 27.687200000000004
    vertex 31.1416246178732 36.03944431746704 27.687200000000004
  endloop
endfacet
facet normal 0.0 0.0 1.0
  outer loop
    vertex 32.83899667371036 37.98944431746702 27.687200000000004
    vertex 31.1416246178732 36.03944431746704 27.687200000000004
    vertex 31.251515082628273 35.77414526707981 27.687200000000004
  endloop
endfacet
facet normal 0.0 0.0 1.0
  outer loop
    vertex 32.83899667371036 37.98944431746702 27.687200000000004
    vertex 31.251515082628273 35.77414526707981 27.687200000000004
    vertex 31.28899667371031 35.48944431746703 27.687200000000004
  endloop
endfacet
facet normal 0.0 0.0 1.0
  outer loop
    vertex 32.83899667371036 37.98944431746702 27.687200000000004
    vertex 31.28899667371031 35.48944431746703 27.687200000000004
    vertex 32.83899667371036 32.98944431746702 27.687200000000004
  endloop
endfacet
facet normal -2.4527496640282028e-05 -1.0994938862514723e-07 0.9999999996991951
  outer loop
    vertex 36.838996673710355 17.689444317467025 29.187200000000008
    vertex 13.076264896277687 18.68979308767796 29.186631234660442
    vertex 13.076264896277687 17.689793087677963 29.186631234660442
  endloop
endfacet
facet normal -2.4527496640282028e-05 -1.0994938862514723e-07 0.9999999996991951
  outer loop
    vertex 13.076264896277687 18.68979308767796 29.186631234660442
    vertex 36.838996673710355 17.689444317467025 29.187200000000008
    vertex 35.83899667371036 18.68944431746702 29.187200000000008
  endloop
endfacet
facet normal -2.4527496640282028e-05 -1.0994938862514723e-07 0.9999999996991951
  outer loop
    vertex 35.83899667371036 18.68944431746702 29.187200000000008
    vertex 36.838996673710355 17.689444317467025 29.187200000000008
    vertex 35.83899667371036 37.98944431746702 29.187200000000008
  endloop
endfacet
facet normal -2.4527496640282028e-05 -1.0994938862514723e-07 0.9999999996991951
  outer loop
    vertex 35.83899667371036 37.98944431746702 29.187200000000008
    vertex 13.088996896277688 38.98979308767796 29.186631234660442
    vertex 13.088996896277688 37.98979308767796 29.186631234660442
  endloop
endfacet
facet normal -2.4527496640282028e-05 -1.0994938862514723e-07 0.9999999996991951
  outer loop
    vertex 13.088996896277688 38.98979308767796 29.186631234660442
    vertex 35.83899667371036 37.98944431746702 29.187200000000008
    vertex 36.838996673710355 38.98944431746702 29.187200000000008
  endloop
endfacet
facet normal -2.4527496640282028e-05 -1.0994938862514723e-07 0.9999999996991951
  outer loop
    vertex 36.838996673710355 38.98944431746702 29.187200000000008
    vertex 35.83899667371036 37.98944431746702 29.187200000000008
    vertex 36.838996673710355 17.689444317467025 29.187200000000008
  endloop
endfacet
facet normal 0.923879532511294 -0.3826834323650728 7.432257675144228e-16
  outer loop
    vertex 15.236380734293604 36.03944431462123 23.686682656862864
    vertex 15.126478264792356 35.77414526707977 27.687200000000004
    vertex 15.126490269538529 35.774145264234 23.686680026945332
  endloop
endfacet
facet normal 0.923879532511294 -0.3826834323650728 7.432257675144228e-16
  outer loop
    vertex 15.126478264792356 35.77414526707977 27.687200000000004
    vertex 15.236380734293604 36.03944431462123 23.686682656862864
    vertex 15.236368729547449 36.039444317467 27.687200000000004
  endloop
endfacet
facet normal 1.0 0.0 0.0
  outer loop
    vertex 23.588936780489774 24.939517599711255 18.187200008957493
    vertex 23.58899667371037 27.939444317467014 23.687200000000008
    vertex 23.58899667371037 24.93944431746702 23.687200000000008
  endloop
endfacet
facet normal 1.0 0.0 0.0
  outer loop
    vertex 23.58899667371037 27.939444317467014 23.687200000000008
    vertex 23.588936780489774 24.939517599711255 18.187200008957493
    vertex 23.588936780489774 27.939517599711245 18.187200008957493
  endloop
endfacet
facet normal -1.0 0.0 0.0
  outer loop
    vertex 35.83899667371036 37.98944431746702 29.187200000000008
    vertex 35.83899667371036 18.68944431746702 24.687200000000008
    vertex 35.83899667371036 18.68944431746702 29.187200000000008
  endloop
endfacet
facet normal -1.0 0.0 0.0
  outer loop
    vertex 35.83899667371036 18.68944431746702 24.687200000000008
    vertex 35.83899667371036 37.98944431746702 29.187200000000008
    vertex 35.83899667371036 37.98944431746702 24.687200000000008
  endloop
endfacet
facet normal 0.0 -1.0 0.0
  outer loop
    vertex 35.83899667371036 37.98944431746702 29.187200000000008
    vertex 32.83899667371036 37.98944431746702 24.687200000000008
    vertex 35.83899667371036 37.98944431746702 24.687200000000008
  endloop
endfacet
facet normal 0.0 -1.0 0.0
  outer loop
    vertex 32.83899667371036 37.98944431746702 24.687200000000008
    vertex 35.83899667371036 37.98944431746702 29.187200000000008
    vertex 32.83899667371036 37.98944431746702 27.687200000000004
  endloop
endfacet
facet normal 0.0 -1.0 0.0
  outer loop
    vertex 32.83899667371036 37.98944431746702 27.687200000000004
    vertex 35.83899667371036 37.98944431746702 29.187200000000008
    vertex 13.088996896277688 37.98979308767796 29.186631234660442
  endloop
endfacet
facet normal 0.0 -1.0 0.0
  outer loop
    vertex 13.088996896277688 37.98979308767796 29.186631234660442
    vertex 13.088996896277688 37.98979308767796 27.68663123466044
    vertex 32.83899667371036 37.98944431746702 27.687200000000004
  endloop
endfacet
facet normal 0.0 -1.0 0.0
  outer loop
    vertex 32.83899667371036 32.98944431746702 24.687200000000008
    vertex 13.088996896277688 32.98979308767796 27.68663123466044
    vertex 13.088996896277688 32.98979308767796 24.686631234660442
  endloop
endfacet
facet normal 0.0 -1.0 0.0
  outer loop
    vertex 13.088996896277688 32.98979308767796 27.68663123466044
    vertex 32.83899667371036 32.98944431746702 24.687200000000008
    vertex 32.83899667371036 32.98944431746702 27.687200000000004
  endloop
endfacet
facet normal 1.0 0.0 0.0
  outer loop
    vertex 32.83899667371036 37.98944431746702 24.687200000000008
    vertex 32.83899667371036 32.98944431746702 27.687200000000004
    vertex 32.83899667371036 32.98944431746702 24.687200000000008
  endloop
endfacet
facet normal 1.0 0.0 0.0
  outer loop
    vertex 32.83899667371036 32.98944431746702 27.687200000000004
    vertex 32.83899667371036 37.98944431746702 24.687200000000008
    vertex 32.83899667371036 37.98944431746702 27.687200000000004
  endloop
endfacet
facet normal -2.2055986339400734e-05 6.815852676550813e-06 0.9999999997335389
  outer loop
    vertex 28.463996673710344 18.689444317467025 24.687200000000008
    vertex 18.463996673710344 20.68944431746703 24.687200000000008
    vertex 18.463996673710344 18.68944431746702 24.687200000000008
  endloop
endfacet
facet normal -2.2055986339400734e-05 6.815852676550813e-06 0.9999999997335389
  outer loop
    vertex 35.83899667371036 18.68944431746702 24.687200000000008
    vertex 32.838996673710355 20.68944431746703 24.687200000000008
    vertex 32.838996673710355 18.689444317467025 24.687200000000008
  endloop
endfacet
facet normal -2.2055986339400734e-05 6.815852676550813e-06 0.9999999997335389
  outer loop
    vertex 32.838996673710355 20.68944431746703 24.687200000000008
    vertex 35.83899667371036 18.68944431746702 24.687200000000008
    vertex 32.83899667371036 32.98944431746702 24.687200000000008
  endloop
endfacet
facet normal -2.2055986339400734e-05 6.815852676550813e-06 0.9999999997335389
  outer loop
    vertex 32.83899667371036 32.98944431746702 24.687200000000008
    vertex 35.83899667371036 18.68944431746702 24.687200000000008
    vertex 32.83899667371036 37.98944431746702 24.687200000000008
  endloop
endfacet
facet normal -2.2055986339400734e-05 6.815852676550813e-06 0.9999999997335389
  outer loop
    vertex 32.83899667371036 37.98944431746702 24.687200000000008
    vertex 35.83899667371036 18.68944431746702 24.687200000000008
    vertex 35.83899667371036 37.98944431746702 24.687200000000008
  endloop
endfacet
facet normal -2.2055986339400734e-05 6.815852676550813e-06 0.9999999997335389
  outer loop
    vertex 13.754035600274273 20.68976563949299 24.686711237028362
    vertex 13.088996896277688 32.98979308767796 24.686631234660442
    vertex 13.088996896277688 20.689793087677966 24.686631234660442
  endloop
endfacet
facet normal -2.2055986339400734e-05 6.815852676550813e-06 0.9999999997335389
  outer loop
    vertex 13.088996896277688 32.98979308767796 24.686631234660442
    vertex 13.754035600274273 20.68976563949299 24.686711237028362
    vertex 32.83899667371036 32.98944431746702 24.687200000000008
  endloop
endfacet
facet normal -2.2055986339400734e-05 6.815852676550813e-06 0.9999999997335389
  outer loop
    vertex 32.83899667371036 32.98944431746702 24.687200000000008
    vertex 13.754035600274273 20.68976563949299 24.686711237028362
    vertex 18.463996673710344 20.68944431746703 24.687200000000008
  endloop
endfacet
facet normal -2.2055986339400734e-05 6.815852676550813e-06 0.9999999997335389
  outer loop
    vertex 32.83899667371036 32.98944431746702 24.687200000000008
    vertex 18.463996673710344 20.68944431746703 24.687200000000008
    vertex 28.463996673710344 20.68944431746703 24.687200000000008
  endloop
endfacet
facet normal -2.2055986339400734e-05 6.815852676550813e-06 0.9999999997335389
  outer loop
    vertex 28.463996673710344 20.68944431746703 24.687200000000008
    vertex 18.463996673710344 20.68944431746703 24.687200000000008
    vertex 28.463996673710344 18.689444317467025 24.687200000000008
  endloop
endfacet
facet normal -2.2055986339400734e-05 6.815852676550813e-06 0.9999999997335389
  outer loop
    vertex 32.83899667371036 32.98944431746702 24.687200000000008
    vertex 28.463996673710344 20.68944431746703 24.687200000000008
    vertex 31.060404717260795 20.689460021970174 24.687209630092585
  endloop
endfacet
facet normal -2.2055986339400734e-05 6.815852676550813e-06 0.9999999997335389
  outer loop
    vertex 32.83899667371036 32.98944431746702 24.687200000000008
    vertex 31.060404717260795 20.689460021970174 24.687209630092585
    vertex 32.838996673710355 20.68944431746703 24.687200000000008
  endloop
endfacet
facet normal 0.9914448613738062 0.1305261922200842 4.797761130277557e-16
  outer loop
    vertex 15.089008678456514 35.48944431462124 23.68667913090271
    vertex 15.126478264792379 35.204743367854235 27.687200000000004
    vertex 15.126490269538541 35.204743365008476 23.686680029798822
  endloop
endfacet
facet normal 0.9914448613738062 0.1305261922200842 4.797761130277557e-16
  outer loop
    vertex 15.126478264792379 35.204743367854235 27.687200000000004
    vertex 15.089008678456514 35.48944431462124 23.68667913090271
    vertex 15.08899667371034 35.489444317467004 27.687200000000004
  endloop
endfacet
facet normal 0.9238795325113133 0.382683432365026 1.2007121798995434e-15
  outer loop
    vertex 15.126490269538541 35.204743365008476 23.686680029798822
    vertex 15.236368729547449 34.939444317467 27.687200000000004
    vertex 15.236380734293611 34.93944431462122 23.68668266237538
  endloop
endfacet
facet normal 0.9238795325113133 0.382683432365026 1.2007121798995434e-15
  outer loop
    vertex 15.236368729547449 34.939444317467 27.687200000000004
    vertex 15.126490269538541 35.204743365008476 23.686680029798822
    vertex 15.126478264792379 35.204743367854235 27.687200000000004
  endloop
endfacet
facet normal 0.9914448613738658 -0.1305261922196309 -1.97602857377782e-14
  outer loop
    vertex 29.12649026953844 35.77414526423405 23.687015246735665
    vertex 29.088996673710337 35.48944431746701 27.687200000000004
    vertex 29.089008678456516 35.489444314621245 23.687014350693044
  endloop
endfacet
facet normal 0.9914448613738658 -0.1305261922196309 -1.97602857377782e-14
  outer loop
    vertex 29.088996673710337 35.48944431746701 27.687200000000004
    vertex 29.12649026953844 35.77414526423405 23.687015246735665
    vertex 29.126478264792354 35.77414526707979 27.687200000000004
  endloop
endfacet
facet normal 2.3941595334534467e-05 -7.155502186310453e-09 -0.9999999997134001
  outer loop
    vertex 28.588996680994644 30.938638298315894 23.686191307506746
    vertex 29.12649026953855 35.20474336500849 23.687015249589155
    vertex 30.58965633387118 28.938525254966663 23.685918354774213
  endloop
endfacet
facet normal 2.3941595334534467e-05 -7.155502186310453e-09 -0.9999999997134001
  outer loop
    vertex 29.12649026953855 35.20474336500849 23.687015249589155
    vertex 28.588996680994644 30.938638298315894 23.686191307506746
    vertex 29.089008678456516 35.489444314621245 23.687014350693044
  endloop
endfacet
facet normal 2.3941595334534467e-05 -7.155502186310453e-09 -0.9999999997134001
  outer loop
    vertex 30.58965633387118 28.938525254966663 23.685918354774213
    vertex 29.12649026953855 35.20474336500849 23.687015249589155
    vertex 29.236380734293622 34.93944431462126 23.687017882165712
  endloop
endfacet
facet normal 2.3941595334534467e-05 -7.155502186310453e-09 -0.9999999997134001
  outer loop
    vertex 30.58965633387118 28.938525254966663 23.685918354774213
    vertex 29.236380734293622 34.93944431462126 23.687017882165712
    vertex 29.411191219151295 34.71162685531607 23.68702206901697
  endloop
endfacet
facet normal 2.3941595334534467e-05 -7.155502186310453e-09 -0.9999999997134001
  outer loop
    vertex 30.58965633387118 28.938525254966663 23.685918354774213
    vertex 29.411191219151295 34.71162685531607 23.68702206901697
    vertex 29.639008678456502 34.53681637045841 23.687027524815928
  endloop
endfacet
facet normal 2.3941595334534467e-05 -7.155502186310453e-09 -0.9999999997134001
  outer loop
    vertex 30.58965633387118 28.938525254966663 23.685918354774213
    vertex 29.639008678456502 34.53681637045841 23.687027524815928
    vertex 29.904307728843765 34.42692590570334 23.687033877758925
  endloop
endfacet
facet normal 2.3941595334534467e-05 -7.155502186310453e-09 -0.9999999997134001
  outer loop
    vertex 30.58965633387118 28.938525254966663 23.685918354774213
    vertex 29.904307728843765 34.42692590570334 23.687033877758925
    vertex 30.189008678456496 34.38944431462123 23.687040694903374
  endloop
endfacet
facet normal 2.3941595334534467e-05 -7.155502186310453e-09 -0.9999999997134001
  outer loop
    vertex 30.58965633387118 28.938525254966663 23.685918354774213
    vertex 30.189008678456496 34.38944431462123 23.687040694903374
    vertex 30.473709628069265 34.42692590570326 23.687047511672155
  endloop
endfacet
facet normal 2.3941595334534467e-05 -7.155502186310453e-09 -0.9999999997134001
  outer loop
    vertex 30.58965633387118 28.938525254966663 23.685918354774213
    vertex 30.473709628069265 34.42692590570326 23.687047511672155
    vertex 30.739008678456493 34.53681637045839 23.687053863513746
  endloop
endfacet
facet normal 2.3941595334534467e-05 -7.155502186310453e-09 -0.9999999997134001
  outer loop
    vertex 30.58965633387118 28.938525254966663 23.685918354774213
    vertex 30.739008678456493 34.53681637045839 23.687053863513746
    vertex 30.58965633387118 23.926496288479363 23.685110081547542
  endloop
endfacet
facet normal 2.3941595334534467e-05 -7.155502186310453e-09 -0.9999999997134001
  outer loop
    vertex 13.089019924727525 38.98979022754835 23.686631189590617
    vertex 15.126490269538529 35.774145264234 23.686680026945332
    vertex 15.089008678456514 35.48944431462124 23.68667913090271
  endloop
endfacet
facet normal 2.3941595334534467e-05 -7.155502186310453e-09 -0.9999999997134001
  outer loop
    vertex 15.126490269538529 35.774145264234 23.686680026945332
    vertex 13.089019924727525 38.98979022754835 23.686631189590617
    vertex 15.236380734293604 36.03944431462123 23.686682656862864
  endloop
endfacet
facet normal 2.3941595334534467e-05 -7.155502186310453e-09 -0.9999999997134001
  outer loop
    vertex 15.236380734293604 36.03944431462123 23.686682656862864
    vertex 13.089019924727525 38.98979022754835 23.686631189590617
    vertex 15.411191219151283 36.267261773926435 23.68668684143076
  endloop
endfacet
facet normal 2.3941595334534467e-05 -7.155502186310453e-09 -0.9999999997134001
  outer loop
    vertex 15.411191219151283 36.267261773926435 23.68668684143076
    vertex 13.089019924727525 38.98979022754835 23.686631189590617
    vertex 15.63900867845646 36.442072258784144 23.68669229547764
  endloop
endfacet
facet normal 2.3941595334534467e-05 -7.155502186310453e-09 -0.9999999997134001
  outer loop
    vertex 15.63900867845646 36.442072258784144 23.68669229547764
    vertex 13.089019924727525 38.98979022754835 23.686631189590617
    vertex 15.904307728843758 36.55196272353916 23.68669864731923
  endloop
endfacet
facet normal 2.3941595334534467e-05 -7.155502186310453e-09 -0.9999999997134001
  outer loop
    vertex 15.904307728843758 36.55196272353916 23.68669864731923
    vertex 13.089019924727525 38.98979022754835 23.686631189590617
    vertex 16.1890086784565 36.58944431462124 23.68670546408801
  endloop
endfacet
facet normal 2.3941595334534467e-05 -7.155502186310453e-09 -0.9999999997134001
  outer loop
    vertex 16.1890086784565 36.58944431462124 23.68670546408801
    vertex 13.089019924727525 38.98979022754835 23.686631189590617
    vertex 36.83901970216018 38.989441457337406 23.68719995493018
  endloop
endfacet
facet normal 2.3941595334534467e-05 -7.155502186310453e-09 -0.9999999997134001
  outer loop
    vertex 16.1890086784565 36.58944431462124 23.68670546408801
    vertex 36.83901970216018 38.989441457337406 23.68719995493018
    vertex 16.47370962806927 36.55196272353926 23.686712281232467
  endloop
endfacet
facet normal 2.3941595334534467e-05 -7.155502186310453e-09 -0.9999999997134001
  outer loop
    vertex 16.47370962806927 36.55196272353926 23.686712281232467
    vertex 36.83901970216018 38.989441457337406 23.68719995493018
    vertex 16.739008678456447 36.44207225878411 23.686718634175453
  endloop
endfacet
facet normal 2.3941595334534467e-05 -7.155502186310453e-09 -0.9999999997134001
  outer loop
    vertex 16.739008678456447 36.44207225878411 23.686718634175453
    vertex 36.83901970216018 38.989441457337406 23.68719995493018
    vertex 16.96682613776163 36.267261773926485 23.68672408997442
  endloop
endfacet
facet normal 2.3941595334534467e-05 -7.155502186310453e-09 -0.9999999997134001
  outer loop
    vertex 16.96682613776163 36.267261773926485 23.68672408997442
    vertex 36.83901970216018 38.989441457337406 23.68719995493018
    vertex 17.1416366226194 36.03944431462129 23.68672827682568
  endloop
endfacet
facet normal 2.3941595334534467e-05 -7.155502186310453e-09 -0.9999999997134001
  outer loop
    vertex 17.1416366226194 36.03944431462129 23.68672827682568
    vertex 36.83901970216018 38.989441457337406 23.68719995493018
    vertex 17.25152708737448 35.774145264234036 23.68673090940223
  endloop
endfacet
facet normal 2.3941595334534467e-05 -7.155502186310453e-09 -0.9999999997134001
  outer loop
    vertex 17.25152708737448 35.774145264234036 23.68673090940223
    vertex 36.83901970216018 38.989441457337406 23.68719995493018
    vertex 17.289008678456494 35.4894443146213 23.686731808298337
  endloop
endfacet
facet normal 2.3941595334534467e-05 -7.155502186310453e-09 -0.9999999997134001
  outer loop
    vertex 17.289008678456494 35.4894443146213 23.686731808298337
    vertex 36.83901970216018 38.989441457337406 23.68719995493018
    vertex 29.90430772884373 36.551962723539226 23.687033867109562
  endloop
endfacet
facet normal 2.3941595334534467e-05 -7.155502186310453e-09 -0.9999999997134001
  outer loop
    vertex 17.289008678456494 35.4894443146213 23.686731808298337
    vertex 29.90430772884373 36.551962723539226 23.687033867109562
    vertex 29.639008678456513 36.442072258784165 23.68702751526797
  endloop
endfacet
facet normal 2.3941595334534467e-05 -7.155502186310453e-09 -0.9999999997134001
  outer loop
    vertex 17.289008678456494 35.4894443146213 23.686731808298337
    vertex 29.639008678456513 36.442072258784165 23.68702751526797
    vertex 21.588030425611727 30.938638298315894 23.686191307506746
  endloop
endfacet
facet normal 2.3941595334534467e-05 -7.155502186310453e-09 -0.9999999997134001
  outer loop
    vertex 17.289008678456494 35.4894443146213 23.686731808298337
    vertex 21.588030425611727 30.938638298315894 23.686191307506746
    vertex 19.5896566292983 28.937988891109853 23.686756612647606
  endloop
endfacet
facet normal 2.3941595334534467e-05 -7.155502186310453e-09 -0.9999999997134001
  outer loop
    vertex 21.588030425611727 30.938638298315894 23.686191307506746
    vertex 29.639008678456513 36.442072258784165 23.68702751526797
    vertex 29.411191219151338 36.267261773926414 23.68702206122109
  endloop
endfacet
facet normal 2.3941595334534467e-05 -7.155502186310453e-09 -0.9999999997134001
  outer loop
    vertex 21.588030425611727 30.938638298315894 23.686191307506746
    vertex 29.411191219151338 36.267261773926414 23.68702206122109
    vertex 29.23638073429368 36.03944431462123 23.687017876653194
  endloop
endfacet
facet normal 2.3941595334534467e-05 -7.155502186310453e-09 -0.9999999997134001
  outer loop
    vertex 21.588030425611727 30.938638298315894 23.686191307506746
    vertex 29.23638073429368 36.03944431462123 23.687017876653194
    vertex 29.12649026953844 35.77414526423405 23.687015246735665
  endloop
endfacet
facet normal 2.3941595334534467e-05 -7.155502186310453e-09 -0.9999999997134001
  outer loop
    vertex 21.588030425611727 30.938638298315894 23.686191307506746
    vertex 29.12649026953844 35.77414526423405 23.687015246735665
    vertex 29.089008678456516 35.489444314621245 23.687014350693044
  endloop
endfacet
facet normal 2.3941595334534467e-05 -7.155502186310453e-09 -0.9999999997134001
  outer loop
    vertex 21.588030425611727 30.938638298315894 23.686191307506746
    vertex 29.089008678456516 35.489444314621245 23.687014350693044
    vertex 28.588996680994644 30.938638298315894 23.686191307506746
  endloop
endfacet
facet normal 2.3941595334534467e-05 -7.155502186310453e-09 -0.9999999997134001
  outer loop
    vertex 29.90430772884373 36.551962723539226 23.687033867109562
    vertex 36.83901970216018 38.989441457337406 23.68719995493018
    vertex 30.189008678456528 36.58944431462126 23.687040683878344
  endloop
endfacet
facet normal 2.3941595334534467e-05 -7.155502186310453e-09 -0.9999999997134001
  outer loop
    vertex 30.189008678456528 36.58944431462126 23.687040683878344
    vertex 36.83901970216018 38.989441457337406 23.68719995493018
    vertex 30.473709628069305 36.551962723539205 23.687047501022796
  endloop
endfacet
facet normal 2.3941595334534467e-05 -7.155502186310453e-09 -0.9999999997134001
  outer loop
    vertex 30.473709628069305 36.551962723539205 23.687047501022796
    vertex 36.83901970216018 38.989441457337406 23.68719995493018
    vertex 30.739008678456546 36.4420722587841 23.687053853965782
  endloop
endfacet
facet normal 2.3941595334534467e-05 -7.155502186310453e-09 -0.9999999997134001
  outer loop
    vertex 30.739008678456546 36.4420722587841 23.687053853965782
    vertex 36.83901970216018 38.989441457337406 23.68719995493018
    vertex 30.96682613776168 36.267261773926464 23.687059309764752
  endloop
endfacet
facet normal 2.3941595334534467e-05 -7.155502186310453e-09 -0.9999999997134001
  outer loop
    vertex 30.96682613776168 36.267261773926464 23.687059309764752
    vertex 36.83901970216018 38.989441457337406 23.68719995493018
    vertex 31.14163662261937 36.03944431462127 23.68706349661601
  endloop
endfacet
facet normal 2.3941595334534467e-05 -7.155502186310453e-09 -0.9999999997134001
  outer loop
    vertex 31.14163662261937 36.03944431462127 23.68706349661601
    vertex 36.83901970216018 38.989441457337406 23.68719995493018
    vertex 31.251527087374438 35.77414526423405 23.68706612919256
  endloop
endfacet
facet normal 2.3941595334534467e-05 -7.155502186310453e-09 -0.9999999997134001
  outer loop
    vertex 31.251527087374438 35.77414526423405 23.68706612919256
    vertex 36.83901970216018 38.989441457337406 23.68719995493018
    vertex 31.289008678456465 35.48944431462127 23.687067028088666
  endloop
endfacet
facet normal 2.3941595334534467e-05 -7.155502186310453e-09 -0.9999999997134001
  outer loop
    vertex 13.076287924727524 17.689790227548368 23.686631189590617
    vertex 21.59128288698829 21.938313497754333 23.686029622841623
    vertex 36.83901970216018 17.68944145733743 23.68719995493018
  endloop
endfacet
facet normal 2.3941595334534467e-05 -7.155502186310453e-09 -0.9999999997134001
  outer loop
    vertex 21.59128288698829 21.938313497754333 23.686029622841623
    vertex 13.076287924727524 17.689790227548368 23.686631189590617
    vertex 19.5896566292983 23.937988693786238 23.685950279260485
  endloop
endfacet
facet normal 2.3941595334534467e-05 -7.155502186310453e-09 -0.9999999997134001
  outer loop
    vertex 19.5896566292983 23.937988693786238 23.685950279260485
    vertex 13.076287924727524 17.689790227548368 23.686631189590617
    vertex 13.089019924727525 38.98979022754835 23.686631189590617
  endloop
endfacet
facet normal 2.3941595334534467e-05 -7.155502186310453e-09 -0.9999999997134001
  outer loop
    vertex 19.5896566292983 23.937988693786238 23.685950279260485
    vertex 13.089019924727525 38.98979022754835 23.686631189590617
    vertex 15.126490269538541 35.204743365008476 23.686680029798822
  endloop
endfacet
facet normal 2.3941595334534467e-05 -7.155502186310453e-09 -0.9999999997134001
  outer loop
    vertex 15.126490269538541 35.204743365008476 23.686680029798822
    vertex 13.089019924727525 38.98979022754835 23.686631189590617
    vertex 15.089008678456514 35.48944431462124 23.68667913090271
  endloop
endfacet
facet normal 2.3941595334534467e-05 -7.155502186310453e-09 -0.9999999997134001
  outer loop
    vertex 19.5896566292983 23.937988693786238 23.685950279260485
    vertex 15.126490269538541 35.204743365008476 23.686680029798822
    vertex 15.236380734293611 34.93944431462122 23.68668266237538
  endloop
endfacet
facet normal 2.3941595334534467e-05 -7.155502186310453e-09 -0.9999999997134001
  outer loop
    vertex 19.5896566292983 23.937988693786238 23.685950279260485
    vertex 15.236380734293611 34.93944431462122 23.68668266237538
    vertex 15.411191219151316 34.71162685531603 23.686686849226636
  endloop
endfacet
facet normal 2.3941595334534467e-05 -7.155502186310453e-09 -0.9999999997134001
  outer loop
    vertex 19.5896566292983 23.937988693786238 23.685950279260485
    vertex 15.411191219151316 34.71162685531603 23.686686849226636
    vertex 15.639008678456541 34.53681637045834 23.6866923050256
  endloop
endfacet
facet normal 2.3941595334534467e-05 -7.155502186310453e-09 -0.9999999997134001
  outer loop
    vertex 19.5896566292983 23.937988693786238 23.685950279260485
    vertex 15.639008678456541 34.53681637045834 23.6866923050256
    vertex 15.904307728843799 34.426925905703285 23.68669865796859
  endloop
endfacet
facet normal 2.3941595334534467e-05 -7.155502186310453e-09 -0.9999999997134001
  outer loop
    vertex 19.5896566292983 23.937988693786238 23.685950279260485
    vertex 15.904307728843799 34.426925905703285 23.68669865796859
    vertex 16.189008678456556 34.389444314621265 23.686705475113044
  endloop
endfacet
facet normal 2.3941595334534467e-05 -7.155502186310453e-09 -0.9999999997134001
  outer loop
    vertex 19.5896566292983 23.937988693786238 23.685950279260485
    vertex 16.189008678456556 34.389444314621265 23.686705475113044
    vertex 16.473709628069336 34.426925905703364 23.686712291881822
  endloop
endfacet
facet normal 2.3941595334534467e-05 -7.155502186310453e-09 -0.9999999997134001
  outer loop
    vertex 19.5896566292983 23.937988693786238 23.685950279260485
    vertex 16.473709628069336 34.426925905703364 23.686712291881822
    vertex 16.739008678456507 34.53681637045841 23.686718643723413
  endloop
endfacet
facet normal 2.3941595334534467e-05 -7.155502186310453e-09 -0.9999999997134001
  outer loop
    vertex 19.5896566292983 23.937988693786238 23.685950279260485
    vertex 16.739008678456507 34.53681637045841 23.686718643723413
    vertex 16.96682613776173 34.711626855316084 23.686724097770295
  endloop
endfacet
facet normal 2.3941595334534467e-05 -7.155502186310453e-09 -0.9999999997134001
  outer loop
    vertex 19.5896566292983 23.937988693786238 23.685950279260485
    vertex 16.96682613776173 34.711626855316084 23.686724097770295
    vertex 17.14163662261938 34.93944431462129 23.686728282338194
  endloop
endfacet
facet normal 2.3941595334534467e-05 -7.155502186310453e-09 -0.9999999997134001
  outer loop
    vertex 19.5896566292983 23.937988693786238 23.685950279260485
    vertex 17.14163662261938 34.93944431462129 23.686728282338194
    vertex 17.251527087374495 35.204743365008525 23.686730912255715
  endloop
endfacet
facet normal 2.3941595334534467e-05 -7.155502186310453e-09 -0.9999999997134001
  outer loop
    vertex 19.5896566292983 23.937988693786238 23.685950279260485
    vertex 17.251527087374495 35.204743365008525 23.686730912255715
    vertex 17.289008678456494 35.4894443146213 23.686731808298337
  endloop
endfacet
facet normal 2.3941595334534467e-05 -7.155502186310453e-09 -0.9999999997134001
  outer loop
    vertex 19.5896566292983 23.937988693786238 23.685950279260485
    vertex 17.289008678456494 35.4894443146213 23.686731808298337
    vertex 19.5896566292983 28.937988891109853 23.686756612647606
  endloop
endfacet
facet normal 2.3941595334534467e-05 -7.155502186310453e-09 -0.9999999997134001
  outer loop
    vertex 36.83901970216018 17.68944145733743 23.68719995493018
    vertex 21.59128288698829 21.938313497754333 23.686029622841623
    vertex 28.58965627986775 21.938313497754333 23.685106012195032
  endloop
endfacet
facet normal 2.3941595334534467e-05 -7.155502186310453e-09 -0.9999999997134001
  outer loop
    vertex 36.83901970216018 17.68944145733743 23.68719995493018
    vertex 28.58965627986775 21.938313497754333 23.685106012195032
    vertex 30.58965633387118 23.926496288479363 23.685110081547542
  endloop
endfacet
facet normal 2.3941595334534467e-05 -7.155502186310453e-09 -0.9999999997134001
  outer loop
    vertex 36.83901970216018 17.68944145733743 23.68719995493018
    vertex 30.58965633387118 23.926496288479363 23.685110081547542
    vertex 30.739008678456493 34.53681637045839 23.687053863513746
  endloop
endfacet
facet normal 2.3941595334534467e-05 -7.155502186310453e-09 -0.9999999997134001
  outer loop
    vertex 36.83901970216018 17.68944145733743 23.68719995493018
    vertex 30.739008678456493 34.53681637045839 23.687053863513746
    vertex 30.96682613776169 34.71162685531606 23.687059317560628
  endloop
endfacet
facet normal 2.3941595334534467e-05 -7.155502186310453e-09 -0.9999999997134001
  outer loop
    vertex 36.83901970216018 17.68944145733743 23.68719995493018
    vertex 30.96682613776169 34.71162685531606 23.687059317560628
    vertex 31.1416366226194 34.93944431462127 23.687063502128524
  endloop
endfacet
facet normal 2.3941595334534467e-05 -7.155502186310453e-09 -0.9999999997134001
  outer loop
    vertex 36.83901970216018 17.68944145733743 23.68719995493018
    vertex 31.1416366226194 34.93944431462127 23.687063502128524
    vertex 31.25152708737445 35.2047433650085 23.68706613204605
  endloop
endfacet
facet normal 2.3941595334534467e-05 -7.155502186310453e-09 -0.9999999997134001
  outer loop
    vertex 36.83901970216018 17.68944145733743 23.68719995493018
    vertex 31.25152708737445 35.2047433650085 23.68706613204605
    vertex 31.289008678456465 35.48944431462127 23.687067028088666
  endloop
endfacet
facet normal 2.3941595334534467e-05 -7.155502186310453e-09 -0.9999999997134001
  outer loop
    vertex 36.83901970216018 17.68944145733743 23.68719995493018
    vertex 31.289008678456465 35.48944431462127 23.687067028088666
    vertex 36.83901970216018 38.989441457337406 23.68719995493018
  endloop
endfacet
facet normal 0.3826834323650277 0.9238795325113125 1.77963012615762e-14
  outer loop
    vertex 29.63899667371035 34.536816373304134 27.687200000000004
    vertex 29.904307728843765 34.42692590570334 23.687033877758925
    vertex 29.639008678456502 34.53681637045841 23.687027524815928
  endloop
endfacet
facet normal 0.3826834323650277 0.9238795325113125 1.77963012615762e-14
  outer loop
    vertex 29.904307728843765 34.42692590570334 23.687033877758925
    vertex 29.63899667371035 34.536816373304134 27.687200000000004
    vertex 29.90429572409757 34.42692590854904 27.687200000000004
  endloop
endfacet
facet normal -0.3826834323651408 0.9238795325112656 -3.542537667500365e-15
  outer loop
    vertex 30.473697623323122 34.426925908549066 27.687200000000004
    vertex 30.739008678456493 34.53681637045839 23.687053863513746
    vertex 30.473709628069265 34.42692590570326 23.687047511672155
  endloop
endfacet
facet normal -0.3826834323651408 0.9238795325112656 -3.542537667500365e-15
  outer loop
    vertex 30.739008678456493 34.53681637045839 23.687053863513746
    vertex 30.473697623323122 34.426925908549066 27.687200000000004
    vertex 30.738996673710346 34.536816373304156 27.687200000000004
  endloop
endfacet
facet normal 0.38268343236499236 0.9238795325113273 1.8501518759806404e-15
  outer loop
    vertex 15.638996673710373 34.53681637330412 27.687200000000004
    vertex 15.904307728843799 34.426925905703285 23.68669865796859
    vertex 15.639008678456541 34.53681637045834 23.6866923050256
  endloop
endfacet
facet normal 0.38268343236499236 0.9238795325113273 1.8501518759806404e-15
  outer loop
    vertex 15.904307728843799 34.426925905703285 23.68669865796859
    vertex 15.638996673710373 34.53681637330412 27.687200000000004
    vertex 15.904295724097619 34.42692590854904 27.687200000000004
  endloop
endfacet
facet normal -0.60876142900873 0.7933533402912282 6.391288817159192e-16
  outer loop
    vertex 30.738996673710346 34.536816373304156 27.687200000000004
    vertex 30.96682613776169 34.71162685531606 23.687059317560628
    vertex 30.739008678456493 34.53681637045839 23.687053863513746
  endloop
endfacet
facet normal -0.60876142900873 0.7933533402912282 6.391288817159192e-16
  outer loop
    vertex 30.96682613776169 34.71162685531606 23.687059317560628
    vertex 30.738996673710346 34.536816373304156 27.687200000000004
    vertex 30.966814133015532 34.71162685816183 27.687200000000004
  endloop
endfacet
facet normal -0.13052619222033673 0.991444861373773 -1.5982178468664563e-15
  outer loop
    vertex 16.188996673710385 34.389444317467024 27.687200000000004
    vertex 16.473709628069336 34.426925905703364 23.686712291881822
    vertex 16.189008678456556 34.389444314621265 23.686705475113044
  endloop
endfacet
facet normal -0.13052619222033673 0.991444861373773 -1.5982178468664563e-15
  outer loop
    vertex 16.473709628069336 34.426925905703364 23.686712291881822
    vertex 16.188996673710385 34.389444317467024 27.687200000000004
    vertex 16.473697623323194 34.42692590854915 27.687200000000004
  endloop
endfacet
facet normal -0.38268343236495356 0.9238795325113431 2.0044982674861236e-15
  outer loop
    vertex 16.473697623323194 34.42692590854915 27.687200000000004
    vertex 16.739008678456507 34.53681637045841 23.686718643723413
    vertex 16.473709628069336 34.426925905703364 23.686712291881822
  endloop
endfacet
facet normal -0.38268343236495356 0.9238795325113431 2.0044982674861236e-15
  outer loop
    vertex 16.739008678456507 34.53681637045841 23.686718643723413
    vertex 16.473697623323194 34.42692590854915 27.687200000000004
    vertex 16.73899667371037 34.536816373304156 27.687200000000004
  endloop
endfacet
facet normal 0.1305261922201846 0.9914448613737928 5.636580853124209e-15
  outer loop
    vertex 29.90429572409757 34.42692590854904 27.687200000000004
    vertex 30.189008678456496 34.38944431462123 23.687040694903374
    vertex 29.904307728843765 34.42692590570334 23.687033877758925
  endloop
endfacet
facet normal 0.1305261922201846 0.9914448613737928 5.636580853124209e-15
  outer loop
    vertex 30.189008678456496 34.38944431462123 23.687040694903374
    vertex 29.90429572409757 34.42692590854904 27.687200000000004
    vertex 30.188996673710335 34.38944431746704 27.687200000000004
  endloop
endfacet
facet normal 0.6087614290087077 0.793353340291245 6.393891120200599e-15
  outer loop
    vertex 29.41117921440514 34.71162685816183 27.687200000000004
    vertex 29.639008678456502 34.53681637045841 23.687027524815928
    vertex 29.411191219151295 34.71162685531607 23.68702206901697
  endloop
endfacet
facet normal 0.6087614290087077 0.793353340291245 6.393891120200599e-15
  outer loop
    vertex 29.639008678456502 34.53681637045841 23.687027524815928
    vertex 29.41117921440514 34.71162685816183 27.687200000000004
    vertex 29.63899667371035 34.536816373304134 27.687200000000004
  endloop
endfacet
facet normal 0.6087614290086936 0.793353340291256 -7.858899383708345e-16
  outer loop
    vertex 15.411179214405166 34.71162685816179 27.687200000000004
    vertex 15.639008678456541 34.53681637045834 23.6866923050256
    vertex 15.411191219151316 34.71162685531603 23.686686849226636
  endloop
endfacet
facet normal 0.6087614290086936 0.793353340291256 -7.858899383708345e-16
  outer loop
    vertex 15.639008678456541 34.53681637045834 23.6866923050256
    vertex 15.411179214405166 34.71162685816179 27.687200000000004
    vertex 15.638996673710373 34.53681637330412 27.687200000000004
  endloop
endfacet
facet normal -0.6087614290087148 0.7933533402912397 4.5736608877086794e-15
  outer loop
    vertex 16.73899667371037 34.536816373304156 27.687200000000004
    vertex 16.96682613776173 34.711626855316084 23.686724097770295
    vertex 16.739008678456507 34.53681637045841 23.686718643723413
  endloop
endfacet
facet normal -0.6087614290087148 0.7933533402912397 4.5736608877086794e-15
  outer loop
    vertex 16.96682613776173 34.711626855316084 23.686724097770295
    vertex 16.73899667371037 34.536816373304156 27.687200000000004
    vertex 16.966814133015557 34.71162685816184 27.687200000000004
  endloop
endfacet
facet normal 0.13052619222002446 0.991444861373814 3.8796298068572195e-15
  outer loop
    vertex 15.904295724097619 34.42692590854904 27.687200000000004
    vertex 16.189008678456556 34.389444314621265 23.686705475113044
    vertex 15.904307728843799 34.426925905703285 23.68669865796859
  endloop
endfacet
facet normal 0.13052619222002446 0.991444861373814 3.8796298068572195e-15
  outer loop
    vertex 16.189008678456556 34.389444314621265 23.686705475113044
    vertex 15.904295724097619 34.42692590854904 27.687200000000004
    vertex 16.188996673710385 34.389444317467024 27.687200000000004
  endloop
endfacet
facet normal -0.13052619222006445 0.9914448613738088 -1.0282880807093942e-14
  outer loop
    vertex 30.188996673710335 34.38944431746704 27.687200000000004
    vertex 30.473709628069265 34.42692590570326 23.687047511672155
    vertex 30.189008678456496 34.38944431462123 23.687040694903374
  endloop
endfacet
facet normal -0.13052619222006445 0.9914448613738088 -1.0282880807093942e-14
  outer loop
    vertex 30.473709628069265 34.42692590570326 23.687047511672155
    vertex 30.188996673710335 34.38944431746704 27.687200000000004
    vertex 30.473697623323122 34.426925908549066 27.687200000000004
  endloop
endfacet
facet normal -0.999999888755165 0.00038268497944603274 -0.0002757568936287667
  outer loop
    vertex 13.088996896277688 37.98979308767796 27.68663123466044
    vertex 13.088996896277688 32.98979308767796 24.686631234660442
    vertex 13.088996896277688 32.98979308767796 27.68663123466044
  endloop
endfacet
facet normal -0.999999888755165 0.00038268497944603274 -0.0002757568936287667
  outer loop
    vertex 13.088996896277688 38.98979308767796 29.186631234660442
    vertex 13.088996896277688 37.98979308767796 27.68663123466044
    vertex 13.088996896277688 37.98979308767796 29.186631234660442
  endloop
endfacet
facet normal -0.999999888755165 0.00038268497944603274 -0.0002757568936287667
  outer loop
    vertex 13.088996896277688 37.98979308767796 27.68663123466044
    vertex 13.088996896277688 38.98979308767796 29.186631234660442
    vertex 13.089019924727525 38.98979022754835 23.686631189590617
  endloop
endfacet
facet normal -0.999999888755165 0.00038268497944603274 -0.0002757568936287667
  outer loop
    vertex 13.076287924727524 17.689790227548368 23.686631189590617
    vertex 13.088996896277688 20.689793087677966 24.686631234660442
    vertex 13.089019924727525 38.98979022754835 23.686631189590617
  endloop
endfacet
facet normal -0.999999888755165 0.00038268497944603274 -0.0002757568936287667
  outer loop
    vertex 13.088996896277688 20.689793087677966 24.686631234660442
    vertex 13.076287924727524 17.689790227548368 23.686631189590617
    vertex 13.088996896277688 18.68979308767796 27.68663123466044
  endloop
endfacet
facet normal -0.999999888755165 0.00038268497944603274 -0.0002757568936287667
  outer loop
    vertex 13.088996896277688 18.68979308767796 27.68663123466044
    vertex 13.076287924727524 17.689790227548368 23.686631189590617
    vertex 13.076264896277687 17.689793087677963 29.186631234660442
  endloop
endfacet
facet normal -0.999999888755165 0.00038268497944603274 -0.0002757568936287667
  outer loop
    vertex 13.088996896277688 18.68979308767796 27.68663123466044
    vertex 13.076264896277687 17.689793087677963 29.186631234660442
    vertex 13.076264896277687 18.68979308767796 29.186631234660442
  endloop
endfacet
facet normal -0.999999888755165 0.00038268497944603274 -0.0002757568936287667
  outer loop
    vertex 13.088996896277688 20.689793087677966 24.686631234660442
    vertex 13.088996896277688 18.68979308767796 27.68663123466044
    vertex 13.088996896277688 20.689793087677966 27.68663123466044
  endloop
endfacet
facet normal -0.999999888755165 0.00038268497944603274 -0.0002757568936287667
  outer loop
    vertex 13.089019924727525 38.98979022754835 23.686631189590617
    vertex 13.088996896277688 20.689793087677966 24.686631234660442
    vertex 13.088996896277688 32.98979308767796 24.686631234660442
  endloop
endfacet
facet normal -0.999999888755165 0.00038268497944603274 -0.0002757568936287667
  outer loop
    vertex 13.089019924727525 38.98979022754835 23.686631189590617
    vertex 13.088996896277688 32.98979308767796 24.686631234660442
    vertex 13.088996896277688 37.98979308767796 27.68663123466044
  endloop
endfacet
facet normal -0.9284757367779216 -0.00021758397569584476 -0.37139299787679014
  outer loop
    vertex 19.5896566292983 28.937988891109853 23.686756612647606
    vertex 21.590623180108334 23.938794808634363 18.687305222396965
    vertex 19.5896566292983 23.937988693786238 23.685950279260485
  endloop
endfacet
facet normal -0.9284757367779216 -0.00021758397569584476 -0.37139299787679014
  outer loop
    vertex 21.590623180108334 23.938794808634363 18.687305222396965
    vertex 19.5896566292983 28.937988891109853 23.686756612647606
    vertex 21.58737077273519 28.93879489957017 18.688771256871455
  endloop
endfacet
facet normal -8.474372494831402e-05 0.9284615516521814 -0.3714285125325263
  outer loop
    vertex 21.58737077273519 28.93879489957017 18.688771256871455
    vertex 28.588996680994644 30.938638298315894 23.686191307506746
    vertex 28.588996680994644 28.939444324751296 18.687200000000004
  endloop
endfacet
facet normal -8.474372494831402e-05 0.9284615516521814 -0.3714285125325263
  outer loop
    vertex 28.588996680994644 30.938638298315894 23.686191307506746
    vertex 21.58737077273519 28.93879489957017 18.688771256871455
    vertex 21.588030425611727 30.938638298315894 23.686191307506746
  endloop
endfacet
facet normal 0.9283912425103462 3.0035691138478906e-05 -0.3716042248521304
  outer loop
    vertex 28.588996680994644 23.93944431018274 18.687200000000004
    vertex 30.58965633387118 28.938525254966663 23.685918354774213
    vertex 30.58965633387118 23.926496288479363 23.685110081547542
  endloop
endfacet
facet normal 0.9283912425103462 3.0035691138478906e-05 -0.3716042248521304
  outer loop
    vertex 30.58965633387118 28.938525254966663 23.685918354774213
    vertex 28.588996680994644 23.93944431018274 18.687200000000004
    vertex 28.588996680994644 28.939444324751296 18.687200000000004
  endloop
endfacet
facet normal 1.5763853906078372e-05 -0.9283818723658044 -0.371627634621087
  outer loop
    vertex 28.58965627986775 21.938313497754333 23.685106012195032
    vertex 21.590623180108334 23.938794808634363 18.687305222396965
    vertex 28.588996680994644 23.93944431018274 18.687200000000004
  endloop
endfacet
facet normal 1.5763853906078372e-05 -0.9283818723658044 -0.371627634621087
  outer loop
    vertex 21.590623180108334 23.938794808634363 18.687305222396965
    vertex 28.58965627986775 21.938313497754333 23.685106012195032
    vertex 21.59128288698829 21.938313497754333 23.686029622841623
  endloop
endfacet
facet normal -0.6800432119331273 -0.6807175284713767 -0.2723322902916514
  outer loop
    vertex 21.59128288698829 21.938313497754333 23.686029622841623
    vertex 19.5896566292983 23.937988693786238 23.685950279260485
    vertex 21.590623180108334 23.938794808634363 18.687305222396965
  endloop
endfacet
facet normal 0.6781798365741739 -0.6822102093332326 -0.2732422726185203
  outer loop
    vertex 30.58965633387118 23.926496288479363 23.685110081547542
    vertex 28.58965627986775 21.938313497754333 23.685106012195032
    vertex 28.588996680994644 23.93944431018274 18.687200000000004
  endloop
endfacet
facet normal 0.6803041653105435 0.6805272259461366 -0.272156090152656
  outer loop
    vertex 28.588996680994644 30.938638298315894 23.686191307506746
    vertex 30.58965633387118 28.938525254966663 23.685918354774213
    vertex 28.588996680994644 28.939444324751296 18.687200000000004
  endloop
endfacet
facet normal -0.6808654562847274 0.6800141489187395 -0.27203490163674315
  outer loop
    vertex 21.588030425611727 30.938638298315894 23.686191307506746
    vertex 21.58737077273519 28.93879489957017 18.688771256871455
    vertex 19.5896566292983 28.937988891109853 23.686756612647606
  endloop
endfacet
facet normal -0.00011978644119223736 0.00014656448846395495 -0.9999999820850295
  outer loop
    vertex 21.587310879514597 28.9388681818144 18.18877126582894
    vertex 23.588936780489774 27.939517599711245 18.187200008957493
    vertex 21.59056328688774 23.938868090878593 18.187305231354454
  endloop
endfacet
facet normal -0.00011978644119223736 0.00014656448846395495 -0.9999999820850295
  outer loop
    vertex 23.588936780489774 27.939517599711245 18.187200008957493
    vertex 21.587310879514597 28.9388681818144 18.18877126582894
    vertex 28.58893678777405 28.939517606995526 18.187200008957493
  endloop
endfacet
facet normal -0.00011978644119223736 0.00014656448846395495 -0.9999999820850295
  outer loop
    vertex 23.588936780489774 27.939517599711245 18.187200008957493
    vertex 28.58893678777405 28.939517606995526 18.187200008957493
    vertex 27.588936780489767 27.939517599711245 18.187200008957493
  endloop
endfacet
facet normal -0.00011978644119223736 0.00014656448846395495 -0.9999999820850295
  outer loop
    vertex 27.588936780489767 27.939517599711245 18.187200008957493
    vertex 28.58893678777405 28.939517606995526 18.187200008957493
    vertex 27.588936780489767 24.939517599711255 18.187200008957493
  endloop
endfacet
facet normal -0.00011978644119223736 0.00014656448846395495 -0.9999999820850295
  outer loop
    vertex 21.59056328688774 23.938868090878593 18.187305231354454
    vertex 23.588936780489774 24.939517599711255 18.187200008957493
    vertex 28.58893678777405 23.939517592426974 18.187200008957493
  endloop
endfacet
facet normal -0.00011978644119223736 0.00014656448846395495 -0.9999999820850295
  outer loop
    vertex 23.588936780489774 24.939517599711255 18.187200008957493
    vertex 21.59056328688774 23.938868090878593 18.187305231354454
    vertex 23.588936780489774 27.939517599711245 18.187200008957493
  endloop
endfacet
facet normal -0.00011978644119223736 0.00014656448846395495 -0.9999999820850295
  outer loop
    vertex 28.58893678777405 23.939517592426974 18.187200008957493
    vertex 23.588936780489774 24.939517599711255 18.187200008957493
    vertex 27.588936780489767 24.939517599711255 18.187200008957493
  endloop
endfacet
facet normal -0.00011978644119223736 0.00014656448846395495 -0.9999999820850295
  outer loop
    vertex 28.58893678777405 23.939517592426974 18.187200008957493
    vertex 27.588936780489767 24.939517599711255 18.187200008957493
    vertex 28.58893678777405 28.939517606995526 18.187200008957493
  endloop
endfacet
facet normal 0.9999999928256043 0.0 -0.0001197864424788126
  outer loop
    vertex 28.58893678777405 23.939517592426974 18.187200008957493
    vertex 28.588996680994644 28.939444324751296 18.687200000000004
    vertex 28.588996680994644 23.93944431018274 18.687200000000004
  endloop
endfacet
facet normal 0.9999999928256043 0.0 -0.0001197864424788126
  outer loop
    vertex 28.588996680994644 28.939444324751296 18.687200000000004
    vertex 28.58893678777405 23.939517592426974 18.187200008957493
    vertex 28.58893678777405 28.939517606995526 18.187200008957493
  endloop
endfacet
facet normal 9.280529475686284e-05 -0.9999999849513845 -0.0001465756057002427
  outer loop
    vertex 28.588996680994644 23.93944431018274 18.687200000000004
    vertex 21.59056328688774 23.938868090878593 18.187305231354454
    vertex 28.58893678777405 23.939517592426974 18.187200008957493
  endloop
endfacet
facet normal 9.280529475686284e-05 -0.9999999849513845 -0.0001465756057002427
  outer loop
    vertex 21.59056328688774 23.938868090878593 18.187305231354454
    vertex 28.588996680994644 23.93944431018274 18.687200000000004
    vertex 21.590623180108334 23.938794808634363 18.687305222396965
  endloop
endfacet
facet normal -0.9999997812511965 -0.000650516414753646 0.00011969107452779297
  outer loop
    vertex 21.58737077273519 28.93879489957017 18.688771256871455
    vertex 21.59056328688774 23.938868090878593 18.187305231354454
    vertex 21.590623180108334 23.938794808634363 18.687305222396965
  endloop
endfacet
facet normal -0.9999997812511965 -0.000650516414753646 0.00011969107452779297
  outer loop
    vertex 21.59056328688774 23.938868090878593 18.187305231354454
    vertex 21.58737077273519 28.93879489957017 18.688771256871455
    vertex 21.587310879514597 28.9388681818144 18.18877126582894
  endloop
endfacet
facet normal -9.272058689693675e-05 0.9999999849592438 0.0001465755955545413
  outer loop
    vertex 21.587310879514597 28.9388681818144 18.18877126582894
    vertex 28.588996680994644 28.939444324751296 18.687200000000004
    vertex 28.58893678777405 28.939517606995526 18.187200008957493
  endloop
endfacet
facet normal -9.272058689693675e-05 0.9999999849592438 0.0001465755955545413
  outer loop
    vertex 28.588996680994644 28.939444324751296 18.687200000000004
    vertex 21.587310879514597 28.9388681818144 18.18877126582894
    vertex 21.58737077273519 28.93879489957017 18.688771256871455
  endloop
endfacet
endsolid V2-Joystick
