solid V2-Joystick
facet normal 0.7933533402912248 -0.6087614290087343 0.0
  outer loop
    vertex 15.305113197227163 36.373327793950196 27.937200000000008
    vertex 15.106464918979785 36.114444317467004 29.187200000000008
    vertex 15.106464918979785 36.114444317467004 27.937200000000008
  endloop
endfacet
facet normal 0.7933533402912248 -0.6087614290087343 0.0
  outer loop
    vertex 15.106464918979785 36.114444317467004 29.187200000000008
    vertex 15.305113197227163 36.373327793950196 27.937200000000008
    vertex 15.305113197227163 36.373327793950196 29.187200000000008
  endloop
endfacet
facet normal -0.3826834323650976 0.9238795325112836 0.0
  outer loop
    vertex 16.512520480088483 34.28203703460568 29.187200000000008
    vertex 16.81399667371033 34.40691256273647 27.937200000000008
    vertex 16.512520480088483 34.28203703460568 27.937200000000008
  endloop
endfacet
facet normal -0.3826834323650976 0.9238795325112836 0.0
  outer loop
    vertex 16.81399667371033 34.40691256273647 27.937200000000008
    vertex 16.512520480088483 34.28203703460568 29.187200000000008
    vertex 16.81399667371033 34.40691256273647 29.187200000000008
  endloop
endfacet
facet normal -0.7933533402912248 0.6087614290087343 0.0
  outer loop
    vertex 17.27152842844089 34.86444431746702 29.187200000000008
    vertex 17.072880150193512 34.60556084098383 27.937200000000008
    vertex 17.072880150193512 34.60556084098383 29.187200000000008
  endloop
endfacet
facet normal -0.7933533402912248 0.6087614290087343 0.0
  outer loop
    vertex 17.072880150193512 34.60556084098383 27.937200000000008
    vertex 17.27152842844089 34.86444431746702 29.187200000000008
    vertex 17.27152842844089 34.86444431746702 27.937200000000008
  endloop
endfacet
facet normal -0.13052619222005837 0.9914448613738096 0.0
  outer loop
    vertex 16.18899667371034 34.23944431746701 29.187200000000008
    vertex 16.512520480088483 34.28203703460568 27.937200000000008
    vertex 16.18899667371034 34.23944431746701 27.937200000000008
  endloop
endfacet
facet normal -0.13052619222005837 0.9914448613738096 0.0
  outer loop
    vertex 16.512520480088483 34.28203703460568 27.937200000000008
    vertex 16.18899667371034 34.23944431746701 29.187200000000008
    vertex 16.512520480088483 34.28203703460568 29.187200000000008
  endloop
endfacet
facet normal -0.6087614290087074 0.7933533402912453 0.0
  outer loop
    vertex 16.81399667371033 34.40691256273647 29.187200000000008
    vertex 17.072880150193512 34.60556084098383 27.937200000000008
    vertex 16.81399667371033 34.40691256273647 27.937200000000008
  endloop
endfacet
facet normal -0.6087614290087074 0.7933533402912453 0.0
  outer loop
    vertex 17.072880150193512 34.60556084098383 27.937200000000008
    vertex 16.81399667371033 34.40691256273647 29.187200000000008
    vertex 17.072880150193512 34.60556084098383 29.187200000000008
  endloop
endfacet
facet normal 0.13052619222005837 0.9914448613738096 0.0
  outer loop
    vertex 15.865472867332194 34.28203703460568 29.187200000000008
    vertex 16.18899667371034 34.23944431746701 27.937200000000008
    vertex 15.865472867332194 34.28203703460568 27.937200000000008
  endloop
endfacet
facet normal 0.13052619222005837 0.9914448613738096 0.0
  outer loop
    vertex 16.18899667371034 34.23944431746701 27.937200000000008
    vertex 15.865472867332194 34.28203703460568 29.187200000000008
    vertex 16.18899667371034 34.23944431746701 29.187200000000008
  endloop
endfacet
facet normal -0.9238795325112836 0.3826834323650976 0.0
  outer loop
    vertex 17.39640395657168 35.16592051108887 29.187200000000008
    vertex 17.27152842844089 34.86444431746702 27.937200000000008
    vertex 17.27152842844089 34.86444431746702 29.187200000000008
  endloop
endfacet
facet normal -0.9238795325112836 0.3826834323650976 0.0
  outer loop
    vertex 17.27152842844089 34.86444431746702 27.937200000000008
    vertex 17.39640395657168 35.16592051108887 29.187200000000008
    vertex 17.39640395657168 35.16592051108887 27.937200000000008
  endloop
endfacet
facet normal -0.9914448613738185 0.1305261922199904 0.0
  outer loop
    vertex 17.438996673710324 35.48944431746701 29.187200000000008
    vertex 17.39640395657168 35.16592051108887 27.937200000000008
    vertex 17.39640395657168 35.16592051108887 29.187200000000008
  endloop
endfacet
facet normal -0.9914448613738185 0.1305261922199904 0.0
  outer loop
    vertex 17.39640395657168 35.16592051108887 27.937200000000008
    vertex 17.438996673710324 35.48944431746701 29.187200000000008
    vertex 17.438996673710324 35.48944431746701 27.937200000000008
  endloop
endfacet
facet normal -0.3826834323650976 -0.9238795325112836 -0.0
  outer loop
    vertex 16.81399667371033 36.57197607219756 29.187200000000008
    vertex 16.512520480088483 36.696851600328344 27.937200000000008
    vertex 16.81399667371033 36.57197607219756 27.937200000000008
  endloop
endfacet
facet normal -0.3826834323650976 -0.9238795325112836 -0.0
  outer loop
    vertex 16.512520480088483 36.696851600328344 27.937200000000008
    vertex 16.81399667371033 36.57197607219756 29.187200000000008
    vertex 16.512520480088483 36.696851600328344 29.187200000000008
  endloop
endfacet
facet normal -0.13052619222005837 -0.9914448613738096 -0.0
  outer loop
    vertex 16.512520480088483 36.696851600328344 29.187200000000008
    vertex 16.18899667371034 36.73944431746701 27.937200000000008
    vertex 16.512520480088483 36.696851600328344 27.937200000000008
  endloop
endfacet
facet normal -0.13052619222005837 -0.9914448613738096 -0.0
  outer loop
    vertex 16.18899667371034 36.73944431746701 27.937200000000008
    vertex 16.512520480088483 36.696851600328344 29.187200000000008
    vertex 16.18899667371034 36.73944431746701 29.187200000000008
  endloop
endfacet
facet normal 0.13052619222005837 -0.9914448613738096 0.0
  outer loop
    vertex 16.18899667371034 36.73944431746701 29.187200000000008
    vertex 15.865472867332194 36.696851600328344 27.937200000000008
    vertex 16.18899667371034 36.73944431746701 27.937200000000008
  endloop
endfacet
facet normal 0.13052619222005837 -0.9914448613738096 0.0
  outer loop
    vertex 15.865472867332194 36.696851600328344 27.937200000000008
    vertex 16.18899667371034 36.73944431746701 29.187200000000008
    vertex 15.865472867332194 36.696851600328344 29.187200000000008
  endloop
endfacet
facet normal 0.3826834323650976 -0.9238795325112836 0.0
  outer loop
    vertex 15.865472867332194 36.696851600328344 29.187200000000008
    vertex 15.563996673710346 36.57197607219756 27.937200000000008
    vertex 15.865472867332194 36.696851600328344 27.937200000000008
  endloop
endfacet
facet normal 0.3826834323650976 -0.9238795325112836 0.0
  outer loop
    vertex 15.563996673710346 36.57197607219756 27.937200000000008
    vertex 15.865472867332194 36.696851600328344 29.187200000000008
    vertex 15.563996673710346 36.57197607219756 29.187200000000008
  endloop
endfacet
facet normal 0.6087614290087074 -0.7933533402912453 0.0
  outer loop
    vertex 15.563996673710346 36.57197607219756 29.187200000000008
    vertex 15.305113197227163 36.373327793950196 27.937200000000008
    vertex 15.563996673710346 36.57197607219756 27.937200000000008
  endloop
endfacet
facet normal 0.6087614290087074 -0.7933533402912453 0.0
  outer loop
    vertex 15.305113197227163 36.373327793950196 27.937200000000008
    vertex 15.563996673710346 36.57197607219756 29.187200000000008
    vertex 15.305113197227163 36.373327793950196 29.187200000000008
  endloop
endfacet
facet normal -0.9914448613738185 -0.1305261922199904 -0.0
  outer loop
    vertex 17.39640395657168 35.81296812384516 29.187200000000008
    vertex 17.438996673710324 35.48944431746701 27.937200000000008
    vertex 17.438996673710324 35.48944431746701 29.187200000000008
  endloop
endfacet
facet normal -0.9914448613738185 -0.1305261922199904 -0.0
  outer loop
    vertex 17.438996673710324 35.48944431746701 27.937200000000008
    vertex 17.39640395657168 35.81296812384516 29.187200000000008
    vertex 17.39640395657168 35.81296812384516 27.937200000000008
  endloop
endfacet
facet normal -0.9238795325112885 -0.38268343236508534 -0.0
  outer loop
    vertex 17.27152842844089 36.11444431746702 29.187200000000008
    vertex 17.39640395657168 35.81296812384516 27.937200000000008
    vertex 17.39640395657168 35.81296812384516 29.187200000000008
  endloop
endfacet
facet normal -0.9238795325112885 -0.38268343236508534 -0.0
  outer loop
    vertex 17.39640395657168 35.81296812384516 27.937200000000008
    vertex 17.27152842844089 36.11444431746702 29.187200000000008
    vertex 17.27152842844089 36.11444431746702 27.937200000000008
  endloop
endfacet
facet normal -0.6087614290087074 -0.7933533402912453 -0.0
  outer loop
    vertex 17.072880150193512 36.373327793950196 29.187200000000008
    vertex 16.81399667371033 36.57197607219756 27.937200000000008
    vertex 17.072880150193512 36.373327793950196 27.937200000000008
  endloop
endfacet
facet normal -0.6087614290087074 -0.7933533402912453 -0.0
  outer loop
    vertex 16.81399667371033 36.57197607219756 27.937200000000008
    vertex 17.072880150193512 36.373327793950196 29.187200000000008
    vertex 16.81399667371033 36.57197607219756 29.187200000000008
  endloop
endfacet
facet normal -0.793353340291212 -0.608761429008751 -0.0
  outer loop
    vertex 17.072880150193512 36.373327793950196 29.187200000000008
    vertex 17.27152842844089 36.11444431746702 27.937200000000008
    vertex 17.27152842844089 36.11444431746702 29.187200000000008
  endloop
endfacet
facet normal -0.793353340291212 -0.608761429008751 -0.0
  outer loop
    vertex 17.27152842844089 36.11444431746702 27.937200000000008
    vertex 17.072880150193512 36.373327793950196 29.187200000000008
    vertex 17.072880150193512 36.373327793950196 27.937200000000008
  endloop
endfacet
facet normal 1.0 0.0 0.0
  outer loop
    vertex 35.58899667371035 37.73944431746701 27.937200000000008
    vertex 35.58899667371035 18.93944431746701 29.187200000000008
    vertex 35.58899667371035 18.93944431746701 27.937200000000008
  endloop
endfacet
facet normal 1.0 0.0 0.0
  outer loop
    vertex 35.58899667371035 18.93944431746701 29.187200000000008
    vertex 35.58899667371035 37.73944431746701 27.937200000000008
    vertex 35.58899667371035 37.73944431746701 29.187200000000008
  endloop
endfacet
facet normal -1.0 0.0 0.0
  outer loop
    vertex 9.338996673710339 37.73944431746701 29.187200000000008
    vertex 9.338996673710339 18.93944431746701 27.937200000000008
    vertex 9.338996673710339 18.93944431746701 29.187200000000008
  endloop
endfacet
facet normal -1.0 0.0 0.0
  outer loop
    vertex 9.338996673710339 18.93944431746701 27.937200000000008
    vertex 9.338996673710339 37.73944431746701 29.187200000000008
    vertex 9.338996673710339 37.73944431746701 27.937200000000008
  endloop
endfacet
facet normal 0.0 1.0 0.0
  outer loop
    vertex 9.338996673710339 37.73944431746701 29.187200000000008
    vertex 35.58899667371035 37.73944431746701 27.937200000000008
    vertex 9.338996673710339 37.73944431746701 27.937200000000008
  endloop
endfacet
facet normal 0.0 1.0 0.0
  outer loop
    vertex 35.58899667371035 37.73944431746701 27.937200000000008
    vertex 9.338996673710339 37.73944431746701 29.187200000000008
    vertex 35.58899667371035 37.73944431746701 29.187200000000008
  endloop
endfacet
facet normal -0.0 -1.0 -0.0
  outer loop
    vertex 35.58899667371035 18.93944431746701 29.187200000000008
    vertex 9.338996673710339 18.93944431746701 27.937200000000008
    vertex 35.58899667371035 18.93944431746701 27.937200000000008
  endloop
endfacet
facet normal -0.0 -1.0 -0.0
  outer loop
    vertex 9.338996673710339 18.93944431746701 27.937200000000008
    vertex 35.58899667371035 18.93944431746701 29.187200000000008
    vertex 9.338996673710339 18.93944431746701 29.187200000000008
  endloop
endfacet
facet normal 0.0 0.0 -1.0
  outer loop
    vertex 9.338996673710339 37.73944431746701 27.937200000000008
    vertex 14.981589390848995 35.81296812384516 27.937200000000008
    vertex 9.338996673710339 18.93944431746701 27.937200000000008
  endloop
endfacet
facet normal 0.0 0.0 -1.0
  outer loop
    vertex 14.981589390848995 35.81296812384516 27.937200000000008
    vertex 9.338996673710339 37.73944431746701 27.937200000000008
    vertex 15.106464918979785 36.114444317467004 27.937200000000008
  endloop
endfacet
facet normal 0.0 0.0 -1.0
  outer loop
    vertex 15.106464918979785 36.114444317467004 27.937200000000008
    vertex 9.338996673710339 37.73944431746701 27.937200000000008
    vertex 15.305113197227163 36.373327793950196 27.937200000000008
  endloop
endfacet
facet normal 0.0 0.0 -1.0
  outer loop
    vertex 15.305113197227163 36.373327793950196 27.937200000000008
    vertex 9.338996673710339 37.73944431746701 27.937200000000008
    vertex 15.563996673710346 36.57197607219756 27.937200000000008
  endloop
endfacet
facet normal 0.0 0.0 -1.0
  outer loop
    vertex 15.563996673710346 36.57197607219756 27.937200000000008
    vertex 9.338996673710339 37.73944431746701 27.937200000000008
    vertex 15.865472867332194 36.696851600328344 27.937200000000008
  endloop
endfacet
facet normal 0.0 0.0 -1.0
  outer loop
    vertex 15.865472867332194 36.696851600328344 27.937200000000008
    vertex 9.338996673710339 37.73944431746701 27.937200000000008
    vertex 16.18899667371034 36.73944431746701 27.937200000000008
  endloop
endfacet
facet normal 0.0 0.0 -1.0
  outer loop
    vertex 16.18899667371034 36.73944431746701 27.937200000000008
    vertex 9.338996673710339 37.73944431746701 27.937200000000008
    vertex 35.58899667371035 37.73944431746701 27.937200000000008
  endloop
endfacet
facet normal 0.0 0.0 -1.0
  outer loop
    vertex 9.338996673710339 18.93944431746701 27.937200000000008
    vertex 14.981589390848995 35.81296812384516 27.937200000000008
    vertex 14.93899667371033 35.48944431746701 27.937200000000008
  endloop
endfacet
facet normal 0.0 0.0 -1.0
  outer loop
    vertex 16.18899667371034 36.73944431746701 27.937200000000008
    vertex 35.58899667371035 37.73944431746701 27.937200000000008
    vertex 16.512520480088483 36.696851600328344 27.937200000000008
  endloop
endfacet
facet normal 0.0 0.0 -1.0
  outer loop
    vertex 16.512520480088483 36.696851600328344 27.937200000000008
    vertex 35.58899667371035 37.73944431746701 27.937200000000008
    vertex 16.81399667371033 36.57197607219756 27.937200000000008
  endloop
endfacet
facet normal 0.0 0.0 -1.0
  outer loop
    vertex 16.81399667371033 36.57197607219756 27.937200000000008
    vertex 35.58899667371035 37.73944431746701 27.937200000000008
    vertex 17.072880150193512 36.373327793950196 27.937200000000008
  endloop
endfacet
facet normal 0.0 0.0 -1.0
  outer loop
    vertex 17.072880150193512 36.373327793950196 27.937200000000008
    vertex 35.58899667371035 37.73944431746701 27.937200000000008
    vertex 17.27152842844089 36.11444431746702 27.937200000000008
  endloop
endfacet
facet normal 0.0 0.0 -1.0
  outer loop
    vertex 17.27152842844089 36.11444431746702 27.937200000000008
    vertex 35.58899667371035 37.73944431746701 27.937200000000008
    vertex 17.39640395657168 35.81296812384516 27.937200000000008
  endloop
endfacet
facet normal 0.0 0.0 -1.0
  outer loop
    vertex 17.39640395657168 35.81296812384516 27.937200000000008
    vertex 35.58899667371035 37.73944431746701 27.937200000000008
    vertex 17.438996673710324 35.48944431746701 27.937200000000008
  endloop
endfacet
facet normal 0.0 0.0 -1.0
  outer loop
    vertex 17.438996673710324 35.48944431746701 27.937200000000008
    vertex 35.58899667371035 37.73944431746701 27.937200000000008
    vertex 29.86547286733219 36.696851600328344 27.937200000000008
  endloop
endfacet
facet normal 0.0 0.0 -1.0
  outer loop
    vertex 17.438996673710324 35.48944431746701 27.937200000000008
    vertex 29.86547286733219 36.696851600328344 27.937200000000008
    vertex 29.563996673710342 36.57197607219756 27.937200000000008
  endloop
endfacet
facet normal 0.0 0.0 -1.0
  outer loop
    vertex 17.438996673710324 35.48944431746701 27.937200000000008
    vertex 29.563996673710342 36.57197607219756 27.937200000000008
    vertex 29.30511319722716 36.373327793950196 27.937200000000008
  endloop
endfacet
facet normal 0.0 0.0 -1.0
  outer loop
    vertex 17.438996673710324 35.48944431746701 27.937200000000008
    vertex 29.30511319722716 36.373327793950196 27.937200000000008
    vertex 29.106464918979782 36.114444317467004 27.937200000000008
  endloop
endfacet
facet normal 0.0 0.0 -1.0
  outer loop
    vertex 17.438996673710324 35.48944431746701 27.937200000000008
    vertex 29.106464918979782 36.114444317467004 27.937200000000008
    vertex 28.981589390848992 35.81296812384516 27.937200000000008
  endloop
endfacet
facet normal 0.0 0.0 -1.0
  outer loop
    vertex 17.438996673710324 35.48944431746701 27.937200000000008
    vertex 28.981589390848992 35.81296812384516 27.937200000000008
    vertex 28.938996673710328 35.48944431746701 27.937200000000008
  endloop
endfacet
facet normal 0.0 0.0 -1.0
  outer loop
    vertex 29.86547286733219 36.696851600328344 27.937200000000008
    vertex 35.58899667371035 37.73944431746701 27.937200000000008
    vertex 30.188996673710335 36.73944431746701 27.937200000000008
  endloop
endfacet
facet normal 0.0 0.0 -1.0
  outer loop
    vertex 30.188996673710335 36.73944431746701 27.937200000000008
    vertex 35.58899667371035 37.73944431746701 27.937200000000008
    vertex 30.51252048008848 36.696851600328344 27.937200000000008
  endloop
endfacet
facet normal 0.0 0.0 -1.0
  outer loop
    vertex 30.51252048008848 36.696851600328344 27.937200000000008
    vertex 35.58899667371035 37.73944431746701 27.937200000000008
    vertex 30.813996673710328 36.57197607219756 27.937200000000008
  endloop
endfacet
facet normal 0.0 0.0 -1.0
  outer loop
    vertex 30.813996673710328 36.57197607219756 27.937200000000008
    vertex 35.58899667371035 37.73944431746701 27.937200000000008
    vertex 31.072880150193512 36.373327793950196 27.937200000000008
  endloop
endfacet
facet normal 0.0 0.0 -1.0
  outer loop
    vertex 31.072880150193512 36.373327793950196 27.937200000000008
    vertex 35.58899667371035 37.73944431746701 27.937200000000008
    vertex 31.271528428440888 36.11444431746702 27.937200000000008
  endloop
endfacet
facet normal 0.0 0.0 -1.0
  outer loop
    vertex 31.271528428440888 36.11444431746702 27.937200000000008
    vertex 35.58899667371035 37.73944431746701 27.937200000000008
    vertex 31.396403956571678 35.81296812384516 27.937200000000008
  endloop
endfacet
facet normal 0.0 0.0 -1.0
  outer loop
    vertex 31.396403956571678 35.81296812384516 27.937200000000008
    vertex 35.58899667371035 37.73944431746701 27.937200000000008
    vertex 31.438996673710346 35.48944431746701 27.937200000000008
  endloop
endfacet
facet normal 0.0 0.0 -1.0
  outer loop
    vertex 9.338996673710339 18.93944431746701 27.937200000000008
    vertex 15.305113197227163 34.60556084098383 27.937200000000008
    vertex 35.58899667371035 18.93944431746701 27.937200000000008
  endloop
endfacet
facet normal 0.0 0.0 -1.0
  outer loop
    vertex 15.305113197227163 34.60556084098383 27.937200000000008
    vertex 9.338996673710339 18.93944431746701 27.937200000000008
    vertex 15.106464918979785 34.864444317467004 27.937200000000008
  endloop
endfacet
facet normal 0.0 0.0 -1.0
  outer loop
    vertex 15.106464918979785 34.864444317467004 27.937200000000008
    vertex 9.338996673710339 18.93944431746701 27.937200000000008
    vertex 14.981589390848995 35.165920511088856 27.937200000000008
  endloop
endfacet
facet normal 0.0 0.0 -1.0
  outer loop
    vertex 14.981589390848995 35.165920511088856 27.937200000000008
    vertex 9.338996673710339 18.93944431746701 27.937200000000008
    vertex 14.93899667371033 35.48944431746701 27.937200000000008
  endloop
endfacet
facet normal 0.0 0.0 -1.0
  outer loop
    vertex 35.58899667371035 18.93944431746701 27.937200000000008
    vertex 15.305113197227163 34.60556084098383 27.937200000000008
    vertex 15.563996673710346 34.40691256273647 27.937200000000008
  endloop
endfacet
facet normal 0.0 0.0 -1.0
  outer loop
    vertex 35.58899667371035 18.93944431746701 27.937200000000008
    vertex 15.563996673710346 34.40691256273647 27.937200000000008
    vertex 15.865472867332194 34.28203703460568 27.937200000000008
  endloop
endfacet
facet normal 0.0 0.0 -1.0
  outer loop
    vertex 35.58899667371035 18.93944431746701 27.937200000000008
    vertex 15.865472867332194 34.28203703460568 27.937200000000008
    vertex 16.18899667371034 34.23944431746701 27.937200000000008
  endloop
endfacet
facet normal 0.0 0.0 -1.0
  outer loop
    vertex 35.58899667371035 18.93944431746701 27.937200000000008
    vertex 16.18899667371034 34.23944431746701 27.937200000000008
    vertex 16.512520480088483 34.28203703460568 27.937200000000008
  endloop
endfacet
facet normal 0.0 0.0 -1.0
  outer loop
    vertex 35.58899667371035 18.93944431746701 27.937200000000008
    vertex 16.512520480088483 34.28203703460568 27.937200000000008
    vertex 16.81399667371033 34.40691256273647 27.937200000000008
  endloop
endfacet
facet normal 0.0 0.0 -1.0
  outer loop
    vertex 35.58899667371035 18.93944431746701 27.937200000000008
    vertex 16.81399667371033 34.40691256273647 27.937200000000008
    vertex 17.072880150193512 34.60556084098383 27.937200000000008
  endloop
endfacet
facet normal 0.0 0.0 -1.0
  outer loop
    vertex 35.58899667371035 18.93944431746701 27.937200000000008
    vertex 17.072880150193512 34.60556084098383 27.937200000000008
    vertex 17.27152842844089 34.86444431746702 27.937200000000008
  endloop
endfacet
facet normal 0.0 0.0 -1.0
  outer loop
    vertex 35.58899667371035 18.93944431746701 27.937200000000008
    vertex 17.27152842844089 34.86444431746702 27.937200000000008
    vertex 17.39640395657168 35.16592051108887 27.937200000000008
  endloop
endfacet
facet normal 0.0 0.0 -1.0
  outer loop
    vertex 35.58899667371035 18.93944431746701 27.937200000000008
    vertex 17.39640395657168 35.16592051108887 27.937200000000008
    vertex 17.438996673710324 35.48944431746701 27.937200000000008
  endloop
endfacet
facet normal 0.0 0.0 -1.0
  outer loop
    vertex 35.58899667371035 18.93944431746701 27.937200000000008
    vertex 17.438996673710324 35.48944431746701 27.937200000000008
    vertex 28.981589390848992 35.165920511088856 27.937200000000008
  endloop
endfacet
facet normal 0.0 0.0 -1.0
  outer loop
    vertex 28.981589390848992 35.165920511088856 27.937200000000008
    vertex 17.438996673710324 35.48944431746701 27.937200000000008
    vertex 28.938996673710328 35.48944431746701 27.937200000000008
  endloop
endfacet
facet normal 0.0 0.0 -1.0
  outer loop
    vertex 35.58899667371035 18.93944431746701 27.937200000000008
    vertex 28.981589390848992 35.165920511088856 27.937200000000008
    vertex 29.106464918979782 34.864444317467004 27.937200000000008
  endloop
endfacet
facet normal 0.0 0.0 -1.0
  outer loop
    vertex 35.58899667371035 18.93944431746701 27.937200000000008
    vertex 29.106464918979782 34.864444317467004 27.937200000000008
    vertex 29.30511319722716 34.60556084098383 27.937200000000008
  endloop
endfacet
facet normal 0.0 0.0 -1.0
  outer loop
    vertex 35.58899667371035 18.93944431746701 27.937200000000008
    vertex 29.30511319722716 34.60556084098383 27.937200000000008
    vertex 29.563996673710342 34.40691256273647 27.937200000000008
  endloop
endfacet
facet normal 0.0 0.0 -1.0
  outer loop
    vertex 35.58899667371035 18.93944431746701 27.937200000000008
    vertex 29.563996673710342 34.40691256273647 27.937200000000008
    vertex 29.86547286733219 34.28203703460568 27.937200000000008
  endloop
endfacet
facet normal 0.0 0.0 -1.0
  outer loop
    vertex 35.58899667371035 18.93944431746701 27.937200000000008
    vertex 29.86547286733219 34.28203703460568 27.937200000000008
    vertex 30.188996673710335 34.23944431746701 27.937200000000008
  endloop
endfacet
facet normal 0.0 0.0 -1.0
  outer loop
    vertex 35.58899667371035 18.93944431746701 27.937200000000008
    vertex 30.188996673710335 34.23944431746701 27.937200000000008
    vertex 30.51252048008848 34.28203703460568 27.937200000000008
  endloop
endfacet
facet normal 0.0 0.0 -1.0
  outer loop
    vertex 35.58899667371035 18.93944431746701 27.937200000000008
    vertex 30.51252048008848 34.28203703460568 27.937200000000008
    vertex 30.813996673710328 34.40691256273647 27.937200000000008
  endloop
endfacet
facet normal 0.0 0.0 -1.0
  outer loop
    vertex 35.58899667371035 18.93944431746701 27.937200000000008
    vertex 30.813996673710328 34.40691256273647 27.937200000000008
    vertex 31.072880150193512 34.60556084098383 27.937200000000008
  endloop
endfacet
facet normal 0.0 0.0 -1.0
  outer loop
    vertex 35.58899667371035 18.93944431746701 27.937200000000008
    vertex 31.072880150193512 34.60556084098383 27.937200000000008
    vertex 31.271528428440888 34.86444431746702 27.937200000000008
  endloop
endfacet
facet normal 0.0 0.0 -1.0
  outer loop
    vertex 35.58899667371035 18.93944431746701 27.937200000000008
    vertex 31.271528428440888 34.86444431746702 27.937200000000008
    vertex 31.396403956571678 35.16592051108887 27.937200000000008
  endloop
endfacet
facet normal 0.0 0.0 -1.0
  outer loop
    vertex 35.58899667371035 18.93944431746701 27.937200000000008
    vertex 31.396403956571678 35.16592051108887 27.937200000000008
    vertex 31.438996673710346 35.48944431746701 27.937200000000008
  endloop
endfacet
facet normal 0.0 0.0 -1.0
  outer loop
    vertex 35.58899667371035 18.93944431746701 27.937200000000008
    vertex 31.438996673710346 35.48944431746701 27.937200000000008
    vertex 35.58899667371035 37.73944431746701 27.937200000000008
  endloop
endfacet
facet normal 0.0 0.0 1.0
  outer loop
    vertex 19.588996673710355 32.43944431746701 29.187200000000008
    vertex 28.981589390848992 35.165920511088856 29.187200000000008
    vertex 28.938996673710328 35.48944431746701 29.187200000000008
  endloop
endfacet
facet normal 0.0 0.0 1.0
  outer loop
    vertex 28.981589390848992 35.165920511088856 29.187200000000008
    vertex 19.588996673710355 32.43944431746701 29.187200000000008
    vertex 29.106464918979782 34.864444317467004 29.187200000000008
  endloop
endfacet
facet normal 0.0 0.0 1.0
  outer loop
    vertex 29.106464918979782 34.864444317467004 29.187200000000008
    vertex 19.588996673710355 32.43944431746701 29.187200000000008
    vertex 29.30511319722716 34.60556084098383 29.187200000000008
  endloop
endfacet
facet normal 0.0 0.0 1.0
  outer loop
    vertex 29.30511319722716 34.60556084098383 29.187200000000008
    vertex 19.588996673710355 32.43944431746701 29.187200000000008
    vertex 31.588996673710355 32.43944431746701 29.187200000000008
  endloop
endfacet
facet normal 0.0 0.0 1.0
  outer loop
    vertex 29.30511319722716 34.60556084098383 29.187200000000008
    vertex 31.588996673710355 32.43944431746701 29.187200000000008
    vertex 29.563996673710342 34.40691256273647 29.187200000000008
  endloop
endfacet
facet normal 0.0 0.0 1.0
  outer loop
    vertex 29.563996673710342 34.40691256273647 29.187200000000008
    vertex 31.588996673710355 32.43944431746701 29.187200000000008
    vertex 29.86547286733219 34.28203703460568 29.187200000000008
  endloop
endfacet
facet normal 0.0 0.0 1.0
  outer loop
    vertex 29.86547286733219 34.28203703460568 29.187200000000008
    vertex 31.588996673710355 32.43944431746701 29.187200000000008
    vertex 30.188996673710335 34.23944431746701 29.187200000000008
  endloop
endfacet
facet normal 0.0 0.0 1.0
  outer loop
    vertex 30.188996673710335 34.23944431746701 29.187200000000008
    vertex 31.588996673710355 32.43944431746701 29.187200000000008
    vertex 30.51252048008848 34.28203703460568 29.187200000000008
  endloop
endfacet
facet normal 0.0 0.0 1.0
  outer loop
    vertex 30.51252048008848 34.28203703460568 29.187200000000008
    vertex 31.588996673710355 32.43944431746701 29.187200000000008
    vertex 30.813996673710328 34.40691256273647 29.187200000000008
  endloop
endfacet
facet normal 0.0 0.0 1.0
  outer loop
    vertex 30.813996673710328 34.40691256273647 29.187200000000008
    vertex 31.588996673710355 32.43944431746701 29.187200000000008
    vertex 31.072880150193512 34.60556084098383 29.187200000000008
  endloop
endfacet
facet normal 0.0 0.0 1.0
  outer loop
    vertex 31.072880150193512 34.60556084098383 29.187200000000008
    vertex 31.588996673710355 32.43944431746701 29.187200000000008
    vertex 31.271528428440888 34.86444431746702 29.187200000000008
  endloop
endfacet
facet normal 0.0 0.0 1.0
  outer loop
    vertex 31.271528428440888 34.86444431746702 29.187200000000008
    vertex 31.588996673710355 32.43944431746701 29.187200000000008
    vertex 31.396403956571678 35.16592051108887 29.187200000000008
  endloop
endfacet
facet normal 0.0 0.0 1.0
  outer loop
    vertex 31.396403956571678 35.16592051108887 29.187200000000008
    vertex 31.588996673710355 32.43944431746701 29.187200000000008
    vertex 31.438996673710346 35.48944431746701 29.187200000000008
  endloop
endfacet
facet normal 0.0 0.0 1.0
  outer loop
    vertex 9.338996673710339 18.93944431746701 29.187200000000008
    vertex 19.588996673710355 20.439444317467007 29.187200000000008
    vertex 9.338996673710339 37.73944431746701 29.187200000000008
  endloop
endfacet
facet normal 0.0 0.0 1.0
  outer loop
    vertex 19.588996673710355 20.439444317467007 29.187200000000008
    vertex 9.338996673710339 18.93944431746701 29.187200000000008
    vertex 35.58899667371035 18.93944431746701 29.187200000000008
  endloop
endfacet
facet normal 0.0 0.0 1.0
  outer loop
    vertex 9.338996673710339 37.73944431746701 29.187200000000008
    vertex 19.588996673710355 20.439444317467007 29.187200000000008
    vertex 14.981589390848995 35.165920511088856 29.187200000000008
  endloop
endfacet
facet normal 0.0 0.0 1.0
  outer loop
    vertex 9.338996673710339 37.73944431746701 29.187200000000008
    vertex 14.981589390848995 35.165920511088856 29.187200000000008
    vertex 14.93899667371033 35.48944431746701 29.187200000000008
  endloop
endfacet
facet normal 0.0 0.0 1.0
  outer loop
    vertex 14.981589390848995 35.165920511088856 29.187200000000008
    vertex 19.588996673710355 20.439444317467007 29.187200000000008
    vertex 15.106464918979785 34.864444317467004 29.187200000000008
  endloop
endfacet
facet normal 0.0 0.0 1.0
  outer loop
    vertex 15.106464918979785 34.864444317467004 29.187200000000008
    vertex 19.588996673710355 20.439444317467007 29.187200000000008
    vertex 15.305113197227163 34.60556084098383 29.187200000000008
  endloop
endfacet
facet normal 0.0 0.0 1.0
  outer loop
    vertex 15.305113197227163 34.60556084098383 29.187200000000008
    vertex 19.588996673710355 20.439444317467007 29.187200000000008
    vertex 15.563996673710346 34.40691256273647 29.187200000000008
  endloop
endfacet
facet normal 0.0 0.0 1.0
  outer loop
    vertex 15.563996673710346 34.40691256273647 29.187200000000008
    vertex 19.588996673710355 20.439444317467007 29.187200000000008
    vertex 15.865472867332194 34.28203703460568 29.187200000000008
  endloop
endfacet
facet normal 0.0 0.0 1.0
  outer loop
    vertex 15.865472867332194 34.28203703460568 29.187200000000008
    vertex 19.588996673710355 20.439444317467007 29.187200000000008
    vertex 16.18899667371034 34.23944431746701 29.187200000000008
  endloop
endfacet
facet normal 0.0 0.0 1.0
  outer loop
    vertex 16.18899667371034 34.23944431746701 29.187200000000008
    vertex 19.588996673710355 20.439444317467007 29.187200000000008
    vertex 16.512520480088483 34.28203703460568 29.187200000000008
  endloop
endfacet
facet normal 0.0 0.0 1.0
  outer loop
    vertex 16.512520480088483 34.28203703460568 29.187200000000008
    vertex 19.588996673710355 20.439444317467007 29.187200000000008
    vertex 16.81399667371033 34.40691256273647 29.187200000000008
  endloop
endfacet
facet normal 0.0 0.0 1.0
  outer loop
    vertex 16.81399667371033 34.40691256273647 29.187200000000008
    vertex 19.588996673710355 20.439444317467007 29.187200000000008
    vertex 17.072880150193512 34.60556084098383 29.187200000000008
  endloop
endfacet
facet normal 0.0 0.0 1.0
  outer loop
    vertex 17.072880150193512 34.60556084098383 29.187200000000008
    vertex 19.588996673710355 20.439444317467007 29.187200000000008
    vertex 17.27152842844089 34.86444431746702 29.187200000000008
  endloop
endfacet
facet normal 0.0 0.0 1.0
  outer loop
    vertex 17.27152842844089 34.86444431746702 29.187200000000008
    vertex 19.588996673710355 20.439444317467007 29.187200000000008
    vertex 17.39640395657168 35.16592051108887 29.187200000000008
  endloop
endfacet
facet normal 0.0 0.0 1.0
  outer loop
    vertex 17.39640395657168 35.16592051108887 29.187200000000008
    vertex 19.588996673710355 20.439444317467007 29.187200000000008
    vertex 17.438996673710324 35.48944431746701 29.187200000000008
  endloop
endfacet
facet normal 0.0 0.0 1.0
  outer loop
    vertex 19.588996673710355 20.439444317467007 29.187200000000008
    vertex 35.58899667371035 18.93944431746701 29.187200000000008
    vertex 31.588996673710355 20.439444317467007 29.187200000000008
  endloop
endfacet
facet normal 0.0 0.0 1.0
  outer loop
    vertex 31.588996673710355 20.439444317467007 29.187200000000008
    vertex 35.58899667371035 18.93944431746701 29.187200000000008
    vertex 31.588996673710355 32.43944431746701 29.187200000000008
  endloop
endfacet
facet normal 0.0 0.0 1.0
  outer loop
    vertex 9.338996673710339 37.73944431746701 29.187200000000008
    vertex 16.18899667371034 36.73944431746701 29.187200000000008
    vertex 35.58899667371035 37.73944431746701 29.187200000000008
  endloop
endfacet
facet normal 0.0 0.0 1.0
  outer loop
    vertex 16.18899667371034 36.73944431746701 29.187200000000008
    vertex 9.338996673710339 37.73944431746701 29.187200000000008
    vertex 15.865472867332194 36.696851600328344 29.187200000000008
  endloop
endfacet
facet normal 0.0 0.0 1.0
  outer loop
    vertex 15.865472867332194 36.696851600328344 29.187200000000008
    vertex 9.338996673710339 37.73944431746701 29.187200000000008
    vertex 15.563996673710346 36.57197607219756 29.187200000000008
  endloop
endfacet
facet normal 0.0 0.0 1.0
  outer loop
    vertex 15.563996673710346 36.57197607219756 29.187200000000008
    vertex 9.338996673710339 37.73944431746701 29.187200000000008
    vertex 15.305113197227163 36.373327793950196 29.187200000000008
  endloop
endfacet
facet normal 0.0 0.0 1.0
  outer loop
    vertex 15.305113197227163 36.373327793950196 29.187200000000008
    vertex 9.338996673710339 37.73944431746701 29.187200000000008
    vertex 15.106464918979785 36.114444317467004 29.187200000000008
  endloop
endfacet
facet normal 0.0 0.0 1.0
  outer loop
    vertex 15.106464918979785 36.114444317467004 29.187200000000008
    vertex 9.338996673710339 37.73944431746701 29.187200000000008
    vertex 14.981589390848995 35.81296812384516 29.187200000000008
  endloop
endfacet
facet normal 0.0 0.0 1.0
  outer loop
    vertex 14.981589390848995 35.81296812384516 29.187200000000008
    vertex 9.338996673710339 37.73944431746701 29.187200000000008
    vertex 14.93899667371033 35.48944431746701 29.187200000000008
  endloop
endfacet
facet normal 0.0 0.0 1.0
  outer loop
    vertex 35.58899667371035 37.73944431746701 29.187200000000008
    vertex 16.18899667371034 36.73944431746701 29.187200000000008
    vertex 16.512520480088483 36.696851600328344 29.187200000000008
  endloop
endfacet
facet normal 0.0 0.0 1.0
  outer loop
    vertex 35.58899667371035 37.73944431746701 29.187200000000008
    vertex 16.512520480088483 36.696851600328344 29.187200000000008
    vertex 16.81399667371033 36.57197607219756 29.187200000000008
  endloop
endfacet
facet normal 0.0 0.0 1.0
  outer loop
    vertex 35.58899667371035 37.73944431746701 29.187200000000008
    vertex 16.81399667371033 36.57197607219756 29.187200000000008
    vertex 17.072880150193512 36.373327793950196 29.187200000000008
  endloop
endfacet
facet normal 0.0 0.0 1.0
  outer loop
    vertex 35.58899667371035 37.73944431746701 29.187200000000008
    vertex 17.072880150193512 36.373327793950196 29.187200000000008
    vertex 17.27152842844089 36.11444431746702 29.187200000000008
  endloop
endfacet
facet normal 0.0 0.0 1.0
  outer loop
    vertex 35.58899667371035 37.73944431746701 29.187200000000008
    vertex 17.27152842844089 36.11444431746702 29.187200000000008
    vertex 17.39640395657168 35.81296812384516 29.187200000000008
  endloop
endfacet
facet normal 0.0 0.0 1.0
  outer loop
    vertex 35.58899667371035 37.73944431746701 29.187200000000008
    vertex 17.39640395657168 35.81296812384516 29.187200000000008
    vertex 17.438996673710324 35.48944431746701 29.187200000000008
  endloop
endfacet
facet normal 0.0 0.0 1.0
  outer loop
    vertex 35.58899667371035 37.73944431746701 29.187200000000008
    vertex 17.438996673710324 35.48944431746701 29.187200000000008
    vertex 29.86547286733219 36.696851600328344 29.187200000000008
  endloop
endfacet
facet normal 0.0 0.0 1.0
  outer loop
    vertex 29.86547286733219 36.696851600328344 29.187200000000008
    vertex 17.438996673710324 35.48944431746701 29.187200000000008
    vertex 29.563996673710342 36.57197607219756 29.187200000000008
  endloop
endfacet
facet normal 0.0 0.0 1.0
  outer loop
    vertex 29.563996673710342 36.57197607219756 29.187200000000008
    vertex 17.438996673710324 35.48944431746701 29.187200000000008
    vertex 19.588996673710355 32.43944431746701 29.187200000000008
  endloop
endfacet
facet normal 0.0 0.0 1.0
  outer loop
    vertex 19.588996673710355 32.43944431746701 29.187200000000008
    vertex 17.438996673710324 35.48944431746701 29.187200000000008
    vertex 19.588996673710355 20.439444317467007 29.187200000000008
  endloop
endfacet
facet normal 0.0 0.0 1.0
  outer loop
    vertex 29.563996673710342 36.57197607219756 29.187200000000008
    vertex 19.588996673710355 32.43944431746701 29.187200000000008
    vertex 29.30511319722716 36.373327793950196 29.187200000000008
  endloop
endfacet
facet normal 0.0 0.0 1.0
  outer loop
    vertex 29.30511319722716 36.373327793950196 29.187200000000008
    vertex 19.588996673710355 32.43944431746701 29.187200000000008
    vertex 29.106464918979782 36.114444317467004 29.187200000000008
  endloop
endfacet
facet normal 0.0 0.0 1.0
  outer loop
    vertex 29.106464918979782 36.114444317467004 29.187200000000008
    vertex 19.588996673710355 32.43944431746701 29.187200000000008
    vertex 28.981589390848992 35.81296812384516 29.187200000000008
  endloop
endfacet
facet normal 0.0 0.0 1.0
  outer loop
    vertex 28.981589390848992 35.81296812384516 29.187200000000008
    vertex 19.588996673710355 32.43944431746701 29.187200000000008
    vertex 28.938996673710328 35.48944431746701 29.187200000000008
  endloop
endfacet
facet normal 0.0 0.0 1.0
  outer loop
    vertex 35.58899667371035 37.73944431746701 29.187200000000008
    vertex 29.86547286733219 36.696851600328344 29.187200000000008
    vertex 30.188996673710335 36.73944431746701 29.187200000000008
  endloop
endfacet
facet normal 0.0 0.0 1.0
  outer loop
    vertex 35.58899667371035 37.73944431746701 29.187200000000008
    vertex 30.188996673710335 36.73944431746701 29.187200000000008
    vertex 30.51252048008848 36.696851600328344 29.187200000000008
  endloop
endfacet
facet normal 0.0 0.0 1.0
  outer loop
    vertex 35.58899667371035 37.73944431746701 29.187200000000008
    vertex 30.51252048008848 36.696851600328344 29.187200000000008
    vertex 30.813996673710328 36.57197607219756 29.187200000000008
  endloop
endfacet
facet normal 0.0 0.0 1.0
  outer loop
    vertex 35.58899667371035 37.73944431746701 29.187200000000008
    vertex 30.813996673710328 36.57197607219756 29.187200000000008
    vertex 31.072880150193512 36.373327793950196 29.187200000000008
  endloop
endfacet
facet normal 0.0 0.0 1.0
  outer loop
    vertex 35.58899667371035 37.73944431746701 29.187200000000008
    vertex 31.072880150193512 36.373327793950196 29.187200000000008
    vertex 31.271528428440888 36.11444431746702 29.187200000000008
  endloop
endfacet
facet normal 0.0 0.0 1.0
  outer loop
    vertex 35.58899667371035 37.73944431746701 29.187200000000008
    vertex 31.271528428440888 36.11444431746702 29.187200000000008
    vertex 31.396403956571678 35.81296812384516 29.187200000000008
  endloop
endfacet
facet normal 0.0 0.0 1.0
  outer loop
    vertex 35.58899667371035 37.73944431746701 29.187200000000008
    vertex 31.396403956571678 35.81296812384516 29.187200000000008
    vertex 31.438996673710346 35.48944431746701 29.187200000000008
  endloop
endfacet
facet normal 0.0 0.0 1.0
  outer loop
    vertex 35.58899667371035 37.73944431746701 29.187200000000008
    vertex 31.438996673710346 35.48944431746701 29.187200000000008
    vertex 31.588996673710355 32.43944431746701 29.187200000000008
  endloop
endfacet
facet normal 0.0 0.0 1.0
  outer loop
    vertex 35.58899667371035 37.73944431746701 29.187200000000008
    vertex 31.588996673710355 32.43944431746701 29.187200000000008
    vertex 35.58899667371035 18.93944431746701 29.187200000000008
  endloop
endfacet
facet normal 0.13052619222005837 -0.9914448613738096 0.0
  outer loop
    vertex 30.188996673710335 36.73944431746701 29.187200000000008
    vertex 29.86547286733219 36.696851600328344 27.937200000000008
    vertex 30.188996673710335 36.73944431746701 27.937200000000008
  endloop
endfacet
facet normal 0.13052619222005837 -0.9914448613738096 0.0
  outer loop
    vertex 29.86547286733219 36.696851600328344 27.937200000000008
    vertex 30.188996673710335 36.73944431746701 29.187200000000008
    vertex 29.86547286733219 36.696851600328344 29.187200000000008
  endloop
endfacet
facet normal 0.7933533402912248 -0.6087614290087343 0.0
  outer loop
    vertex 29.30511319722716 36.373327793950196 27.937200000000008
    vertex 29.106464918979782 36.114444317467004 29.187200000000008
    vertex 29.106464918979782 36.114444317467004 27.937200000000008
  endloop
endfacet
facet normal 0.7933533402912248 -0.6087614290087343 0.0
  outer loop
    vertex 29.106464918979782 36.114444317467004 29.187200000000008
    vertex 29.30511319722716 36.373327793950196 27.937200000000008
    vertex 29.30511319722716 36.373327793950196 29.187200000000008
  endloop
endfacet
facet normal 0.9238795325112836 -0.3826834323650976 0.0
  outer loop
    vertex 29.106464918979782 36.114444317467004 27.937200000000008
    vertex 28.981589390848992 35.81296812384516 29.187200000000008
    vertex 28.981589390848992 35.81296812384516 27.937200000000008
  endloop
endfacet
facet normal 0.9238795325112836 -0.3826834323650976 0.0
  outer loop
    vertex 28.981589390848992 35.81296812384516 29.187200000000008
    vertex 29.106464918979782 36.114444317467004 27.937200000000008
    vertex 29.106464918979782 36.114444317467004 29.187200000000008
  endloop
endfacet
facet normal 0.13052619222005837 0.9914448613738096 0.0
  outer loop
    vertex 29.86547286733219 34.28203703460568 29.187200000000008
    vertex 30.188996673710335 34.23944431746701 27.937200000000008
    vertex 29.86547286733219 34.28203703460568 27.937200000000008
  endloop
endfacet
facet normal 0.13052619222005837 0.9914448613738096 0.0
  outer loop
    vertex 30.188996673710335 34.23944431746701 27.937200000000008
    vertex 29.86547286733219 34.28203703460568 29.187200000000008
    vertex 30.188996673710335 34.23944431746701 29.187200000000008
  endloop
endfacet
facet normal 0.6087614290087074 -0.7933533402912453 0.0
  outer loop
    vertex 29.563996673710342 36.57197607219756 29.187200000000008
    vertex 29.30511319722716 36.373327793950196 27.937200000000008
    vertex 29.563996673710342 36.57197607219756 27.937200000000008
  endloop
endfacet
facet normal 0.6087614290087074 -0.7933533402912453 0.0
  outer loop
    vertex 29.30511319722716 36.373327793950196 27.937200000000008
    vertex 29.563996673710342 36.57197607219756 29.187200000000008
    vertex 29.30511319722716 36.373327793950196 29.187200000000008
  endloop
endfacet
facet normal -0.3826834323650976 0.9238795325112836 0.0
  outer loop
    vertex 30.51252048008848 34.28203703460568 29.187200000000008
    vertex 30.813996673710328 34.40691256273647 27.937200000000008
    vertex 30.51252048008848 34.28203703460568 27.937200000000008
  endloop
endfacet
facet normal -0.3826834323650976 0.9238795325112836 0.0
  outer loop
    vertex 30.813996673710328 34.40691256273647 27.937200000000008
    vertex 30.51252048008848 34.28203703460568 29.187200000000008
    vertex 30.813996673710328 34.40691256273647 29.187200000000008
  endloop
endfacet
facet normal 0.793353340291212 0.608761429008751 0.0
  outer loop
    vertex 29.106464918979782 34.864444317467004 27.937200000000008
    vertex 29.30511319722716 34.60556084098383 29.187200000000008
    vertex 29.30511319722716 34.60556084098383 27.937200000000008
  endloop
endfacet
facet normal 0.793353340291212 0.608761429008751 0.0
  outer loop
    vertex 29.30511319722716 34.60556084098383 29.187200000000008
    vertex 29.106464918979782 34.864444317467004 27.937200000000008
    vertex 29.106464918979782 34.864444317467004 29.187200000000008
  endloop
endfacet
facet normal 0.9914448613738096 -0.13052619222005837 0.0
  outer loop
    vertex 28.981589390848992 35.81296812384516 27.937200000000008
    vertex 28.938996673710328 35.48944431746701 29.187200000000008
    vertex 28.938996673710328 35.48944431746701 27.937200000000008
  endloop
endfacet
facet normal 0.9914448613738096 -0.13052619222005837 0.0
  outer loop
    vertex 28.938996673710328 35.48944431746701 29.187200000000008
    vertex 28.981589390848992 35.81296812384516 27.937200000000008
    vertex 28.981589390848992 35.81296812384516 29.187200000000008
  endloop
endfacet
facet normal 0.9238795325112836 0.3826834323650976 0.0
  outer loop
    vertex 28.981589390848992 35.165920511088856 27.937200000000008
    vertex 29.106464918979782 34.864444317467004 29.187200000000008
    vertex 29.106464918979782 34.864444317467004 27.937200000000008
  endloop
endfacet
facet normal 0.9238795325112836 0.3826834323650976 0.0
  outer loop
    vertex 29.106464918979782 34.864444317467004 29.187200000000008
    vertex 28.981589390848992 35.165920511088856 27.937200000000008
    vertex 28.981589390848992 35.165920511088856 29.187200000000008
  endloop
endfacet
facet normal -0.13052619222005837 -0.9914448613738096 -0.0
  outer loop
    vertex 30.51252048008848 36.696851600328344 29.187200000000008
    vertex 30.188996673710335 36.73944431746701 27.937200000000008
    vertex 30.51252048008848 36.696851600328344 27.937200000000008
  endloop
endfacet
facet normal -0.13052619222005837 -0.9914448613738096 -0.0
  outer loop
    vertex 30.188996673710335 36.73944431746701 27.937200000000008
    vertex 30.51252048008848 36.696851600328344 29.187200000000008
    vertex 30.188996673710335 36.73944431746701 29.187200000000008
  endloop
endfacet
facet normal 0.6087614290087074 0.7933533402912453 0.0
  outer loop
    vertex 29.30511319722716 34.60556084098383 29.187200000000008
    vertex 29.563996673710342 34.40691256273647 27.937200000000008
    vertex 29.30511319722716 34.60556084098383 27.937200000000008
  endloop
endfacet
facet normal 0.6087614290087074 0.7933533402912453 0.0
  outer loop
    vertex 29.563996673710342 34.40691256273647 27.937200000000008
    vertex 29.30511319722716 34.60556084098383 29.187200000000008
    vertex 29.563996673710342 34.40691256273647 29.187200000000008
  endloop
endfacet
facet normal 0.3826834323650976 0.9238795325112836 0.0
  outer loop
    vertex 29.563996673710342 34.40691256273647 29.187200000000008
    vertex 29.86547286733219 34.28203703460568 27.937200000000008
    vertex 29.563996673710342 34.40691256273647 27.937200000000008
  endloop
endfacet
facet normal 0.3826834323650976 0.9238795325112836 0.0
  outer loop
    vertex 29.86547286733219 34.28203703460568 27.937200000000008
    vertex 29.563996673710342 34.40691256273647 29.187200000000008
    vertex 29.86547286733219 34.28203703460568 29.187200000000008
  endloop
endfacet
facet normal -0.13052619222005837 0.9914448613738096 0.0
  outer loop
    vertex 30.188996673710335 34.23944431746701 29.187200000000008
    vertex 30.51252048008848 34.28203703460568 27.937200000000008
    vertex 30.188996673710335 34.23944431746701 27.937200000000008
  endloop
endfacet
facet normal -0.13052619222005837 0.9914448613738096 0.0
  outer loop
    vertex 30.51252048008848 34.28203703460568 27.937200000000008
    vertex 30.188996673710335 34.23944431746701 29.187200000000008
    vertex 30.51252048008848 34.28203703460568 29.187200000000008
  endloop
endfacet
facet normal -0.6087614290087074 0.7933533402912453 0.0
  outer loop
    vertex 30.813996673710328 34.40691256273647 29.187200000000008
    vertex 31.072880150193512 34.60556084098383 27.937200000000008
    vertex 30.813996673710328 34.40691256273647 27.937200000000008
  endloop
endfacet
facet normal -0.6087614290087074 0.7933533402912453 0.0
  outer loop
    vertex 31.072880150193512 34.60556084098383 27.937200000000008
    vertex 30.813996673710328 34.40691256273647 29.187200000000008
    vertex 31.072880150193512 34.60556084098383 29.187200000000008
  endloop
endfacet
facet normal -0.7933533402912248 0.6087614290087343 0.0
  outer loop
    vertex 31.271528428440888 34.86444431746702 29.187200000000008
    vertex 31.072880150193512 34.60556084098383 27.937200000000008
    vertex 31.072880150193512 34.60556084098383 29.187200000000008
  endloop
endfacet
facet normal -0.7933533402912248 0.6087614290087343 0.0
  outer loop
    vertex 31.072880150193512 34.60556084098383 27.937200000000008
    vertex 31.271528428440888 34.86444431746702 29.187200000000008
    vertex 31.271528428440888 34.86444431746702 27.937200000000008
  endloop
endfacet
facet normal -0.9238795325112836 0.3826834323650976 0.0
  outer loop
    vertex 31.396403956571678 35.16592051108887 29.187200000000008
    vertex 31.271528428440888 34.86444431746702 27.937200000000008
    vertex 31.271528428440888 34.86444431746702 29.187200000000008
  endloop
endfacet
facet normal -0.9238795325112836 0.3826834323650976 0.0
  outer loop
    vertex 31.271528428440888 34.86444431746702 27.937200000000008
    vertex 31.396403956571678 35.16592051108887 29.187200000000008
    vertex 31.396403956571678 35.16592051108887 27.937200000000008
  endloop
endfacet
facet normal 0.9914448613738102 0.13052619222005388 0.0
  outer loop
    vertex 28.938996673710328 35.48944431746701 27.937200000000008
    vertex 28.981589390848992 35.165920511088856 29.187200000000008
    vertex 28.981589390848992 35.165920511088856 27.937200000000008
  endloop
endfacet
facet normal 0.9914448613738102 0.13052619222005388 0.0
  outer loop
    vertex 28.981589390848992 35.165920511088856 29.187200000000008
    vertex 28.938996673710328 35.48944431746701 27.937200000000008
    vertex 28.938996673710328 35.48944431746701 29.187200000000008
  endloop
endfacet
facet normal -0.9914448613738096 -0.13052619222005837 -0.0
  outer loop
    vertex 31.396403956571678 35.81296812384516 29.187200000000008
    vertex 31.438996673710346 35.48944431746701 27.937200000000008
    vertex 31.438996673710346 35.48944431746701 29.187200000000008
  endloop
endfacet
facet normal -0.9914448613738096 -0.13052619222005837 -0.0
  outer loop
    vertex 31.438996673710346 35.48944431746701 27.937200000000008
    vertex 31.396403956571678 35.81296812384516 29.187200000000008
    vertex 31.396403956571678 35.81296812384516 27.937200000000008
  endloop
endfacet
facet normal -0.9238795325112885 -0.38268343236508534 -0.0
  outer loop
    vertex 31.271528428440888 36.11444431746702 29.187200000000008
    vertex 31.396403956571678 35.81296812384516 27.937200000000008
    vertex 31.396403956571678 35.81296812384516 29.187200000000008
  endloop
endfacet
facet normal -0.9238795325112885 -0.38268343236508534 -0.0
  outer loop
    vertex 31.396403956571678 35.81296812384516 27.937200000000008
    vertex 31.271528428440888 36.11444431746702 29.187200000000008
    vertex 31.271528428440888 36.11444431746702 27.937200000000008
  endloop
endfacet
facet normal 0.3826834323650976 -0.9238795325112836 0.0
  outer loop
    vertex 29.86547286733219 36.696851600328344 29.187200000000008
    vertex 29.563996673710342 36.57197607219756 27.937200000000008
    vertex 29.86547286733219 36.696851600328344 27.937200000000008
  endloop
endfacet
facet normal 0.3826834323650976 -0.9238795325112836 0.0
  outer loop
    vertex 29.563996673710342 36.57197607219756 27.937200000000008
    vertex 29.86547286733219 36.696851600328344 29.187200000000008
    vertex 29.563996673710342 36.57197607219756 29.187200000000008
  endloop
endfacet
facet normal -0.9914448613738096 0.13052619222005837 0.0
  outer loop
    vertex 31.438996673710346 35.48944431746701 29.187200000000008
    vertex 31.396403956571678 35.16592051108887 27.937200000000008
    vertex 31.396403956571678 35.16592051108887 29.187200000000008
  endloop
endfacet
facet normal -0.9914448613738096 0.13052619222005837 0.0
  outer loop
    vertex 31.396403956571678 35.16592051108887 27.937200000000008
    vertex 31.438996673710346 35.48944431746701 29.187200000000008
    vertex 31.438996673710346 35.48944431746701 27.937200000000008
  endloop
endfacet
facet normal -0.793353340291212 -0.608761429008751 -0.0
  outer loop
    vertex 31.072880150193512 36.373327793950196 29.187200000000008
    vertex 31.271528428440888 36.11444431746702 27.937200000000008
    vertex 31.271528428440888 36.11444431746702 29.187200000000008
  endloop
endfacet
facet normal -0.793353340291212 -0.608761429008751 -0.0
  outer loop
    vertex 31.271528428440888 36.11444431746702 27.937200000000008
    vertex 31.072880150193512 36.373327793950196 29.187200000000008
    vertex 31.072880150193512 36.373327793950196 27.937200000000008
  endloop
endfacet
facet normal -0.6087614290087074 -0.7933533402912453 -0.0
  outer loop
    vertex 31.072880150193512 36.373327793950196 29.187200000000008
    vertex 30.813996673710328 36.57197607219756 27.937200000000008
    vertex 31.072880150193512 36.373327793950196 27.937200000000008
  endloop
endfacet
facet normal -0.6087614290087074 -0.7933533402912453 -0.0
  outer loop
    vertex 30.813996673710328 36.57197607219756 27.937200000000008
    vertex 31.072880150193512 36.373327793950196 29.187200000000008
    vertex 30.813996673710328 36.57197607219756 29.187200000000008
  endloop
endfacet
facet normal -0.3826834323650976 -0.9238795325112836 -0.0
  outer loop
    vertex 30.813996673710328 36.57197607219756 29.187200000000008
    vertex 30.51252048008848 36.696851600328344 27.937200000000008
    vertex 30.813996673710328 36.57197607219756 27.937200000000008
  endloop
endfacet
facet normal -0.3826834323650976 -0.9238795325112836 -0.0
  outer loop
    vertex 30.51252048008848 36.696851600328344 27.937200000000008
    vertex 30.813996673710328 36.57197607219756 29.187200000000008
    vertex 30.51252048008848 36.696851600328344 29.187200000000008
  endloop
endfacet
facet normal 0.9914448613738102 0.13052619222005388 0.0
  outer loop
    vertex 14.93899667371033 35.48944431746701 27.937200000000008
    vertex 14.981589390848995 35.165920511088856 29.187200000000008
    vertex 14.981589390848995 35.165920511088856 27.937200000000008
  endloop
endfacet
facet normal 0.9914448613738102 0.13052619222005388 0.0
  outer loop
    vertex 14.981589390848995 35.165920511088856 29.187200000000008
    vertex 14.93899667371033 35.48944431746701 27.937200000000008
    vertex 14.93899667371033 35.48944431746701 29.187200000000008
  endloop
endfacet
facet normal 0.3826834323650976 0.9238795325112836 0.0
  outer loop
    vertex 15.563996673710346 34.40691256273647 29.187200000000008
    vertex 15.865472867332194 34.28203703460568 27.937200000000008
    vertex 15.563996673710346 34.40691256273647 27.937200000000008
  endloop
endfacet
facet normal 0.3826834323650976 0.9238795325112836 0.0
  outer loop
    vertex 15.865472867332194 34.28203703460568 27.937200000000008
    vertex 15.563996673710346 34.40691256273647 29.187200000000008
    vertex 15.865472867332194 34.28203703460568 29.187200000000008
  endloop
endfacet
facet normal 0.9238795325112836 0.3826834323650976 0.0
  outer loop
    vertex 14.981589390848995 35.165920511088856 27.937200000000008
    vertex 15.106464918979785 34.864444317467004 29.187200000000008
    vertex 15.106464918979785 34.864444317467004 27.937200000000008
  endloop
endfacet
facet normal 0.9238795325112836 0.3826834323650976 0.0
  outer loop
    vertex 15.106464918979785 34.864444317467004 29.187200000000008
    vertex 14.981589390848995 35.165920511088856 27.937200000000008
    vertex 14.981589390848995 35.165920511088856 29.187200000000008
  endloop
endfacet
facet normal 0.6087614290087074 0.7933533402912453 0.0
  outer loop
    vertex 15.305113197227163 34.60556084098383 29.187200000000008
    vertex 15.563996673710346 34.40691256273647 27.937200000000008
    vertex 15.305113197227163 34.60556084098383 27.937200000000008
  endloop
endfacet
facet normal 0.6087614290087074 0.7933533402912453 0.0
  outer loop
    vertex 15.563996673710346 34.40691256273647 27.937200000000008
    vertex 15.305113197227163 34.60556084098383 29.187200000000008
    vertex 15.563996673710346 34.40691256273647 29.187200000000008
  endloop
endfacet
facet normal 0.9238795325112836 -0.3826834323650976 0.0
  outer loop
    vertex 15.106464918979785 36.114444317467004 27.937200000000008
    vertex 14.981589390848995 35.81296812384516 29.187200000000008
    vertex 14.981589390848995 35.81296812384516 27.937200000000008
  endloop
endfacet
facet normal 0.9238795325112836 -0.3826834323650976 0.0
  outer loop
    vertex 14.981589390848995 35.81296812384516 29.187200000000008
    vertex 15.106464918979785 36.114444317467004 27.937200000000008
    vertex 15.106464918979785 36.114444317467004 29.187200000000008
  endloop
endfacet
facet normal 0.793353340291212 0.608761429008751 0.0
  outer loop
    vertex 15.106464918979785 34.864444317467004 27.937200000000008
    vertex 15.305113197227163 34.60556084098383 29.187200000000008
    vertex 15.305113197227163 34.60556084098383 27.937200000000008
  endloop
endfacet
facet normal 0.793353340291212 0.608761429008751 0.0
  outer loop
    vertex 15.305113197227163 34.60556084098383 29.187200000000008
    vertex 15.106464918979785 34.864444317467004 27.937200000000008
    vertex 15.106464918979785 34.864444317467004 29.187200000000008
  endloop
endfacet
facet normal 0.9914448613738096 -0.13052619222005837 0.0
  outer loop
    vertex 14.981589390848995 35.81296812384516 27.937200000000008
    vertex 14.93899667371033 35.48944431746701 29.187200000000008
    vertex 14.93899667371033 35.48944431746701 27.937200000000008
  endloop
endfacet
facet normal 0.9914448613738096 -0.13052619222005837 0.0
  outer loop
    vertex 14.93899667371033 35.48944431746701 29.187200000000008
    vertex 14.981589390848995 35.81296812384516 27.937200000000008
    vertex 14.981589390848995 35.81296812384516 29.187200000000008
  endloop
endfacet
facet normal 1.0 0.0 0.0
  outer loop
    vertex 31.588996673710355 32.43944431746701 29.187200000000008
    vertex 31.588996673710355 20.439444317467007 33.18720000000001
    vertex 31.588996673710355 20.439444317467007 29.187200000000008
  endloop
endfacet
facet normal 1.0 0.0 0.0
  outer loop
    vertex 31.588996673710355 20.439444317467007 33.18720000000001
    vertex 31.588996673710355 32.43944431746701 29.187200000000008
    vertex 31.588996673710355 32.43944431746701 33.18720000000001
  endloop
endfacet
facet normal 0.0 1.0 0.0
  outer loop
    vertex 19.588996673710355 32.43944431746701 33.18720000000001
    vertex 31.588996673710355 32.43944431746701 29.187200000000008
    vertex 19.588996673710355 32.43944431746701 29.187200000000008
  endloop
endfacet
facet normal 0.0 1.0 0.0
  outer loop
    vertex 31.588996673710355 32.43944431746701 29.187200000000008
    vertex 19.588996673710355 32.43944431746701 33.18720000000001
    vertex 31.588996673710355 32.43944431746701 33.18720000000001
  endloop
endfacet
facet normal 0.0 -1.0 0.0
  outer loop
    vertex 31.588996673710355 20.439444317467007 33.18720000000001
    vertex 19.588996673710355 20.439444317467007 29.187200000000008
    vertex 31.588996673710355 20.439444317467007 29.187200000000008
  endloop
endfacet
facet normal 0.0 -1.0 0.0
  outer loop
    vertex 19.588996673710355 20.439444317467007 29.187200000000008
    vertex 31.588996673710355 20.439444317467007 33.18720000000001
    vertex 19.588996673710355 20.439444317467007 33.18720000000001
  endloop
endfacet
facet normal 0.0 0.0 1.0
  outer loop
    vertex 19.588996673710355 20.439444317467007 33.18720000000001
    vertex 22.20825628169862 25.53357765960818 33.18720000000001
    vertex 19.588996673710355 32.43944431746701 33.18720000000001
  endloop
endfacet
facet normal 0.0 0.0 1.0
  outer loop
    vertex 22.20825628169862 25.53357765960818 33.18720000000001
    vertex 19.588996673710355 20.439444317467007 33.18720000000001
    vertex 22.557907760464825 24.689444317467 33.18720000000001
  endloop
endfacet
facet normal 0.0 0.0 1.0
  outer loop
    vertex 22.557907760464825 24.689444317467 33.18720000000001
    vertex 19.588996673710355 20.439444317467007 33.18720000000001
    vertex 23.114122939557443 23.964570583314085 33.18720000000001
  endloop
endfacet
facet normal 0.0 0.0 1.0
  outer loop
    vertex 23.114122939557443 23.964570583314085 33.18720000000001
    vertex 19.588996673710355 20.439444317467007 33.18720000000001
    vertex 23.83899667371036 23.40835540422147 33.18720000000001
  endloop
endfacet
facet normal 0.0 0.0 1.0
  outer loop
    vertex 23.83899667371036 23.40835540422147 33.18720000000001
    vertex 19.588996673710355 20.439444317467007 33.18720000000001
    vertex 24.683130015851543 23.058703925455262 33.18720000000001
  endloop
endfacet
facet normal 0.0 0.0 1.0
  outer loop
    vertex 24.683130015851543 23.058703925455262 33.18720000000001
    vertex 19.588996673710355 20.439444317467007 33.18720000000001
    vertex 31.588996673710355 20.439444317467007 33.18720000000001
  endloop
endfacet
facet normal 0.0 0.0 1.0
  outer loop
    vertex 19.588996673710355 32.43944431746701 33.18720000000001
    vertex 22.20825628169862 25.53357765960818 33.18720000000001
    vertex 22.08899667371035 26.439444317467007 33.18720000000001
  endloop
endfacet
facet normal 0.0 0.0 1.0
  outer loop
    vertex 24.683130015851543 23.058703925455262 33.18720000000001
    vertex 31.588996673710355 20.439444317467007 33.18720000000001
    vertex 25.588996673710366 22.939444317467004 33.18720000000001
  endloop
endfacet
facet normal 0.0 0.0 1.0
  outer loop
    vertex 25.588996673710366 22.939444317467004 33.18720000000001
    vertex 31.588996673710355 20.439444317467007 33.18720000000001
    vertex 26.49486333156919 23.058703925455262 33.18720000000001
  endloop
endfacet
facet normal 0.0 0.0 1.0
  outer loop
    vertex 26.49486333156919 23.058703925455262 33.18720000000001
    vertex 31.588996673710355 20.439444317467007 33.18720000000001
    vertex 27.338996673710373 23.40835540422147 33.18720000000001
  endloop
endfacet
facet normal 0.0 0.0 1.0
  outer loop
    vertex 27.338996673710373 23.40835540422147 33.18720000000001
    vertex 31.588996673710355 20.439444317467007 33.18720000000001
    vertex 28.063870407863288 23.964570583314085 33.18720000000001
  endloop
endfacet
facet normal 0.0 0.0 1.0
  outer loop
    vertex 28.063870407863288 23.964570583314085 33.18720000000001
    vertex 31.588996673710355 20.439444317467007 33.18720000000001
    vertex 28.620085586955906 24.68944431746701 33.18720000000001
  endloop
endfacet
facet normal 0.0 0.0 1.0
  outer loop
    vertex 28.620085586955906 24.68944431746701 33.18720000000001
    vertex 31.588996673710355 20.439444317467007 33.18720000000001
    vertex 28.969737065722114 25.53357765960818 33.18720000000001
  endloop
endfacet
facet normal 0.0 0.0 1.0
  outer loop
    vertex 28.969737065722114 25.53357765960818 33.18720000000001
    vertex 31.588996673710355 20.439444317467007 33.18720000000001
    vertex 29.088996673710383 26.439444317467007 33.18720000000001
  endloop
endfacet
facet normal 0.0 0.0 1.0
  outer loop
    vertex 19.588996673710355 32.43944431746701 33.18720000000001
    vertex 24.683130015851543 29.820184709478752 33.18720000000001
    vertex 31.588996673710355 32.43944431746701 33.18720000000001
  endloop
endfacet
facet normal 0.0 0.0 1.0
  outer loop
    vertex 24.683130015851543 29.820184709478752 33.18720000000001
    vertex 19.588996673710355 32.43944431746701 33.18720000000001
    vertex 23.83899667371036 29.470533230712547 33.18720000000001
  endloop
endfacet
facet normal 0.0 0.0 1.0
  outer loop
    vertex 23.83899667371036 29.470533230712547 33.18720000000001
    vertex 19.588996673710355 32.43944431746701 33.18720000000001
    vertex 23.114122939557443 28.91431805161993 33.18720000000001
  endloop
endfacet
facet normal 0.0 0.0 1.0
  outer loop
    vertex 23.114122939557443 28.91431805161993 33.18720000000001
    vertex 19.588996673710355 32.43944431746701 33.18720000000001
    vertex 22.557907760464825 28.189444317467004 33.18720000000001
  endloop
endfacet
facet normal 0.0 0.0 1.0
  outer loop
    vertex 22.557907760464825 28.189444317467004 33.18720000000001
    vertex 19.588996673710355 32.43944431746701 33.18720000000001
    vertex 22.20825628169862 27.34531097532583 33.18720000000001
  endloop
endfacet
facet normal 0.0 0.0 1.0
  outer loop
    vertex 22.20825628169862 27.34531097532583 33.18720000000001
    vertex 19.588996673710355 32.43944431746701 33.18720000000001
    vertex 22.08899667371035 26.439444317467007 33.18720000000001
  endloop
endfacet
facet normal 0.0 0.0 1.0
  outer loop
    vertex 31.588996673710355 32.43944431746701 33.18720000000001
    vertex 24.683130015851543 29.820184709478752 33.18720000000001
    vertex 25.588996673710366 29.93944431746701 33.18720000000001
  endloop
endfacet
facet normal 0.0 0.0 1.0
  outer loop
    vertex 31.588996673710355 32.43944431746701 33.18720000000001
    vertex 25.588996673710366 29.93944431746701 33.18720000000001
    vertex 26.49486333156919 29.820184709478752 33.18720000000001
  endloop
endfacet
facet normal 0.0 0.0 1.0
  outer loop
    vertex 31.588996673710355 32.43944431746701 33.18720000000001
    vertex 26.49486333156919 29.820184709478752 33.18720000000001
    vertex 27.338996673710373 29.470533230712547 33.18720000000001
  endloop
endfacet
facet normal 0.0 0.0 1.0
  outer loop
    vertex 31.588996673710355 32.43944431746701 33.18720000000001
    vertex 27.338996673710373 29.470533230712547 33.18720000000001
    vertex 28.063870407863288 28.91431805161993 33.18720000000001
  endloop
endfacet
facet normal 0.0 0.0 1.0
  outer loop
    vertex 31.588996673710355 32.43944431746701 33.18720000000001
    vertex 28.063870407863288 28.91431805161993 33.18720000000001
    vertex 28.620085586955906 28.189444317467014 33.18720000000001
  endloop
endfacet
facet normal 0.0 0.0 1.0
  outer loop
    vertex 31.588996673710355 32.43944431746701 33.18720000000001
    vertex 28.620085586955906 28.189444317467014 33.18720000000001
    vertex 28.969737065722114 27.34531097532583 33.18720000000001
  endloop
endfacet
facet normal 0.0 0.0 1.0
  outer loop
    vertex 31.588996673710355 32.43944431746701 33.18720000000001
    vertex 28.969737065722114 27.34531097532583 33.18720000000001
    vertex 29.088996673710383 26.439444317467007 33.18720000000001
  endloop
endfacet
facet normal 0.0 0.0 1.0
  outer loop
    vertex 31.588996673710355 32.43944431746701 33.18720000000001
    vertex 29.088996673710383 26.439444317467007 33.18720000000001
    vertex 31.588996673710355 20.439444317467007 33.18720000000001
  endloop
endfacet
facet normal -1.0 -0.0 -0.0
  outer loop
    vertex 19.588996673710355 32.43944431746701 33.18720000000001
    vertex 19.588996673710355 20.439444317467007 29.187200000000008
    vertex 19.588996673710355 20.439444317467007 33.18720000000001
  endloop
endfacet
facet normal -1.0 -0.0 -0.0
  outer loop
    vertex 19.588996673710355 20.439444317467007 29.187200000000008
    vertex 19.588996673710355 32.43944431746701 33.18720000000001
    vertex 19.588996673710355 32.43944431746701 29.187200000000008
  endloop
endfacet
facet normal 0.9914448613738094 -0.13052619222006065 -2.334061620912176e-19
  outer loop
    vertex 29.088996673710383 26.439444317467007 33.18720000000001
    vertex 28.969737065722114 25.53357765960818 55.68720000000001
    vertex 28.969737065722114 25.53357765960818 33.18720000000001
  endloop
endfacet
facet normal 0.9914448613738094 -0.13052619222006065 -2.334061620912176e-19
  outer loop
    vertex 28.969737065722114 25.53357765960818 55.68720000000001
    vertex 29.088996673710383 26.439444317467007 33.18720000000001
    vertex 29.088996673710383 26.439444317467007 55.68720000000001
  endloop
endfacet
facet normal 0.9914448613738094 0.13052619222006068 -7.780205403040588e-20
  outer loop
    vertex 28.969737065722114 27.34531097532583 33.18720000000001
    vertex 29.088996673710383 26.439444317467007 55.68720000000001
    vertex 29.088996673710383 26.439444317467007 33.18720000000001
  endloop
endfacet
facet normal 0.9914448613738094 0.13052619222006068 -7.780205403040588e-20
  outer loop
    vertex 29.088996673710383 26.439444317467007 55.68720000000001
    vertex 28.969737065722114 27.34531097532583 33.18720000000001
    vertex 28.969737065722114 27.34531097532583 55.68720000000001
  endloop
endfacet
facet normal -0.9914448613738094 0.13052619222006065 0.0
  outer loop
    vertex 22.20825628169862 27.34531097532583 66.6872
    vertex 22.08899667371035 26.439444317467007 33.18720000000001
    vertex 22.08899667371035 26.439444317467007 66.6872
  endloop
endfacet
facet normal -0.9914448613738094 0.13052619222006065 0.0
  outer loop
    vertex 22.08899667371035 26.439444317467007 33.18720000000001
    vertex 22.20825628169862 27.34531097532583 66.6872
    vertex 22.20825628169862 27.34531097532583 33.18720000000001
  endloop
endfacet
facet normal -0.6087614290087207 0.7933533402912353 0.0
  outer loop
    vertex 23.114122939557443 28.91431805161993 66.6872
    vertex 23.83899667371036 29.470533230712547 33.18720000000001
    vertex 23.114122939557443 28.91431805161993 33.18720000000001
  endloop
endfacet
facet normal -0.6087614290087207 0.7933533402912353 0.0
  outer loop
    vertex 23.83899667371036 29.470533230712547 33.18720000000001
    vertex 23.114122939557443 28.91431805161993 66.6872
    vertex 23.83899667371036 29.470533230712547 66.6872
  endloop
endfacet
facet normal 0.13052619222004852 -0.9914448613738108 0.0
  outer loop
    vertex 26.49486333156919 23.058703925455262 66.6872
    vertex 25.588996673710366 22.939444317467004 33.18720000000001
    vertex 26.49486333156919 23.058703925455262 33.18720000000001
  endloop
endfacet
facet normal 0.13052619222004852 -0.9914448613738108 0.0
  outer loop
    vertex 25.588996673710366 22.939444317467004 33.18720000000001
    vertex 26.49486333156919 23.058703925455262 66.6872
    vertex 25.588996673710366 22.939444317467004 66.6872
  endloop
endfacet
facet normal 0.7933533402912353 0.6087614290087207 0.0
  outer loop
    vertex 28.063870407863288 28.91431805161993 33.18720000000001
    vertex 28.620085586955906 28.189444317467014 55.68720000000001
    vertex 28.620085586955906 28.189444317467014 33.18720000000001
  endloop
endfacet
facet normal 0.7933533402912353 0.6087614290087207 0.0
  outer loop
    vertex 28.620085586955906 28.189444317467014 55.68720000000001
    vertex 28.063870407863288 28.91431805161993 33.18720000000001
    vertex 28.063870407863288 28.91431805161993 55.68720000000001
  endloop
endfacet
facet normal -0.7933533402912353 -0.6087614290087207 -0.0
  outer loop
    vertex 22.557907760464825 24.689444317467 66.6872
    vertex 23.114122939557443 23.964570583314085 33.18720000000001
    vertex 23.114122939557443 23.964570583314085 66.6872
  endloop
endfacet
facet normal -0.7933533402912353 -0.6087614290087207 -0.0
  outer loop
    vertex 23.114122939557443 23.964570583314085 33.18720000000001
    vertex 22.557907760464825 24.689444317467 66.6872
    vertex 22.557907760464825 24.689444317467 33.18720000000001
  endloop
endfacet
facet normal 0.7933533402912398 -0.6087614290087147 0.0
  outer loop
    vertex 28.620085586955906 24.68944431746701 33.18720000000001
    vertex 28.063870407863288 23.964570583314085 55.68720000000001
    vertex 28.063870407863288 23.964570583314085 33.18720000000001
  endloop
endfacet
facet normal 0.7933533402912398 -0.6087614290087147 0.0
  outer loop
    vertex 28.063870407863288 23.964570583314085 55.68720000000001
    vertex 28.620085586955906 24.68944431746701 33.18720000000001
    vertex 28.620085586955906 24.68944431746701 55.68720000000001
  endloop
endfacet
facet normal -0.923879532511285 0.38268343236509433 0.0
  outer loop
    vertex 22.557907760464825 28.189444317467004 66.6872
    vertex 22.20825628169862 27.34531097532583 33.18720000000001
    vertex 22.20825628169862 27.34531097532583 66.6872
  endloop
endfacet
facet normal -0.923879532511285 0.38268343236509433 0.0
  outer loop
    vertex 22.20825628169862 27.34531097532583 33.18720000000001
    vertex 22.557907760464825 28.189444317467004 66.6872
    vertex 22.557907760464825 28.189444317467004 33.18720000000001
  endloop
endfacet
facet normal -0.6087614290087207 -0.7933533402912353 -0.0
  outer loop
    vertex 23.83899667371036 23.40835540422147 66.6872
    vertex 23.114122939557443 23.964570583314085 33.18720000000001
    vertex 23.83899667371036 23.40835540422147 33.18720000000001
  endloop
endfacet
facet normal -0.6087614290087207 -0.7933533402912353 -0.0
  outer loop
    vertex 23.114122939557443 23.964570583314085 33.18720000000001
    vertex 23.83899667371036 23.40835540422147 66.6872
    vertex 23.114122939557443 23.964570583314085 66.6872
  endloop
endfacet
facet normal 0.9238795325112866 0.38268343236508984 0.0
  outer loop
    vertex 28.620085586955906 28.189444317467014 33.18720000000001
    vertex 28.969737065722114 27.34531097532583 55.68720000000001
    vertex 28.969737065722114 27.34531097532583 33.18720000000001
  endloop
endfacet
facet normal 0.9238795325112866 0.38268343236508984 0.0
  outer loop
    vertex 28.969737065722114 27.34531097532583 55.68720000000001
    vertex 28.620085586955906 28.189444317467014 33.18720000000001
    vertex 28.620085586955906 28.189444317467014 55.68720000000001
  endloop
endfacet
facet normal -0.9238795325112866 -0.38268343236508984 -0.0
  outer loop
    vertex 22.20825628169862 25.53357765960818 66.6872
    vertex 22.557907760464825 24.689444317467 33.18720000000001
    vertex 22.557907760464825 24.689444317467 66.6872
  endloop
endfacet
facet normal -0.9238795325112866 -0.38268343236508984 -0.0
  outer loop
    vertex 22.557907760464825 24.689444317467 33.18720000000001
    vertex 22.20825628169862 25.53357765960818 66.6872
    vertex 22.20825628169862 25.53357765960818 33.18720000000001
  endloop
endfacet
facet normal -0.7933533402912398 0.6087614290087147 0.0
  outer loop
    vertex 23.114122939557443 28.91431805161993 66.6872
    vertex 22.557907760464825 28.189444317467004 33.18720000000001
    vertex 22.557907760464825 28.189444317467004 66.6872
  endloop
endfacet
facet normal -0.7933533402912398 0.6087614290087147 0.0
  outer loop
    vertex 22.557907760464825 28.189444317467004 33.18720000000001
    vertex 23.114122939557443 28.91431805161993 66.6872
    vertex 23.114122939557443 28.91431805161993 33.18720000000001
  endloop
endfacet
facet normal -0.13052619222004852 -0.9914448613738108 -0.0
  outer loop
    vertex 25.588996673710366 22.939444317467004 66.6872
    vertex 24.683130015851543 23.058703925455262 33.18720000000001
    vertex 25.588996673710366 22.939444317467004 33.18720000000001
  endloop
endfacet
facet normal -0.13052619222004852 -0.9914448613738108 -0.0
  outer loop
    vertex 24.683130015851543 23.058703925455262 33.18720000000001
    vertex 25.588996673710366 22.939444317467004 66.6872
    vertex 24.683130015851543 23.058703925455262 66.6872
  endloop
endfacet
facet normal 0.38268343236509045 -0.9238795325112865 -2.067029016357156e-17
  outer loop
    vertex 27.338996673710373 23.40835540422147 55.68720000000001
    vertex 26.49486333156919 23.058703925455262 33.18720000000001
    vertex 27.338996673710373 23.40835540422147 33.18720000000001
  endloop
endfacet
facet normal 0.38268343236509045 -0.9238795325112865 -2.067029016357156e-17
  outer loop
    vertex 26.49486333156919 23.058703925455262 33.18720000000001
    vertex 27.338996673710373 23.40835540422147 55.68720000000001
    vertex 26.58899667371034 23.097695232441634 55.68720000000001
  endloop
endfacet
facet normal 0.38268343236509045 -0.9238795325112865 -2.067029016357156e-17
  outer loop
    vertex 26.49486333156919 23.058703925455262 33.18720000000001
    vertex 26.58899667371034 23.097695232441634 55.68720000000001
    vertex 26.49486333156919 23.058703925455262 66.6872
  endloop
endfacet
facet normal 0.38268343236509045 -0.9238795325112865 -2.067029016357156e-17
  outer loop
    vertex 26.49486333156919 23.058703925455262 66.6872
    vertex 26.58899667371034 23.097695232441634 55.68720000000001
    vertex 26.58899667371034 23.097695232441634 66.6872
  endloop
endfacet
facet normal -0.38268343236508984 -0.9238795325112866 -0.0
  outer loop
    vertex 24.683130015851543 23.058703925455262 66.6872
    vertex 23.83899667371036 23.40835540422147 33.18720000000001
    vertex 24.683130015851543 23.058703925455262 33.18720000000001
  endloop
endfacet
facet normal -0.38268343236508984 -0.9238795325112866 -0.0
  outer loop
    vertex 23.83899667371036 23.40835540422147 33.18720000000001
    vertex 24.683130015851543 23.058703925455262 66.6872
    vertex 23.83899667371036 23.40835540422147 66.6872
  endloop
endfacet
facet normal -0.9914448613738094 -0.13052619222006065 -0.0
  outer loop
    vertex 22.08899667371035 26.439444317467007 66.6872
    vertex 22.20825628169862 25.53357765960818 33.18720000000001
    vertex 22.20825628169862 25.53357765960818 66.6872
  endloop
endfacet
facet normal -0.9914448613738094 -0.13052619222006065 -0.0
  outer loop
    vertex 22.20825628169862 25.53357765960818 33.18720000000001
    vertex 22.08899667371035 26.439444317467007 66.6872
    vertex 22.08899667371035 26.439444317467007 33.18720000000001
  endloop
endfacet
facet normal 0.6087614290087207 -0.7933533402912353 0.0
  outer loop
    vertex 28.063870407863288 23.964570583314085 55.68720000000001
    vertex 27.338996673710373 23.40835540422147 33.18720000000001
    vertex 28.063870407863288 23.964570583314085 33.18720000000001
  endloop
endfacet
facet normal 0.6087614290087207 -0.7933533402912353 0.0
  outer loop
    vertex 27.338996673710373 23.40835540422147 33.18720000000001
    vertex 28.063870407863288 23.964570583314085 55.68720000000001
    vertex 27.338996673710373 23.40835540422147 55.68720000000001
  endloop
endfacet
facet normal 0.923879532511285 -0.38268343236509433 0.0
  outer loop
    vertex 28.969737065722114 25.53357765960818 33.18720000000001
    vertex 28.620085586955906 24.68944431746701 55.68720000000001
    vertex 28.620085586955906 24.68944431746701 33.18720000000001
  endloop
endfacet
facet normal 0.923879532511285 -0.38268343236509433 0.0
  outer loop
    vertex 28.620085586955906 24.68944431746701 55.68720000000001
    vertex 28.969737065722114 25.53357765960818 33.18720000000001
    vertex 28.969737065722114 25.53357765960818 55.68720000000001
  endloop
endfacet
facet normal 0.38268343236509045 0.9238795325112865 -1.9932065514872573e-17
  outer loop
    vertex 26.49486333156919 29.820184709478752 33.18720000000001
    vertex 26.58899667371034 29.781193402492384 55.68720000000001
    vertex 27.338996673710373 29.470533230712547 33.18720000000001
  endloop
endfacet
facet normal 0.38268343236509045 0.9238795325112865 -1.9932065514872573e-17
  outer loop
    vertex 26.58899667371034 29.781193402492384 55.68720000000001
    vertex 26.49486333156919 29.820184709478752 33.18720000000001
    vertex 26.49486333156919 29.820184709478752 66.6872
  endloop
endfacet
facet normal 0.38268343236509045 0.9238795325112865 -1.9932065514872573e-17
  outer loop
    vertex 26.58899667371034 29.781193402492384 55.68720000000001
    vertex 26.49486333156919 29.820184709478752 66.6872
    vertex 26.58899667371034 29.781193402492384 66.6872
  endloop
endfacet
facet normal 0.38268343236509045 0.9238795325112865 -1.9932065514872573e-17
  outer loop
    vertex 27.338996673710373 29.470533230712547 55.68720000000001
    vertex 27.338996673710373 29.470533230712547 33.18720000000001
    vertex 26.58899667371034 29.781193402492384 55.68720000000001
  endloop
endfacet
facet normal 0.13052619222004852 0.9914448613738108 0.0
  outer loop
    vertex 25.588996673710366 29.93944431746701 66.6872
    vertex 26.49486333156919 29.820184709478752 33.18720000000001
    vertex 25.588996673710366 29.93944431746701 33.18720000000001
  endloop
endfacet
facet normal 0.13052619222004852 0.9914448613738108 0.0
  outer loop
    vertex 26.49486333156919 29.820184709478752 33.18720000000001
    vertex 25.588996673710366 29.93944431746701 66.6872
    vertex 26.49486333156919 29.820184709478752 66.6872
  endloop
endfacet
facet normal -0.38268343236508984 0.9238795325112866 0.0
  outer loop
    vertex 23.83899667371036 29.470533230712547 66.6872
    vertex 24.683130015851543 29.820184709478752 33.18720000000001
    vertex 23.83899667371036 29.470533230712547 33.18720000000001
  endloop
endfacet
facet normal -0.38268343236508984 0.9238795325112866 0.0
  outer loop
    vertex 24.683130015851543 29.820184709478752 33.18720000000001
    vertex 23.83899667371036 29.470533230712547 66.6872
    vertex 24.683130015851543 29.820184709478752 66.6872
  endloop
endfacet
facet normal 0.6087614290087207 0.7933533402912353 0.0
  outer loop
    vertex 27.338996673710373 29.470533230712547 55.68720000000001
    vertex 28.063870407863288 28.91431805161993 33.18720000000001
    vertex 27.338996673710373 29.470533230712547 33.18720000000001
  endloop
endfacet
facet normal 0.6087614290087207 0.7933533402912353 0.0
  outer loop
    vertex 28.063870407863288 28.91431805161993 33.18720000000001
    vertex 27.338996673710373 29.470533230712547 55.68720000000001
    vertex 28.063870407863288 28.91431805161993 55.68720000000001
  endloop
endfacet
facet normal -0.13052619222004852 0.9914448613738108 0.0
  outer loop
    vertex 24.683130015851543 29.820184709478752 66.6872
    vertex 25.588996673710366 29.93944431746701 33.18720000000001
    vertex 24.683130015851543 29.820184709478752 33.18720000000001
  endloop
endfacet
facet normal -0.13052619222004852 0.9914448613738108 0.0
  outer loop
    vertex 25.588996673710366 29.93944431746701 33.18720000000001
    vertex 24.683130015851543 29.820184709478752 66.6872
    vertex 25.588996673710366 29.93944431746701 66.6872
  endloop
endfacet
facet normal 0.0 0.0 1.0
  outer loop
    vertex 22.20825628169862 25.53357765960818 66.6872
    vertex 22.20825628169862 27.34531097532583 66.6872
    vertex 22.08899667371035 26.439444317467007 66.6872
  endloop
endfacet
facet normal 0.0 0.0 1.0
  outer loop
    vertex 22.20825628169862 27.34531097532583 66.6872
    vertex 22.20825628169862 25.53357765960818 66.6872
    vertex 22.557907760464825 24.689444317467 66.6872
  endloop
endfacet
facet normal 0.0 0.0 1.0
  outer loop
    vertex 22.20825628169862 27.34531097532583 66.6872
    vertex 22.557907760464825 24.689444317467 66.6872
    vertex 22.557907760464825 28.189444317467004 66.6872
  endloop
endfacet
facet normal 0.0 0.0 1.0
  outer loop
    vertex 22.557907760464825 28.189444317467004 66.6872
    vertex 22.557907760464825 24.689444317467 66.6872
    vertex 23.114122939557443 23.964570583314085 66.6872
  endloop
endfacet
facet normal 0.0 0.0 1.0
  outer loop
    vertex 22.557907760464825 28.189444317467004 66.6872
    vertex 23.114122939557443 23.964570583314085 66.6872
    vertex 23.114122939557443 28.91431805161993 66.6872
  endloop
endfacet
facet normal 0.0 0.0 1.0
  outer loop
    vertex 23.114122939557443 28.91431805161993 66.6872
    vertex 23.114122939557443 23.964570583314085 66.6872
    vertex 23.83899667371036 23.40835540422147 66.6872
  endloop
endfacet
facet normal 0.0 0.0 1.0
  outer loop
    vertex 23.114122939557443 28.91431805161993 66.6872
    vertex 23.83899667371036 23.40835540422147 66.6872
    vertex 23.83899667371036 29.470533230712547 66.6872
  endloop
endfacet
facet normal 0.0 0.0 1.0
  outer loop
    vertex 23.83899667371036 29.470533230712547 66.6872
    vertex 23.83899667371036 23.40835540422147 66.6872
    vertex 24.683130015851543 23.058703925455262 66.6872
  endloop
endfacet
facet normal 0.0 0.0 1.0
  outer loop
    vertex 23.83899667371036 29.470533230712547 66.6872
    vertex 24.683130015851543 23.058703925455262 66.6872
    vertex 24.683130015851543 29.820184709478752 66.6872
  endloop
endfacet
facet normal 0.0 0.0 1.0
  outer loop
    vertex 24.683130015851543 29.820184709478752 66.6872
    vertex 24.683130015851543 23.058703925455262 66.6872
    vertex 25.588996673710366 22.939444317467004 66.6872
  endloop
endfacet
facet normal 0.0 0.0 1.0
  outer loop
    vertex 24.683130015851543 29.820184709478752 66.6872
    vertex 25.588996673710366 22.939444317467004 66.6872
    vertex 25.588996673710366 29.93944431746701 66.6872
  endloop
endfacet
facet normal 0.0 0.0 1.0
  outer loop
    vertex 25.588996673710366 29.93944431746701 66.6872
    vertex 25.588996673710366 22.939444317467004 66.6872
    vertex 26.49486333156919 23.058703925455262 66.6872
  endloop
endfacet
facet normal 0.0 0.0 1.0
  outer loop
    vertex 25.588996673710366 29.93944431746701 66.6872
    vertex 26.49486333156919 23.058703925455262 66.6872
    vertex 26.49486333156919 29.820184709478752 66.6872
  endloop
endfacet
facet normal 0.0 0.0 1.0
  outer loop
    vertex 26.49486333156919 29.820184709478752 66.6872
    vertex 26.49486333156919 23.058703925455262 66.6872
    vertex 26.58899667371034 23.097695232441634 66.6872
  endloop
endfacet
facet normal 0.0 0.0 1.0
  outer loop
    vertex 26.49486333156919 29.820184709478752 66.6872
    vertex 26.58899667371034 23.097695232441634 66.6872
    vertex 26.58899667371034 29.781193402492384 66.6872
  endloop
endfacet
facet normal 1.0 0.0 0.0
  outer loop
    vertex 26.58899667371034 29.781193402492384 55.68720000000001
    vertex 26.58899667371034 23.097695232441634 66.6872
    vertex 26.58899667371034 23.097695232441634 55.68720000000001
  endloop
endfacet
facet normal 1.0 0.0 0.0
  outer loop
    vertex 26.58899667371034 23.097695232441634 66.6872
    vertex 26.58899667371034 29.781193402492384 55.68720000000001
    vertex 26.58899667371034 29.781193402492384 66.6872
  endloop
endfacet
facet normal 0.0 0.0 1.0
  outer loop
    vertex 27.338996673710373 23.40835540422147 55.68720000000001
    vertex 26.58899667371034 29.781193402492384 55.68720000000001
    vertex 26.58899667371034 23.097695232441634 55.68720000000001
  endloop
endfacet
facet normal 0.0 0.0 1.0
  outer loop
    vertex 26.58899667371034 29.781193402492384 55.68720000000001
    vertex 27.338996673710373 23.40835540422147 55.68720000000001
    vertex 27.338996673710373 29.470533230712547 55.68720000000001
  endloop
endfacet
facet normal 0.0 0.0 1.0
  outer loop
    vertex 27.338996673710373 29.470533230712547 55.68720000000001
    vertex 27.338996673710373 23.40835540422147 55.68720000000001
    vertex 28.063870407863288 23.964570583314085 55.68720000000001
  endloop
endfacet
facet normal 0.0 0.0 1.0
  outer loop
    vertex 27.338996673710373 29.470533230712547 55.68720000000001
    vertex 28.063870407863288 23.964570583314085 55.68720000000001
    vertex 28.063870407863288 28.91431805161993 55.68720000000001
  endloop
endfacet
facet normal 0.0 0.0 1.0
  outer loop
    vertex 28.063870407863288 28.91431805161993 55.68720000000001
    vertex 28.063870407863288 23.964570583314085 55.68720000000001
    vertex 28.620085586955906 24.68944431746701 55.68720000000001
  endloop
endfacet
facet normal 0.0 0.0 1.0
  outer loop
    vertex 28.063870407863288 28.91431805161993 55.68720000000001
    vertex 28.620085586955906 24.68944431746701 55.68720000000001
    vertex 28.620085586955906 28.189444317467014 55.68720000000001
  endloop
endfacet
facet normal 0.0 0.0 1.0
  outer loop
    vertex 28.620085586955906 28.189444317467014 55.68720000000001
    vertex 28.620085586955906 24.68944431746701 55.68720000000001
    vertex 28.969737065722114 25.53357765960818 55.68720000000001
  endloop
endfacet
facet normal 0.0 0.0 1.0
  outer loop
    vertex 28.620085586955906 28.189444317467014 55.68720000000001
    vertex 28.969737065722114 25.53357765960818 55.68720000000001
    vertex 28.969737065722114 27.34531097532583 55.68720000000001
  endloop
endfacet
facet normal 0.0 0.0 1.0
  outer loop
    vertex 28.969737065722114 27.34531097532583 55.68720000000001
    vertex 28.969737065722114 25.53357765960818 55.68720000000001
    vertex 29.088996673710383 26.439444317467007 55.68720000000001
  endloop
endfacet
endsolid V2-Joystick
