solid V2-Joystick
facet normal 1.1588903352936556e-16 -1.4338812623124914e-16 1.0
  outer loop
    vertex 6.3995537285921955 10.94355990375522 17.687200000000015
    vertex 7.399553728592194 11.943559903755219 17.687200000000015
    vertex 6.399553728592218 40.443559903755215 17.687200000000015
  endloop
endfacet
facet normal 1.1588903352936556e-16 -1.4338812623124914e-16 1.0
  outer loop
    vertex 7.399553728592194 11.943559903755219 17.687200000000015
    vertex 6.3995537285921955 10.94355990375522 17.687200000000015
    vertex 42.899553728592196 10.943559903755197 17.687200000000004
  endloop
endfacet
facet normal 1.1588903352936556e-16 -1.4338812623124914e-16 1.0
  outer loop
    vertex 7.399553728592194 11.943559903755219 17.687200000000015
    vertex 42.899553728592196 10.943559903755197 17.687200000000004
    vertex 41.899553728592196 11.943559903755196 17.687200000000004
  endloop
endfacet
facet normal 1.1588903352936556e-16 -1.4338812623124914e-16 1.0
  outer loop
    vertex 41.899553728592196 11.943559903755196 17.687200000000004
    vertex 42.899553728592196 10.943559903755197 17.687200000000004
    vertex 41.89955372859222 39.443559903755194 17.687200000000015
  endloop
endfacet
facet normal 1.1588903352936556e-16 -1.4338812623124914e-16 1.0
  outer loop
    vertex 6.399553728592218 40.443559903755215 17.687200000000015
    vertex 7.399553728592216 39.443559903755215 17.687200000000015
    vertex 42.89955372859222 40.44355990375519 17.687200000000015
  endloop
endfacet
facet normal 1.1588903352936556e-16 -1.4338812623124914e-16 1.0
  outer loop
    vertex 7.399553728592216 39.443559903755215 17.687200000000015
    vertex 6.399553728592218 40.443559903755215 17.687200000000015
    vertex 7.399553728592194 11.943559903755219 17.687200000000015
  endloop
endfacet
facet normal 1.1588903352936556e-16 -1.4338812623124914e-16 1.0
  outer loop
    vertex 42.89955372859222 40.44355990375519 17.687200000000015
    vertex 7.399553728592216 39.443559903755215 17.687200000000015
    vertex 41.89955372859222 39.443559903755194 17.687200000000015
  endloop
endfacet
facet normal 1.1588903352936556e-16 -1.4338812623124914e-16 1.0
  outer loop
    vertex 42.89955372859222 40.44355990375519 17.687200000000015
    vertex 41.89955372859222 39.443559903755194 17.687200000000015
    vertex 42.899553728592196 10.943559903755197 17.687200000000004
  endloop
endfacet
facet normal 0.0 0.0 1.0
  outer loop
    vertex 1.2353980622157688 20.791237994198653 1.6872000000000145
    vertex 1.6740584409524255 33.72475346144801 1.6872000000000145
    vertex 0.6033634446598108 27.286871095049996 1.6872000000000145
  endloop
endfacet
facet normal 0.0 0.0 1.0
  outer loop
    vertex 1.6740584409524255 33.72475346144801 1.6872000000000145
    vertex 1.2353980622157688 20.791237994198653 1.6872000000000145
    vertex 3.527090178920486 14.680520820175774 1.6872000000000145
  endloop
endfacet
facet normal 0.0 0.0 1.0
  outer loop
    vertex 1.6740584409524255 33.72475346144801 1.6872000000000145
    vertex 3.527090178920486 14.680520820175774 1.6872000000000145
    vertex 4.374516956503441 39.66615404922633 1.6872000000000145
  endloop
endfacet
facet normal 0.0 0.0 1.0
  outer loop
    vertex 4.374516956503441 39.66615404922633 1.6872000000000145
    vertex 3.527090178920486 14.680520820175774 1.6872000000000145
    vertex 6.3995537285921955 10.94355990375522 1.6872000000000145
  endloop
endfacet
facet normal 0.0 0.0 1.0
  outer loop
    vertex 6.3995537285921955 10.94355990375522 1.6872000000000145
    vertex 3.527090178920486 14.680520820175774 1.6872000000000145
    vertex 7.32226476422079 9.371154849953417 1.6872000000000145
  endloop
endfacet
facet normal 0.0 0.0 1.0
  outer loop
    vertex 6.3995537285921955 10.94355990375522 1.6872000000000145
    vertex 7.32226476422079 9.371154849953417 1.6872000000000145
    vertex 42.899553728592196 10.943559903755197 1.687200000000006
  endloop
endfacet
facet normal 0.0 0.0 1.0
  outer loop
    vertex 42.899553728592196 10.943559903755197 1.687200000000006
    vertex 7.32226476422079 9.371154849953417 1.6872000000000145
    vertex 12.362286941951066 5.224964600260103 1.6872000000000145
  endloop
endfacet
facet normal 0.0 0.0 1.0
  outer loop
    vertex 42.899553728592196 10.943559903755197 1.687200000000006
    vertex 12.362286941951066 5.224964600260103 1.6872000000000145
    vertex 18.30368752972938 2.524506084709088 1.6872000000000145
  endloop
endfacet
facet normal 0.0 0.0 1.0
  outer loop
    vertex 42.899553728592196 10.943559903755197 1.687200000000006
    vertex 18.30368752972938 2.524506084709088 1.6872000000000145
    vertex 24.741569896127412 1.4538110884164621 1.6872000000000145
  endloop
endfacet
facet normal 0.0 0.0 1.0
  outer loop
    vertex 42.899553728592196 10.943559903755197 1.687200000000006
    vertex 24.741569896127412 1.4538110884164621 1.6872000000000145
    vertex 31.237202996978752 2.0858457059724316 1.6872000000000145
  endloop
endfacet
facet normal 0.0 0.0 1.0
  outer loop
    vertex 42.899553728592196 10.943559903755197 1.687200000000006
    vertex 31.237202996978752 2.0858457059724316 1.6872000000000145
    vertex 37.34792017100162 4.377537822677149 1.6872000000000145
  endloop
endfacet
facet normal 0.0 0.0 1.0
  outer loop
    vertex 42.899553728592196 10.943559903755197 1.687200000000006
    vertex 37.34792017100162 4.377537822677149 1.6872000000000145
    vertex 42.65728614122398 8.172712407977464 1.6872000000000145
  endloop
endfacet
facet normal 0.0 0.0 1.0
  outer loop
    vertex 42.899553728592196 10.943559903755197 1.687200000000006
    vertex 42.65728614122398 8.172712407977464 1.6872000000000145
    vertex 46.80347639091729 13.212734585707706 1.6872000000000145
  endloop
endfacet
facet normal 0.0 0.0 1.0
  outer loop
    vertex 42.899553728592196 10.943559903755197 1.687200000000006
    vertex 46.80347639091729 13.212734585707706 1.6872000000000145
    vertex 42.89955372859222 40.44355990375519 1.6872000000000145
  endloop
endfacet
facet normal 0.0 0.0 1.0
  outer loop
    vertex 42.89955372859222 40.44355990375519 1.6872000000000145
    vertex 46.80347639091729 13.212734585707706 1.6872000000000145
    vertex 43.85572858319994 43.507733784980594 1.6872000000000145
  endloop
endfacet
facet normal 0.0 0.0 1.0
  outer loop
    vertex 43.85572858319994 43.507733784980594 1.6872000000000145
    vertex 46.80347639091729 13.212734585707706 1.6872000000000145
    vertex 47.65090316850027 38.19836781475824 1.6872000000000145
  endloop
endfacet
facet normal 0.0 0.0 1.0
  outer loop
    vertex 47.65090316850027 38.19836781475824 1.6872000000000145
    vertex 46.80347639091729 13.212734585707706 1.6872000000000145
    vertex 49.50393490646831 19.154135173486033 1.6872000000000145
  endloop
endfacet
facet normal 0.0 0.0 1.0
  outer loop
    vertex 47.65090316850027 38.19836781475824 1.6872000000000145
    vertex 49.50393490646831 19.154135173486033 1.6872000000000145
    vertex 49.942595285204966 32.08765064073537 1.6872000000000145
  endloop
endfacet
facet normal 0.0 0.0 1.0
  outer loop
    vertex 49.942595285204966 32.08765064073537 1.6872000000000145
    vertex 49.50393490646831 19.154135173486033 1.6872000000000145
    vertex 50.57462990276092 25.59201753988404 1.6872000000000145
  endloop
endfacet
facet normal 0.0 0.0 1.0
  outer loop
    vertex 4.374516956503441 39.66615404922633 1.6872000000000145
    vertex 6.399553728592218 40.443559903755215 1.6872000000000145
    vertex 8.520707206196754 44.70617622695658 1.6872000000000145
  endloop
endfacet
facet normal 0.0 0.0 1.0
  outer loop
    vertex 6.399553728592218 40.443559903755215 1.6872000000000145
    vertex 4.374516956503441 39.66615404922633 1.6872000000000145
    vertex 6.3995537285921955 10.94355990375522 1.6872000000000145
  endloop
endfacet
facet normal 0.0 0.0 1.0
  outer loop
    vertex 8.520707206196754 44.70617622695658 1.6872000000000145
    vertex 6.399553728592218 40.443559903755215 1.6872000000000145
    vertex 42.89955372859222 40.44355990375519 1.6872000000000145
  endloop
endfacet
facet normal 0.0 0.0 1.0
  outer loop
    vertex 8.520707206196754 44.70617622695658 1.6872000000000145
    vertex 42.89955372859222 40.44355990375519 1.6872000000000145
    vertex 13.830073176419111 48.501350812256895 1.6872000000000145
  endloop
endfacet
facet normal 0.0 0.0 1.0
  outer loop
    vertex 13.830073176419111 48.501350812256895 1.6872000000000145
    vertex 42.89955372859222 40.44355990375519 1.6872000000000145
    vertex 19.940790350442 50.79304292896161 1.6872000000000145
  endloop
endfacet
facet normal 0.0 0.0 1.0
  outer loop
    vertex 19.940790350442 50.79304292896161 1.6872000000000145
    vertex 42.89955372859222 40.44355990375519 1.6872000000000145
    vertex 26.436423451293322 51.42507754651757 1.6872000000000145
  endloop
endfacet
facet normal 0.0 0.0 1.0
  outer loop
    vertex 26.436423451293322 51.42507754651757 1.6872000000000145
    vertex 42.89955372859222 40.44355990375519 1.6872000000000145
    vertex 32.87430581769135 50.354382550224955 1.6872000000000145
  endloop
endfacet
facet normal 0.0 0.0 1.0
  outer loop
    vertex 32.87430581769135 50.354382550224955 1.6872000000000145
    vertex 42.89955372859222 40.44355990375519 1.6872000000000145
    vertex 38.81570640546971 47.65392403467391 1.6872000000000145
  endloop
endfacet
facet normal 0.0 0.0 1.0
  outer loop
    vertex 38.81570640546971 47.65392403467391 1.6872000000000145
    vertex 42.89955372859222 40.44355990375519 1.6872000000000145
    vertex 43.85572858319994 43.507733784980594 1.6872000000000145
  endloop
endfacet
facet normal 0.0968441056627814 -0.9952995625430447 0.0
  outer loop
    vertex 26.436423451293322 51.42507754651757 17.687200000000008
    vertex 19.940790350442 50.79304292896161 1.6872000000000145
    vertex 26.436423451293322 51.42507754651757 1.6872000000000145
  endloop
endfacet
facet normal 0.0968441056627814 -0.9952995625430447 0.0
  outer loop
    vertex 19.940790350442 50.79304292896161 1.6872000000000145
    vertex 26.436423451293322 51.42507754651757 17.687200000000008
    vertex 19.940790350442 50.79304292896161 17.687200000000008
  endloop
endfacet
facet normal -0.1640582595847965 -0.986450651305988 0.0
  outer loop
    vertex 32.87430581769135 50.354382550224955 17.687200000000008
    vertex 26.436423451293322 51.42507754651757 1.6872000000000145
    vertex 32.87430581769135 50.354382550224955 1.6872000000000145
  endloop
endfacet
facet normal -0.1640582595847965 -0.986450651305988 0.0
  outer loop
    vertex 26.436423451293322 51.42507754651757 1.6872000000000145
    vertex 32.87430581769135 50.354382550224955 17.687200000000008
    vertex 26.436423451293322 51.42507754651757 17.687200000000008
  endloop
endfacet
facet normal -0.4137803255607687 -0.9103767583692064 0.0
  outer loop
    vertex 38.81570640546971 47.65392403467391 17.687200000000008
    vertex 32.87430581769135 50.354382550224955 1.6872000000000145
    vertex 38.81570640546971 47.65392403467391 1.6872000000000145
  endloop
endfacet
facet normal -0.4137803255607687 -0.9103767583692064 0.0
  outer loop
    vertex 32.87430581769135 50.354382550224955 1.6872000000000145
    vertex 38.81570640546971 47.65392403467391 17.687200000000008
    vertex 32.87430581769135 50.354382550224955 17.687200000000008
  endloop
endfacet
facet normal -0.6353039461540928 -0.7722621938182896 0.0
  outer loop
    vertex 43.85572858319994 43.507733784980594 17.687200000000008
    vertex 38.81570640546971 47.65392403467391 1.6872000000000145
    vertex 43.85572858319994 43.507733784980594 1.6872000000000145
  endloop
endfacet
facet normal -0.6353039461540928 -0.7722621938182896 0.0
  outer loop
    vertex 38.81570640546971 47.65392403467391 1.6872000000000145
    vertex 43.85572858319994 43.507733784980594 17.687200000000008
    vertex 38.81570640546971 47.65392403467391 17.687200000000008
  endloop
endfacet
facet normal -0.8135326527064234 -0.5815192369822775 0.0
  outer loop
    vertex 43.85572858319994 43.507733784980594 17.687200000000008
    vertex 47.65090316850027 38.19836781475824 1.6872000000000145
    vertex 47.65090316850027 38.19836781475824 17.687200000000008
  endloop
endfacet
facet normal -0.8135326527064234 -0.5815192369822775 0.0
  outer loop
    vertex 47.65090316850027 38.19836781475824 1.6872000000000145
    vertex 43.85572858319994 43.507733784980594 17.687200000000008
    vertex 43.85572858319994 43.507733784980594 1.6872000000000145
  endloop
endfacet
facet normal -0.9363204534030903 -0.3511467051518947 0.0
  outer loop
    vertex 47.65090316850027 38.19836781475824 17.687200000000008
    vertex 49.942595285204966 32.08765064073537 1.6872000000000145
    vertex 49.942595285204966 32.08765064073537 17.687200000000008
  endloop
endfacet
facet normal -0.9363204534030903 -0.3511467051518947 0.0
  outer loop
    vertex 49.942595285204966 32.08765064073537 1.6872000000000145
    vertex 47.65090316850027 38.19836781475824 17.687200000000008
    vertex 47.65090316850027 38.19836781475824 1.6872000000000145
  endloop
endfacet
facet normal -0.9952995625430449 -0.09684410566278125 0.0
  outer loop
    vertex 49.942595285204966 32.08765064073537 17.687200000000008
    vertex 50.57462990276092 25.59201753988404 1.6872000000000145
    vertex 50.57462990276092 25.59201753988404 17.687200000000008
  endloop
endfacet
facet normal -0.9952995625430449 -0.09684410566278125 0.0
  outer loop
    vertex 50.57462990276092 25.59201753988404 1.6872000000000145
    vertex 49.942595285204966 32.08765064073537 17.687200000000008
    vertex 49.942595285204966 32.08765064073537 1.6872000000000145
  endloop
endfacet
facet normal -0.9864506513059879 0.16405825958479708 0.0
  outer loop
    vertex 50.57462990276092 25.59201753988404 17.687200000000008
    vertex 49.50393490646831 19.154135173486033 1.6872000000000145
    vertex 49.50393490646831 19.154135173486033 17.687200000000008
  endloop
endfacet
facet normal -0.9864506513059879 0.16405825958479708 0.0
  outer loop
    vertex 49.50393490646831 19.154135173486033 1.6872000000000145
    vertex 50.57462990276092 25.59201753988404 17.687200000000008
    vertex 50.57462990276092 25.59201753988404 1.6872000000000145
  endloop
endfacet
facet normal -0.9103767583692067 0.41378032556076777 0.0
  outer loop
    vertex 49.50393490646831 19.154135173486033 17.687200000000008
    vertex 46.80347639091729 13.212734585707706 1.6872000000000145
    vertex 46.80347639091729 13.212734585707706 17.687200000000008
  endloop
endfacet
facet normal -0.9103767583692067 0.41378032556076777 0.0
  outer loop
    vertex 46.80347639091729 13.212734585707706 1.6872000000000145
    vertex 49.50393490646831 19.154135173486033 17.687200000000008
    vertex 49.50393490646831 19.154135173486033 1.6872000000000145
  endloop
endfacet
facet normal -0.7722621938182904 0.635303946154092 0.0
  outer loop
    vertex 46.80347639091729 13.212734585707706 17.687200000000008
    vertex 42.65728614122398 8.172712407977464 1.6872000000000145
    vertex 42.65728614122398 8.172712407977464 17.687200000000008
  endloop
endfacet
facet normal -0.7722621938182904 0.635303946154092 0.0
  outer loop
    vertex 42.65728614122398 8.172712407977464 1.6872000000000145
    vertex 46.80347639091729 13.212734585707706 17.687200000000008
    vertex 46.80347639091729 13.212734585707706 1.6872000000000145
  endloop
endfacet
facet normal -0.5815192369822763 0.813532652706424 0.0
  outer loop
    vertex 37.34792017100162 4.377537822677149 17.687200000000008
    vertex 42.65728614122398 8.172712407977464 1.6872000000000145
    vertex 37.34792017100162 4.377537822677149 1.6872000000000145
  endloop
endfacet
facet normal -0.5815192369822763 0.813532652706424 0.0
  outer loop
    vertex 42.65728614122398 8.172712407977464 1.6872000000000145
    vertex 37.34792017100162 4.377537822677149 17.687200000000008
    vertex 42.65728614122398 8.172712407977464 17.687200000000008
  endloop
endfacet
facet normal -0.3511467051518977 0.9363204534030891 0.0
  outer loop
    vertex 31.237202996978752 2.0858457059724316 17.687200000000008
    vertex 37.34792017100162 4.377537822677149 1.6872000000000145
    vertex 31.237202996978752 2.0858457059724316 1.6872000000000145
  endloop
endfacet
facet normal -0.3511467051518977 0.9363204534030891 0.0
  outer loop
    vertex 37.34792017100162 4.377537822677149 1.6872000000000145
    vertex 31.237202996978752 2.0858457059724316 17.687200000000008
    vertex 37.34792017100162 4.377537822677149 17.687200000000008
  endloop
endfacet
facet normal -0.09684410566278279 0.9952995625430446 0.0
  outer loop
    vertex 24.741569896127412 1.4538110884164621 17.687200000000008
    vertex 31.237202996978752 2.0858457059724316 1.6872000000000145
    vertex 24.741569896127412 1.4538110884164621 1.6872000000000145
  endloop
endfacet
facet normal -0.09684410566278279 0.9952995625430446 0.0
  outer loop
    vertex 31.237202996978752 2.0858457059724316 1.6872000000000145
    vertex 24.741569896127412 1.4538110884164621 17.687200000000008
    vertex 31.237202996978752 2.0858457059724316 17.687200000000008
  endloop
endfacet
facet normal 0.16405825958479817 0.9864506513059875 0.0
  outer loop
    vertex 18.30368752972938 2.524506084709088 17.687200000000008
    vertex 24.741569896127412 1.4538110884164621 1.6872000000000145
    vertex 18.30368752972938 2.524506084709088 1.6872000000000145
  endloop
endfacet
facet normal 0.16405825958479817 0.9864506513059875 0.0
  outer loop
    vertex 24.741569896127412 1.4538110884164621 1.6872000000000145
    vertex 18.30368752972938 2.524506084709088 17.687200000000008
    vertex 24.741569896127412 1.4538110884164621 17.687200000000008
  endloop
endfacet
facet normal 0.4137803255607685 0.9103767583692065 0.0
  outer loop
    vertex 12.362286941951066 5.224964600260103 17.687200000000008
    vertex 18.30368752972938 2.524506084709088 1.6872000000000145
    vertex 12.362286941951066 5.224964600260103 1.6872000000000145
  endloop
endfacet
facet normal 0.4137803255607685 0.9103767583692065 0.0
  outer loop
    vertex 18.30368752972938 2.524506084709088 1.6872000000000145
    vertex 12.362286941951066 5.224964600260103 17.687200000000008
    vertex 18.30368752972938 2.524506084709088 17.687200000000008
  endloop
endfacet
facet normal 0.6353039461540895 0.7722621938182926 0.0
  outer loop
    vertex 7.32226476422079 9.371154849953417 17.687200000000008
    vertex 12.362286941951066 5.224964600260103 1.6872000000000145
    vertex 7.32226476422079 9.371154849953417 1.6872000000000145
  endloop
endfacet
facet normal 0.6353039461540895 0.7722621938182926 0.0
  outer loop
    vertex 12.362286941951066 5.224964600260103 1.6872000000000145
    vertex 7.32226476422079 9.371154849953417 17.687200000000008
    vertex 12.362286941951066 5.224964600260103 17.687200000000008
  endloop
endfacet
facet normal 0.8135326527064249 0.5815192369822753 0.0
  outer loop
    vertex 3.527090178920486 14.680520820175774 1.6872000000000145
    vertex 7.32226476422079 9.371154849953417 17.687200000000008
    vertex 7.32226476422079 9.371154849953417 1.6872000000000145
  endloop
endfacet
facet normal 0.8135326527064249 0.5815192369822753 0.0
  outer loop
    vertex 7.32226476422079 9.371154849953417 17.687200000000008
    vertex 3.527090178920486 14.680520820175774 1.6872000000000145
    vertex 3.527090178920486 14.680520820175774 17.687200000000008
  endloop
endfacet
facet normal 0.9363204534030892 0.35114670515189716 0.0
  outer loop
    vertex 1.2353980622157688 20.791237994198653 1.6872000000000145
    vertex 3.527090178920486 14.680520820175774 17.687200000000008
    vertex 3.527090178920486 14.680520820175774 1.6872000000000145
  endloop
endfacet
facet normal 0.9363204534030892 0.35114670515189716 0.0
  outer loop
    vertex 3.527090178920486 14.680520820175774 17.687200000000008
    vertex 1.2353980622157688 20.791237994198653 1.6872000000000145
    vertex 1.2353980622157688 20.791237994198653 17.687200000000008
  endloop
endfacet
facet normal 0.9952995625430449 0.09684410566278108 0.0
  outer loop
    vertex 0.6033634446598108 27.286871095049996 1.6872000000000145
    vertex 1.2353980622157688 20.791237994198653 17.687200000000008
    vertex 1.2353980622157688 20.791237994198653 1.6872000000000145
  endloop
endfacet
facet normal 0.9952995625430449 0.09684410566278108 0.0
  outer loop
    vertex 1.2353980622157688 20.791237994198653 17.687200000000008
    vertex 0.6033634446598108 27.286871095049996 1.6872000000000145
    vertex 0.6033634446598108 27.286871095049996 17.687200000000008
  endloop
endfacet
facet normal 0.986450651305988 -0.16405825958479678 0.0
  outer loop
    vertex 1.6740584409524255 33.72475346144801 1.6872000000000145
    vertex 0.6033634446598108 27.286871095049996 17.687200000000008
    vertex 0.6033634446598108 27.286871095049996 1.6872000000000145
  endloop
endfacet
facet normal 0.986450651305988 -0.16405825958479678 0.0
  outer loop
    vertex 0.6033634446598108 27.286871095049996 17.687200000000008
    vertex 1.6740584409524255 33.72475346144801 1.6872000000000145
    vertex 1.6740584409524255 33.72475346144801 17.687200000000008
  endloop
endfacet
facet normal 0.9103767583692065 -0.4137803255607685 0.0
  outer loop
    vertex 4.374516956503441 39.66615404922633 1.6872000000000145
    vertex 1.6740584409524255 33.72475346144801 17.687200000000008
    vertex 1.6740584409524255 33.72475346144801 1.6872000000000145
  endloop
endfacet
facet normal 0.9103767583692065 -0.4137803255607685 0.0
  outer loop
    vertex 1.6740584409524255 33.72475346144801 17.687200000000008
    vertex 4.374516956503441 39.66615404922633 1.6872000000000145
    vertex 4.374516956503441 39.66615404922633 17.687200000000008
  endloop
endfacet
facet normal 0.7722621938182912 -0.6353039461540911 0.0
  outer loop
    vertex 8.520707206196754 44.70617622695658 1.6872000000000145
    vertex 4.374516956503441 39.66615404922633 17.687200000000008
    vertex 4.374516956503441 39.66615404922633 1.6872000000000145
  endloop
endfacet
facet normal 0.7722621938182912 -0.6353039461540911 0.0
  outer loop
    vertex 4.374516956503441 39.66615404922633 17.687200000000008
    vertex 8.520707206196754 44.70617622695658 1.6872000000000145
    vertex 8.520707206196754 44.70617622695658 17.687200000000008
  endloop
endfacet
facet normal 0.5815192369822753 -0.8135326527064249 0.0
  outer loop
    vertex 13.830073176419111 48.501350812256895 17.687200000000008
    vertex 8.520707206196754 44.70617622695658 1.6872000000000145
    vertex 13.830073176419111 48.501350812256895 1.6872000000000145
  endloop
endfacet
facet normal 0.5815192369822753 -0.8135326527064249 0.0
  outer loop
    vertex 8.520707206196754 44.70617622695658 1.6872000000000145
    vertex 13.830073176419111 48.501350812256895 17.687200000000008
    vertex 8.520707206196754 44.70617622695658 17.687200000000008
  endloop
endfacet
facet normal 0.35114670515189655 -0.9363204534030894 0.0
  outer loop
    vertex 19.940790350442 50.79304292896161 17.687200000000008
    vertex 13.830073176419111 48.501350812256895 1.6872000000000145
    vertex 19.940790350442 50.79304292896161 1.6872000000000145
  endloop
endfacet
facet normal 0.35114670515189655 -0.9363204534030894 0.0
  outer loop
    vertex 13.830073176419111 48.501350812256895 1.6872000000000145
    vertex 19.940790350442 50.79304292896161 17.687200000000008
    vertex 13.830073176419111 48.501350812256895 17.687200000000008
  endloop
endfacet
facet normal 9.803021403714937e-33 7.842417122971949e-33 1.0
  outer loop
    vertex 0.2612541177559759 20.565309741267956 17.687200000000008
    vertex 1.2353980622157688 20.791237994198653 17.687200000000008
    vertex 0.6033634446598108 27.286871095049996 17.687200000000008
  endloop
endfacet
facet normal 9.803021403714937e-33 7.842417122971949e-33 1.0
  outer loop
    vertex 1.2353980622157688 20.791237994198653 17.687200000000008
    vertex 0.2612541177559759 20.565309741267956 17.687200000000008
    vertex 2.644613919128877 14.210163880284117 17.687200000000008
  endloop
endfacet
facet normal 9.803021403714937e-33 7.842417122971949e-33 1.0
  outer loop
    vertex 1.2353980622157688 20.791237994198653 17.687200000000008
    vertex 2.644613919128877 14.210163880284117 17.687200000000008
    vertex 3.527090178920486 14.680520820175774 17.687200000000008
  endloop
endfacet
facet normal 9.803021403714937e-33 7.842417122971949e-33 1.0
  outer loop
    vertex 3.527090178920486 14.680520820175774 17.687200000000008
    vertex 2.644613919128877 14.210163880284117 17.687200000000008
    vertex 6.5915954878411895 8.688423271252868 17.687200000000008
  endloop
endfacet
facet normal 9.803021403714937e-33 7.842417122971949e-33 1.0
  outer loop
    vertex 3.527090178920486 14.680520820175774 17.687200000000008
    vertex 6.5915954878411895 8.688423271252868 17.687200000000008
    vertex 7.32226476422079 9.371154849953417 17.687200000000008
  endloop
endfacet
facet normal 9.803021403714937e-33 7.842417122971949e-33 1.0
  outer loop
    vertex 7.32226476422079 9.371154849953417 17.687200000000008
    vertex 6.5915954878411895 8.688423271252868 17.687200000000008
    vertex 11.83321855268066 4.376385411571816 17.687200000000008
  endloop
endfacet
facet normal 9.803021403714937e-33 7.842417122971949e-33 1.0
  outer loop
    vertex 7.32226476422079 9.371154849953417 17.687200000000008
    vertex 11.83321855268066 4.376385411571816 17.687200000000008
    vertex 12.362286941951066 5.224964600260103 17.687200000000008
  endloop
endfacet
facet normal 9.803021403714937e-33 7.842417122971949e-33 1.0
  outer loop
    vertex 12.362286941951066 5.224964600260103 17.687200000000008
    vertex 11.83321855268066 4.376385411571816 17.687200000000008
    vertex 18.012275163970138 1.5679085553987568 17.687200000000008
  endloop
endfacet
facet normal 9.803021403714937e-33 7.842417122971949e-33 1.0
  outer loop
    vertex 12.362286941951066 5.224964600260103 17.687200000000008
    vertex 18.012275163970138 1.5679085553987568 17.687200000000008
    vertex 18.30368752972938 2.524506084709088 17.687200000000008
  endloop
endfacet
facet normal 9.803021403714937e-33 7.842417122971949e-33 1.0
  outer loop
    vertex 18.30368752972938 2.524506084709088 17.687200000000008
    vertex 18.012275163970138 1.5679085553987568 17.687200000000008
    vertex 24.70767282502408 0.4543857592544232 17.687200000000008
  endloop
endfacet
facet normal 9.803021403714937e-33 7.842417122971949e-33 1.0
  outer loop
    vertex 18.30368752972938 2.524506084709088 17.687200000000008
    vertex 24.70767282502408 0.4543857592544232 17.687200000000008
    vertex 24.741569896127412 1.4538110884164621 17.687200000000008
  endloop
endfacet
facet normal 9.803021403714937e-33 7.842417122971949e-33 1.0
  outer loop
    vertex 24.741569896127412 1.4538110884164621 17.687200000000008
    vertex 24.70767282502408 0.4543857592544232 17.687200000000008
    vertex 31.463131249909463 1.1117017615126272 17.687200000000008
  endloop
endfacet
facet normal 9.803021403714937e-33 7.842417122971949e-33 1.0
  outer loop
    vertex 24.741569896127412 1.4538110884164621 17.687200000000008
    vertex 31.463131249909463 1.1117017615126272 17.687200000000008
    vertex 31.237202996978752 2.0858457059724316 17.687200000000008
  endloop
endfacet
facet normal 9.803021403714937e-33 7.842417122971949e-33 1.0
  outer loop
    vertex 31.237202996978752 2.0858457059724316 17.687200000000008
    vertex 31.463131249909463 1.1117017615126272 17.687200000000008
    vertex 37.34792017100162 4.377537822677149 17.687200000000008
  endloop
endfacet
facet normal 9.803021403714937e-33 7.842417122971949e-33 1.0
  outer loop
    vertex 37.34792017100162 4.377537822677149 17.687200000000008
    vertex 31.463131249909463 1.1117017615126272 17.687200000000008
    vertex 37.81827711089327 3.4950615628855286 17.687200000000008
  endloop
endfacet
facet normal 9.803021403714937e-33 7.842417122971949e-33 1.0
  outer loop
    vertex 37.34792017100162 4.377537822677149 17.687200000000008
    vertex 37.81827711089327 3.4950615628855286 17.687200000000008
    vertex 42.65728614122398 8.172712407977464 17.687200000000008
  endloop
endfacet
facet normal 9.803021403714937e-33 7.842417122971949e-33 1.0
  outer loop
    vertex 42.65728614122398 8.172712407977464 17.687200000000008
    vertex 37.81827711089327 3.4950615628855286 17.687200000000008
    vertex 43.340017719924504 7.442043131597852 17.687200000000008
  endloop
endfacet
facet normal 9.803021403714937e-33 7.842417122971949e-33 1.0
  outer loop
    vertex 42.65728614122398 8.172712407977464 17.687200000000008
    vertex 43.340017719924504 7.442043131597852 17.687200000000008
    vertex 46.80347639091729 13.212734585707706 17.687200000000008
  endloop
endfacet
facet normal 9.803021403714937e-33 7.842417122971949e-33 1.0
  outer loop
    vertex 46.80347639091729 13.212734585707706 17.687200000000008
    vertex 43.340017719924504 7.442043131597852 17.687200000000008
    vertex 47.652055579605566 12.683666196437324 17.687200000000008
  endloop
endfacet
facet normal 9.803021403714937e-33 7.842417122971949e-33 1.0
  outer loop
    vertex 46.80347639091729 13.212734585707706 17.687200000000008
    vertex 47.652055579605566 12.683666196437324 17.687200000000008
    vertex 49.50393490646831 19.154135173486033 17.687200000000008
  endloop
endfacet
facet normal 9.803021403714937e-33 7.842417122971949e-33 1.0
  outer loop
    vertex 49.50393490646831 19.154135173486033 17.687200000000008
    vertex 47.652055579605566 12.683666196437324 17.687200000000008
    vertex 50.46053243577864 18.862722807726776 17.687200000000008
  endloop
endfacet
facet normal 9.803021403714937e-33 7.842417122971949e-33 1.0
  outer loop
    vertex 49.50393490646831 19.154135173486033 17.687200000000008
    vertex 50.46053243577864 18.862722807726776 17.687200000000008
    vertex 50.57462990276092 25.59201753988404 17.687200000000008
  endloop
endfacet
facet normal 9.803021403714937e-33 7.842417122971949e-33 1.0
  outer loop
    vertex 50.57462990276092 25.59201753988404 17.687200000000008
    vertex 50.46053243577864 18.862722807726776 17.687200000000008
    vertex 51.57405523192297 25.55812046878073 17.687200000000008
  endloop
endfacet
facet normal 9.803021403714937e-33 7.842417122971949e-33 1.0
  outer loop
    vertex 50.57462990276092 25.59201753988404 17.687200000000008
    vertex 51.57405523192297 25.55812046878073 17.687200000000008
    vertex 50.916739229664756 32.313578893666126 17.687200000000008
  endloop
endfacet
facet normal 9.803021403714937e-33 7.842417122971949e-33 1.0
  outer loop
    vertex 0.2612541177559759 20.565309741267956 17.687200000000008
    vertex 0.7174609116421169 34.01616582720728 17.687200000000008
    vertex -0.39606188450223934 27.32076816615334 17.687200000000008
  endloop
endfacet
facet normal 9.803021403714937e-33 7.842417122971949e-33 1.0
  outer loop
    vertex 0.7174609116421169 34.01616582720728 17.687200000000008
    vertex 0.2612541177559759 20.565309741267956 17.687200000000008
    vertex 0.6033634446598108 27.286871095049996 17.687200000000008
  endloop
endfacet
facet normal 9.803021403714937e-33 7.842417122971949e-33 1.0
  outer loop
    vertex 0.7174609116421169 34.01616582720728 17.687200000000008
    vertex 0.6033634446598108 27.286871095049996 17.687200000000008
    vertex 1.6740584409524255 33.72475346144801 17.687200000000008
  endloop
endfacet
facet normal 9.803021403714937e-33 7.842417122971949e-33 1.0
  outer loop
    vertex 0.7174609116421169 34.01616582720728 17.687200000000008
    vertex 1.6740584409524255 33.72475346144801 17.687200000000008
    vertex 3.525937767815164 40.195222438496735 17.687200000000008
  endloop
endfacet
facet normal 9.803021403714937e-33 7.842417122971949e-33 1.0
  outer loop
    vertex 3.525937767815164 40.195222438496735 17.687200000000008
    vertex 1.6740584409524255 33.72475346144801 17.687200000000008
    vertex 4.374516956503441 39.66615404922633 17.687200000000008
  endloop
endfacet
facet normal 9.803021403714937e-33 7.842417122971949e-33 1.0
  outer loop
    vertex 3.525937767815164 40.195222438496735 17.687200000000008
    vertex 4.374516956503441 39.66615404922633 17.687200000000008
    vertex 7.837975627496228 45.43684550333619 17.687200000000008
  endloop
endfacet
facet normal 9.803021403714937e-33 7.842417122971949e-33 1.0
  outer loop
    vertex 7.837975627496228 45.43684550333619 17.687200000000008
    vertex 4.374516956503441 39.66615404922633 17.687200000000008
    vertex 8.520707206196754 44.70617622695658 17.687200000000008
  endloop
endfacet
facet normal 9.803021403714937e-33 7.842417122971949e-33 1.0
  outer loop
    vertex 7.837975627496228 45.43684550333619 17.687200000000008
    vertex 8.520707206196754 44.70617622695658 17.687200000000008
    vertex 13.359716236527467 49.383827072048504 17.687200000000008
  endloop
endfacet
facet normal 9.803021403714937e-33 7.842417122971949e-33 1.0
  outer loop
    vertex 13.359716236527467 49.383827072048504 17.687200000000008
    vertex 8.520707206196754 44.70617622695658 17.687200000000008
    vertex 13.830073176419111 48.501350812256895 17.687200000000008
  endloop
endfacet
facet normal 9.803021403714937e-33 7.842417122971949e-33 1.0
  outer loop
    vertex 13.359716236527467 49.383827072048504 17.687200000000008
    vertex 13.830073176419111 48.501350812256895 17.687200000000008
    vertex 19.714862097511272 51.76718687342143 17.687200000000008
  endloop
endfacet
facet normal 9.803021403714937e-33 7.842417122971949e-33 1.0
  outer loop
    vertex 19.714862097511272 51.76718687342143 17.687200000000008
    vertex 13.830073176419111 48.501350812256895 17.687200000000008
    vertex 19.940790350442 50.79304292896161 17.687200000000008
  endloop
endfacet
facet normal 9.803021403714937e-33 7.842417122971949e-33 1.0
  outer loop
    vertex 19.714862097511272 51.76718687342143 17.687200000000008
    vertex 19.940790350442 50.79304292896161 17.687200000000008
    vertex 26.47032052239663 52.42450287567962 17.687200000000008
  endloop
endfacet
facet normal 9.803021403714937e-33 7.842417122971949e-33 1.0
  outer loop
    vertex 26.47032052239663 52.42450287567962 17.687200000000008
    vertex 19.940790350442 50.79304292896161 17.687200000000008
    vertex 26.436423451293322 51.42507754651757 17.687200000000008
  endloop
endfacet
facet normal 9.803021403714937e-33 7.842417122971949e-33 1.0
  outer loop
    vertex 26.47032052239663 52.42450287567962 17.687200000000008
    vertex 26.436423451293322 51.42507754651757 17.687200000000008
    vertex 32.87430581769135 50.354382550224955 17.687200000000008
  endloop
endfacet
facet normal 9.803021403714937e-33 7.842417122971949e-33 1.0
  outer loop
    vertex 26.47032052239663 52.42450287567962 17.687200000000008
    vertex 32.87430581769135 50.354382550224955 17.687200000000008
    vertex 33.16571818345057 51.31098007953529 17.687200000000008
  endloop
endfacet
facet normal 9.803021403714937e-33 7.842417122971949e-33 1.0
  outer loop
    vertex 33.16571818345057 51.31098007953529 17.687200000000008
    vertex 32.87430581769135 50.354382550224955 17.687200000000008
    vertex 38.81570640546971 47.65392403467391 17.687200000000008
  endloop
endfacet
facet normal 9.803021403714937e-33 7.842417122971949e-33 1.0
  outer loop
    vertex 33.16571818345057 51.31098007953529 17.687200000000008
    vertex 38.81570640546971 47.65392403467391 17.687200000000008
    vertex 39.34477479474005 48.50250322336224 17.687200000000008
  endloop
endfacet
facet normal 9.803021403714937e-33 7.842417122971949e-33 1.0
  outer loop
    vertex 39.34477479474005 48.50250322336224 17.687200000000008
    vertex 38.81570640546971 47.65392403467391 17.687200000000008
    vertex 43.85572858319994 43.507733784980594 17.687200000000008
  endloop
endfacet
facet normal 9.803021403714937e-33 7.842417122971949e-33 1.0
  outer loop
    vertex 39.34477479474005 48.50250322336224 17.687200000000008
    vertex 43.85572858319994 43.507733784980594 17.687200000000008
    vertex 44.5863978595795 44.19046536368118 17.687200000000008
  endloop
endfacet
facet normal 9.803021403714937e-33 7.842417122971949e-33 1.0
  outer loop
    vertex 44.5863978595795 44.19046536368118 17.687200000000008
    vertex 43.85572858319994 43.507733784980594 17.687200000000008
    vertex 47.65090316850027 38.19836781475824 17.687200000000008
  endloop
endfacet
facet normal 9.803021403714937e-33 7.842417122971949e-33 1.0
  outer loop
    vertex 44.5863978595795 44.19046536368118 17.687200000000008
    vertex 47.65090316850027 38.19836781475824 17.687200000000008
    vertex 48.53337942829185 38.66872475464993 17.687200000000008
  endloop
endfacet
facet normal 9.803021403714937e-33 7.842417122971949e-33 1.0
  outer loop
    vertex 48.53337942829185 38.66872475464993 17.687200000000008
    vertex 47.65090316850027 38.19836781475824 17.687200000000008
    vertex 49.942595285204966 32.08765064073537 17.687200000000008
  endloop
endfacet
facet normal 9.803021403714937e-33 7.842417122971949e-33 1.0
  outer loop
    vertex 48.53337942829185 38.66872475464993 17.687200000000008
    vertex 49.942595285204966 32.08765064073537 17.687200000000008
    vertex 50.916739229664756 32.313578893666126 17.687200000000008
  endloop
endfacet
facet normal 9.803021403714937e-33 7.842417122971949e-33 1.0
  outer loop
    vertex 50.916739229664756 32.313578893666126 17.687200000000008
    vertex 49.942595285204966 32.08765064073537 17.687200000000008
    vertex 50.57462990276092 25.59201753988404 17.687200000000008
  endloop
endfacet
facet normal -0.09684410566278105 0.9952995625430447 0.0
  outer loop
    vertex 19.714862097511272 51.76718687342143 17.687200000000008
    vertex 26.47032052239663 52.42450287567962 -1.3127999999999993
    vertex 19.714862097511272 51.76718687342143 -1.3127999999999993
  endloop
endfacet
facet normal -0.09684410566278105 0.9952995625430447 0.0
  outer loop
    vertex 26.47032052239663 52.42450287567962 -1.3127999999999993
    vertex 19.714862097511272 51.76718687342143 17.687200000000008
    vertex 26.47032052239663 52.42450287567962 17.687200000000008
  endloop
endfacet
facet normal 0.1640582595847988 0.9864506513059874 0.0
  outer loop
    vertex 26.47032052239663 52.42450287567962 17.687200000000008
    vertex 33.16571818345057 51.31098007953529 -1.3127999999999993
    vertex 26.47032052239663 52.42450287567962 -1.3127999999999993
  endloop
endfacet
facet normal 0.1640582595847988 0.9864506513059874 0.0
  outer loop
    vertex 33.16571818345057 51.31098007953529 -1.3127999999999993
    vertex 26.47032052239663 52.42450287567962 17.687200000000008
    vertex 33.16571818345057 51.31098007953529 17.687200000000008
  endloop
endfacet
facet normal 0.4137803255607658 0.9103767583692076 0.0
  outer loop
    vertex 33.16571818345057 51.31098007953529 17.687200000000008
    vertex 39.34477479474005 48.50250322336224 -1.3127999999999993
    vertex 33.16571818345057 51.31098007953529 -1.3127999999999993
  endloop
endfacet
facet normal 0.4137803255607658 0.9103767583692076 0.0
  outer loop
    vertex 39.34477479474005 48.50250322336224 -1.3127999999999993
    vertex 33.16571818345057 51.31098007953529 17.687200000000008
    vertex 39.34477479474005 48.50250322336224 17.687200000000008
  endloop
endfacet
facet normal 0.6353039461540927 0.7722621938182898 0.0
  outer loop
    vertex 39.34477479474005 48.50250322336224 17.687200000000008
    vertex 44.5863978595795 44.19046536368118 -1.3127999999999993
    vertex 39.34477479474005 48.50250322336224 -1.3127999999999993
  endloop
endfacet
facet normal 0.6353039461540927 0.7722621938182898 0.0
  outer loop
    vertex 44.5863978595795 44.19046536368118 -1.3127999999999993
    vertex 39.34477479474005 48.50250322336224 17.687200000000008
    vertex 44.5863978595795 44.19046536368118 17.687200000000008
  endloop
endfacet
facet normal 0.813532652706422 0.5815192369822793 0.0
  outer loop
    vertex 44.5863978595795 44.19046536368118 -1.3127999999999993
    vertex 48.53337942829185 38.66872475464993 17.687200000000008
    vertex 48.53337942829185 38.66872475464993 -1.3127999999999993
  endloop
endfacet
facet normal 0.813532652706422 0.5815192369822793 0.0
  outer loop
    vertex 48.53337942829185 38.66872475464993 17.687200000000008
    vertex 44.5863978595795 44.19046536368118 -1.3127999999999993
    vertex 44.5863978595795 44.19046536368118 17.687200000000008
  endloop
endfacet
facet normal 0.9363204534030898 0.3511467051518961 0.0
  outer loop
    vertex 48.53337942829185 38.66872475464993 -1.3127999999999993
    vertex 50.916739229664756 32.313578893666126 17.687200000000008
    vertex 50.916739229664756 32.313578893666126 -1.3127999999999993
  endloop
endfacet
facet normal 0.9363204534030898 0.3511467051518961 0.0
  outer loop
    vertex 50.916739229664756 32.313578893666126 17.687200000000008
    vertex 48.53337942829185 38.66872475464993 -1.3127999999999993
    vertex 48.53337942829185 38.66872475464993 17.687200000000008
  endloop
endfacet
facet normal 0.9952995625430445 0.09684410566278388 0.0
  outer loop
    vertex 50.916739229664756 32.313578893666126 -1.3127999999999993
    vertex 51.57405523192297 25.55812046878073 17.687200000000008
    vertex 51.57405523192297 25.55812046878073 -1.3127999999999993
  endloop
endfacet
facet normal 0.9952995625430445 0.09684410566278388 0.0
  outer loop
    vertex 51.57405523192297 25.55812046878073 17.687200000000008
    vertex 50.916739229664756 32.313578893666126 -1.3127999999999993
    vertex 50.916739229664756 32.313578893666126 17.687200000000008
  endloop
endfacet
facet normal 0.9864506513059876 -0.16405825958479855 0.0
  outer loop
    vertex 51.57405523192297 25.55812046878073 -1.3127999999999993
    vertex 50.46053243577864 18.862722807726776 17.687200000000008
    vertex 50.46053243577864 18.862722807726776 -1.3127999999999993
  endloop
endfacet
facet normal 0.9864506513059876 -0.16405825958479855 0.0
  outer loop
    vertex 50.46053243577864 18.862722807726776 17.687200000000008
    vertex 51.57405523192297 25.55812046878073 -1.3127999999999993
    vertex 51.57405523192297 25.55812046878073 17.687200000000008
  endloop
endfacet
facet normal 0.910376758369206 -0.41378032556076993 0.0
  outer loop
    vertex 50.46053243577864 18.862722807726776 -1.3127999999999993
    vertex 47.652055579605566 12.683666196437324 17.687200000000008
    vertex 47.652055579605566 12.683666196437324 -1.3127999999999993
  endloop
endfacet
facet normal 0.910376758369206 -0.41378032556076993 0.0
  outer loop
    vertex 47.652055579605566 12.683666196437324 17.687200000000008
    vertex 50.46053243577864 18.862722807726776 -1.3127999999999993
    vertex 50.46053243577864 18.862722807726776 17.687200000000008
  endloop
endfacet
facet normal 0.7722621938182903 -0.635303946154092 0.0
  outer loop
    vertex 47.652055579605566 12.683666196437324 -1.3127999999999993
    vertex 43.340017719924504 7.442043131597852 17.687200000000008
    vertex 43.340017719924504 7.442043131597852 -1.3127999999999993
  endloop
endfacet
facet normal 0.7722621938182903 -0.635303946154092 0.0
  outer loop
    vertex 43.340017719924504 7.442043131597852 17.687200000000008
    vertex 47.652055579605566 12.683666196437324 -1.3127999999999993
    vertex 47.652055579605566 12.683666196437324 17.687200000000008
  endloop
endfacet
facet normal 0.5815192369822767 -0.8135326527064237 0.0
  outer loop
    vertex 43.340017719924504 7.442043131597852 17.687200000000008
    vertex 37.81827711089327 3.4950615628855286 -1.3127999999999993
    vertex 43.340017719924504 7.442043131597852 -1.3127999999999993
  endloop
endfacet
facet normal 0.5815192369822767 -0.8135326527064237 0.0
  outer loop
    vertex 37.81827711089327 3.4950615628855286 -1.3127999999999993
    vertex 43.340017719924504 7.442043131597852 17.687200000000008
    vertex 37.81827711089327 3.4950615628855286 17.687200000000008
  endloop
endfacet
facet normal 0.3511467051518961 -0.9363204534030898 0.0
  outer loop
    vertex 37.81827711089327 3.4950615628855286 17.687200000000008
    vertex 31.463131249909463 1.1117017615126272 -1.3127999999999993
    vertex 37.81827711089327 3.4950615628855286 -1.3127999999999993
  endloop
endfacet
facet normal 0.3511467051518961 -0.9363204534030898 0.0
  outer loop
    vertex 31.463131249909463 1.1117017615126272 -1.3127999999999993
    vertex 37.81827711089327 3.4950615628855286 17.687200000000008
    vertex 31.463131249909463 1.1117017615126272 17.687200000000008
  endloop
endfacet
facet normal 0.0968441056627824 -0.9952995625430447 0.0
  outer loop
    vertex 31.463131249909463 1.1117017615126272 17.687200000000008
    vertex 24.70767282502408 0.4543857592544232 -1.3127999999999993
    vertex 31.463131249909463 1.1117017615126272 -1.3127999999999993
  endloop
endfacet
facet normal 0.0968441056627824 -0.9952995625430447 0.0
  outer loop
    vertex 24.70767282502408 0.4543857592544232 -1.3127999999999993
    vertex 31.463131249909463 1.1117017615126272 17.687200000000008
    vertex 24.70767282502408 0.4543857592544232 17.687200000000008
  endloop
endfacet
facet normal -0.1640582595847988 -0.9864506513059874 0.0
  outer loop
    vertex 24.70767282502408 0.4543857592544232 17.687200000000008
    vertex 18.012275163970138 1.5679085553987568 -1.3127999999999993
    vertex 24.70767282502408 0.4543857592544232 -1.3127999999999993
  endloop
endfacet
facet normal -0.1640582595847988 -0.9864506513059874 0.0
  outer loop
    vertex 18.012275163970138 1.5679085553987568 -1.3127999999999993
    vertex 24.70767282502408 0.4543857592544232 17.687200000000008
    vertex 18.012275163970138 1.5679085553987568 17.687200000000008
  endloop
endfacet
facet normal -0.4137803255607672 -0.9103767583692071 0.0
  outer loop
    vertex 18.012275163970138 1.5679085553987568 17.687200000000008
    vertex 11.83321855268066 4.376385411571816 -1.3127999999999993
    vertex 18.012275163970138 1.5679085553987568 -1.3127999999999993
  endloop
endfacet
facet normal -0.4137803255607672 -0.9103767583692071 0.0
  outer loop
    vertex 11.83321855268066 4.376385411571816 -1.3127999999999993
    vertex 18.012275163970138 1.5679085553987568 17.687200000000008
    vertex 11.83321855268066 4.376385411571816 17.687200000000008
  endloop
endfacet
facet normal -0.635303946154091 -0.7722621938182911 0.0
  outer loop
    vertex 11.83321855268066 4.376385411571816 17.687200000000008
    vertex 6.5915954878411895 8.688423271252868 -1.3127999999999993
    vertex 11.83321855268066 4.376385411571816 -1.3127999999999993
  endloop
endfacet
facet normal -0.635303946154091 -0.7722621938182911 0.0
  outer loop
    vertex 6.5915954878411895 8.688423271252868 -1.3127999999999993
    vertex 11.83321855268066 4.376385411571816 17.687200000000008
    vertex 6.5915954878411895 8.688423271252868 17.687200000000008
  endloop
endfacet
facet normal -0.8135326527064254 -0.5815192369822746 -1.9534090001011583e-16
  outer loop
    vertex 4.2647994280782395 11.943559903755219 -1.312799999999998
    vertex 6.5915954878411895 8.688423271252868 -1.3127999999999993
    vertex 4.264799428078244 11.943559903755219 0.6872000000000024
  endloop
endfacet
facet normal -0.8135326527064254 -0.5815192369822746 -1.9534090001011583e-16
  outer loop
    vertex 2.644613919128877 14.210163880284117 17.687200000000008
    vertex 6.5915954878411895 8.688423271252868 -1.3127999999999993
    vertex 6.5915954878411895 8.688423271252868 17.687200000000008
  endloop
endfacet
facet normal -0.8135326527064254 -0.5815192369822746 -1.9534090001011583e-16
  outer loop
    vertex 6.5915954878411895 8.688423271252868 -1.3127999999999993
    vertex 2.644613919128877 14.210163880284117 17.687200000000008
    vertex 4.264799428078244 11.943559903755219 0.6872000000000024
  endloop
endfacet
facet normal -0.8135326527064254 -0.5815192369822746 -1.9534090001011583e-16
  outer loop
    vertex 4.264799428078244 11.943559903755219 0.6872000000000024
    vertex 2.644613919128877 14.210163880284117 17.687200000000008
    vertex 2.644613919128877 14.210163880284117 0.6872000000000023
  endloop
endfacet
facet normal -0.9864506513059869 0.16405825958480205 0.0
  outer loop
    vertex 0.7174609116421169 34.01616582720728 17.687200000000008
    vertex -0.39606188450223934 27.32076816615334 0.687200000000005
    vertex -0.39606188450223934 27.32076816615334 17.687200000000008
  endloop
endfacet
facet normal -0.9864506513059869 0.16405825958480205 0.0
  outer loop
    vertex -0.39606188450223934 27.32076816615334 0.687200000000005
    vertex 0.7174609116421169 34.01616582720728 17.687200000000008
    vertex 0.7174609116421169 34.01616582720728 0.687200000000005
  endloop
endfacet
facet normal -0.9103767583692072 0.41378032556076727 4.989879806751111e-17
  outer loop
    vertex 3.525937767815164 40.195222438496735 17.687200000000008
    vertex 0.7174609116421169 34.01616582720728 0.687200000000005
    vertex 0.7174609116421169 34.01616582720728 17.687200000000008
  endloop
endfacet
facet normal -0.9103767583692072 0.41378032556076727 4.989879806751111e-17
  outer loop
    vertex 0.7174609116421169 34.01616582720728 0.687200000000005
    vertex 3.525937767815164 40.195222438496735 17.687200000000008
    vertex 3.184295513135547 39.44355990375522 0.6872000000000035
  endloop
endfacet
facet normal -0.9103767583692072 0.41378032556076727 4.989879806751111e-17
  outer loop
    vertex 3.184295513135547 39.44355990375522 0.6872000000000035
    vertex 3.525937767815164 40.195222438496735 17.687200000000008
    vertex 3.184295513135547 39.44355990375522 -1.312799999999998
  endloop
endfacet
facet normal -0.9103767583692072 0.41378032556076727 4.989879806751111e-17
  outer loop
    vertex 3.184295513135547 39.44355990375522 -1.312799999999998
    vertex 3.525937767815164 40.195222438496735 17.687200000000008
    vertex 3.525937767815164 40.195222438496735 -1.3127999999999993
  endloop
endfacet
facet normal -0.7722621938182889 0.6353039461540937 7.867807932167792e-18
  outer loop
    vertex 7.837975627496228 45.43684550333619 17.687200000000008
    vertex 3.525937767815164 40.195222438496735 -1.3127999999999993
    vertex 3.525937767815164 40.195222438496735 17.687200000000008
  endloop
endfacet
facet normal -0.7722621938182889 0.6353039461540937 7.867807932167792e-18
  outer loop
    vertex 3.525937767815164 40.195222438496735 -1.3127999999999993
    vertex 7.837975627496228 45.43684550333619 17.687200000000008
    vertex 7.399553728592216 44.90390900968584 -1.312799999999998
  endloop
endfacet
facet normal -0.7722621938182889 0.6353039461540937 7.867807932167792e-18
  outer loop
    vertex 7.399553728592216 44.90390900968584 -1.312799999999998
    vertex 7.837975627496228 45.43684550333619 17.687200000000008
    vertex 7.837975627496228 45.43684550333619 -1.3127999999999993
  endloop
endfacet
facet normal -0.5815192369822757 0.8135326527064247 0.0
  outer loop
    vertex 7.837975627496228 45.43684550333619 17.687200000000008
    vertex 13.359716236527467 49.383827072048504 -1.3127999999999993
    vertex 7.837975627496228 45.43684550333619 -1.3127999999999993
  endloop
endfacet
facet normal -0.5815192369822757 0.8135326527064247 0.0
  outer loop
    vertex 13.359716236527467 49.383827072048504 -1.3127999999999993
    vertex 7.837975627496228 45.43684550333619 17.687200000000008
    vertex 13.359716236527467 49.383827072048504 17.687200000000008
  endloop
endfacet
facet normal -0.35114670515189894 0.9363204534030886 0.0
  outer loop
    vertex 13.359716236527467 49.383827072048504 17.687200000000008
    vertex 19.714862097511272 51.76718687342143 -1.3127999999999993
    vertex 13.359716236527467 49.383827072048504 -1.3127999999999993
  endloop
endfacet
facet normal -0.35114670515189894 0.9363204534030886 0.0
  outer loop
    vertex 19.714862097511272 51.76718687342143 -1.3127999999999993
    vertex 13.359716236527467 49.383827072048504 17.687200000000008
    vertex 19.714862097511272 51.76718687342143 17.687200000000008
  endloop
endfacet
facet normal 1.3428411821656632e-16 -1.538163535935218e-16 1.0
  outer loop
    vertex 41.899553728592196 11.943559903755196 1.6872
    vertex 14.399553728592192 39.443559903755215 1.6872000000000085
    vertex 14.399553728592192 11.943559903755219 1.6872000000000085
  endloop
endfacet
facet normal 1.3428411821656632e-16 -1.538163535935218e-16 1.0
  outer loop
    vertex 14.399553728592192 39.443559903755215 1.6872000000000085
    vertex 41.899553728592196 11.943559903755196 1.6872
    vertex 41.89955372859222 39.443559903755194 1.6872000000000085
  endloop
endfacet
facet normal -1.0 0.0 0.0
  outer loop
    vertex 14.399553728592192 39.443559903755215 1.6872000000000085
    vertex 14.399553728592192 11.943559903755219 -1.312799999999998
    vertex 14.399553728592192 11.943559903755219 1.6872000000000085
  endloop
endfacet
facet normal -1.0 0.0 0.0
  outer loop
    vertex 14.399553728592192 11.943559903755219 -1.312799999999998
    vertex 14.399553728592192 39.443559903755215 1.6872000000000085
    vertex 14.399553728592192 39.443559903755215 -1.312799999999998
  endloop
endfacet
facet normal 1.0 -7.647366732333283e-16 0.0
  outer loop
    vertex 42.89955372859222 40.44355990375519 1.6872000000000145
    vertex 42.899553728592196 10.943559903755197 17.687200000000004
    vertex 42.899553728592196 10.943559903755197 1.687200000000006
  endloop
endfacet
facet normal 1.0 -7.647366732333283e-16 0.0
  outer loop
    vertex 42.899553728592196 10.943559903755197 17.687200000000004
    vertex 42.89955372859222 40.44355990375519 1.6872000000000145
    vertex 42.89955372859222 40.44355990375519 17.687200000000015
  endloop
endfacet
facet normal -6.180748454899501e-16 -1.0 -0.0
  outer loop
    vertex 42.899553728592196 10.943559903755197 17.687200000000004
    vertex 6.3995537285921955 10.94355990375522 1.6872000000000145
    vertex 42.899553728592196 10.943559903755197 1.687200000000006
  endloop
endfacet
facet normal -6.180748454899501e-16 -1.0 -0.0
  outer loop
    vertex 6.3995537285921955 10.94355990375522 1.6872000000000145
    vertex 42.899553728592196 10.943559903755197 17.687200000000004
    vertex 6.3995537285921955 10.94355990375522 17.687200000000015
  endloop
endfacet
facet normal -1.0 7.647366732333283e-16 0.0
  outer loop
    vertex 6.399553728592218 40.443559903755215 17.687200000000015
    vertex 6.3995537285921955 10.94355990375522 1.6872000000000145
    vertex 6.3995537285921955 10.94355990375522 17.687200000000015
  endloop
endfacet
facet normal -1.0 7.647366732333283e-16 0.0
  outer loop
    vertex 6.3995537285921955 10.94355990375522 1.6872000000000145
    vertex 6.399553728592218 40.443559903755215 17.687200000000015
    vertex 6.399553728592218 40.443559903755215 1.6872000000000145
  endloop
endfacet
facet normal 6.180748454899501e-16 1.0 0.0
  outer loop
    vertex 6.399553728592218 40.443559903755215 17.687200000000015
    vertex 42.89955372859222 40.44355990375519 1.6872000000000145
    vertex 6.399553728592218 40.443559903755215 1.6872000000000145
  endloop
endfacet
facet normal 6.180748454899501e-16 1.0 0.0
  outer loop
    vertex 42.89955372859222 40.44355990375519 1.6872000000000145
    vertex 6.399553728592218 40.443559903755215 17.687200000000015
    vertex 42.89955372859222 40.44355990375519 17.687200000000015
  endloop
endfacet
facet normal -1.0 8.203538858321157e-16 -5.968484134440607e-32
  outer loop
    vertex 41.89955372859222 39.443559903755194 17.687200000000015
    vertex 41.899553728592196 11.943559903755196 1.6872
    vertex 41.899553728592196 11.943559903755196 17.687200000000004
  endloop
endfacet
facet normal -1.0 8.203538858321157e-16 -5.968484134440607e-32
  outer loop
    vertex 41.899553728592196 11.943559903755196 1.6872
    vertex 41.89955372859222 39.443559903755194 17.687200000000015
    vertex 41.89955372859222 39.443559903755194 1.6872000000000085
  endloop
endfacet
facet normal 1.0 -6.152654143740868e-16 3.317607626526936e-16
  outer loop
    vertex 7.399553728592216 39.443559903755215 0.6872000000000008
    vertex 7.399553728592194 11.943559903755219 17.687200000000015
    vertex 7.399553728592204 11.943559903755219 0.6872000000000008
  endloop
endfacet
facet normal 1.0 -6.152654143740868e-16 3.317607626526936e-16
  outer loop
    vertex 7.399553728592194 11.943559903755219 17.687200000000015
    vertex 7.399553728592216 39.443559903755215 0.6872000000000008
    vertex 7.399553728592216 39.443559903755215 17.687200000000015
  endloop
endfacet
facet normal -0.9363204534030904 -0.3511467051518944 -3.6251491794475535e-18
  outer loop
    vertex 0.2612541177559759 20.565309741267956 17.687200000000008
    vertex 2.644613919128877 14.210163880284117 0.6872000000000023
    vertex 2.644613919128877 14.210163880284117 17.687200000000008
  endloop
endfacet
facet normal -0.9363204534030904 -0.3511467051518944 -3.6251491794475535e-18
  outer loop
    vertex 2.644613919128877 14.210163880284117 0.6872000000000023
    vertex 0.2612541177559759 20.565309741267956 17.687200000000008
    vertex 0.2612541177559759 20.565309741267956 0.687200000000005
  endloop
endfacet
facet normal -0.9952995625430445 -0.09684410566278404 0.0
  outer loop
    vertex -0.39606188450223934 27.32076816615334 17.687200000000008
    vertex 0.2612541177559759 20.565309741267956 0.687200000000005
    vertex 0.2612541177559759 20.565309741267956 17.687200000000008
  endloop
endfacet
facet normal -0.9952995625430445 -0.09684410566278404 0.0
  outer loop
    vertex 0.2612541177559759 20.565309741267956 0.687200000000005
    vertex -0.39606188450223934 27.32076816615334 17.687200000000008
    vertex -0.39606188450223934 27.32076816615334 0.687200000000005
  endloop
endfacet
facet normal -5.668584330216107e-16 2.3100327279683843e-17 -1.0
  outer loop
    vertex 0.7174609116421169 34.01616582720728 0.687200000000005
    vertex 0.2612541177559759 20.565309741267956 0.687200000000005
    vertex -0.39606188450223934 27.32076816615334 0.687200000000005
  endloop
endfacet
facet normal -5.668584330216107e-16 2.3100327279683843e-17 -1.0
  outer loop
    vertex 0.2612541177559759 20.565309741267956 0.687200000000005
    vertex 0.7174609116421169 34.01616582720728 0.687200000000005
    vertex 2.644613919128877 14.210163880284117 0.6872000000000023
  endloop
endfacet
facet normal -5.668584330216107e-16 2.3100327279683843e-17 -1.0
  outer loop
    vertex 2.644613919128877 14.210163880284117 0.6872000000000023
    vertex 0.7174609116421169 34.01616582720728 0.687200000000005
    vertex 3.184295513135547 39.44355990375522 0.6872000000000035
  endloop
endfacet
facet normal -5.668584330216107e-16 2.3100327279683843e-17 -1.0
  outer loop
    vertex 2.644613919128877 14.210163880284117 0.6872000000000023
    vertex 3.184295513135547 39.44355990375522 0.6872000000000035
    vertex 4.264799428078244 11.943559903755219 0.6872000000000024
  endloop
endfacet
facet normal -5.668584330216107e-16 2.3100327279683843e-17 -1.0
  outer loop
    vertex 4.264799428078244 11.943559903755219 0.6872000000000024
    vertex 3.184295513135547 39.44355990375522 0.6872000000000035
    vertex 7.399553728592216 39.443559903755215 0.6872000000000008
  endloop
endfacet
facet normal -5.668584330216107e-16 2.3100327279683843e-17 -1.0
  outer loop
    vertex 4.264799428078244 11.943559903755219 0.6872000000000024
    vertex 7.399553728592216 39.443559903755215 0.6872000000000008
    vertex 7.399553728592204 11.943559903755219 0.6872000000000008
  endloop
endfacet
facet normal -6.840525466576231e-16 -1.0 -1.3081695111011224e-16
  outer loop
    vertex 41.89955372859222 39.443559903755194 17.687200000000015
    vertex 14.399553728592192 39.443559903755215 1.6872000000000085
    vertex 41.89955372859222 39.443559903755194 1.6872000000000085
  endloop
endfacet
facet normal -6.840525466576231e-16 -1.0 -1.3081695111011224e-16
  outer loop
    vertex 14.399553728592192 39.443559903755215 1.6872000000000085
    vertex 3.184295513135547 39.44355990375522 -1.312799999999998
    vertex 14.399553728592192 39.443559903755215 -1.312799999999998
  endloop
endfacet
facet normal -6.840525466576231e-16 -1.0 -1.3081695111011224e-16
  outer loop
    vertex 3.184295513135547 39.44355990375522 -1.312799999999998
    vertex 14.399553728592192 39.443559903755215 1.6872000000000085
    vertex 7.399553728592216 39.443559903755215 0.6872000000000008
  endloop
endfacet
facet normal -6.840525466576231e-16 -1.0 -1.3081695111011224e-16
  outer loop
    vertex 7.399553728592216 39.443559903755215 0.6872000000000008
    vertex 14.399553728592192 39.443559903755215 1.6872000000000085
    vertex 7.399553728592216 39.443559903755215 17.687200000000015
  endloop
endfacet
facet normal -6.840525466576231e-16 -1.0 -1.3081695111011224e-16
  outer loop
    vertex 7.399553728592216 39.443559903755215 17.687200000000015
    vertex 14.399553728592192 39.443559903755215 1.6872000000000085
    vertex 41.89955372859222 39.443559903755194 17.687200000000015
  endloop
endfacet
facet normal -6.840525466576231e-16 -1.0 -1.3081695111011224e-16
  outer loop
    vertex 3.184295513135547 39.44355990375522 0.6872000000000035
    vertex 3.184295513135547 39.44355990375522 -1.312799999999998
    vertex 7.399553728592216 39.443559903755215 0.6872000000000008
  endloop
endfacet
facet normal 6.257720808571727e-16 1.0 6.427982192301625e-17
  outer loop
    vertex 4.264799428078244 11.943559903755219 0.6872000000000024
    vertex 14.399553728592192 11.943559903755219 -1.312799999999998
    vertex 4.2647994280782395 11.943559903755219 -1.312799999999998
  endloop
endfacet
facet normal 6.257720808571727e-16 1.0 6.427982192301625e-17
  outer loop
    vertex 14.399553728592192 11.943559903755219 -1.312799999999998
    vertex 4.264799428078244 11.943559903755219 0.6872000000000024
    vertex 7.399553728592204 11.943559903755219 0.6872000000000008
  endloop
endfacet
facet normal 6.257720808571727e-16 1.0 6.427982192301625e-17
  outer loop
    vertex 7.399553728592204 11.943559903755219 0.6872000000000008
    vertex 14.399553728592192 11.943559903755219 1.6872000000000085
    vertex 14.399553728592192 11.943559903755219 -1.312799999999998
  endloop
endfacet
facet normal 6.257720808571727e-16 1.0 6.427982192301625e-17
  outer loop
    vertex 14.399553728592192 11.943559903755219 1.6872000000000085
    vertex 7.399553728592204 11.943559903755219 0.6872000000000008
    vertex 7.399553728592194 11.943559903755219 17.687200000000015
  endloop
endfacet
facet normal 6.257720808571727e-16 1.0 6.427982192301625e-17
  outer loop
    vertex 14.399553728592192 11.943559903755219 1.6872000000000085
    vertex 7.399553728592194 11.943559903755219 17.687200000000015
    vertex 41.899553728592196 11.943559903755196 17.687200000000004
  endloop
endfacet
facet normal 6.257720808571727e-16 1.0 6.427982192301625e-17
  outer loop
    vertex 41.899553728592196 11.943559903755196 17.687200000000004
    vertex 41.899553728592196 11.943559903755196 1.6872
    vertex 14.399553728592192 11.943559903755219 1.6872000000000085
  endloop
endfacet
facet normal -1.7091254769927512e-17 6.2721926107782825e-19 -1.0
  outer loop
    vertex 3.525937767815164 40.195222438496735 -1.3127999999999993
    vertex 14.399553728592192 39.443559903755215 -1.312799999999998
    vertex 3.184295513135547 39.44355990375522 -1.312799999999998
  endloop
endfacet
facet normal -1.7091254769927512e-17 6.2721926107782825e-19 -1.0
  outer loop
    vertex 14.399553728592192 39.443559903755215 -1.312799999999998
    vertex 3.525937767815164 40.195222438496735 -1.3127999999999993
    vertex 7.399553728592216 44.90390900968584 -1.312799999999998
  endloop
endfacet
facet normal -1.7091254769927512e-17 6.2721926107782825e-19 -1.0
  outer loop
    vertex 14.399553728592192 39.443559903755215 -1.312799999999998
    vertex 7.399553728592216 44.90390900968584 -1.312799999999998
    vertex 7.837975627496228 45.43684550333619 -1.3127999999999993
  endloop
endfacet
facet normal -1.7091254769927512e-17 6.2721926107782825e-19 -1.0
  outer loop
    vertex 14.399553728592192 39.443559903755215 -1.312799999999998
    vertex 7.837975627496228 45.43684550333619 -1.3127999999999993
    vertex 13.359716236527467 49.383827072048504 -1.3127999999999993
  endloop
endfacet
facet normal -1.7091254769927512e-17 6.2721926107782825e-19 -1.0
  outer loop
    vertex 14.399553728592192 39.443559903755215 -1.312799999999998
    vertex 13.359716236527467 49.383827072048504 -1.3127999999999993
    vertex 19.714862097511272 51.76718687342143 -1.3127999999999993
  endloop
endfacet
facet normal -1.7091254769927512e-17 6.2721926107782825e-19 -1.0
  outer loop
    vertex 14.399553728592192 39.443559903755215 -1.312799999999998
    vertex 19.714862097511272 51.76718687342143 -1.3127999999999993
    vertex 14.399553728592192 11.943559903755219 -1.312799999999998
  endloop
endfacet
facet normal -1.7091254769927512e-17 6.2721926107782825e-19 -1.0
  outer loop
    vertex 14.399553728592192 11.943559903755219 -1.312799999999998
    vertex 19.714862097511272 51.76718687342143 -1.3127999999999993
    vertex 18.012275163970138 1.5679085553987568 -1.3127999999999993
  endloop
endfacet
facet normal -1.7091254769927512e-17 6.2721926107782825e-19 -1.0
  outer loop
    vertex 18.012275163970138 1.5679085553987568 -1.3127999999999993
    vertex 19.714862097511272 51.76718687342143 -1.3127999999999993
    vertex 24.70767282502408 0.4543857592544232 -1.3127999999999993
  endloop
endfacet
facet normal -1.7091254769927512e-17 6.2721926107782825e-19 -1.0
  outer loop
    vertex 24.70767282502408 0.4543857592544232 -1.3127999999999993
    vertex 19.714862097511272 51.76718687342143 -1.3127999999999993
    vertex 26.47032052239663 52.42450287567962 -1.3127999999999993
  endloop
endfacet
facet normal -1.7091254769927512e-17 6.2721926107782825e-19 -1.0
  outer loop
    vertex 24.70767282502408 0.4543857592544232 -1.3127999999999993
    vertex 26.47032052239663 52.42450287567962 -1.3127999999999993
    vertex 31.463131249909463 1.1117017615126272 -1.3127999999999993
  endloop
endfacet
facet normal -1.7091254769927512e-17 6.2721926107782825e-19 -1.0
  outer loop
    vertex 31.463131249909463 1.1117017615126272 -1.3127999999999993
    vertex 26.47032052239663 52.42450287567962 -1.3127999999999993
    vertex 33.16571818345057 51.31098007953529 -1.3127999999999993
  endloop
endfacet
facet normal -1.7091254769927512e-17 6.2721926107782825e-19 -1.0
  outer loop
    vertex 31.463131249909463 1.1117017615126272 -1.3127999999999993
    vertex 33.16571818345057 51.31098007953529 -1.3127999999999993
    vertex 37.81827711089327 3.4950615628855286 -1.3127999999999993
  endloop
endfacet
facet normal -1.7091254769927512e-17 6.2721926107782825e-19 -1.0
  outer loop
    vertex 37.81827711089327 3.4950615628855286 -1.3127999999999993
    vertex 33.16571818345057 51.31098007953529 -1.3127999999999993
    vertex 39.34477479474005 48.50250322336224 -1.3127999999999993
  endloop
endfacet
facet normal -1.7091254769927512e-17 6.2721926107782825e-19 -1.0
  outer loop
    vertex 37.81827711089327 3.4950615628855286 -1.3127999999999993
    vertex 39.34477479474005 48.50250322336224 -1.3127999999999993
    vertex 43.340017719924504 7.442043131597852 -1.3127999999999993
  endloop
endfacet
facet normal -1.7091254769927512e-17 6.2721926107782825e-19 -1.0
  outer loop
    vertex 43.340017719924504 7.442043131597852 -1.3127999999999993
    vertex 39.34477479474005 48.50250322336224 -1.3127999999999993
    vertex 44.5863978595795 44.19046536368118 -1.3127999999999993
  endloop
endfacet
facet normal -1.7091254769927512e-17 6.2721926107782825e-19 -1.0
  outer loop
    vertex 43.340017719924504 7.442043131597852 -1.3127999999999993
    vertex 44.5863978595795 44.19046536368118 -1.3127999999999993
    vertex 47.652055579605566 12.683666196437324 -1.3127999999999993
  endloop
endfacet
facet normal -1.7091254769927512e-17 6.2721926107782825e-19 -1.0
  outer loop
    vertex 47.652055579605566 12.683666196437324 -1.3127999999999993
    vertex 44.5863978595795 44.19046536368118 -1.3127999999999993
    vertex 48.53337942829185 38.66872475464993 -1.3127999999999993
  endloop
endfacet
facet normal -1.7091254769927512e-17 6.2721926107782825e-19 -1.0
  outer loop
    vertex 47.652055579605566 12.683666196437324 -1.3127999999999993
    vertex 48.53337942829185 38.66872475464993 -1.3127999999999993
    vertex 50.46053243577864 18.862722807726776 -1.3127999999999993
  endloop
endfacet
facet normal -1.7091254769927512e-17 6.2721926107782825e-19 -1.0
  outer loop
    vertex 50.46053243577864 18.862722807726776 -1.3127999999999993
    vertex 48.53337942829185 38.66872475464993 -1.3127999999999993
    vertex 50.916739229664756 32.313578893666126 -1.3127999999999993
  endloop
endfacet
facet normal -1.7091254769927512e-17 6.2721926107782825e-19 -1.0
  outer loop
    vertex 50.46053243577864 18.862722807726776 -1.3127999999999993
    vertex 50.916739229664756 32.313578893666126 -1.3127999999999993
    vertex 51.57405523192297 25.55812046878073 -1.3127999999999993
  endloop
endfacet
facet normal -1.7091254769927512e-17 6.2721926107782825e-19 -1.0
  outer loop
    vertex 14.399553728592192 11.943559903755219 -1.312799999999998
    vertex 6.5915954878411895 8.688423271252868 -1.3127999999999993
    vertex 4.2647994280782395 11.943559903755219 -1.312799999999998
  endloop
endfacet
facet normal -1.7091254769927512e-17 6.2721926107782825e-19 -1.0
  outer loop
    vertex 6.5915954878411895 8.688423271252868 -1.3127999999999993
    vertex 14.399553728592192 11.943559903755219 -1.312799999999998
    vertex 11.83321855268066 4.376385411571816 -1.3127999999999993
  endloop
endfacet
facet normal -1.7091254769927512e-17 6.2721926107782825e-19 -1.0
  outer loop
    vertex 11.83321855268066 4.376385411571816 -1.3127999999999993
    vertex 14.399553728592192 11.943559903755219 -1.312799999999998
    vertex 18.012275163970138 1.5679085553987568 -1.3127999999999993
  endloop
endfacet
endsolid V2-Joystick
