solid joystick
facet normal 0.0 0.0 -1.0
  outer loop
    vertex 115.74329183741266 85.14062061097329 26.486341999999958
    vertex 115.74329183741266 75.82313498728253 26.486341999999958
    vertex 115.12995671061587 80.48187779912791 26.486341999999958
  endloop
endfacet
facet normal 0.0 0.0 -1.0
  outer loop
    vertex 115.74329183741266 75.82313498728253 26.486341999999958
    vertex 115.74329183741266 85.14062061097329 26.486341999999958
    vertex 117.54149944249599 89.48187779912791 26.486341999999958
  endloop
endfacet
facet normal 0.0 0.0 -1.0
  outer loop
    vertex 115.74329183741266 75.82313498728253 26.486341999999958
    vertex 117.54149944249599 89.48187779912791 26.486341999999958
    vertex 117.54149944249598 71.48187779912789 26.486341999999958
  endloop
endfacet
facet normal 0.0 0.0 -1.0
  outer loop
    vertex 117.54149944249598 71.48187779912789 26.486341999999958
    vertex 117.54149944249599 89.48187779912791 26.486341999999958
    vertex 120.40203464925803 67.75395573777003 26.486341999999958
  endloop
endfacet
facet normal 0.0 0.0 -1.0
  outer loop
    vertex 120.40203464925803 67.75395573777003 26.486341999999958
    vertex 117.54149944249599 89.48187779912791 26.486341999999958
    vertex 120.40203464925803 93.20979986048577 26.486341999999958
  endloop
endfacet
facet normal 0.0 0.0 -1.0
  outer loop
    vertex 120.40203464925803 67.75395573777003 26.486341999999958
    vertex 120.40203464925803 93.20979986048577 26.486341999999958
    vertex 124.12995671061589 96.07033506724781 26.486341999999958
  endloop
endfacet
facet normal 0.0 0.0 -1.0
  outer loop
    vertex 120.40203464925803 67.75395573777003 26.486341999999958
    vertex 124.12995671061589 96.07033506724781 26.486341999999958
    vertex 124.12995671061589 64.89342053100799 26.486341999999958
  endloop
endfacet
facet normal 0.0 0.0 -1.0
  outer loop
    vertex 124.12995671061589 64.89342053100799 26.486341999999958
    vertex 124.12995671061589 96.07033506724781 26.486341999999958
    vertex 128.47121389877051 97.86854267233115 26.486341999999958
  endloop
endfacet
facet normal 0.0 0.0 -1.0
  outer loop
    vertex 124.12995671061589 64.89342053100799 26.486341999999958
    vertex 128.47121389877051 97.86854267233115 26.486341999999958
    vertex 128.47121389877051 63.095212925924656 26.486341999999958
  endloop
endfacet
facet normal 0.0 0.0 -1.0
  outer loop
    vertex 128.47121389877051 63.095212925924656 26.486341999999958
    vertex 128.47121389877051 97.86854267233115 26.486341999999958
    vertex 129.3799567106159 80.4818777991279 26.486341999999958
  endloop
endfacet
facet normal 0.0 0.0 -1.0
  outer loop
    vertex 129.3799567106159 80.4818777991279 26.486341999999958
    vertex 128.47121389877051 97.86854267233115 26.486341999999958
    vertex 129.5077348620319 81.45244921826236 26.486341999999958
  endloop
endfacet
facet normal 0.0 0.0 -1.0
  outer loop
    vertex 129.5077348620319 81.45244921826236 26.486341999999958
    vertex 128.47121389877051 97.86854267233115 26.486341999999958
    vertex 133.1299567106159 98.48187779912791 26.486341999999958
  endloop
endfacet
facet normal 0.0 0.0 -1.0
  outer loop
    vertex 129.5077348620319 81.45244921826236 26.486341999999958
    vertex 133.1299567106159 98.48187779912791 26.486341999999958
    vertex 129.88236144642423 82.3568777991279 26.486341999999958
  endloop
endfacet
facet normal 0.0 0.0 -1.0
  outer loop
    vertex 129.88236144642423 82.3568777991279 26.486341999999958
    vertex 133.1299567106159 98.48187779912791 26.486341999999958
    vertex 130.47830628116634 83.13352822857746 26.486341999999958
  endloop
endfacet
facet normal 0.0 0.0 -1.0
  outer loop
    vertex 130.47830628116634 83.13352822857746 26.486341999999958
    vertex 133.1299567106159 98.48187779912791 26.486341999999958
    vertex 131.2549567106159 83.72947306331955 26.486341999999958
  endloop
endfacet
facet normal 0.0 0.0 -1.0
  outer loop
    vertex 131.2549567106159 83.72947306331955 26.486341999999958
    vertex 133.1299567106159 98.48187779912791 26.486341999999958
    vertex 132.15938529148144 84.1040996477119 26.486341999999958
  endloop
endfacet
facet normal 0.0 0.0 -1.0
  outer loop
    vertex 132.15938529148144 84.1040996477119 26.486341999999958
    vertex 133.1299567106159 98.48187779912791 26.486341999999958
    vertex 133.1299567106159 84.2318777991279 26.486341999999958
  endloop
endfacet
facet normal 0.0 0.0 -1.0
  outer loop
    vertex 133.1299567106159 84.2318777991279 26.486341999999958
    vertex 133.1299567106159 98.48187779912791 26.486341999999958
    vertex 137.78869952246126 97.86854267233115 26.486341999999958
  endloop
endfacet
facet normal 0.0 0.0 -1.0
  outer loop
    vertex 133.1299567106159 84.2318777991279 26.486341999999958
    vertex 137.78869952246126 97.86854267233115 26.486341999999958
    vertex 134.10052812975036 84.1040996477119 26.486341999999958
  endloop
endfacet
facet normal 0.0 0.0 -1.0
  outer loop
    vertex 134.10052812975036 84.1040996477119 26.486341999999958
    vertex 137.78869952246126 97.86854267233115 26.486341999999958
    vertex 134.77764927940984 83.82362688415327 26.486341999999958
  endloop
endfacet
facet normal 0.0 0.0 -1.0
  outer loop
    vertex 134.77764927940984 83.82362688415327 26.486341999999958
    vertex 137.78869952246126 97.86854267233115 26.486341999999958
    vertex 137.02533571061593 83.82362688415327 26.486341999999958
  endloop
endfacet
facet normal 0.0 0.0 -1.0
  outer loop
    vertex 137.02533571061593 83.82362688415327 26.486341999999958
    vertex 137.78869952246126 97.86854267233115 26.486341999999958
    vertex 137.02533571061593 77.14012871410252 26.486341999999958
  endloop
endfacet
facet normal 0.0 0.0 -1.0
  outer loop
    vertex 128.47121389877051 63.095212925924656 26.486341999999958
    vertex 129.5077348620319 79.51130637999344 26.486341999999958
    vertex 133.1299567106159 62.481877799127886 26.486341999999958
  endloop
endfacet
facet normal 0.0 0.0 -1.0
  outer loop
    vertex 129.5077348620319 79.51130637999344 26.486341999999958
    vertex 128.47121389877051 63.095212925924656 26.486341999999958
    vertex 129.3799567106159 80.4818777991279 26.486341999999958
  endloop
endfacet
facet normal 0.0 0.0 -1.0
  outer loop
    vertex 133.1299567106159 62.481877799127886 26.486341999999958
    vertex 129.5077348620319 79.51130637999344 26.486341999999958
    vertex 129.88236144642426 78.6068777991279 26.486341999999958
  endloop
endfacet
facet normal 0.0 0.0 -1.0
  outer loop
    vertex 133.1299567106159 62.481877799127886 26.486341999999958
    vertex 129.88236144642426 78.6068777991279 26.486341999999958
    vertex 130.47830628116634 77.83022736967834 26.486341999999958
  endloop
endfacet
facet normal 0.0 0.0 -1.0
  outer loop
    vertex 133.1299567106159 62.481877799127886 26.486341999999958
    vertex 130.47830628116634 77.83022736967834 26.486341999999958
    vertex 131.2549567106159 77.23428253493626 26.486341999999958
  endloop
endfacet
facet normal 0.0 0.0 -1.0
  outer loop
    vertex 133.1299567106159 62.481877799127886 26.486341999999958
    vertex 131.2549567106159 77.23428253493626 26.486341999999958
    vertex 132.15938529148144 76.8596559505439 26.486341999999958
  endloop
endfacet
facet normal 0.0 0.0 -1.0
  outer loop
    vertex 133.1299567106159 62.481877799127886 26.486341999999958
    vertex 132.15938529148144 76.8596559505439 26.486341999999958
    vertex 133.1299567106159 76.7318777991279 26.486341999999958
  endloop
endfacet
facet normal 0.0 0.0 -1.0
  outer loop
    vertex 133.1299567106159 62.481877799127886 26.486341999999958
    vertex 133.1299567106159 76.7318777991279 26.486341999999958
    vertex 134.10052812975036 76.8596559505439 26.486341999999958
  endloop
endfacet
facet normal 0.0 0.0 -1.0
  outer loop
    vertex 133.1299567106159 62.481877799127886 26.486341999999958
    vertex 134.10052812975036 76.8596559505439 26.486341999999958
    vertex 137.7886995224613 63.095212925924656 26.486341999999958
  endloop
endfacet
facet normal 0.0 0.0 -1.0
  outer loop
    vertex 137.7886995224613 63.095212925924656 26.486341999999958
    vertex 134.10052812975036 76.8596559505439 26.486341999999958
    vertex 134.77764927940984 77.14012871410252 26.486341999999958
  endloop
endfacet
facet normal 0.0 0.0 -1.0
  outer loop
    vertex 137.7886995224613 63.095212925924656 26.486341999999958
    vertex 134.77764927940984 77.14012871410252 26.486341999999958
    vertex 137.02533571061593 77.14012871410252 26.486341999999958
  endloop
endfacet
facet normal 0.0 0.0 -1.0
  outer loop
    vertex 137.7886995224613 63.095212925924656 26.486341999999958
    vertex 137.02533571061593 77.14012871410252 26.486341999999958
    vertex 137.78869952246126 97.86854267233115 26.486341999999958
  endloop
endfacet
facet normal 0.0 0.0 -1.0
  outer loop
    vertex 137.7886995224613 63.095212925924656 26.486341999999958
    vertex 137.78869952246126 97.86854267233115 26.486341999999958
    vertex 142.1299567106159 96.07033506724781 26.486341999999958
  endloop
endfacet
facet normal 0.0 0.0 -1.0
  outer loop
    vertex 137.7886995224613 63.095212925924656 26.486341999999958
    vertex 142.1299567106159 96.07033506724781 26.486341999999958
    vertex 142.1299567106159 64.89342053100799 26.486341999999958
  endloop
endfacet
facet normal 0.0 0.0 -1.0
  outer loop
    vertex 142.1299567106159 64.89342053100799 26.486341999999958
    vertex 142.1299567106159 96.07033506724781 26.486341999999958
    vertex 145.85787877197373 93.20979986048577 26.486341999999958
  endloop
endfacet
facet normal 0.0 0.0 -1.0
  outer loop
    vertex 142.1299567106159 64.89342053100799 26.486341999999958
    vertex 145.85787877197373 93.20979986048577 26.486341999999958
    vertex 145.85787877197376 67.75395573777003 26.486341999999958
  endloop
endfacet
facet normal 0.0 0.0 -1.0
  outer loop
    vertex 145.85787877197376 67.75395573777003 26.486341999999958
    vertex 145.85787877197373 93.20979986048577 26.486341999999958
    vertex 148.71841397873578 89.48187779912793 26.486341999999958
  endloop
endfacet
facet normal 0.0 0.0 -1.0
  outer loop
    vertex 145.85787877197376 67.75395573777003 26.486341999999958
    vertex 148.71841397873578 89.48187779912793 26.486341999999958
    vertex 148.7184139787358 71.48187779912789 26.486341999999958
  endloop
endfacet
facet normal 0.0 0.0 -1.0
  outer loop
    vertex 148.7184139787358 71.48187779912789 26.486341999999958
    vertex 148.71841397873578 89.48187779912793 26.486341999999958
    vertex 150.51662158381913 85.14062061097331 26.486341999999958
  endloop
endfacet
facet normal 0.0 0.0 -1.0
  outer loop
    vertex 148.7184139787358 71.48187779912789 26.486341999999958
    vertex 150.51662158381913 85.14062061097331 26.486341999999958
    vertex 150.51662158381913 75.82313498728253 26.486341999999958
  endloop
endfacet
facet normal 0.0 0.0 -1.0
  outer loop
    vertex 150.51662158381913 75.82313498728253 26.486341999999958
    vertex 150.51662158381913 85.14062061097331 26.486341999999958
    vertex 151.12995671061591 80.4818777991279 26.486341999999958
  endloop
endfacet
facet normal -0.3826834323650915 -0.9238795325112862 0.0
  outer loop
    vertex 134.77764927940984 83.82362688415327 31.5
    vertex 134.10052812975036 84.1040996477119 26.486341999999958
    vertex 134.77764927940984 83.82362688415327 26.486341999999958
  endloop
endfacet
facet normal -0.3826834323650915 -0.9238795325112862 0.0
  outer loop
    vertex 134.10052812975036 84.1040996477119 26.486341999999958
    vertex 134.77764927940984 83.82362688415327 31.5
    vertex 134.10052812975036 84.1040996477119 42.25
  endloop
endfacet
facet normal -0.3826834323650915 -0.9238795325112862 0.0
  outer loop
    vertex 134.10052812975036 84.1040996477119 42.25
    vertex 134.77764927940984 83.82362688415327 31.5
    vertex 134.77764927940984 83.82362688415327 42.25
  endloop
endfacet
facet normal 0.7933533402912273 -0.6087614290087309 0.0
  outer loop
    vertex 130.47830628116634 83.13352822857746 26.486341999999958
    vertex 129.88236144642423 82.3568777991279 42.25
    vertex 129.88236144642423 82.3568777991279 26.486341999999958
  endloop
endfacet
facet normal 0.7933533402912273 -0.6087614290087309 0.0
  outer loop
    vertex 129.88236144642423 82.3568777991279 42.25
    vertex 130.47830628116634 83.13352822857746 26.486341999999958
    vertex 130.47830628116634 83.13352822857746 42.25
  endloop
endfacet
facet normal 0.9914448613738099 -0.13052619222005538 0.0
  outer loop
    vertex 129.5077348620319 81.45244921826236 26.486341999999958
    vertex 129.3799567106159 80.4818777991279 42.25
    vertex 129.3799567106159 80.4818777991279 26.486341999999958
  endloop
endfacet
facet normal 0.9914448613738099 -0.13052619222005538 0.0
  outer loop
    vertex 129.3799567106159 80.4818777991279 42.25
    vertex 129.5077348620319 81.45244921826236 26.486341999999958
    vertex 129.5077348620319 81.45244921826236 42.25
  endloop
endfacet
facet normal -0.38268343236509145 0.923879532511286 0.0
  outer loop
    vertex 134.10052812975036 76.8596559505439 42.25
    vertex 134.77764927940984 77.14012871410252 26.486341999999958
    vertex 134.10052812975036 76.8596559505439 26.486341999999958
  endloop
endfacet
facet normal -0.38268343236509145 0.923879532511286 0.0
  outer loop
    vertex 134.77764927940984 77.14012871410252 26.486341999999958
    vertex 134.10052812975036 76.8596559505439 42.25
    vertex 134.77764927940984 77.14012871410252 31.5
  endloop
endfacet
facet normal -0.38268343236509145 0.923879532511286 0.0
  outer loop
    vertex 134.77764927940984 77.14012871410252 31.5
    vertex 134.10052812975036 76.8596559505439 42.25
    vertex 134.77764927940984 77.14012871410252 42.25
  endloop
endfacet
facet normal 0.7933533402912384 0.6087614290087163 0.0
  outer loop
    vertex 129.88236144642426 78.6068777991279 26.486341999999958
    vertex 130.47830628116634 77.83022736967834 42.25
    vertex 130.47830628116634 77.83022736967834 26.486341999999958
  endloop
endfacet
facet normal 0.7933533402912384 0.6087614290087163 0.0
  outer loop
    vertex 130.47830628116634 77.83022736967834 42.25
    vertex 129.88236144642426 78.6068777991279 26.486341999999958
    vertex 129.88236144642426 78.6068777991279 42.25
  endloop
endfacet
facet normal 0.9238795325112835 0.38268343236509755 0.0
  outer loop
    vertex 129.5077348620319 79.51130637999344 26.486341999999958
    vertex 129.88236144642426 78.6068777991279 42.25
    vertex 129.88236144642426 78.6068777991279 26.486341999999958
  endloop
endfacet
facet normal 0.9238795325112835 0.38268343236509755 0.0
  outer loop
    vertex 129.88236144642426 78.6068777991279 42.25
    vertex 129.5077348620319 79.51130637999344 26.486341999999958
    vertex 129.5077348620319 79.51130637999344 42.25
  endloop
endfacet
facet normal -0.13052619222005538 0.9914448613738099 0.0
  outer loop
    vertex 133.1299567106159 76.7318777991279 42.25
    vertex 134.10052812975036 76.8596559505439 26.486341999999958
    vertex 133.1299567106159 76.7318777991279 26.486341999999958
  endloop
endfacet
facet normal -0.13052619222005538 0.9914448613738099 0.0
  outer loop
    vertex 134.10052812975036 76.8596559505439 26.486341999999958
    vertex 133.1299567106159 76.7318777991279 42.25
    vertex 134.10052812975036 76.8596559505439 42.25
  endloop
endfacet
facet normal 0.13052619222005538 0.9914448613738099 0.0
  outer loop
    vertex 132.15938529148144 76.8596559505439 42.25
    vertex 133.1299567106159 76.7318777991279 26.486341999999958
    vertex 132.15938529148144 76.8596559505439 26.486341999999958
  endloop
endfacet
facet normal 0.13052619222005538 0.9914448613738099 0.0
  outer loop
    vertex 133.1299567106159 76.7318777991279 26.486341999999958
    vertex 132.15938529148144 76.8596559505439 42.25
    vertex 133.1299567106159 76.7318777991279 42.25
  endloop
endfacet
facet normal 0.3826834323650878 0.9238795325112876 0.0
  outer loop
    vertex 131.2549567106159 77.23428253493626 42.25
    vertex 132.15938529148144 76.8596559505439 26.486341999999958
    vertex 131.2549567106159 77.23428253493626 26.486341999999958
  endloop
endfacet
facet normal 0.3826834323650878 0.9238795325112876 0.0
  outer loop
    vertex 132.15938529148144 76.8596559505439 26.486341999999958
    vertex 131.2549567106159 77.23428253493626 42.25
    vertex 132.15938529148144 76.8596559505439 42.25
  endloop
endfacet
facet normal -0.13052619222005538 -0.9914448613738099 -0.0
  outer loop
    vertex 134.10052812975036 84.1040996477119 42.25
    vertex 133.1299567106159 84.2318777991279 26.486341999999958
    vertex 134.10052812975036 84.1040996477119 26.486341999999958
  endloop
endfacet
facet normal -0.13052619222005538 -0.9914448613738099 -0.0
  outer loop
    vertex 133.1299567106159 84.2318777991279 26.486341999999958
    vertex 134.10052812975036 84.1040996477119 42.25
    vertex 133.1299567106159 84.2318777991279 42.25
  endloop
endfacet
facet normal 0.3826834323650878 -0.9238795325112876 0.0
  outer loop
    vertex 132.15938529148144 84.1040996477119 42.25
    vertex 131.2549567106159 83.72947306331955 26.486341999999958
    vertex 132.15938529148144 84.1040996477119 26.486341999999958
  endloop
endfacet
facet normal 0.3826834323650878 -0.9238795325112876 0.0
  outer loop
    vertex 131.2549567106159 83.72947306331955 26.486341999999958
    vertex 132.15938529148144 84.1040996477119 42.25
    vertex 131.2549567106159 83.72947306331955 42.25
  endloop
endfacet
facet normal 0.608761429008722 0.7933533402912342 0.0
  outer loop
    vertex 130.47830628116634 77.83022736967834 42.25
    vertex 131.2549567106159 77.23428253493626 26.486341999999958
    vertex 130.47830628116634 77.83022736967834 26.486341999999958
  endloop
endfacet
facet normal 0.608761429008722 0.7933533402912342 0.0
  outer loop
    vertex 131.2549567106159 77.23428253493626 26.486341999999958
    vertex 130.47830628116634 77.83022736967834 42.25
    vertex 131.2549567106159 77.23428253493626 42.25
  endloop
endfacet
facet normal 0.9914448613738099 0.13052619222005538 0.0
  outer loop
    vertex 129.3799567106159 80.4818777991279 26.486341999999958
    vertex 129.5077348620319 79.51130637999344 42.25
    vertex 129.5077348620319 79.51130637999344 26.486341999999958
  endloop
endfacet
facet normal 0.9914448613738099 0.13052619222005538 0.0
  outer loop
    vertex 129.5077348620319 79.51130637999344 42.25
    vertex 129.3799567106159 80.4818777991279 26.486341999999958
    vertex 129.3799567106159 80.4818777991279 42.25
  endloop
endfacet
facet normal 0.9238795325112917 -0.38268343236507796 0.0
  outer loop
    vertex 129.88236144642423 82.3568777991279 26.486341999999958
    vertex 129.5077348620319 81.45244921826236 42.25
    vertex 129.5077348620319 81.45244921826236 26.486341999999958
  endloop
endfacet
facet normal 0.9238795325112917 -0.38268343236507796 0.0
  outer loop
    vertex 129.5077348620319 81.45244921826236 42.25
    vertex 129.88236144642423 82.3568777991279 26.486341999999958
    vertex 129.88236144642423 82.3568777991279 42.25
  endloop
endfacet
facet normal 0.13052619222005538 -0.9914448613738099 0.0
  outer loop
    vertex 133.1299567106159 84.2318777991279 42.25
    vertex 132.15938529148144 84.1040996477119 26.486341999999958
    vertex 133.1299567106159 84.2318777991279 26.486341999999958
  endloop
endfacet
facet normal 0.13052619222005538 -0.9914448613738099 0.0
  outer loop
    vertex 132.15938529148144 84.1040996477119 26.486341999999958
    vertex 133.1299567106159 84.2318777991279 42.25
    vertex 132.15938529148144 84.1040996477119 42.25
  endloop
endfacet
facet normal 0.608761429008722 -0.7933533402912342 0.0
  outer loop
    vertex 131.2549567106159 83.72947306331955 42.25
    vertex 130.47830628116634 83.13352822857746 26.486341999999958
    vertex 131.2549567106159 83.72947306331955 26.486341999999958
  endloop
endfacet
facet normal 0.608761429008722 -0.7933533402912342 0.0
  outer loop
    vertex 130.47830628116634 83.13352822857746 26.486341999999958
    vertex 131.2549567106159 83.72947306331955 42.25
    vertex 130.47830628116634 83.13352822857746 42.25
  endloop
endfacet
facet normal -0.0 -1.0 -2.4850659258417332e-31
  outer loop
    vertex 137.02533571061593 83.82362688415327 31.5
    vertex 134.77764927940984 83.82362688415327 26.486341999999958
    vertex 137.02533571061593 83.82362688415327 26.486341999999958
  endloop
endfacet
facet normal -0.0 -1.0 -2.4850659258417332e-31
  outer loop
    vertex 134.77764927940984 83.82362688415327 26.486341999999958
    vertex 137.02533571061593 83.82362688415327 31.5
    vertex 134.77764927940984 83.82362688415327 31.5
  endloop
endfacet
facet normal 0.0 1.0 2.4850659258417332e-31
  outer loop
    vertex 134.77764927940984 77.14012871410252 31.5
    vertex 137.02533571061593 77.14012871410252 26.486341999999958
    vertex 134.77764927940984 77.14012871410252 26.486341999999958
  endloop
endfacet
facet normal 0.0 1.0 2.4850659258417332e-31
  outer loop
    vertex 137.02533571061593 77.14012871410252 26.486341999999958
    vertex 134.77764927940984 77.14012871410252 31.5
    vertex 137.02533571061593 77.14012871410252 31.5
  endloop
endfacet
facet normal -1.0 0.0 -1.1733278894737139e-46
  outer loop
    vertex 137.02533571061593 83.82362688415327 31.5
    vertex 137.02533571061593 77.14012871410252 26.486341999999958
    vertex 137.02533571061593 77.14012871410252 31.5
  endloop
endfacet
facet normal -1.0 0.0 -1.1733278894737139e-46
  outer loop
    vertex 137.02533571061593 77.14012871410252 26.486341999999958
    vertex 137.02533571061593 83.82362688415327 31.5
    vertex 137.02533571061593 83.82362688415327 26.486341999999958
  endloop
endfacet
facet normal 0.7933533402912343 -0.6087614290087219 0.0
  outer loop
    vertex 148.7184139787358 71.48187779912789 26.486341999999958
    vertex 145.85787877197376 67.75395573777003 43.25
    vertex 145.85787877197376 67.75395573777003 26.486341999999958
  endloop
endfacet
facet normal 0.7933533402912343 -0.6087614290087219 0.0
  outer loop
    vertex 145.85787877197376 67.75395573777003 43.25
    vertex 148.7184139787358 71.48187779912789 26.486341999999958
    vertex 148.7184139787358 71.48187779912789 43.25
  endloop
endfacet
facet normal 0.9238795325112884 -0.38268343236508573 0.0
  outer loop
    vertex 150.51662158381913 75.82313498728253 26.486341999999958
    vertex 148.7184139787358 71.48187779912789 43.25
    vertex 148.7184139787358 71.48187779912789 26.486341999999958
  endloop
endfacet
facet normal 0.9238795325112884 -0.38268343236508573 0.0
  outer loop
    vertex 148.7184139787358 71.48187779912789 43.25
    vertex 150.51662158381913 75.82313498728253 26.486341999999958
    vertex 150.51662158381913 75.82313498728253 43.25
  endloop
endfacet
facet normal 0.9238795325112865 0.3826834323650908 0.0
  outer loop
    vertex 148.71841397873578 89.48187779912793 26.486341999999958
    vertex 150.51662158381913 85.14062061097331 43.25
    vertex 150.51662158381913 85.14062061097331 26.486341999999958
  endloop
endfacet
facet normal 0.9238795325112865 0.3826834323650908 0.0
  outer loop
    vertex 150.51662158381913 85.14062061097331 43.25
    vertex 148.71841397873578 89.48187779912793 26.486341999999958
    vertex 148.71841397873578 89.48187779912793 43.25
  endloop
endfacet
facet normal 0.6087614290087203 0.7933533402912354 0.0
  outer loop
    vertex 142.1299567106159 96.07033506724781 43.25
    vertex 145.85787877197373 93.20979986048577 26.486341999999958
    vertex 142.1299567106159 96.07033506724781 26.486341999999958
  endloop
endfacet
facet normal 0.6087614290087203 0.7933533402912354 0.0
  outer loop
    vertex 145.85787877197373 93.20979986048577 26.486341999999958
    vertex 142.1299567106159 96.07033506724781 43.25
    vertex 145.85787877197373 93.20979986048577 43.25
  endloop
endfacet
facet normal 0.9914448613738102 -0.13052619222005404 0.0
  outer loop
    vertex 151.12995671061591 80.4818777991279 26.486341999999958
    vertex 150.51662158381913 75.82313498728253 43.25
    vertex 150.51662158381913 75.82313498728253 26.486341999999958
  endloop
endfacet
facet normal 0.9914448613738102 -0.13052619222005404 0.0
  outer loop
    vertex 150.51662158381913 75.82313498728253 43.25
    vertex 151.12995671061591 80.4818777991279 26.486341999999958
    vertex 151.12995671061591 80.4818777991279 43.25
  endloop
endfacet
facet normal 0.9914448613738102 0.1305261922200531 0.0
  outer loop
    vertex 150.51662158381913 85.14062061097331 26.486341999999958
    vertex 151.12995671061591 80.4818777991279 43.25
    vertex 151.12995671061591 80.4818777991279 26.486341999999958
  endloop
endfacet
facet normal 0.9914448613738102 0.1305261922200531 0.0
  outer loop
    vertex 151.12995671061591 80.4818777991279 43.25
    vertex 150.51662158381913 85.14062061097331 26.486341999999958
    vertex 150.51662158381913 85.14062061097331 43.25
  endloop
endfacet
facet normal 0.7933533402912334 0.608761429008723 0.0
  outer loop
    vertex 145.85787877197373 93.20979986048577 26.486341999999958
    vertex 148.71841397873578 89.48187779912793 43.25
    vertex 148.71841397873578 89.48187779912793 26.486341999999958
  endloop
endfacet
facet normal 0.7933533402912334 0.608761429008723 0.0
  outer loop
    vertex 148.71841397873578 89.48187779912793 43.25
    vertex 145.85787877197373 93.20979986048577 26.486341999999958
    vertex 145.85787877197373 93.20979986048577 43.25
  endloop
endfacet
facet normal 0.3826834323650886 0.9238795325112872 0.0
  outer loop
    vertex 137.78869952246126 97.86854267233115 43.25
    vertex 142.1299567106159 96.07033506724781 26.486341999999958
    vertex 137.78869952246126 97.86854267233115 26.486341999999958
  endloop
endfacet
facet normal 0.3826834323650886 0.9238795325112872 0.0
  outer loop
    vertex 142.1299567106159 96.07033506724781 26.486341999999958
    vertex 137.78869952246126 97.86854267233115 43.25
    vertex 142.1299567106159 96.07033506724781 43.25
  endloop
endfacet
facet normal 0.0 0.0 1.0
  outer loop
    vertex 115.74329183741266 75.82313498728253 43.25
    vertex 115.74329183741266 85.14062061097329 43.25
    vertex 115.12995671061587 80.48187779912791 43.25
  endloop
endfacet
facet normal 0.0 0.0 1.0
  outer loop
    vertex 115.74329183741266 85.14062061097329 43.25
    vertex 115.74329183741266 75.82313498728253 43.25
    vertex 117.54149944249598 71.48187779912789 43.25
  endloop
endfacet
facet normal 0.0 0.0 1.0
  outer loop
    vertex 115.74329183741266 85.14062061097329 43.25
    vertex 117.54149944249598 71.48187779912789 43.25
    vertex 117.54149944249599 89.48187779912791 43.25
  endloop
endfacet
facet normal 0.0 0.0 1.0
  outer loop
    vertex 117.54149944249599 89.48187779912791 43.25
    vertex 117.54149944249598 71.48187779912789 43.25
    vertex 120.40203464925803 67.75395573777003 43.25
  endloop
endfacet
facet normal 0.0 0.0 1.0
  outer loop
    vertex 117.54149944249599 89.48187779912791 43.25
    vertex 120.40203464925803 67.75395573777003 43.25
    vertex 120.40203464925803 93.20979986048577 43.25
  endloop
endfacet
facet normal 0.0 0.0 1.0
  outer loop
    vertex 120.40203464925803 93.20979986048577 43.25
    vertex 120.40203464925803 67.75395573777003 43.25
    vertex 124.12995671061589 64.89342053100799 43.25
  endloop
endfacet
facet normal 0.0 0.0 1.0
  outer loop
    vertex 120.40203464925803 93.20979986048577 43.25
    vertex 124.12995671061589 64.89342053100799 43.25
    vertex 124.12995671061589 96.07033506724781 43.25
  endloop
endfacet
facet normal 0.0 0.0 1.0
  outer loop
    vertex 124.12995671061589 96.07033506724781 43.25
    vertex 124.12995671061589 64.89342053100799 43.25
    vertex 128.47121389877051 63.095212925924656 43.25
  endloop
endfacet
facet normal 0.0 0.0 1.0
  outer loop
    vertex 124.12995671061589 96.07033506724781 43.25
    vertex 128.47121389877051 63.095212925924656 43.25
    vertex 128.47121389877051 97.86854267233115 43.25
  endloop
endfacet
facet normal 0.0 0.0 1.0
  outer loop
    vertex 128.47121389877051 97.86854267233115 43.25
    vertex 128.47121389877051 63.095212925924656 43.25
    vertex 133.1299567106159 62.481877799127886 43.25
  endloop
endfacet
facet normal 0.0 0.0 1.0
  outer loop
    vertex 128.47121389877051 97.86854267233115 43.25
    vertex 133.1299567106159 62.481877799127886 43.25
    vertex 133.1299567106159 98.48187779912791 43.25
  endloop
endfacet
facet normal 0.0 0.0 1.0
  outer loop
    vertex 133.1299567106159 98.48187779912791 43.25
    vertex 133.1299567106159 62.481877799127886 43.25
    vertex 137.7886995224613 63.095212925924656 43.25
  endloop
endfacet
facet normal 0.0 0.0 1.0
  outer loop
    vertex 133.1299567106159 98.48187779912791 43.25
    vertex 137.7886995224613 63.095212925924656 43.25
    vertex 137.78869952246126 97.86854267233115 43.25
  endloop
endfacet
facet normal 0.0 0.0 1.0
  outer loop
    vertex 137.78869952246126 97.86854267233115 43.25
    vertex 137.7886995224613 63.095212925924656 43.25
    vertex 142.1299567106159 96.07033506724781 43.25
  endloop
endfacet
facet normal 0.0 0.0 1.0
  outer loop
    vertex 142.1299567106159 96.07033506724781 43.25
    vertex 137.7886995224613 63.095212925924656 43.25
    vertex 142.1299567106159 64.89342053100799 43.25
  endloop
endfacet
facet normal 0.0 0.0 1.0
  outer loop
    vertex 142.1299567106159 96.07033506724781 43.25
    vertex 142.1299567106159 64.89342053100799 43.25
    vertex 145.85787877197373 93.20979986048577 43.25
  endloop
endfacet
facet normal 0.0 0.0 1.0
  outer loop
    vertex 145.85787877197373 93.20979986048577 43.25
    vertex 142.1299567106159 64.89342053100799 43.25
    vertex 145.85787877197376 67.75395573777003 43.25
  endloop
endfacet
facet normal 0.0 0.0 1.0
  outer loop
    vertex 145.85787877197373 93.20979986048577 43.25
    vertex 145.85787877197376 67.75395573777003 43.25
    vertex 148.71841397873578 89.48187779912793 43.25
  endloop
endfacet
facet normal 0.0 0.0 1.0
  outer loop
    vertex 148.71841397873578 89.48187779912793 43.25
    vertex 145.85787877197376 67.75395573777003 43.25
    vertex 148.7184139787358 71.48187779912789 43.25
  endloop
endfacet
facet normal 0.0 0.0 1.0
  outer loop
    vertex 148.71841397873578 89.48187779912793 43.25
    vertex 148.7184139787358 71.48187779912789 43.25
    vertex 150.51662158381913 85.14062061097331 43.25
  endloop
endfacet
facet normal 0.0 0.0 1.0
  outer loop
    vertex 150.51662158381913 85.14062061097331 43.25
    vertex 148.7184139787358 71.48187779912789 43.25
    vertex 150.51662158381913 75.82313498728253 43.25
  endloop
endfacet
facet normal 0.0 0.0 1.0
  outer loop
    vertex 150.51662158381913 85.14062061097331 43.25
    vertex 150.51662158381913 75.82313498728253 43.25
    vertex 151.12995671061591 80.4818777991279 43.25
  endloop
endfacet
facet normal -1.0 0.0 0.0
  outer loop
    vertex 134.12995671061586 83.82362688415327 42.25
    vertex 134.12995671061586 77.14012871410252 31.5
    vertex 134.12995671061586 77.14012871410252 42.25
  endloop
endfacet
facet normal -1.0 0.0 0.0
  outer loop
    vertex 134.12995671061586 77.14012871410252 31.5
    vertex 134.12995671061586 83.82362688415327 42.25
    vertex 134.12995671061586 83.82362688415327 31.5
  endloop
endfacet
facet normal 0.0 0.0 -1.0
  outer loop
    vertex 134.77764927940984 83.82362688415327 31.5
    vertex 134.12995671061586 77.14012871410252 31.5
    vertex 134.12995671061586 83.82362688415327 31.5
  endloop
endfacet
facet normal 0.0 0.0 -1.0
  outer loop
    vertex 134.12995671061586 77.14012871410252 31.5
    vertex 134.77764927940984 83.82362688415327 31.5
    vertex 134.77764927940984 77.14012871410252 31.5
  endloop
endfacet
facet normal 0.0 0.0 -1.0
  outer loop
    vertex 134.77764927940984 77.14012871410252 31.5
    vertex 134.77764927940984 83.82362688415327 31.5
    vertex 137.02533571061593 83.82362688415327 31.5
  endloop
endfacet
facet normal 0.0 0.0 -1.0
  outer loop
    vertex 134.77764927940984 77.14012871410252 31.5
    vertex 137.02533571061593 83.82362688415327 31.5
    vertex 137.02533571061593 77.14012871410252 31.5
  endloop
endfacet
facet normal 0.13052619222005202 0.9914448613738105 0.0
  outer loop
    vertex 133.1299567106159 98.48187779912791 43.25
    vertex 137.78869952246126 97.86854267233115 26.486341999999958
    vertex 133.1299567106159 98.48187779912791 26.486341999999958
  endloop
endfacet
facet normal 0.13052619222005202 0.9914448613738105 0.0
  outer loop
    vertex 137.78869952246126 97.86854267233115 26.486341999999958
    vertex 133.1299567106159 98.48187779912791 43.25
    vertex 137.78869952246126 97.86854267233115 43.25
  endloop
endfacet
facet normal 0.0 1.0 0.0
  outer loop
    vertex 134.12995671061586 83.82362688415327 42.25
    vertex 134.77764927940984 83.82362688415327 31.5
    vertex 134.12995671061586 83.82362688415327 31.5
  endloop
endfacet
facet normal 0.0 1.0 0.0
  outer loop
    vertex 134.77764927940984 83.82362688415327 31.5
    vertex 134.12995671061586 83.82362688415327 42.25
    vertex 134.77764927940984 83.82362688415327 42.25
  endloop
endfacet
facet normal 0.0 -1.0 0.0
  outer loop
    vertex 134.77764927940984 77.14012871410252 42.25
    vertex 134.12995671061586 77.14012871410252 31.5
    vertex 134.77764927940984 77.14012871410252 31.5
  endloop
endfacet
facet normal 0.0 -1.0 0.0
  outer loop
    vertex 134.12995671061586 77.14012871410252 31.5
    vertex 134.77764927940984 77.14012871410252 42.25
    vertex 134.12995671061586 77.14012871410252 42.25
  endloop
endfacet
facet normal -0.6087614290087189 0.7933533402912365 0.0
  outer loop
    vertex 120.40203464925803 93.20979986048577 43.25
    vertex 124.12995671061589 96.07033506724781 26.486341999999958
    vertex 120.40203464925803 93.20979986048577 26.486341999999958
  endloop
endfacet
facet normal -0.6087614290087189 0.7933533402912365 0.0
  outer loop
    vertex 124.12995671061589 96.07033506724781 26.486341999999958
    vertex 120.40203464925803 93.20979986048577 43.25
    vertex 124.12995671061589 96.07033506724781 43.25
  endloop
endfacet
facet normal 0.13052619222005135 -0.9914448613738104 0.0
  outer loop
    vertex 137.7886995224613 63.095212925924656 43.25
    vertex 133.1299567106159 62.481877799127886 26.486341999999958
    vertex 137.7886995224613 63.095212925924656 26.486341999999958
  endloop
endfacet
facet normal 0.13052619222005135 -0.9914448613738104 0.0
  outer loop
    vertex 133.1299567106159 62.481877799127886 26.486341999999958
    vertex 137.7886995224613 63.095212925924656 43.25
    vertex 133.1299567106159 62.481877799127886 43.25
  endloop
endfacet
facet normal -0.6087614290087203 -0.7933533402912354 -0.0
  outer loop
    vertex 124.12995671061589 64.89342053100799 43.25
    vertex 120.40203464925803 67.75395573777003 26.486341999999958
    vertex 124.12995671061589 64.89342053100799 26.486341999999958
  endloop
endfacet
facet normal -0.6087614290087203 -0.7933533402912354 -0.0
  outer loop
    vertex 120.40203464925803 67.75395573777003 26.486341999999958
    vertex 124.12995671061589 64.89342053100799 43.25
    vertex 120.40203464925803 67.75395573777003 43.25
  endloop
endfacet
facet normal -0.9238795325112884 -0.38268343236508573 -0.0
  outer loop
    vertex 115.74329183741266 75.82313498728253 43.25
    vertex 117.54149944249598 71.48187779912789 26.486341999999958
    vertex 117.54149944249598 71.48187779912789 43.25
  endloop
endfacet
facet normal -0.9238795325112884 -0.38268343236508573 -0.0
  outer loop
    vertex 117.54149944249598 71.48187779912789 26.486341999999958
    vertex 115.74329183741266 75.82313498728253 43.25
    vertex 115.74329183741266 75.82313498728253 26.486341999999958
  endloop
endfacet
facet normal 0.6087614290087203 -0.7933533402912354 0.0
  outer loop
    vertex 145.85787877197376 67.75395573777003 43.25
    vertex 142.1299567106159 64.89342053100799 26.486341999999958
    vertex 145.85787877197376 67.75395573777003 26.486341999999958
  endloop
endfacet
facet normal 0.6087614290087203 -0.7933533402912354 0.0
  outer loop
    vertex 142.1299567106159 64.89342053100799 26.486341999999958
    vertex 145.85787877197376 67.75395573777003 43.25
    vertex 142.1299567106159 64.89342053100799 43.25
  endloop
endfacet
facet normal -0.9914448613738102 0.13052619222005404 0.0
  outer loop
    vertex 115.74329183741266 85.14062061097329 43.25
    vertex 115.12995671061587 80.48187779912791 26.486341999999958
    vertex 115.12995671061587 80.48187779912791 43.25
  endloop
endfacet
facet normal -0.9914448613738102 0.13052619222005404 0.0
  outer loop
    vertex 115.12995671061587 80.48187779912791 26.486341999999958
    vertex 115.74329183741266 85.14062061097329 43.25
    vertex 115.74329183741266 85.14062061097329 26.486341999999958
  endloop
endfacet
facet normal -0.9238795325112867 0.38268343236508984 0.0
  outer loop
    vertex 117.54149944249599 89.48187779912791 43.25
    vertex 115.74329183741266 85.14062061097329 26.486341999999958
    vertex 115.74329183741266 85.14062061097329 43.25
  endloop
endfacet
facet normal -0.9238795325112867 0.38268343236508984 0.0
  outer loop
    vertex 115.74329183741266 85.14062061097329 26.486341999999958
    vertex 117.54149944249599 89.48187779912791 43.25
    vertex 117.54149944249599 89.48187779912791 26.486341999999958
  endloop
endfacet
facet normal -0.7933533402912365 0.6087614290087189 0.0
  outer loop
    vertex 120.40203464925803 93.20979986048577 43.25
    vertex 117.54149944249599 89.48187779912791 26.486341999999958
    vertex 117.54149944249599 89.48187779912791 43.25
  endloop
endfacet
facet normal -0.7933533402912365 0.6087614290087189 0.0
  outer loop
    vertex 117.54149944249599 89.48187779912791 26.486341999999958
    vertex 120.40203464925803 93.20979986048577 43.25
    vertex 120.40203464925803 93.20979986048577 26.486341999999958
  endloop
endfacet
facet normal -0.9914448613738103 -0.13052619222005374 -0.0
  outer loop
    vertex 115.12995671061587 80.48187779912791 43.25
    vertex 115.74329183741266 75.82313498728253 26.486341999999958
    vertex 115.74329183741266 75.82313498728253 43.25
  endloop
endfacet
facet normal -0.9914448613738103 -0.13052619222005374 -0.0
  outer loop
    vertex 115.74329183741266 75.82313498728253 26.486341999999958
    vertex 115.12995671061587 80.48187779912791 43.25
    vertex 115.12995671061587 80.48187779912791 26.486341999999958
  endloop
endfacet
facet normal -0.7933533402912343 -0.6087614290087219 -0.0
  outer loop
    vertex 117.54149944249598 71.48187779912789 43.25
    vertex 120.40203464925803 67.75395573777003 26.486341999999958
    vertex 120.40203464925803 67.75395573777003 43.25
  endloop
endfacet
facet normal -0.7933533402912343 -0.6087614290087219 -0.0
  outer loop
    vertex 120.40203464925803 67.75395573777003 26.486341999999958
    vertex 117.54149944249598 71.48187779912789 43.25
    vertex 117.54149944249598 71.48187779912789 26.486341999999958
  endloop
endfacet
facet normal -0.13052619222005202 0.9914448613738105 0.0
  outer loop
    vertex 128.47121389877051 97.86854267233115 43.25
    vertex 133.1299567106159 98.48187779912791 26.486341999999958
    vertex 128.47121389877051 97.86854267233115 26.486341999999958
  endloop
endfacet
facet normal -0.13052619222005202 0.9914448613738105 0.0
  outer loop
    vertex 133.1299567106159 98.48187779912791 26.486341999999958
    vertex 128.47121389877051 97.86854267233115 43.25
    vertex 133.1299567106159 98.48187779912791 43.25
  endloop
endfacet
facet normal -0.382683432365089 0.9238795325112872 0.0
  outer loop
    vertex 124.12995671061589 96.07033506724781 43.25
    vertex 128.47121389877051 97.86854267233115 26.486341999999958
    vertex 124.12995671061589 96.07033506724781 26.486341999999958
  endloop
endfacet
facet normal -0.382683432365089 0.9238795325112872 0.0
  outer loop
    vertex 128.47121389877051 97.86854267233115 26.486341999999958
    vertex 124.12995671061589 96.07033506724781 43.25
    vertex 128.47121389877051 97.86854267233115 43.25
  endloop
endfacet
facet normal -0.13052619222005202 -0.9914448613738105 -0.0
  outer loop
    vertex 133.1299567106159 62.481877799127886 43.25
    vertex 128.47121389877051 63.095212925924656 26.486341999999958
    vertex 133.1299567106159 62.481877799127886 26.486341999999958
  endloop
endfacet
facet normal -0.13052619222005202 -0.9914448613738105 -0.0
  outer loop
    vertex 128.47121389877051 63.095212925924656 26.486341999999958
    vertex 133.1299567106159 62.481877799127886 43.25
    vertex 128.47121389877051 63.095212925924656 43.25
  endloop
endfacet
facet normal 0.3826834323650908 -0.9238795325112865 0.0
  outer loop
    vertex 142.1299567106159 64.89342053100799 43.25
    vertex 137.7886995224613 63.095212925924656 26.486341999999958
    vertex 142.1299567106159 64.89342053100799 26.486341999999958
  endloop
endfacet
facet normal 0.3826834323650908 -0.9238795325112865 0.0
  outer loop
    vertex 137.7886995224613 63.095212925924656 26.486341999999958
    vertex 142.1299567106159 64.89342053100799 43.25
    vertex 137.7886995224613 63.095212925924656 43.25
  endloop
endfacet
facet normal -0.382683432365089 -0.9238795325112872 -0.0
  outer loop
    vertex 128.47121389877051 63.095212925924656 43.25
    vertex 124.12995671061589 64.89342053100799 26.486341999999958
    vertex 128.47121389877051 63.095212925924656 26.486341999999958
  endloop
endfacet
facet normal -0.382683432365089 -0.9238795325112872 -0.0
  outer loop
    vertex 124.12995671061589 64.89342053100799 26.486341999999958
    vertex 128.47121389877051 63.095212925924656 43.25
    vertex 124.12995671061589 64.89342053100799 43.25
  endloop
endfacet
facet normal 0.0 0.0 -1.0
  outer loop
    vertex 129.5077348620319 81.45244921826236 42.25
    vertex 129.5077348620319 79.51130637999344 42.25
    vertex 129.3799567106159 80.4818777991279 42.25
  endloop
endfacet
facet normal 0.0 0.0 -1.0
  outer loop
    vertex 129.5077348620319 79.51130637999344 42.25
    vertex 129.5077348620319 81.45244921826236 42.25
    vertex 129.88236144642423 82.3568777991279 42.25
  endloop
endfacet
facet normal 0.0 0.0 -1.0
  outer loop
    vertex 129.5077348620319 79.51130637999344 42.25
    vertex 129.88236144642423 82.3568777991279 42.25
    vertex 129.88236144642426 78.6068777991279 42.25
  endloop
endfacet
facet normal 0.0 0.0 -1.0
  outer loop
    vertex 129.88236144642426 78.6068777991279 42.25
    vertex 129.88236144642423 82.3568777991279 42.25
    vertex 130.47830628116634 83.13352822857746 42.25
  endloop
endfacet
facet normal 0.0 0.0 -1.0
  outer loop
    vertex 129.88236144642426 78.6068777991279 42.25
    vertex 130.47830628116634 83.13352822857746 42.25
    vertex 130.47830628116634 77.83022736967834 42.25
  endloop
endfacet
facet normal 0.0 0.0 -1.0
  outer loop
    vertex 130.47830628116634 77.83022736967834 42.25
    vertex 130.47830628116634 83.13352822857746 42.25
    vertex 131.2549567106159 83.72947306331955 42.25
  endloop
endfacet
facet normal 0.0 0.0 -1.0
  outer loop
    vertex 130.47830628116634 77.83022736967834 42.25
    vertex 131.2549567106159 83.72947306331955 42.25
    vertex 131.2549567106159 77.23428253493626 42.25
  endloop
endfacet
facet normal 0.0 0.0 -1.0
  outer loop
    vertex 131.2549567106159 77.23428253493626 42.25
    vertex 131.2549567106159 83.72947306331955 42.25
    vertex 132.15938529148144 84.1040996477119 42.25
  endloop
endfacet
facet normal 0.0 0.0 -1.0
  outer loop
    vertex 131.2549567106159 77.23428253493626 42.25
    vertex 132.15938529148144 84.1040996477119 42.25
    vertex 132.15938529148144 76.8596559505439 42.25
  endloop
endfacet
facet normal 0.0 0.0 -1.0
  outer loop
    vertex 132.15938529148144 76.8596559505439 42.25
    vertex 132.15938529148144 84.1040996477119 42.25
    vertex 133.1299567106159 84.2318777991279 42.25
  endloop
endfacet
facet normal 0.0 0.0 -1.0
  outer loop
    vertex 132.15938529148144 76.8596559505439 42.25
    vertex 133.1299567106159 84.2318777991279 42.25
    vertex 133.1299567106159 76.7318777991279 42.25
  endloop
endfacet
facet normal 0.0 0.0 -1.0
  outer loop
    vertex 133.1299567106159 76.7318777991279 42.25
    vertex 133.1299567106159 84.2318777991279 42.25
    vertex 134.10052812975036 84.1040996477119 42.25
  endloop
endfacet
facet normal 0.0 0.0 -1.0
  outer loop
    vertex 133.1299567106159 76.7318777991279 42.25
    vertex 134.10052812975036 84.1040996477119 42.25
    vertex 134.10052812975036 76.8596559505439 42.25
  endloop
endfacet
facet normal 0.0 0.0 -1.0
  outer loop
    vertex 134.10052812975036 76.8596559505439 42.25
    vertex 134.10052812975036 84.1040996477119 42.25
    vertex 134.12995671061586 83.82362688415327 42.25
  endloop
endfacet
facet normal 0.0 0.0 -1.0
  outer loop
    vertex 134.12995671061586 83.82362688415327 42.25
    vertex 134.10052812975036 84.1040996477119 42.25
    vertex 134.77764927940984 83.82362688415327 42.25
  endloop
endfacet
facet normal 0.0 0.0 -1.0
  outer loop
    vertex 134.10052812975036 76.8596559505439 42.25
    vertex 134.12995671061586 77.14012871410252 42.25
    vertex 134.77764927940984 77.14012871410252 42.25
  endloop
endfacet
facet normal 0.0 0.0 -1.0
  outer loop
    vertex 134.12995671061586 77.14012871410252 42.25
    vertex 134.10052812975036 76.8596559505439 42.25
    vertex 134.12995671061586 83.82362688415327 42.25
  endloop
endfacet
endsolid joystick
