solid joystick
facet normal 0.0 -1.0 0.0
  outer loop
    vertex 144.3799567106159 71.7318777991279 4.75
    vertex 115.62995671061586 71.7318777991279 -0.24999999999999953
    vertex 144.3799567106159 71.7318777991279 -0.24999999999999953
  endloop
endfacet
facet normal 0.0 -1.0 0.0
  outer loop
    vertex 115.62995671061586 71.7318777991279 -0.24999999999999953
    vertex 144.3799567106159 71.7318777991279 4.75
    vertex 115.62995671061586 71.7318777991279 4.75
  endloop
endfacet
facet normal 0.0 1.0 0.0
  outer loop
    vertex 115.62995671061586 93.0318777991279 4.75
    vertex 144.3799567106159 93.0318777991279 -0.24999999999999953
    vertex 115.62995671061586 93.0318777991279 -0.24999999999999953
  endloop
endfacet
facet normal 0.0 1.0 0.0
  outer loop
    vertex 144.3799567106159 93.0318777991279 -0.24999999999999953
    vertex 115.62995671061586 93.0318777991279 4.75
    vertex 144.3799567106159 93.0318777991279 4.75
  endloop
endfacet
facet normal 0.0 0.0 1.0
  outer loop
    vertex 115.62995671061586 71.7318777991279 4.75
    vertex 116.62995671061586 72.7318777991279 4.75
    vertex 115.62995671061586 93.0318777991279 4.75
  endloop
endfacet
facet normal 0.0 0.0 1.0
  outer loop
    vertex 116.62995671061586 72.7318777991279 4.75
    vertex 115.62995671061586 71.7318777991279 4.75
    vertex 144.3799567106159 71.7318777991279 4.75
  endloop
endfacet
facet normal 0.0 0.0 1.0
  outer loop
    vertex 116.62995671061586 72.7318777991279 4.75
    vertex 144.3799567106159 71.7318777991279 4.75
    vertex 143.3799567106159 72.7318777991279 4.75
  endloop
endfacet
facet normal 0.0 0.0 1.0
  outer loop
    vertex 143.3799567106159 72.7318777991279 4.75
    vertex 144.3799567106159 71.7318777991279 4.75
    vertex 143.3799567106159 92.0318777991279 4.75
  endloop
endfacet
facet normal 0.0 0.0 1.0
  outer loop
    vertex 115.62995671061586 93.0318777991279 4.75
    vertex 116.62995671061586 92.0318777991279 4.75
    vertex 144.3799567106159 93.0318777991279 4.75
  endloop
endfacet
facet normal 0.0 0.0 1.0
  outer loop
    vertex 116.62995671061586 92.0318777991279 4.75
    vertex 115.62995671061586 93.0318777991279 4.75
    vertex 116.62995671061586 72.7318777991279 4.75
  endloop
endfacet
facet normal 0.0 0.0 1.0
  outer loop
    vertex 144.3799567106159 93.0318777991279 4.75
    vertex 116.62995671061586 92.0318777991279 4.75
    vertex 143.3799567106159 92.0318777991279 4.75
  endloop
endfacet
facet normal 0.0 0.0 1.0
  outer loop
    vertex 144.3799567106159 93.0318777991279 4.75
    vertex 143.3799567106159 92.0318777991279 4.75
    vertex 144.3799567106159 71.7318777991279 4.75
  endloop
endfacet
facet normal -1.0 0.0 0.0
  outer loop
    vertex 115.62995671061586 93.0318777991279 4.75
    vertex 115.62995671061586 71.7318777991279 -0.24999999999999953
    vertex 115.62995671061586 71.7318777991279 4.75
  endloop
endfacet
facet normal -1.0 0.0 0.0
  outer loop
    vertex 115.62995671061586 71.7318777991279 -0.24999999999999953
    vertex 115.62995671061586 93.0318777991279 4.75
    vertex 115.62995671061586 93.0318777991279 -0.24999999999999953
  endloop
endfacet
facet normal -1.0 0.0 0.0
  outer loop
    vertex 143.3799567106159 92.0318777991279 4.75
    vertex 143.3799567106159 72.7318777991279 -0.24999999999999953
    vertex 143.3799567106159 72.7318777991279 4.75
  endloop
endfacet
facet normal -1.0 0.0 0.0
  outer loop
    vertex 143.3799567106159 72.7318777991279 -0.24999999999999953
    vertex 143.3799567106159 92.0318777991279 4.75
    vertex 143.3799567106159 92.0318777991279 -0.24999999999999953
  endloop
endfacet
facet normal 1.0 0.0 0.0
  outer loop
    vertex 116.62995671061586 92.0318777991279 -0.24999999999999953
    vertex 116.62995671061586 72.7318777991279 4.75
    vertex 116.62995671061586 72.7318777991279 -0.24999999999999953
  endloop
endfacet
facet normal 1.0 0.0 0.0
  outer loop
    vertex 116.62995671061586 72.7318777991279 4.75
    vertex 116.62995671061586 92.0318777991279 -0.24999999999999953
    vertex 116.62995671061586 92.0318777991279 4.75
  endloop
endfacet
facet normal -0.0 -1.0 -0.0
  outer loop
    vertex 143.3799567106159 92.0318777991279 4.75
    vertex 116.62995671061586 92.0318777991279 -0.24999999999999953
    vertex 143.3799567106159 92.0318777991279 -0.24999999999999953
  endloop
endfacet
facet normal -0.0 -1.0 -0.0
  outer loop
    vertex 116.62995671061586 92.0318777991279 -0.24999999999999953
    vertex 143.3799567106159 92.0318777991279 4.75
    vertex 116.62995671061586 92.0318777991279 4.75
  endloop
endfacet
facet normal 0.0 1.0 0.0
  outer loop
    vertex 116.62995671061586 72.7318777991279 4.75
    vertex 143.3799567106159 72.7318777991279 -0.24999999999999953
    vertex 116.62995671061586 72.7318777991279 -0.24999999999999953
  endloop
endfacet
facet normal 0.0 1.0 0.0
  outer loop
    vertex 143.3799567106159 72.7318777991279 -0.24999999999999953
    vertex 116.62995671061586 72.7318777991279 4.75
    vertex 143.3799567106159 72.7318777991279 4.75
  endloop
endfacet
facet normal 1.0 0.0 0.0
  outer loop
    vertex 144.3799567106159 93.0318777991279 -0.24999999999999953
    vertex 144.3799567106159 71.7318777991279 4.75
    vertex 144.3799567106159 71.7318777991279 -0.24999999999999953
  endloop
endfacet
facet normal 1.0 0.0 0.0
  outer loop
    vertex 144.3799567106159 71.7318777991279 4.75
    vertex 144.3799567106159 93.0318777991279 -0.24999999999999953
    vertex 144.3799567106159 93.0318777991279 4.75
  endloop
endfacet
facet normal 0.0 -0.6945945136995676 -0.7194014606174088
  outer loop
    vertex 131.1299567106159 78.9818777991279 -7.250000000000001
    vertex 144.3799567106159 71.7318777991279 -0.24999999999999953
    vertex 115.62995671061586 71.7318777991279 -0.24999999999999953
  endloop
endfacet
facet normal 0.0 -0.6945945136995676 -0.7194014606174088
  outer loop
    vertex 144.3799567106159 71.7318777991279 -0.24999999999999953
    vertex 131.1299567106159 78.9818777991279 -7.250000000000001
    vertex 135.1299567106159 78.9818777991279 -7.250000000000001
  endloop
endfacet
facet normal 0.0 -1.0 0.0
  outer loop
    vertex 135.1299567106159 81.9818777991279 -1.750000000000001
    vertex 131.1299567106159 81.9818777991279 -7.250000000000001
    vertex 135.1299567106159 81.9818777991279 -7.250000000000001
  endloop
endfacet
facet normal 0.0 -1.0 0.0
  outer loop
    vertex 131.1299567106159 81.9818777991279 -7.250000000000001
    vertex 135.1299567106159 81.9818777991279 -1.750000000000001
    vertex 131.1299567106159 81.9818777991279 -1.750000000000001
  endloop
endfacet
facet normal 0.0 1.0 0.0
  outer loop
    vertex 131.1299567106159 78.9818777991279 -1.750000000000001
    vertex 135.1299567106159 78.9818777991279 -7.250000000000001
    vertex 131.1299567106159 78.9818777991279 -7.250000000000001
  endloop
endfacet
facet normal 0.0 1.0 0.0
  outer loop
    vertex 135.1299567106159 78.9818777991279 -7.250000000000001
    vertex 131.1299567106159 78.9818777991279 -1.750000000000001
    vertex 135.1299567106159 78.9818777991279 -1.750000000000001
  endloop
endfacet
facet normal 0.0 0.0 -1.0
  outer loop
    vertex 135.1299567106159 81.9818777991279 -1.750000000000001
    vertex 131.1299567106159 78.9818777991279 -1.750000000000001
    vertex 131.1299567106159 81.9818777991279 -1.750000000000001
  endloop
endfacet
facet normal 0.0 0.0 -1.0
  outer loop
    vertex 131.1299567106159 78.9818777991279 -1.750000000000001
    vertex 135.1299567106159 81.9818777991279 -1.750000000000001
    vertex 135.1299567106159 78.9818777991279 -1.750000000000001
  endloop
endfacet
facet normal 0.0 0.0 1.0
  outer loop
    vertex 143.3799567106159 72.7318777991279 -0.24999999999999953
    vertex 116.62995671061586 92.0318777991279 -0.24999999999999953
    vertex 116.62995671061586 72.7318777991279 -0.24999999999999953
  endloop
endfacet
facet normal 0.0 0.0 1.0
  outer loop
    vertex 116.62995671061586 92.0318777991279 -0.24999999999999953
    vertex 143.3799567106159 72.7318777991279 -0.24999999999999953
    vertex 122.95213925131068 88.75406033982267 -0.24999999999999953
  endloop
endfacet
facet normal 0.0 0.0 1.0
  outer loop
    vertex 116.62995671061586 92.0318777991279 -0.24999999999999953
    vertex 122.95213925131068 88.75406033982267 -0.24999999999999953
    vertex 122.77732876645297 88.98187779912789 -0.24999999999999953
  endloop
endfacet
facet normal 0.0 0.0 1.0
  outer loop
    vertex 116.62995671061586 92.0318777991279 -0.24999999999999953
    vertex 122.77732876645297 88.98187779912789 -0.24999999999999953
    vertex 122.6674383016979 89.24717684951511 -0.24999999999999953
  endloop
endfacet
facet normal 0.0 0.0 1.0
  outer loop
    vertex 116.62995671061586 92.0318777991279 -0.24999999999999953
    vertex 122.6674383016979 89.24717684951511 -0.24999999999999953
    vertex 122.62995671061586 89.53187779912788 -0.24999999999999953
  endloop
endfacet
facet normal 0.0 0.0 1.0
  outer loop
    vertex 122.95213925131068 88.75406033982267 -0.24999999999999953
    vertex 143.3799567106159 72.7318777991279 -0.24999999999999953
    vertex 123.1799567106159 88.579249854965 -0.24999999999999953
  endloop
endfacet
facet normal 0.0 0.0 1.0
  outer loop
    vertex 123.1799567106159 88.579249854965 -0.24999999999999953
    vertex 143.3799567106159 72.7318777991279 -0.24999999999999953
    vertex 123.44525576100314 88.46935939020992 -0.24999999999999953
  endloop
endfacet
facet normal 0.0 0.0 1.0
  outer loop
    vertex 123.44525576100314 88.46935939020992 -0.24999999999999953
    vertex 143.3799567106159 72.7318777991279 -0.24999999999999953
    vertex 123.72995671061591 88.4318777991279 -0.24999999999999953
  endloop
endfacet
facet normal 0.0 0.0 1.0
  outer loop
    vertex 123.72995671061591 88.4318777991279 -0.24999999999999953
    vertex 143.3799567106159 72.7318777991279 -0.24999999999999953
    vertex 124.01465766022872 88.46935939021003 -0.24999999999999953
  endloop
endfacet
facet normal 0.0 0.0 1.0
  outer loop
    vertex 124.01465766022872 88.46935939021003 -0.24999999999999953
    vertex 143.3799567106159 72.7318777991279 -0.24999999999999953
    vertex 124.27995671061589 88.57924985496504 -0.24999999999999953
  endloop
endfacet
facet normal 0.0 0.0 1.0
  outer loop
    vertex 124.27995671061589 88.57924985496504 -0.24999999999999953
    vertex 143.3799567106159 72.7318777991279 -0.24999999999999953
    vertex 124.50777416992108 88.75406033982271 -0.24999999999999953
  endloop
endfacet
facet normal 0.0 0.0 1.0
  outer loop
    vertex 124.50777416992108 88.75406033982271 -0.24999999999999953
    vertex 143.3799567106159 72.7318777991279 -0.24999999999999953
    vertex 124.68258465477875 88.98187779912793 -0.24999999999999953
  endloop
endfacet
facet normal 0.0 0.0 1.0
  outer loop
    vertex 124.68258465477875 88.98187779912793 -0.24999999999999953
    vertex 143.3799567106159 72.7318777991279 -0.24999999999999953
    vertex 124.79247511953385 89.24717684951517 -0.24999999999999953
  endloop
endfacet
facet normal 0.0 0.0 1.0
  outer loop
    vertex 124.79247511953385 89.24717684951517 -0.24999999999999953
    vertex 143.3799567106159 72.7318777991279 -0.24999999999999953
    vertex 124.82995671061586 89.53187779912795 -0.24999999999999953
  endloop
endfacet
facet normal 0.0 0.0 1.0
  outer loop
    vertex 124.82995671061586 89.53187779912795 -0.24999999999999953
    vertex 143.3799567106159 72.7318777991279 -0.24999999999999953
    vertex 136.6674383016979 89.24717684951514 -0.24999999999999953
  endloop
endfacet
facet normal 0.0 0.0 1.0
  outer loop
    vertex 124.82995671061586 89.53187779912795 -0.24999999999999953
    vertex 136.6674383016979 89.24717684951514 -0.24999999999999953
    vertex 136.62995671061586 89.5318777991279 -0.24999999999999953
  endloop
endfacet
facet normal 0.0 0.0 1.0
  outer loop
    vertex 136.6674383016979 89.24717684951514 -0.24999999999999953
    vertex 143.3799567106159 72.7318777991279 -0.24999999999999953
    vertex 136.777328766453 88.98187779912791 -0.24999999999999953
  endloop
endfacet
facet normal 0.0 0.0 1.0
  outer loop
    vertex 136.777328766453 88.98187779912791 -0.24999999999999953
    vertex 143.3799567106159 72.7318777991279 -0.24999999999999953
    vertex 136.95213925131065 88.75406033982271 -0.24999999999999953
  endloop
endfacet
facet normal 0.0 0.0 1.0
  outer loop
    vertex 136.95213925131065 88.75406033982271 -0.24999999999999953
    vertex 143.3799567106159 72.7318777991279 -0.24999999999999953
    vertex 137.17995671061587 88.57924985496501 -0.24999999999999953
  endloop
endfacet
facet normal 0.0 0.0 1.0
  outer loop
    vertex 137.17995671061587 88.57924985496501 -0.24999999999999953
    vertex 143.3799567106159 72.7318777991279 -0.24999999999999953
    vertex 137.4452557610031 88.46935939020992 -0.24999999999999953
  endloop
endfacet
facet normal 0.0 0.0 1.0
  outer loop
    vertex 137.4452557610031 88.46935939020992 -0.24999999999999953
    vertex 143.3799567106159 72.7318777991279 -0.24999999999999953
    vertex 137.72995671061585 88.43187779912792 -0.24999999999999953
  endloop
endfacet
facet normal 0.0 0.0 1.0
  outer loop
    vertex 137.72995671061585 88.43187779912792 -0.24999999999999953
    vertex 143.3799567106159 72.7318777991279 -0.24999999999999953
    vertex 138.01465766022864 88.46935939020995 -0.24999999999999953
  endloop
endfacet
facet normal 0.0 0.0 1.0
  outer loop
    vertex 138.01465766022864 88.46935939020995 -0.24999999999999953
    vertex 143.3799567106159 72.7318777991279 -0.24999999999999953
    vertex 138.27995671061586 88.57924985496504 -0.24999999999999953
  endloop
endfacet
facet normal 0.0 0.0 1.0
  outer loop
    vertex 138.27995671061586 88.57924985496504 -0.24999999999999953
    vertex 143.3799567106159 72.7318777991279 -0.24999999999999953
    vertex 138.50777416992105 88.75406033982271 -0.24999999999999953
  endloop
endfacet
facet normal 0.0 0.0 1.0
  outer loop
    vertex 138.50777416992105 88.75406033982271 -0.24999999999999953
    vertex 143.3799567106159 72.7318777991279 -0.24999999999999953
    vertex 138.68258465477876 88.98187779912793 -0.24999999999999953
  endloop
endfacet
facet normal 0.0 0.0 1.0
  outer loop
    vertex 138.68258465477876 88.98187779912793 -0.24999999999999953
    vertex 143.3799567106159 72.7318777991279 -0.24999999999999953
    vertex 138.7924751195338 89.24717684951516 -0.24999999999999953
  endloop
endfacet
facet normal 0.0 0.0 1.0
  outer loop
    vertex 138.7924751195338 89.24717684951516 -0.24999999999999953
    vertex 143.3799567106159 72.7318777991279 -0.24999999999999953
    vertex 138.82995671061585 89.53187779912791 -0.24999999999999953
  endloop
endfacet
facet normal 0.0 0.0 1.0
  outer loop
    vertex 116.62995671061586 92.0318777991279 -0.24999999999999953
    vertex 123.72995671061587 90.6318777991279 -0.24999999999999953
    vertex 143.3799567106159 92.0318777991279 -0.24999999999999953
  endloop
endfacet
facet normal 0.0 0.0 1.0
  outer loop
    vertex 123.72995671061587 90.6318777991279 -0.24999999999999953
    vertex 116.62995671061586 92.0318777991279 -0.24999999999999953
    vertex 123.44525576100307 90.59439620804586 -0.24999999999999953
  endloop
endfacet
facet normal 0.0 0.0 1.0
  outer loop
    vertex 123.44525576100307 90.59439620804586 -0.24999999999999953
    vertex 116.62995671061586 92.0318777991279 -0.24999999999999953
    vertex 123.17995671061583 90.48450574329077 -0.24999999999999953
  endloop
endfacet
facet normal 0.0 0.0 1.0
  outer loop
    vertex 123.17995671061583 90.48450574329077 -0.24999999999999953
    vertex 116.62995671061586 92.0318777991279 -0.24999999999999953
    vertex 122.95213925131067 90.3096952584331 -0.24999999999999953
  endloop
endfacet
facet normal 0.0 0.0 1.0
  outer loop
    vertex 122.95213925131067 90.3096952584331 -0.24999999999999953
    vertex 116.62995671061586 92.0318777991279 -0.24999999999999953
    vertex 122.77732876645297 90.08187779912788 -0.24999999999999953
  endloop
endfacet
facet normal 0.0 0.0 1.0
  outer loop
    vertex 122.77732876645297 90.08187779912788 -0.24999999999999953
    vertex 116.62995671061586 92.0318777991279 -0.24999999999999953
    vertex 122.66743830169789 89.81657874874065 -0.24999999999999953
  endloop
endfacet
facet normal 0.0 0.0 1.0
  outer loop
    vertex 122.66743830169789 89.81657874874065 -0.24999999999999953
    vertex 116.62995671061586 92.0318777991279 -0.24999999999999953
    vertex 122.62995671061586 89.53187779912788 -0.24999999999999953
  endloop
endfacet
facet normal 0.0 0.0 1.0
  outer loop
    vertex 143.3799567106159 92.0318777991279 -0.24999999999999953
    vertex 123.72995671061587 90.6318777991279 -0.24999999999999953
    vertex 124.01465766022862 90.5943962080459 -0.24999999999999953
  endloop
endfacet
facet normal 0.0 0.0 1.0
  outer loop
    vertex 143.3799567106159 92.0318777991279 -0.24999999999999953
    vertex 124.01465766022862 90.5943962080459 -0.24999999999999953
    vertex 124.27995671061582 90.48450574329078 -0.24999999999999953
  endloop
endfacet
facet normal 0.0 0.0 1.0
  outer loop
    vertex 143.3799567106159 92.0318777991279 -0.24999999999999953
    vertex 124.27995671061582 90.48450574329078 -0.24999999999999953
    vertex 124.507774169921 90.30969525843314 -0.24999999999999953
  endloop
endfacet
facet normal 0.0 0.0 1.0
  outer loop
    vertex 143.3799567106159 92.0318777991279 -0.24999999999999953
    vertex 124.507774169921 90.30969525843314 -0.24999999999999953
    vertex 124.68258465477875 90.08187779912794 -0.24999999999999953
  endloop
endfacet
facet normal 0.0 0.0 1.0
  outer loop
    vertex 143.3799567106159 92.0318777991279 -0.24999999999999953
    vertex 124.68258465477875 90.08187779912794 -0.24999999999999953
    vertex 124.79247511953385 89.8165787487407 -0.24999999999999953
  endloop
endfacet
facet normal 0.0 0.0 1.0
  outer loop
    vertex 143.3799567106159 92.0318777991279 -0.24999999999999953
    vertex 124.79247511953385 89.8165787487407 -0.24999999999999953
    vertex 124.82995671061586 89.53187779912795 -0.24999999999999953
  endloop
endfacet
facet normal 0.0 0.0 1.0
  outer loop
    vertex 143.3799567106159 92.0318777991279 -0.24999999999999953
    vertex 124.82995671061586 89.53187779912795 -0.24999999999999953
    vertex 137.44525576100307 90.59439620804588 -0.24999999999999953
  endloop
endfacet
facet normal 0.0 0.0 1.0
  outer loop
    vertex 137.44525576100307 90.59439620804588 -0.24999999999999953
    vertex 124.82995671061586 89.53187779912795 -0.24999999999999953
    vertex 137.17995671061584 90.4845057432908 -0.24999999999999953
  endloop
endfacet
facet normal 0.0 0.0 1.0
  outer loop
    vertex 137.17995671061584 90.4845057432908 -0.24999999999999953
    vertex 124.82995671061586 89.53187779912795 -0.24999999999999953
    vertex 136.95213925131065 90.30969525843312 -0.24999999999999953
  endloop
endfacet
facet normal 0.0 0.0 1.0
  outer loop
    vertex 136.95213925131065 90.30969525843312 -0.24999999999999953
    vertex 124.82995671061586 89.53187779912795 -0.24999999999999953
    vertex 136.777328766453 90.08187779912791 -0.24999999999999953
  endloop
endfacet
facet normal 0.0 0.0 1.0
  outer loop
    vertex 136.777328766453 90.08187779912791 -0.24999999999999953
    vertex 124.82995671061586 89.53187779912795 -0.24999999999999953
    vertex 136.66743830169787 89.81657874874067 -0.24999999999999953
  endloop
endfacet
facet normal 0.0 0.0 1.0
  outer loop
    vertex 136.66743830169787 89.81657874874067 -0.24999999999999953
    vertex 124.82995671061586 89.53187779912795 -0.24999999999999953
    vertex 136.62995671061586 89.5318777991279 -0.24999999999999953
  endloop
endfacet
facet normal 0.0 0.0 1.0
  outer loop
    vertex 143.3799567106159 92.0318777991279 -0.24999999999999953
    vertex 137.44525576100307 90.59439620804588 -0.24999999999999953
    vertex 137.72995671061588 90.63187779912789 -0.24999999999999953
  endloop
endfacet
facet normal 0.0 0.0 1.0
  outer loop
    vertex 143.3799567106159 92.0318777991279 -0.24999999999999953
    vertex 137.72995671061588 90.63187779912789 -0.24999999999999953
    vertex 138.01465766022864 90.59439620804586 -0.24999999999999953
  endloop
endfacet
facet normal 0.0 0.0 1.0
  outer loop
    vertex 143.3799567106159 92.0318777991279 -0.24999999999999953
    vertex 138.01465766022864 90.59439620804586 -0.24999999999999953
    vertex 138.27995671061586 90.48450574329078 -0.24999999999999953
  endloop
endfacet
facet normal 0.0 0.0 1.0
  outer loop
    vertex 143.3799567106159 92.0318777991279 -0.24999999999999953
    vertex 138.27995671061586 90.48450574329078 -0.24999999999999953
    vertex 138.50777416992105 90.30969525843312 -0.24999999999999953
  endloop
endfacet
facet normal 0.0 0.0 1.0
  outer loop
    vertex 143.3799567106159 92.0318777991279 -0.24999999999999953
    vertex 138.50777416992105 90.30969525843312 -0.24999999999999953
    vertex 138.68258465477874 90.08187779912791 -0.24999999999999953
  endloop
endfacet
facet normal 0.0 0.0 1.0
  outer loop
    vertex 143.3799567106159 92.0318777991279 -0.24999999999999953
    vertex 138.68258465477874 90.08187779912791 -0.24999999999999953
    vertex 138.7924751195338 89.8165787487407 -0.24999999999999953
  endloop
endfacet
facet normal 0.0 0.0 1.0
  outer loop
    vertex 143.3799567106159 92.0318777991279 -0.24999999999999953
    vertex 138.7924751195338 89.8165787487407 -0.24999999999999953
    vertex 138.82995671061585 89.53187779912791 -0.24999999999999953
  endloop
endfacet
facet normal 0.0 0.0 1.0
  outer loop
    vertex 143.3799567106159 92.0318777991279 -0.24999999999999953
    vertex 138.82995671061585 89.53187779912791 -0.24999999999999953
    vertex 143.3799567106159 72.7318777991279 -0.24999999999999953
  endloop
endfacet
facet normal -1.1857756732647032e-17 0.5351430166282042 -0.8447614762488083
  outer loop
    vertex 115.62995671061586 93.0318777991279 -0.24999999999999953
    vertex 122.95213925131068 88.75406033982267 -2.959929612229544
    vertex 131.1299567106159 81.9818777991279 -7.250000000000001
  endloop
endfacet
facet normal -1.1857756732647032e-17 0.5351430166282042 -0.8447614762488083
  outer loop
    vertex 122.95213925131068 88.75406033982267 -2.959929612229544
    vertex 115.62995671061586 93.0318777991279 -0.24999999999999953
    vertex 122.777328766453 88.98187779912787 -2.815610859728526
  endloop
endfacet
facet normal -1.1857756732647032e-17 0.5351430166282042 -0.8447614762488083
  outer loop
    vertex 122.777328766453 88.98187779912787 -2.815610859728526
    vertex 115.62995671061586 93.0318777991279 -0.24999999999999953
    vertex 122.6674383016979 89.2471768495151 -2.6475481128768803
  endloop
endfacet
facet normal -1.1857756732647032e-17 0.5351430166282042 -0.8447614762488083
  outer loop
    vertex 122.6674383016979 89.2471768495151 -2.6475481128768803
    vertex 115.62995671061586 93.0318777991279 -0.24999999999999953
    vertex 122.62995671061586 89.5318777991279 -2.4671945701357525
  endloop
endfacet
facet normal -1.1857756732647032e-17 0.5351430166282042 -0.8447614762488083
  outer loop
    vertex 131.1299567106159 81.9818777991279 -7.250000000000001
    vertex 122.95213925131068 88.75406033982267 -2.959929612229544
    vertex 123.1799567106159 88.57924985496497 -3.0706692858950504
  endloop
endfacet
facet normal -1.1857756732647032e-17 0.5351430166282042 -0.8447614762488083
  outer loop
    vertex 131.1299567106159 81.9818777991279 -7.250000000000001
    vertex 123.1799567106159 88.57924985496497 -3.0706692858950504
    vertex 123.44525576100317 88.46935939020992 -3.1402831549706622
  endloop
endfacet
facet normal -1.1857756732647032e-17 0.5351430166282042 -0.8447614762488083
  outer loop
    vertex 131.1299567106159 81.9818777991279 -7.250000000000001
    vertex 123.44525576100317 88.46935939020992 -3.1402831549706622
    vertex 123.72995671061592 88.4318777991279 -3.1640271493212615
  endloop
endfacet
facet normal -1.1857756732647032e-17 0.5351430166282042 -0.8447614762488083
  outer loop
    vertex 131.1299567106159 81.9818777991279 -7.250000000000001
    vertex 123.72995671061592 88.4318777991279 -3.1640271493212615
    vertex 124.01465766022869 88.46935939020997 -3.1402831549706383
  endloop
endfacet
facet normal -1.1857756732647032e-17 0.5351430166282042 -0.8447614762488083
  outer loop
    vertex 131.1299567106159 81.9818777991279 -7.250000000000001
    vertex 124.01465766022869 88.46935939020997 -3.1402831549706383
    vertex 124.27995671061588 88.57924985496504 -3.0706692858950335
  endloop
endfacet
facet normal -1.1857756732647032e-17 0.5351430166282042 -0.8447614762488083
  outer loop
    vertex 131.1299567106159 81.9818777991279 -7.250000000000001
    vertex 124.27995671061588 88.57924985496504 -3.0706692858950335
    vertex 124.5077741699211 88.75406033982274 -2.9599296122295216
  endloop
endfacet
facet normal -1.1857756732647032e-17 0.5351430166282042 -0.8447614762488083
  outer loop
    vertex 131.1299567106159 81.9818777991279 -7.250000000000001
    vertex 124.5077741699211 88.75406033982274 -2.9599296122295216
    vertex 124.68258465477875 88.98187779912794 -2.8156108597284923
  endloop
endfacet
facet normal -1.1857756732647032e-17 0.5351430166282042 -0.8447614762488083
  outer loop
    vertex 131.1299567106159 81.9818777991279 -7.250000000000001
    vertex 124.68258465477875 88.98187779912794 -2.8156108597284923
    vertex 124.79247511953385 89.24717684951518 -2.647548112876835
  endloop
endfacet
facet normal -1.1857756732647032e-17 0.5351430166282042 -0.8447614762488083
  outer loop
    vertex 131.1299567106159 81.9818777991279 -7.250000000000001
    vertex 124.79247511953385 89.24717684951518 -2.647548112876835
    vertex 124.82995671061586 89.53187779912794 -2.46719457013573
  endloop
endfacet
facet normal -1.1857756732647032e-17 0.5351430166282042 -0.8447614762488083
  outer loop
    vertex 115.62995671061586 93.0318777991279 -0.24999999999999953
    vertex 122.66743830169789 89.81657874874065 -2.2868410273946473
    vertex 122.62995671061586 89.5318777991279 -2.4671945701357525
  endloop
endfacet
facet normal -1.1857756732647032e-17 0.5351430166282042 -0.8447614762488083
  outer loop
    vertex 122.66743830169789 89.81657874874065 -2.2868410273946473
    vertex 115.62995671061586 93.0318777991279 -0.24999999999999953
    vertex 122.77732876645297 90.08187779912787 -2.1187782805430015
  endloop
endfacet
facet normal -1.1857756732647032e-17 0.5351430166282042 -0.8447614762488083
  outer loop
    vertex 122.77732876645297 90.08187779912787 -2.1187782805430015
    vertex 115.62995671061586 93.0318777991279 -0.24999999999999953
    vertex 122.95213925131064 90.30969525843308 -1.9744595280419608
  endloop
endfacet
facet normal -1.1857756732647032e-17 0.5351430166282042 -0.8447614762488083
  outer loop
    vertex 122.95213925131064 90.30969525843308 -1.9744595280419608
    vertex 115.62995671061586 93.0318777991279 -0.24999999999999953
    vertex 123.17995671061581 90.48450574329082 -1.8637198543764433
  endloop
endfacet
facet normal -1.1857756732647032e-17 0.5351430166282042 -0.8447614762488083
  outer loop
    vertex 123.17995671061581 90.48450574329082 -1.8637198543764433
    vertex 115.62995671061586 93.0318777991279 -0.24999999999999953
    vertex 123.44525576100314 90.59439620804575 -1.794105985300906
  endloop
endfacet
facet normal -1.1857756732647032e-17 0.5351430166282042 -0.8447614762488083
  outer loop
    vertex 123.44525576100314 90.59439620804575 -1.794105985300906
    vertex 115.62995671061586 93.0318777991279 -0.24999999999999953
    vertex 123.72995671061587 90.63187779912788 -1.7703619909502348
  endloop
endfacet
facet normal -1.1857756732647032e-17 0.5351430166282042 -0.8447614762488083
  outer loop
    vertex 123.72995671061587 90.63187779912788 -1.7703619909502348
    vertex 115.62995671061586 93.0318777991279 -0.24999999999999953
    vertex 144.3799567106159 93.0318777991279 -0.24999999999999953
  endloop
endfacet
facet normal -1.1857756732647032e-17 0.5351430166282042 -0.8447614762488083
  outer loop
    vertex 123.72995671061587 90.63187779912788 -1.7703619909502348
    vertex 144.3799567106159 93.0318777991279 -0.24999999999999953
    vertex 124.01465766022861 90.59439620804586 -1.7941059853008314
  endloop
endfacet
facet normal -1.1857756732647032e-17 0.5351430166282042 -0.8447614762488083
  outer loop
    vertex 124.01465766022861 90.59439620804586 -1.7941059853008314
    vertex 144.3799567106159 93.0318777991279 -0.24999999999999953
    vertex 124.27995671061582 90.48450574329078 -1.8637198543764433
  endloop
endfacet
facet normal -1.1857756732647032e-17 0.5351430166282042 -0.8447614762488083
  outer loop
    vertex 124.27995671061582 90.48450574329078 -1.8637198543764433
    vertex 144.3799567106159 93.0318777991279 -0.24999999999999953
    vertex 124.507774169921 90.30969525843314 -1.9744595280419268
  endloop
endfacet
facet normal -1.1857756732647032e-17 0.5351430166282042 -0.8447614762488083
  outer loop
    vertex 124.507774169921 90.30969525843314 -1.9744595280419268
    vertex 144.3799567106159 93.0318777991279 -0.24999999999999953
    vertex 124.68258465477875 90.08187779912792 -2.118778280542968
  endloop
endfacet
facet normal -1.1857756732647032e-17 0.5351430166282042 -0.8447614762488083
  outer loop
    vertex 124.68258465477875 90.08187779912792 -2.118778280542968
    vertex 144.3799567106159 93.0318777991279 -0.24999999999999953
    vertex 124.79247511953382 89.81657874874067 -2.2868410273946247
  endloop
endfacet
facet normal -1.1857756732647032e-17 0.5351430166282042 -0.8447614762488083
  outer loop
    vertex 124.79247511953382 89.81657874874067 -2.2868410273946247
    vertex 144.3799567106159 93.0318777991279 -0.24999999999999953
    vertex 124.82995671061586 89.53187779912794 -2.46719457013573
  endloop
endfacet
facet normal -1.1857756732647032e-17 0.5351430166282042 -0.8447614762488083
  outer loop
    vertex 124.82995671061586 89.53187779912794 -2.46719457013573
    vertex 144.3799567106159 93.0318777991279 -0.24999999999999953
    vertex 137.4452557610031 90.5943962080459 -1.7941059853008214
  endloop
endfacet
facet normal -1.1857756732647032e-17 0.5351430166282042 -0.8447614762488083
  outer loop
    vertex 124.82995671061586 89.53187779912794 -2.46719457013573
    vertex 137.4452557610031 90.5943962080459 -1.7941059853008214
    vertex 137.1799567106159 90.48450574329081 -1.8637198543764208
  endloop
endfacet
facet normal -1.1857756732647032e-17 0.5351430166282042 -0.8447614762488083
  outer loop
    vertex 124.82995671061586 89.53187779912794 -2.46719457013573
    vertex 137.1799567106159 90.48450574329081 -1.8637198543764208
    vertex 136.95213925131085 90.30969525843297 -1.9744595280420396
  endloop
endfacet
facet normal -1.1857756732647032e-17 0.5351430166282042 -0.8447614762488083
  outer loop
    vertex 124.82995671061586 89.53187779912794 -2.46719457013573
    vertex 136.95213925131085 90.30969525843297 -1.9744595280420396
    vertex 136.77732876645317 90.08187779912778 -2.118778280543058
  endloop
endfacet
facet normal -1.1857756732647032e-17 0.5351430166282042 -0.8447614762488083
  outer loop
    vertex 124.82995671061586 89.53187779912794 -2.46719457013573
    vertex 136.77732876645317 90.08187779912778 -2.118778280543058
    vertex 131.1299567106159 81.9818777991279 -7.250000000000001
  endloop
endfacet
facet normal -1.1857756732647032e-17 0.5351430166282042 -0.8447614762488083
  outer loop
    vertex 131.1299567106159 81.9818777991279 -7.250000000000001
    vertex 136.77732876645317 90.08187779912778 -2.118778280543058
    vertex 136.66743830169764 89.81657874874077 -2.2868410273945683
  endloop
endfacet
facet normal -1.1857756732647032e-17 0.5351430166282042 -0.8447614762488083
  outer loop
    vertex 131.1299567106159 81.9818777991279 -7.250000000000001
    vertex 136.66743830169764 89.81657874874077 -2.2868410273945683
    vertex 135.1299567106159 81.9818777991279 -7.250000000000001
  endloop
endfacet
facet normal -1.1857756732647032e-17 0.5351430166282042 -0.8447614762488083
  outer loop
    vertex 135.1299567106159 81.9818777991279 -7.250000000000001
    vertex 136.66743830169764 89.81657874874077 -2.2868410273945683
    vertex 136.62995671061586 89.53187779912787 -2.4671945701357636
  endloop
endfacet
facet normal -1.1857756732647032e-17 0.5351430166282042 -0.8447614762488083
  outer loop
    vertex 137.4452557610031 90.5943962080459 -1.7941059853008214
    vertex 144.3799567106159 93.0318777991279 -0.24999999999999953
    vertex 137.7299567106159 90.6318777991279 -1.7703619909502208
  endloop
endfacet
facet normal -1.1857756732647032e-17 0.5351430166282042 -0.8447614762488083
  outer loop
    vertex 137.7299567106159 90.6318777991279 -1.7703619909502208
    vertex 144.3799567106159 93.0318777991279 -0.24999999999999953
    vertex 138.01465766022866 90.59439620804582 -1.794105985300861
  endloop
endfacet
facet normal -1.1857756732647032e-17 0.5351430166282042 -0.8447614762488083
  outer loop
    vertex 138.01465766022866 90.59439620804582 -1.794105985300861
    vertex 144.3799567106159 93.0318777991279 -0.24999999999999953
    vertex 138.2799567106159 90.48450574329073 -1.8637198543764883
  endloop
endfacet
facet normal -1.1857756732647032e-17 0.5351430166282042 -0.8447614762488083
  outer loop
    vertex 138.2799567106159 90.48450574329073 -1.8637198543764883
    vertex 144.3799567106159 93.0318777991279 -0.24999999999999953
    vertex 138.50777416992105 90.30969525843311 -1.9744595280419495
  endloop
endfacet
facet normal -1.1857756732647032e-17 0.5351430166282042 -0.8447614762488083
  outer loop
    vertex 138.50777416992105 90.30969525843311 -1.9744595280419495
    vertex 144.3799567106159 93.0318777991279 -0.24999999999999953
    vertex 138.68258465477874 90.08187779912791 -2.11877828054299
  endloop
endfacet
facet normal -1.1857756732647032e-17 0.5351430166282042 -0.8447614762488083
  outer loop
    vertex 138.68258465477874 90.08187779912791 -2.11877828054299
    vertex 144.3799567106159 93.0318777991279 -0.24999999999999953
    vertex 138.7924751195338 89.81657874874071 -2.286841027394602
  endloop
endfacet
facet normal -1.1857756732647032e-17 0.5351430166282042 -0.8447614762488083
  outer loop
    vertex 138.7924751195338 89.81657874874071 -2.286841027394602
    vertex 144.3799567106159 93.0318777991279 -0.24999999999999953
    vertex 138.82995671061585 89.53187779912791 -2.467194570135741
  endloop
endfacet
facet normal -1.1857756732647032e-17 0.5351430166282042 -0.8447614762488083
  outer loop
    vertex 135.1299567106159 81.9818777991279 -7.250000000000001
    vertex 138.2799567106159 88.57924985496496 -3.070669285895073
    vertex 144.3799567106159 93.0318777991279 -0.24999999999999953
  endloop
endfacet
facet normal -1.1857756732647032e-17 0.5351430166282042 -0.8447614762488083
  outer loop
    vertex 138.2799567106159 88.57924985496496 -3.070669285895073
    vertex 135.1299567106159 81.9818777991279 -7.250000000000001
    vertex 138.01465766022864 88.46935939020986 -3.1402831549707004
  endloop
endfacet
facet normal -1.1857756732647032e-17 0.5351430166282042 -0.8447614762488083
  outer loop
    vertex 138.01465766022864 88.46935939020986 -3.1402831549707004
    vertex 135.1299567106159 81.9818777991279 -7.250000000000001
    vertex 137.72995671061585 88.43187779912792 -3.164027149321264
  endloop
endfacet
facet normal -1.1857756732647032e-17 0.5351430166282042 -0.8447614762488083
  outer loop
    vertex 137.72995671061585 88.43187779912792 -3.164027149321264
    vertex 135.1299567106159 81.9818777991279 -7.250000000000001
    vertex 137.4452557610032 88.46935939021016 -3.1402831549705197
  endloop
endfacet
facet normal -1.1857756732647032e-17 0.5351430166282042 -0.8447614762488083
  outer loop
    vertex 137.4452557610032 88.46935939021016 -3.1402831549705197
    vertex 135.1299567106159 81.9818777991279 -7.250000000000001
    vertex 137.17995671061598 88.57924985496525 -3.070669285894898
  endloop
endfacet
facet normal -1.1857756732647032e-17 0.5351430166282042 -0.8447614762488083
  outer loop
    vertex 137.17995671061598 88.57924985496525 -3.070669285894898
    vertex 135.1299567106159 81.9818777991279 -7.250000000000001
    vertex 136.95213925131065 88.75406033982271 -2.959929612229533
  endloop
endfacet
facet normal -1.1857756732647032e-17 0.5351430166282042 -0.8447614762488083
  outer loop
    vertex 136.95213925131065 88.75406033982271 -2.959929612229533
    vertex 135.1299567106159 81.9818777991279 -7.250000000000001
    vertex 136.777328766453 88.9818777991279 -2.8156108597285145
  endloop
endfacet
facet normal -1.1857756732647032e-17 0.5351430166282042 -0.8447614762488083
  outer loop
    vertex 136.777328766453 88.9818777991279 -2.8156108597285145
    vertex 135.1299567106159 81.9818777991279 -7.250000000000001
    vertex 136.6674383016979 89.24717684951511 -2.6475481128768803
  endloop
endfacet
facet normal -1.1857756732647032e-17 0.5351430166282042 -0.8447614762488083
  outer loop
    vertex 136.6674383016979 89.24717684951511 -2.6475481128768803
    vertex 135.1299567106159 81.9818777991279 -7.250000000000001
    vertex 136.62995671061586 89.53187779912787 -2.4671945701357636
  endloop
endfacet
facet normal -1.1857756732647032e-17 0.5351430166282042 -0.8447614762488083
  outer loop
    vertex 144.3799567106159 93.0318777991279 -0.24999999999999953
    vertex 138.2799567106159 88.57924985496496 -3.070669285895073
    vertex 138.50777416992105 88.75406033982271 -2.959929612229533
  endloop
endfacet
facet normal -1.1857756732647032e-17 0.5351430166282042 -0.8447614762488083
  outer loop
    vertex 144.3799567106159 93.0318777991279 -0.24999999999999953
    vertex 138.50777416992105 88.75406033982271 -2.959929612229533
    vertex 138.68258465477876 88.98187779912794 -2.815610859728481
  endloop
endfacet
facet normal -1.1857756732647032e-17 0.5351430166282042 -0.8447614762488083
  outer loop
    vertex 144.3799567106159 93.0318777991279 -0.24999999999999953
    vertex 138.68258465477876 88.98187779912794 -2.815610859728481
    vertex 138.79247511953383 89.24717684951514 -2.647548112876869
  endloop
endfacet
facet normal -1.1857756732647032e-17 0.5351430166282042 -0.8447614762488083
  outer loop
    vertex 144.3799567106159 93.0318777991279 -0.24999999999999953
    vertex 138.79247511953383 89.24717684951514 -2.647548112876869
    vertex 138.82995671061585 89.53187779912791 -2.467194570135741
  endloop
endfacet
facet normal -0.4115867224264975 5.919794447507464e-18 -0.9113705996586753
  outer loop
    vertex 131.1299567106159 81.9818777991279 -7.250000000000001
    vertex 115.62995671061586 71.7318777991279 -0.24999999999999953
    vertex 115.62995671061586 93.0318777991279 -0.24999999999999953
  endloop
endfacet
facet normal -0.4115867224264975 5.919794447507464e-18 -0.9113705996586753
  outer loop
    vertex 115.62995671061586 71.7318777991279 -0.24999999999999953
    vertex 131.1299567106159 81.9818777991279 -7.250000000000001
    vertex 131.1299567106159 78.9818777991279 -7.250000000000001
  endloop
endfacet
facet normal 0.6034426701855369 6.042860151821177e-18 -0.7974063856023158
  outer loop
    vertex 144.3799567106159 93.0318777991279 -0.24999999999999953
    vertex 135.1299567106159 78.9818777991279 -7.250000000000001
    vertex 135.1299567106159 81.9818777991279 -7.250000000000001
  endloop
endfacet
facet normal 0.6034426701855369 6.042860151821177e-18 -0.7974063856023158
  outer loop
    vertex 135.1299567106159 78.9818777991279 -7.250000000000001
    vertex 144.3799567106159 93.0318777991279 -0.24999999999999953
    vertex 144.3799567106159 71.7318777991279 -0.24999999999999953
  endloop
endfacet
facet normal -1.0 0.0 0.0
  outer loop
    vertex 135.1299567106159 81.9818777991279 -1.750000000000001
    vertex 135.1299567106159 78.9818777991279 -7.250000000000001
    vertex 135.1299567106159 78.9818777991279 -1.750000000000001
  endloop
endfacet
facet normal -1.0 0.0 0.0
  outer loop
    vertex 135.1299567106159 78.9818777991279 -7.250000000000001
    vertex 135.1299567106159 81.9818777991279 -1.750000000000001
    vertex 135.1299567106159 81.9818777991279 -7.250000000000001
  endloop
endfacet
facet normal 1.0 0.0 0.0
  outer loop
    vertex 131.1299567106159 81.9818777991279 -7.250000000000001
    vertex 131.1299567106159 78.9818777991279 -1.750000000000001
    vertex 131.1299567106159 78.9818777991279 -7.250000000000001
  endloop
endfacet
facet normal 1.0 0.0 0.0
  outer loop
    vertex 131.1299567106159 78.9818777991279 -1.750000000000001
    vertex 131.1299567106159 81.9818777991279 -7.250000000000001
    vertex 131.1299567106159 81.9818777991279 -1.750000000000001
  endloop
endfacet
facet normal 0.6087614290088208 -0.7933533402911583 -5.18874047329557e-16
  outer loop
    vertex 123.17995671061581 90.48450574329082 -1.8637198543764433
    vertex 122.95213925131067 90.3096952584331 -0.24999999999999953
    vertex 122.95213925131064 90.30969525843308 -1.9744595280419608
  endloop
endfacet
facet normal 0.6087614290088208 -0.7933533402911583 -5.18874047329557e-16
  outer loop
    vertex 122.95213925131067 90.3096952584331 -0.24999999999999953
    vertex 123.17995671061581 90.48450574329082 -1.8637198543764433
    vertex 123.17995671061583 90.48450574329077 -0.24999999999999953
  endloop
endfacet
facet normal 0.793353340291239 -0.6087614290087157 1.3300876223961934e-16
  outer loop
    vertex 122.95213925131064 90.30969525843308 -1.9744595280419608
    vertex 122.77732876645297 90.08187779912788 -0.24999999999999953
    vertex 122.77732876645297 90.08187779912787 -2.1187782805430015
  endloop
endfacet
facet normal 0.793353340291239 -0.6087614290087157 1.3300876223961934e-16
  outer loop
    vertex 122.77732876645297 90.08187779912788 -0.24999999999999953
    vertex 122.95213925131064 90.30969525843308 -1.9744595280419608
    vertex 122.95213925131067 90.3096952584331 -0.24999999999999953
  endloop
endfacet
facet normal 0.9238795325112888 -0.38268343236508473 1.3326348255694275e-16
  outer loop
    vertex 122.77732876645297 90.08187779912787 -2.1187782805430015
    vertex 122.66743830169789 89.81657874874065 -0.24999999999999953
    vertex 122.66743830169789 89.81657874874065 -2.2868410273946473
  endloop
endfacet
facet normal 0.9238795325112888 -0.38268343236508473 1.3326348255694275e-16
  outer loop
    vertex 122.66743830169789 89.81657874874065 -0.24999999999999953
    vertex 122.77732876645297 90.08187779912787 -2.1187782805430015
    vertex 122.77732876645297 90.08187779912788 -0.24999999999999953
  endloop
endfacet
facet normal 0.991444861373814 -0.13052619222002418 -8.198262630667278e-17
  outer loop
    vertex 122.62995671061586 89.5318777991279 -2.4671945701357525
    vertex 122.66743830169789 89.81657874874065 -0.24999999999999953
    vertex 122.62995671061586 89.53187779912788 -0.24999999999999953
  endloop
endfacet
facet normal 0.991444861373814 -0.13052619222002418 -8.198262630667278e-17
  outer loop
    vertex 122.66743830169789 89.81657874874065 -0.24999999999999953
    vertex 122.62995671061586 89.5318777991279 -2.4671945701357525
    vertex 122.66743830169789 89.81657874874065 -2.2868410273946473
  endloop
endfacet
facet normal 0.9914448613738046 0.13052619222009637 -1.8684604610178133e-17
  outer loop
    vertex 122.62995671061586 89.5318777991279 -2.4671945701357525
    vertex 122.6674383016979 89.24717684951511 -0.24999999999999953
    vertex 122.6674383016979 89.2471768495151 -2.6475481128768803
  endloop
endfacet
facet normal 0.9914448613738046 0.13052619222009637 -1.8684604610178133e-17
  outer loop
    vertex 122.6674383016979 89.24717684951511 -0.24999999999999953
    vertex 122.62995671061586 89.5318777991279 -2.4671945701357525
    vertex 122.62995671061586 89.53187779912788 -0.24999999999999953
  endloop
endfacet
facet normal 0.9238795325113095 0.3826834323650352 9.598146339472555e-16
  outer loop
    vertex 122.6674383016979 89.2471768495151 -2.6475481128768803
    vertex 122.77732876645297 88.98187779912789 -0.24999999999999953
    vertex 122.777328766453 88.98187779912787 -2.815610859728526
  endloop
endfacet
facet normal 0.9238795325113095 0.3826834323650352 9.598146339472555e-16
  outer loop
    vertex 122.77732876645297 88.98187779912789 -0.24999999999999953
    vertex 122.6674383016979 89.2471768495151 -2.6475481128768803
    vertex 122.6674383016979 89.24717684951511 -0.24999999999999953
  endloop
endfacet
facet normal 0.7933533402911866 0.6087614290087839 7.869272087876988e-16
  outer loop
    vertex 122.777328766453 88.98187779912787 -2.815610859728526
    vertex 122.95213925131068 88.75406033982267 -0.24999999999999953
    vertex 122.95213925131068 88.75406033982267 -2.959929612229544
  endloop
endfacet
facet normal 0.7933533402911866 0.6087614290087839 7.869272087876988e-16
  outer loop
    vertex 122.95213925131068 88.75406033982267 -0.24999999999999953
    vertex 122.777328766453 88.98187779912787 -2.815610859728526
    vertex 122.77732876645297 88.98187779912789 -0.24999999999999953
  endloop
endfacet
facet normal 0.6087614290087199 0.7933533402912359 -2.2697591990177303e-15
  outer loop
    vertex 122.95213925131068 88.75406033982267 -2.959929612229544
    vertex 123.1799567106159 88.579249854965 -0.24999999999999953
    vertex 123.1799567106159 88.57924985496497 -3.0706692858950504
  endloop
endfacet
facet normal 0.6087614290087199 0.7933533402912359 -2.2697591990177303e-15
  outer loop
    vertex 123.1799567106159 88.579249854965 -0.24999999999999953
    vertex 122.95213925131068 88.75406033982267 -2.959929612229544
    vertex 122.95213925131068 88.75406033982267 -0.24999999999999953
  endloop
endfacet
facet normal 0.38268343236498775 0.9238795325113291 -1.6479731548184703e-15
  outer loop
    vertex 123.1799567106159 88.57924985496497 -3.0706692858950504
    vertex 123.44525576100314 88.46935939020992 -0.24999999999999953
    vertex 123.44525576100317 88.46935939020992 -3.1402831549706622
  endloop
endfacet
facet normal 0.38268343236498775 0.9238795325113291 -1.6479731548184703e-15
  outer loop
    vertex 123.44525576100314 88.46935939020992 -0.24999999999999953
    vertex 123.1799567106159 88.57924985496497 -3.0706692858950504
    vertex 123.1799567106159 88.579249854965 -0.24999999999999953
  endloop
endfacet
facet normal 0.13052619222002254 0.9914448613738143 1.014525153006617e-15
  outer loop
    vertex 123.44525576100317 88.46935939020992 -3.1402831549706622
    vertex 123.72995671061591 88.4318777991279 -0.24999999999999953
    vertex 123.72995671061592 88.4318777991279 -3.1640271493212615
  endloop
endfacet
facet normal 0.13052619222002254 0.9914448613738143 1.014525153006617e-15
  outer loop
    vertex 123.72995671061591 88.4318777991279 -0.24999999999999953
    vertex 123.44525576100317 88.46935939020992 -3.1402831549706622
    vertex 123.44525576100314 88.46935939020992 -0.24999999999999953
  endloop
endfacet
facet normal -0.13052619222028217 0.9914448613737802 -1.1516751534570211e-14
  outer loop
    vertex 123.72995671061591 88.4318777991279 -0.24999999999999953
    vertex 124.01465766022869 88.46935939020997 -3.1402831549706383
    vertex 123.72995671061592 88.4318777991279 -3.1640271493212615
  endloop
endfacet
facet normal -0.13052619222028217 0.9914448613737802 -1.1516751534570211e-14
  outer loop
    vertex 124.01465766022869 88.46935939020997 -3.1402831549706383
    vertex 123.72995671061591 88.4318777991279 -0.24999999999999953
    vertex 124.01465766022872 88.46935939021003 -0.24999999999999953
  endloop
endfacet
facet normal -0.3826834323649881 0.9238795325113288 -7.24671638940455e-15
  outer loop
    vertex 124.01465766022872 88.46935939021003 -0.24999999999999953
    vertex 124.27995671061588 88.57924985496504 -3.0706692858950335
    vertex 124.01465766022869 88.46935939020997 -3.1402831549706383
  endloop
endfacet
facet normal -0.3826834323649881 0.9238795325113288 -7.24671638940455e-15
  outer loop
    vertex 124.27995671061588 88.57924985496504 -3.0706692858950335
    vertex 124.01465766022872 88.46935939021003 -0.24999999999999953
    vertex 124.27995671061589 88.57924985496504 -0.24999999999999953
  endloop
endfacet
facet normal -0.6087614290087494 0.7933533402912132 1.4785297202680954e-15
  outer loop
    vertex 124.27995671061589 88.57924985496504 -0.24999999999999953
    vertex 124.5077741699211 88.75406033982274 -2.9599296122295216
    vertex 124.27995671061588 88.57924985496504 -3.0706692858950335
  endloop
endfacet
facet normal -0.6087614290087494 0.7933533402912132 1.4785297202680954e-15
  outer loop
    vertex 124.5077741699211 88.75406033982274 -2.9599296122295216
    vertex 124.27995671061589 88.57924985496504 -0.24999999999999953
    vertex 124.50777416992108 88.75406033982271 -0.24999999999999953
  endloop
endfacet
facet normal -0.7933533402912625 0.6087614290086851 1.553190379807133e-16
  outer loop
    vertex 124.68258465477875 88.98187779912793 -0.24999999999999953
    vertex 124.5077741699211 88.75406033982274 -2.9599296122295216
    vertex 124.50777416992108 88.75406033982271 -0.24999999999999953
  endloop
endfacet
facet normal -0.7933533402912625 0.6087614290086851 1.553190379807133e-16
  outer loop
    vertex 124.5077741699211 88.75406033982274 -2.9599296122295216
    vertex 124.68258465477875 88.98187779912793 -0.24999999999999953
    vertex 124.68258465477875 88.98187779912794 -2.8156108597284923
  endloop
endfacet
facet normal -0.9238795325112966 0.38268343236506625 5.946346844428568e-16
  outer loop
    vertex 124.79247511953385 89.24717684951517 -0.24999999999999953
    vertex 124.68258465477875 88.98187779912794 -2.8156108597284923
    vertex 124.68258465477875 88.98187779912793 -0.24999999999999953
  endloop
endfacet
facet normal -0.9238795325112966 0.38268343236506625 5.946346844428568e-16
  outer loop
    vertex 124.68258465477875 88.98187779912794 -2.8156108597284923
    vertex 124.79247511953385 89.24717684951517 -0.24999999999999953
    vertex 124.79247511953385 89.24717684951518 -2.647548112876835
  endloop
endfacet
facet normal -0.9914448613738145 0.13052619222002076 1.8907040379347763e-17
  outer loop
    vertex 124.82995671061586 89.53187779912795 -0.24999999999999953
    vertex 124.79247511953385 89.24717684951518 -2.647548112876835
    vertex 124.79247511953385 89.24717684951517 -0.24999999999999953
  endloop
endfacet
facet normal -0.9914448613738145 0.13052619222002076 1.8907040379347763e-17
  outer loop
    vertex 124.79247511953385 89.24717684951518 -2.647548112876835
    vertex 124.82995671061586 89.53187779912795 -0.24999999999999953
    vertex 124.82995671061586 89.53187779912794 -2.46719457013573
  endloop
endfacet
facet normal -0.9914448613738094 -0.13052619222006032 1.1565488843791728e-15
  outer loop
    vertex 124.82995671061586 89.53187779912795 -0.24999999999999953
    vertex 124.79247511953382 89.81657874874067 -2.2868410273946247
    vertex 124.82995671061586 89.53187779912794 -2.46719457013573
  endloop
endfacet
facet normal -0.9914448613738094 -0.13052619222006032 1.1565488843791728e-15
  outer loop
    vertex 124.79247511953382 89.81657874874067 -2.2868410273946247
    vertex 124.82995671061586 89.53187779912795 -0.24999999999999953
    vertex 124.79247511953385 89.8165787487407 -0.24999999999999953
  endloop
endfacet
facet normal -0.9238795325113076 -0.38268343236503943 1.4244347661782692e-15
  outer loop
    vertex 124.79247511953385 89.8165787487407 -0.24999999999999953
    vertex 124.68258465477875 90.08187779912792 -2.118778280542968
    vertex 124.79247511953382 89.81657874874067 -2.2868410273946247
  endloop
endfacet
facet normal -0.9238795325113076 -0.38268343236503943 1.4244347661782692e-15
  outer loop
    vertex 124.68258465477875 90.08187779912792 -2.118778280542968
    vertex 124.79247511953385 89.8165787487407 -0.24999999999999953
    vertex 124.68258465477875 90.08187779912794 -0.24999999999999953
  endloop
endfacet
facet normal -0.793353340291131 -0.6087614290088562 2.1451718056328832e-16
  outer loop
    vertex 124.68258465477875 90.08187779912794 -0.24999999999999953
    vertex 124.507774169921 90.30969525843314 -1.9744595280419268
    vertex 124.68258465477875 90.08187779912792 -2.118778280542968
  endloop
endfacet
facet normal -0.793353340291131 -0.6087614290088562 2.1451718056328832e-16
  outer loop
    vertex 124.507774169921 90.30969525843314 -1.9744595280419268
    vertex 124.68258465477875 90.08187779912794 -0.24999999999999953
    vertex 124.507774169921 90.30969525843314 -0.24999999999999953
  endloop
endfacet
facet normal -0.6087614290086837 -0.7933533402912635 1.947956312835595e-18
  outer loop
    vertex 124.507774169921 90.30969525843314 -0.24999999999999953
    vertex 124.27995671061582 90.48450574329078 -1.8637198543764433
    vertex 124.507774169921 90.30969525843314 -1.9744595280419268
  endloop
endfacet
facet normal -0.6087614290086837 -0.7933533402912635 1.947956312835595e-18
  outer loop
    vertex 124.27995671061582 90.48450574329078 -1.8637198543764433
    vertex 124.507774169921 90.30969525843314 -0.24999999999999953
    vertex 124.27995671061582 90.48450574329078 -0.24999999999999953
  endloop
endfacet
facet normal -0.38268343236512375 -0.9238795325112726 2.026197034711511e-16
  outer loop
    vertex 124.27995671061582 90.48450574329078 -0.24999999999999953
    vertex 124.01465766022861 90.59439620804586 -1.7941059853008314
    vertex 124.27995671061582 90.48450574329078 -1.8637198543764433
  endloop
endfacet
facet normal -0.38268343236512375 -0.9238795325112726 2.026197034711511e-16
  outer loop
    vertex 124.01465766022861 90.59439620804586 -1.7941059853008314
    vertex 124.27995671061582 90.48450574329078 -0.24999999999999953
    vertex 124.01465766022862 90.5943962080459 -0.24999999999999953
  endloop
endfacet
facet normal -0.13052619222002584 -0.9914448613738138 2.8350847266943694e-16
  outer loop
    vertex 124.01465766022862 90.5943962080459 -0.24999999999999953
    vertex 123.72995671061587 90.63187779912788 -1.7703619909502348
    vertex 124.01465766022861 90.59439620804586 -1.7941059853008314
  endloop
endfacet
facet normal -0.13052619222002584 -0.9914448613738138 2.8350847266943694e-16
  outer loop
    vertex 123.72995671061587 90.63187779912788 -1.7703619909502348
    vertex 124.01465766022862 90.5943962080459 -0.24999999999999953
    vertex 123.72995671061587 90.6318777991279 -0.24999999999999953
  endloop
endfacet
facet normal 0.13052619222020265 -0.9914448613737906 9.351216870705035e-16
  outer loop
    vertex 123.72995671061587 90.63187779912788 -1.7703619909502348
    vertex 123.44525576100307 90.59439620804586 -0.24999999999999953
    vertex 123.44525576100314 90.59439620804575 -1.794105985300906
  endloop
endfacet
facet normal 0.13052619222020265 -0.9914448613737906 9.351216870705035e-16
  outer loop
    vertex 123.44525576100307 90.59439620804586 -0.24999999999999953
    vertex 123.72995671061587 90.63187779912788 -1.7703619909502348
    vertex 123.72995671061587 90.6318777991279 -0.24999999999999953
  endloop
endfacet
facet normal 0.38268343236487273 -0.9238795325113768 2.7004163100161866e-16
  outer loop
    vertex 123.44525576100314 90.59439620804575 -1.794105985300906
    vertex 123.17995671061583 90.48450574329077 -0.24999999999999953
    vertex 123.17995671061581 90.48450574329082 -1.8637198543764433
  endloop
endfacet
facet normal 0.38268343236487273 -0.9238795325113768 2.7004163100161866e-16
  outer loop
    vertex 123.17995671061583 90.48450574329077 -0.24999999999999953
    vertex 123.44525576100314 90.59439620804575 -1.794105985300906
    vertex 123.44525576100307 90.59439620804586 -0.24999999999999953
  endloop
endfacet
facet normal 0.7933533402912436 -0.6087614290087097 1.2699595676519781e-14
  outer loop
    vertex 136.95213925131085 90.30969525843297 -1.9744595280420396
    vertex 136.777328766453 90.08187779912791 -0.24999999999999953
    vertex 136.77732876645317 90.08187779912778 -2.118778280543058
  endloop
endfacet
facet normal 0.7933533402912436 -0.6087614290087097 1.2699595676519781e-14
  outer loop
    vertex 136.777328766453 90.08187779912791 -0.24999999999999953
    vertex 136.95213925131085 90.30969525843297 -1.9744595280420396
    vertex 136.95213925131065 90.30969525843312 -0.24999999999999953
  endloop
endfacet
facet normal 0.923879532511064 -0.38268343236562746 -3.917205783935699e-15
  outer loop
    vertex 136.66743830169764 89.81657874874077 -2.2868410273945683
    vertex 136.777328766453 90.08187779912791 -0.24999999999999953
    vertex 136.66743830169787 89.81657874874067 -0.24999999999999953
  endloop
endfacet
facet normal 0.923879532511064 -0.38268343236562746 -3.917205783935699e-15
  outer loop
    vertex 136.777328766453 90.08187779912791 -0.24999999999999953
    vertex 136.66743830169764 89.81657874874077 -2.2868410273945683
    vertex 136.77732876645317 90.08187779912778 -2.118778280543058
  endloop
endfacet
facet normal 0.9914448613738513 -0.13052619221974093 -1.0168511536296469e-14
  outer loop
    vertex 136.66743830169764 89.81657874874077 -2.2868410273945683
    vertex 136.62995671061586 89.5318777991279 -0.24999999999999953
    vertex 136.62995671061586 89.53187779912787 -2.4671945701357636
  endloop
endfacet
facet normal 0.9914448613738513 -0.13052619221974093 -1.0168511536296469e-14
  outer loop
    vertex 136.62995671061586 89.5318777991279 -0.24999999999999953
    vertex 136.66743830169764 89.81657874874077 -2.2868410273945683
    vertex 136.66743830169787 89.81657874874067 -0.24999999999999953
  endloop
endfacet
facet normal 0.9914448613738035 0.1305261922201049 -3.606337525349183e-16
  outer loop
    vertex 136.62995671061586 89.53187779912787 -2.4671945701357636
    vertex 136.6674383016979 89.24717684951514 -0.24999999999999953
    vertex 136.6674383016979 89.24717684951511 -2.6475481128768803
  endloop
endfacet
facet normal 0.9914448613738035 0.1305261922201049 -3.606337525349183e-16
  outer loop
    vertex 136.6674383016979 89.24717684951514 -0.24999999999999953
    vertex 136.62995671061586 89.53187779912787 -2.4671945701357636
    vertex 136.62995671061586 89.5318777991279 -0.24999999999999953
  endloop
endfacet
facet normal 0.9238795325112851 0.3826834323650943 -1.2175739778808463e-15
  outer loop
    vertex 136.6674383016979 89.24717684951511 -2.6475481128768803
    vertex 136.777328766453 88.98187779912791 -0.24999999999999953
    vertex 136.777328766453 88.9818777991279 -2.8156108597285145
  endloop
endfacet
facet normal 0.9238795325112851 0.3826834323650943 -1.2175739778808463e-15
  outer loop
    vertex 136.777328766453 88.98187779912791 -0.24999999999999953
    vertex 136.6674383016979 89.24717684951511 -2.6475481128768803
    vertex 136.6674383016979 89.24717684951514 -0.24999999999999953
  endloop
endfacet
facet normal 0.7933533402912447 0.6087614290087082 -9.983182714178364e-16
  outer loop
    vertex 136.777328766453 88.9818777991279 -2.8156108597285145
    vertex 136.95213925131065 88.75406033982271 -0.24999999999999953
    vertex 136.95213925131065 88.75406033982271 -2.959929612229533
  endloop
endfacet
facet normal 0.7933533402912447 0.6087614290087082 -9.983182714178364e-16
  outer loop
    vertex 136.95213925131065 88.75406033982271 -0.24999999999999953
    vertex 136.777328766453 88.9818777991279 -2.8156108597285145
    vertex 136.777328766453 88.98187779912791 -0.24999999999999953
  endloop
endfacet
facet normal 0.6087614290085107 0.7933533402913961 2.202845669012778e-14
  outer loop
    vertex 136.95213925131065 88.75406033982271 -2.959929612229533
    vertex 137.17995671061587 88.57924985496501 -0.24999999999999953
    vertex 137.17995671061598 88.57924985496525 -3.070669285894898
  endloop
endfacet
facet normal 0.6087614290085107 0.7933533402913961 2.202845669012778e-14
  outer loop
    vertex 137.17995671061587 88.57924985496501 -0.24999999999999953
    vertex 136.95213925131065 88.75406033982271 -2.959929612229533
    vertex 136.95213925131065 88.75406033982271 -0.24999999999999953
  endloop
endfacet
facet normal 0.38268343236485847 0.9238795325113827 6.437043581469274e-14
  outer loop
    vertex 137.17995671061598 88.57924985496525 -3.070669285894898
    vertex 137.4452557610031 88.46935939020992 -0.24999999999999953
    vertex 137.4452557610032 88.46935939021016 -3.1402831549705197
  endloop
endfacet
facet normal 0.38268343236485847 0.9238795325113827 6.437043581469274e-14
  outer loop
    vertex 137.4452557610031 88.46935939020992 -0.24999999999999953
    vertex 137.17995671061598 88.57924985496525 -3.070669285894898
    vertex 137.17995671061587 88.57924985496501 -0.24999999999999953
  endloop
endfacet
facet normal 0.1305261922204165 0.9914448613737625 4.2821966298308963e-14
  outer loop
    vertex 137.4452557610032 88.46935939021016 -3.1402831549705197
    vertex 137.72995671061585 88.43187779912792 -0.24999999999999953
    vertex 137.72995671061585 88.43187779912792 -3.164027149321264
  endloop
endfacet
facet normal 0.1305261922204165 0.9914448613737625 4.2821966298308963e-14
  outer loop
    vertex 137.72995671061585 88.43187779912792 -0.24999999999999953
    vertex 137.4452557610032 88.46935939021016 -3.1402831549705197
    vertex 137.4452557610031 88.46935939020992 -0.24999999999999953
  endloop
endfacet
facet normal -0.13052619221991524 0.9914448613738284 -1.3431823329935472e-14
  outer loop
    vertex 137.72995671061585 88.43187779912792 -0.24999999999999953
    vertex 138.01465766022864 88.46935939020986 -3.1402831549707004
    vertex 137.72995671061585 88.43187779912792 -3.164027149321264
  endloop
endfacet
facet normal -0.13052619221991524 0.9914448613738284 -1.3431823329935472e-14
  outer loop
    vertex 138.01465766022864 88.46935939020986 -3.1402831549707004
    vertex 137.72995671061585 88.43187779912792 -0.24999999999999953
    vertex 138.01465766022864 88.46935939020995 -0.24999999999999953
  endloop
endfacet
facet normal -0.3826834323651515 0.9238795325112613 -1.8743962732604433e-14
  outer loop
    vertex 138.01465766022864 88.46935939020995 -0.24999999999999953
    vertex 138.2799567106159 88.57924985496496 -3.070669285895073
    vertex 138.01465766022864 88.46935939020986 -3.1402831549707004
  endloop
endfacet
facet normal -0.3826834323651515 0.9238795325112613 -1.8743962732604433e-14
  outer loop
    vertex 138.2799567106159 88.57924985496496 -3.070669285895073
    vertex 138.01465766022864 88.46935939020995 -0.24999999999999953
    vertex 138.27995671061586 88.57924985496504 -0.24999999999999953
  endloop
endfacet
facet normal -0.6087614290088029 0.793353340291172 -6.557738491806298e-15
  outer loop
    vertex 138.27995671061586 88.57924985496504 -0.24999999999999953
    vertex 138.50777416992105 88.75406033982271 -2.959929612229533
    vertex 138.2799567106159 88.57924985496496 -3.070669285895073
  endloop
endfacet
facet normal -0.6087614290088029 0.793353340291172 -6.557738491806298e-15
  outer loop
    vertex 138.50777416992105 88.75406033982271 -2.959929612229533
    vertex 138.27995671061586 88.57924985496504 -0.24999999999999953
    vertex 138.50777416992105 88.75406033982271 -0.24999999999999953
  endloop
endfacet
facet normal -0.7933533402911982 0.6087614290087688 4.990736193243978e-16
  outer loop
    vertex 138.68258465477876 88.98187779912793 -0.24999999999999953
    vertex 138.50777416992105 88.75406033982271 -2.959929612229533
    vertex 138.50777416992105 88.75406033982271 -0.24999999999999953
  endloop
endfacet
facet normal -0.7933533402911982 0.6087614290087688 4.990736193243978e-16
  outer loop
    vertex 138.50777416992105 88.75406033982271 -2.959929612229533
    vertex 138.68258465477876 88.98187779912793 -0.24999999999999953
    vertex 138.68258465477876 88.98187779912794 -2.815610859728481
  endloop
endfacet
facet normal -0.9238795325113275 0.3826834323649917 -1.3013908047023915e-15
  outer loop
    vertex 138.7924751195338 89.24717684951516 -0.24999999999999953
    vertex 138.68258465477876 88.98187779912794 -2.815610859728481
    vertex 138.68258465477876 88.98187779912793 -0.24999999999999953
  endloop
endfacet
facet normal -0.9238795325113275 0.3826834323649917 -1.3013908047023915e-15
  outer loop
    vertex 138.68258465477876 88.98187779912794 -2.815610859728481
    vertex 138.7924751195338 89.24717684951516 -0.24999999999999953
    vertex 138.79247511953383 89.24717684951514 -2.647548112876869
  endloop
endfacet
facet normal -0.9914448613738145 0.13052619222002143 -2.848083866753038e-15
  outer loop
    vertex 138.7924751195338 89.24717684951516 -0.24999999999999953
    vertex 138.82995671061585 89.53187779912791 -2.467194570135741
    vertex 138.79247511953383 89.24717684951514 -2.647548112876869
  endloop
endfacet
facet normal -0.9914448613738145 0.13052619222002143 -2.848083866753038e-15
  outer loop
    vertex 138.82995671061585 89.53187779912791 -2.467194570135741
    vertex 138.7924751195338 89.24717684951516 -0.24999999999999953
    vertex 138.82995671061585 89.53187779912791 -0.24999999999999953
  endloop
endfacet
facet normal -0.9914448613738016 -0.13052619222011844 -1.3455153210638218e-15
  outer loop
    vertex 138.7924751195338 89.8165787487407 -0.24999999999999953
    vertex 138.82995671061585 89.53187779912791 -2.467194570135741
    vertex 138.82995671061585 89.53187779912791 -0.24999999999999953
  endloop
endfacet
facet normal -0.9914448613738016 -0.13052619222011844 -1.3455153210638218e-15
  outer loop
    vertex 138.82995671061585 89.53187779912791 -2.467194570135741
    vertex 138.7924751195338 89.8165787487407 -0.24999999999999953
    vertex 138.7924751195338 89.81657874874071 -2.286841027394602
  endloop
endfacet
facet normal -0.923879532511309 -0.3826834323650362 -5.571290911780927e-17
  outer loop
    vertex 138.68258465477874 90.08187779912791 -0.24999999999999953
    vertex 138.7924751195338 89.81657874874071 -2.286841027394602
    vertex 138.7924751195338 89.8165787487407 -0.24999999999999953
  endloop
endfacet
facet normal -0.923879532511309 -0.3826834323650362 -5.571290911780927e-17
  outer loop
    vertex 138.7924751195338 89.81657874874071 -2.286841027394602
    vertex 138.68258465477874 90.08187779912791 -0.24999999999999953
    vertex 138.68258465477874 90.08187779912791 -2.11877828054299
  endloop
endfacet
facet normal -0.7933533402912547 -0.6087614290086953 3.738927562420664e-16
  outer loop
    vertex 138.68258465477874 90.08187779912791 -0.24999999999999953
    vertex 138.50777416992105 90.30969525843311 -1.9744595280419495
    vertex 138.68258465477874 90.08187779912791 -2.11877828054299
  endloop
endfacet
facet normal -0.7933533402912547 -0.6087614290086953 3.738927562420664e-16
  outer loop
    vertex 138.50777416992105 90.30969525843311 -1.9744595280419495
    vertex 138.68258465477874 90.08187779912791 -0.24999999999999953
    vertex 138.50777416992105 90.30969525843312 -0.24999999999999953
  endloop
endfacet
facet normal -0.6087614290086882 -0.7933533402912601 6.104390753226558e-16
  outer loop
    vertex 138.50777416992105 90.30969525843312 -0.24999999999999953
    vertex 138.2799567106159 90.48450574329073 -1.8637198543764883
    vertex 138.50777416992105 90.30969525843311 -1.9744595280419495
  endloop
endfacet
facet normal -0.6087614290086882 -0.7933533402912601 6.104390753226558e-16
  outer loop
    vertex 138.2799567106159 90.48450574329073 -1.8637198543764883
    vertex 138.50777416992105 90.30969525843312 -0.24999999999999953
    vertex 138.27995671061586 90.48450574329078 -0.24999999999999953
  endloop
endfacet
facet normal -0.3826834323650715 -0.9238795325112943 8.44722336113282e-16
  outer loop
    vertex 138.27995671061586 90.48450574329078 -0.24999999999999953
    vertex 138.01465766022866 90.59439620804582 -1.794105985300861
    vertex 138.2799567106159 90.48450574329073 -1.8637198543764883
  endloop
endfacet
facet normal -0.3826834323650715 -0.9238795325112943 8.44722336113282e-16
  outer loop
    vertex 138.01465766022866 90.59439620804582 -1.794105985300861
    vertex 138.27995671061586 90.48450574329078 -0.24999999999999953
    vertex 138.01465766022864 90.59439620804586 -0.24999999999999953
  endloop
endfacet
facet normal -0.13052619222012546 -0.9914448613738007 2.448957170333873e-16
  outer loop
    vertex 138.01465766022864 90.59439620804586 -0.24999999999999953
    vertex 137.7299567106159 90.6318777991279 -1.7703619909502208
    vertex 138.01465766022866 90.59439620804582 -1.794105985300861
  endloop
endfacet
facet normal -0.13052619222012546 -0.9914448613738007 2.448957170333873e-16
  outer loop
    vertex 137.7299567106159 90.6318777991279 -1.7703619909502208
    vertex 138.01465766022864 90.59439620804586 -0.24999999999999953
    vertex 137.72995671061588 90.63187779912789 -0.24999999999999953
  endloop
endfacet
facet normal 0.13052619222000222 -0.991444861373817 -1.149895849447095e-16
  outer loop
    vertex 137.7299567106159 90.6318777991279 -1.7703619909502208
    vertex 137.44525576100307 90.59439620804588 -0.24999999999999953
    vertex 137.4452557610031 90.5943962080459 -1.7941059853008214
  endloop
endfacet
facet normal 0.13052619222000222 -0.991444861373817 -1.149895849447095e-16
  outer loop
    vertex 137.44525576100307 90.59439620804588 -0.24999999999999953
    vertex 137.7299567106159 90.6318777991279 -1.7703619909502208
    vertex 137.72995671061588 90.63187779912789 -0.24999999999999953
  endloop
endfacet
facet normal 0.3826834323650696 -0.9238795325112951 7.703810173982397e-17
  outer loop
    vertex 137.4452557610031 90.5943962080459 -1.7941059853008214
    vertex 137.17995671061584 90.4845057432908 -0.24999999999999953
    vertex 137.1799567106159 90.48450574329081 -1.8637198543764208
  endloop
endfacet
facet normal 0.3826834323650696 -0.9238795325112951 7.703810173982397e-17
  outer loop
    vertex 137.17995671061584 90.4845057432908 -0.24999999999999953
    vertex 137.4452557610031 90.5943962080459 -1.7941059853008214
    vertex 137.44525576100307 90.59439620804588 -0.24999999999999953
  endloop
endfacet
facet normal 0.6087614290089323 -0.7933533402910727 5.444600130624342e-15
  outer loop
    vertex 137.1799567106159 90.48450574329081 -1.8637198543764208
    vertex 136.95213925131065 90.30969525843312 -0.24999999999999953
    vertex 136.95213925131085 90.30969525843297 -1.9744595280420396
  endloop
endfacet
facet normal 0.6087614290089323 -0.7933533402910727 5.444600130624342e-15
  outer loop
    vertex 136.95213925131065 90.30969525843312 -0.24999999999999953
    vertex 137.1799567106159 90.48450574329081 -1.8637198543764208
    vertex 137.17995671061584 90.4845057432908 -0.24999999999999953
  endloop
endfacet
endsolid joystick
