solid V2-Joystick
facet normal -0.0 -0.0 -1.0
  outer loop
    vertex 28.257145021132196 36.00708240767204 24.937200000000008
    vertex 28.257145021132203 34.97180622726196 24.937200000000008
    vertex 28.18899667371034 35.489444317467 24.937200000000008
  endloop
endfacet
facet normal -0.0 -0.0 -1.0
  outer loop
    vertex 28.257145021132203 34.97180622726196 24.937200000000008
    vertex 28.257145021132196 36.00708240767204 24.937200000000008
    vertex 28.34275238858816 36.21375687522329 24.937200000000008
  endloop
endfacet
facet normal -0.0 -0.0 -1.0
  outer loop
    vertex 28.257145021132203 34.97180622726196 24.937200000000008
    vertex 28.34275238858816 36.21375687522329 24.937200000000008
    vertex 28.34275238858816 34.765131759710734 24.937200000000008
  endloop
endfacet
facet normal -0.0 -0.0 -1.0
  outer loop
    vertex 28.34275238858816 34.765131759710734 24.937200000000008
    vertex 28.34275238858816 36.21375687522329 24.937200000000008
    vertex 28.456945866141453 36.489444317467 24.937200000000008
  endloop
endfacet
facet normal -0.0 -0.0 -1.0
  outer loop
    vertex 28.34275238858816 34.765131759710734 24.937200000000008
    vertex 28.456945866141453 36.489444317467 24.937200000000008
    vertex 28.456945866141467 34.489444317467 24.937200000000008
  endloop
endfacet
facet normal -0.0 -0.0 -1.0
  outer loop
    vertex 28.456945866141467 34.489444317467 24.937200000000008
    vertex 28.456945866141453 36.489444317467 24.937200000000008
    vertex 28.60378044914973 36.680802871653945 24.937200000000008
  endloop
endfacet
facet normal -0.0 -0.0 -1.0
  outer loop
    vertex 28.456945866141467 34.489444317467 24.937200000000008
    vertex 28.60378044914973 36.680802871653945 24.937200000000008
    vertex 28.632436342460274 34.26074067603635 24.937200000000008
  endloop
endfacet
facet normal -0.0 -0.0 -1.0
  outer loop
    vertex 28.632436342460274 34.26074067603635 24.937200000000008
    vertex 28.60378044914973 36.680802871653945 24.937200000000008
    vertex 28.774783111337232 36.9036578798401 24.937200000000008
  endloop
endfacet
facet normal -0.0 -0.0 -1.0
  outer loop
    vertex 28.632436342460274 34.26074067603635 24.937200000000008
    vertex 28.774783111337232 36.9036578798401 24.937200000000008
    vertex 28.774783111337253 34.075230755093905 24.937200000000008
  endloop
endfacet
facet normal -0.0 -0.0 -1.0
  outer loop
    vertex 28.774783111337253 34.075230755093905 24.937200000000008
    vertex 28.774783111337232 36.9036578798401 24.937200000000008
    vertex 28.93899667371034 35.48944431746701 24.93846700000001
  endloop
endfacet
facet normal -0.0 -0.0 -1.0
  outer loop
    vertex 28.93899667371034 35.48944431746701 24.93846700000001
    vertex 28.774783111337232 36.9036578798401 24.937200000000008
    vertex 28.981589390849003 35.81296812384516 24.93846700000001
  endloop
endfacet
facet normal -0.0 -0.0 -1.0
  outer loop
    vertex 28.981589390849003 35.81296812384516 24.93846700000001
    vertex 28.774783111337232 36.9036578798401 24.937200000000008
    vertex 29.18899667371032 37.22149512503588 24.937200000000008
  endloop
endfacet
facet normal -0.0 -0.0 -1.0
  outer loop
    vertex 28.981589390849003 35.81296812384516 24.93846700000001
    vertex 29.18899667371032 37.22149512503588 24.937200000000008
    vertex 29.10646491897979 36.11444431746701 24.93846700000001
  endloop
endfacet
facet normal -0.0 -0.0 -1.0
  outer loop
    vertex 29.10646491897979 36.11444431746701 24.93846700000001
    vertex 29.18899667371032 37.22149512503588 24.937200000000008
    vertex 29.305113197227154 36.373327793950196 24.93846700000001
  endloop
endfacet
facet normal -0.0 -0.0 -1.0
  outer loop
    vertex 29.305113197227154 36.373327793950196 24.93846700000001
    vertex 29.18899667371032 37.22149512503588 24.937200000000008
    vertex 29.671358583505278 37.42129597004514 24.937200000000008
  endloop
endfacet
facet normal -0.0 -0.0 -1.0
  outer loop
    vertex 29.305113197227154 36.373327793950196 24.93846700000001
    vertex 29.671358583505278 37.42129597004514 24.937200000000008
    vertex 29.563996673710335 36.57197607219756 24.93846700000001
  endloop
endfacet
facet normal -0.0 -0.0 -1.0
  outer loop
    vertex 29.563996673710335 36.57197607219756 24.93846700000001
    vertex 29.671358583505278 37.42129597004514 24.937200000000008
    vertex 29.865472867332183 36.696851600328344 24.93846700000001
  endloop
endfacet
facet normal -0.0 -0.0 -1.0
  outer loop
    vertex 29.865472867332183 36.696851600328344 24.93846700000001
    vertex 29.671358583505278 37.42129597004514 24.937200000000008
    vertex 30.188996673710317 37.48944431746701 24.937200000000008
  endloop
endfacet
facet normal -0.0 -0.0 -1.0
  outer loop
    vertex 29.865472867332183 36.696851600328344 24.93846700000001
    vertex 30.188996673710317 37.48944431746701 24.937200000000008
    vertex 30.188996673710335 36.73944431746701 24.93846700000001
  endloop
endfacet
facet normal -0.0 -0.0 -1.0
  outer loop
    vertex 30.188996673710335 36.73944431746701 24.93846700000001
    vertex 30.188996673710317 37.48944431746701 24.937200000000008
    vertex 30.706634763915364 37.42129597004515 24.937200000000008
  endloop
endfacet
facet normal -0.0 -0.0 -1.0
  outer loop
    vertex 30.188996673710335 36.73944431746701 24.93846700000001
    vertex 30.706634763915364 37.42129597004515 24.937200000000008
    vertex 30.512520480088487 36.696851600328344 24.93846700000001
  endloop
endfacet
facet normal -0.0 -0.0 -1.0
  outer loop
    vertex 30.512520480088487 36.696851600328344 24.93846700000001
    vertex 30.706634763915364 37.42129597004515 24.937200000000008
    vertex 30.813996673710335 36.57197607219756 24.93846700000001
  endloop
endfacet
facet normal -0.0 -0.0 -1.0
  outer loop
    vertex 30.813996673710335 36.57197607219756 24.93846700000001
    vertex 30.706634763915364 37.42129597004515 24.937200000000008
    vertex 31.18899667371032 37.221495125035894 24.937200000000008
  endloop
endfacet
facet normal -0.0 -0.0 -1.0
  outer loop
    vertex 30.813996673710335 36.57197607219756 24.93846700000001
    vertex 31.18899667371032 37.221495125035894 24.937200000000008
    vertex 31.072880150193516 36.373327793950196 24.93846700000001
  endloop
endfacet
facet normal -0.0 -0.0 -1.0
  outer loop
    vertex 31.072880150193516 36.373327793950196 24.93846700000001
    vertex 31.18899667371032 37.221495125035894 24.937200000000008
    vertex 31.271528428440885 36.11444431746701 24.93846700000001
  endloop
endfacet
facet normal -0.0 -0.0 -1.0
  outer loop
    vertex 31.271528428440885 36.11444431746701 24.93846700000001
    vertex 31.18899667371032 37.221495125035894 24.937200000000008
    vertex 31.603210236083417 36.90365787984012 24.937200000000008
  endloop
endfacet
facet normal -0.0 -0.0 -1.0
  outer loop
    vertex 31.271528428440885 36.11444431746701 24.93846700000001
    vertex 31.603210236083417 36.90365787984012 24.937200000000008
    vertex 31.396403956571667 35.81296812384516 24.93846700000001
  endloop
endfacet
facet normal -0.0 -0.0 -1.0
  outer loop
    vertex 31.396403956571667 35.81296812384516 24.93846700000001
    vertex 31.603210236083417 36.90365787984012 24.937200000000008
    vertex 31.43899667371033 35.48944431746701 24.93846700000001
  endloop
endfacet
facet normal -0.0 -0.0 -1.0
  outer loop
    vertex 28.774783111337253 34.075230755093905 24.937200000000008
    vertex 28.981589390849003 35.16592051108886 24.93846700000001
    vertex 29.18899667371035 33.75739350989813 24.937200000000008
  endloop
endfacet
facet normal -0.0 -0.0 -1.0
  outer loop
    vertex 28.981589390849003 35.16592051108886 24.93846700000001
    vertex 28.774783111337253 34.075230755093905 24.937200000000008
    vertex 28.93899667371034 35.48944431746701 24.93846700000001
  endloop
endfacet
facet normal -0.0 -0.0 -1.0
  outer loop
    vertex 29.18899667371035 33.75739350989813 24.937200000000008
    vertex 28.981589390849003 35.16592051108886 24.93846700000001
    vertex 29.10646491897979 34.86444431746701 24.93846700000001
  endloop
endfacet
facet normal -0.0 -0.0 -1.0
  outer loop
    vertex 29.18899667371035 33.75739350989813 24.937200000000008
    vertex 29.10646491897979 34.86444431746701 24.93846700000001
    vertex 29.305113197227154 34.605560840983834 24.93846700000001
  endloop
endfacet
facet normal -0.0 -0.0 -1.0
  outer loop
    vertex 29.18899667371035 33.75739350989813 24.937200000000008
    vertex 29.305113197227154 34.605560840983834 24.93846700000001
    vertex 29.671358583505313 33.55759266488887 24.937200000000008
  endloop
endfacet
facet normal -0.0 -0.0 -1.0
  outer loop
    vertex 29.671358583505313 33.55759266488887 24.937200000000008
    vertex 29.305113197227154 34.605560840983834 24.93846700000001
    vertex 29.563996673710335 34.406912562736466 24.93846700000001
  endloop
endfacet
facet normal -0.0 -0.0 -1.0
  outer loop
    vertex 29.671358583505313 33.55759266488887 24.937200000000008
    vertex 29.563996673710335 34.406912562736466 24.93846700000001
    vertex 29.865472867332183 34.28203703460568 24.93846700000001
  endloop
endfacet
facet normal -0.0 -0.0 -1.0
  outer loop
    vertex 29.671358583505313 33.55759266488887 24.937200000000008
    vertex 29.865472867332183 34.28203703460568 24.93846700000001
    vertex 30.188996673710353 33.48944431746702 24.937200000000008
  endloop
endfacet
facet normal -0.0 -0.0 -1.0
  outer loop
    vertex 30.188996673710353 33.48944431746702 24.937200000000008
    vertex 29.865472867332183 34.28203703460568 24.93846700000001
    vertex 30.188996673710335 34.23944431746701 24.93846700000001
  endloop
endfacet
facet normal -0.0 -0.0 -1.0
  outer loop
    vertex 30.188996673710353 33.48944431746702 24.937200000000008
    vertex 30.188996673710335 34.23944431746701 24.93846700000001
    vertex 30.51252048008848 34.28203703460568 24.93846700000001
  endloop
endfacet
facet normal -0.0 -0.0 -1.0
  outer loop
    vertex 30.188996673710353 33.48944431746702 24.937200000000008
    vertex 30.51252048008848 34.28203703460568 24.93846700000001
    vertex 30.706634763915392 33.55759266488888 24.937200000000008
  endloop
endfacet
facet normal -0.0 -0.0 -1.0
  outer loop
    vertex 30.706634763915392 33.55759266488888 24.937200000000008
    vertex 30.51252048008848 34.28203703460568 24.93846700000001
    vertex 30.813996673710335 34.406912562736466 24.93846700000001
  endloop
endfacet
facet normal -0.0 -0.0 -1.0
  outer loop
    vertex 30.706634763915392 33.55759266488888 24.937200000000008
    vertex 30.813996673710335 34.406912562736466 24.93846700000001
    vertex 31.18899667371035 33.757393509898144 24.937200000000008
  endloop
endfacet
facet normal -0.0 -0.0 -1.0
  outer loop
    vertex 31.18899667371035 33.757393509898144 24.937200000000008
    vertex 30.813996673710335 34.406912562736466 24.93846700000001
    vertex 31.072880150193516 34.605560840983834 24.93846700000001
  endloop
endfacet
facet normal -0.0 -0.0 -1.0
  outer loop
    vertex 31.18899667371035 33.757393509898144 24.937200000000008
    vertex 31.072880150193516 34.605560840983834 24.93846700000001
    vertex 31.271528428440885 34.86444431746701 24.93846700000001
  endloop
endfacet
facet normal -0.0 -0.0 -1.0
  outer loop
    vertex 31.18899667371035 33.757393509898144 24.937200000000008
    vertex 31.271528428440885 34.86444431746701 24.93846700000001
    vertex 31.603210236083438 34.07523075509393 24.937200000000008
  endloop
endfacet
facet normal -0.0 -0.0 -1.0
  outer loop
    vertex 31.603210236083438 34.07523075509393 24.937200000000008
    vertex 31.271528428440885 34.86444431746701 24.93846700000001
    vertex 31.396403956571667 35.16592051108886 24.93846700000001
  endloop
endfacet
facet normal -0.0 -0.0 -1.0
  outer loop
    vertex 31.603210236083438 34.07523075509393 24.937200000000008
    vertex 31.396403956571667 35.16592051108886 24.93846700000001
    vertex 31.43899667371033 35.48944431746701 24.93846700000001
  endloop
endfacet
facet normal -0.0 -0.0 -1.0
  outer loop
    vertex 31.603210236083438 34.07523075509393 24.937200000000008
    vertex 31.43899667371033 35.48944431746701 24.93846700000001
    vertex 31.603210236083417 36.90365787984012 24.937200000000008
  endloop
endfacet
facet normal -0.0 -0.0 -1.0
  outer loop
    vertex 31.603210236083438 34.07523075509393 24.937200000000008
    vertex 31.603210236083417 36.90365787984012 24.937200000000008
    vertex 31.921047481279203 36.489444317467026 24.937200000000008
  endloop
endfacet
facet normal -0.0 -0.0 -1.0
  outer loop
    vertex 31.603210236083438 34.07523075509393 24.937200000000008
    vertex 31.921047481279203 36.489444317467026 24.937200000000008
    vertex 31.92104748127922 34.489444317467026 24.937200000000008
  endloop
endfacet
facet normal -0.0 -0.0 -1.0
  outer loop
    vertex 31.92104748127922 34.489444317467026 24.937200000000008
    vertex 31.921047481279203 36.489444317467026 24.937200000000008
    vertex 32.12084832628847 36.00708240767207 24.937200000000008
  endloop
endfacet
facet normal -0.0 -0.0 -1.0
  outer loop
    vertex 31.92104748127922 34.489444317467026 24.937200000000008
    vertex 32.12084832628847 36.00708240767207 24.937200000000008
    vertex 32.120848326288474 34.971806227261986 24.937200000000008
  endloop
endfacet
facet normal -0.0 -0.0 -1.0
  outer loop
    vertex 32.120848326288474 34.971806227261986 24.937200000000008
    vertex 32.12084832628847 36.00708240767207 24.937200000000008
    vertex 32.188996673710335 35.489444317467026 24.937200000000008
  endloop
endfacet
facet normal -0.9238795325112821 -0.38268343236510144 -0.0
  outer loop
    vertex 28.34275238858816 34.765131759710734 27.937200000000008
    vertex 28.456945866141467 34.489444317467 24.937200000000008
    vertex 28.456945866141467 34.489444317467 27.937200000000008
  endloop
endfacet
facet normal -0.9238795325112821 -0.38268343236510144 -0.0
  outer loop
    vertex 28.456945866141467 34.489444317467 24.937200000000008
    vertex 28.34275238858816 34.765131759710734 27.937200000000008
    vertex 28.34275238858816 34.765131759710734 24.937200000000008
  endloop
endfacet
facet normal -0.7933533402912274 -0.6087614290087309 -0.0
  outer loop
    vertex 28.632436342460274 34.26074067603635 27.937200000000008
    vertex 28.774783111337253 34.075230755093905 24.937200000000008
    vertex 28.774783111337253 34.075230755093905 27.937200000000008
  endloop
endfacet
facet normal -0.7933533402912274 -0.6087614290087309 -0.0
  outer loop
    vertex 28.774783111337253 34.075230755093905 24.937200000000008
    vertex 28.632436342460274 34.26074067603635 27.937200000000008
    vertex 28.632436342460274 34.26074067603635 24.937200000000008
  endloop
endfacet
facet normal -0.7933533402912287 -0.6087614290087292 -0.0
  outer loop
    vertex 28.456945866141467 34.489444317467 27.937200000000008
    vertex 28.632436342460274 34.26074067603635 24.937200000000008
    vertex 28.632436342460274 34.26074067603635 27.937200000000008
  endloop
endfacet
facet normal -0.7933533402912287 -0.6087614290087292 -0.0
  outer loop
    vertex 28.632436342460274 34.26074067603635 24.937200000000008
    vertex 28.456945866141467 34.489444317467 27.937200000000008
    vertex 28.456945866141467 34.489444317467 24.937200000000008
  endloop
endfacet
facet normal -0.608761429008718 -0.7933533402912374 -0.0
  outer loop
    vertex 29.18899667371035 33.75739350989813 27.937200000000008
    vertex 28.774783111337253 34.075230755093905 24.937200000000008
    vertex 29.18899667371035 33.75739350989813 24.937200000000008
  endloop
endfacet
facet normal -0.608761429008718 -0.7933533402912374 -0.0
  outer loop
    vertex 28.774783111337253 34.075230755093905 24.937200000000008
    vertex 29.18899667371035 33.75739350989813 27.937200000000008
    vertex 28.774783111337253 34.075230755093905 27.937200000000008
  endloop
endfacet
facet normal -0.38268343236507835 -0.9238795325112916 -0.0
  outer loop
    vertex 29.671358583505313 33.55759266488887 27.937200000000008
    vertex 29.18899667371035 33.75739350989813 24.937200000000008
    vertex 29.671358583505313 33.55759266488887 24.937200000000008
  endloop
endfacet
facet normal -0.38268343236507835 -0.9238795325112916 -0.0
  outer loop
    vertex 29.18899667371035 33.75739350989813 24.937200000000008
    vertex 29.671358583505313 33.55759266488887 27.937200000000008
    vertex 29.18899667371035 33.75739350989813 27.937200000000008
  endloop
endfacet
facet normal 0.38268343236510055 -0.9238795325112824 0.0
  outer loop
    vertex 31.18899667371035 33.757393509898144 27.937200000000008
    vertex 30.706634763915392 33.55759266488888 24.937200000000008
    vertex 31.18899667371035 33.757393509898144 24.937200000000008
  endloop
endfacet
facet normal 0.38268343236510055 -0.9238795325112824 0.0
  outer loop
    vertex 30.706634763915392 33.55759266488888 24.937200000000008
    vertex 31.18899667371035 33.757393509898144 27.937200000000008
    vertex 30.706634763915392 33.55759266488888 27.937200000000008
  endloop
endfacet
facet normal -0.9914448613738117 0.13052619222004153 0.0
  outer loop
    vertex 28.257145021132196 36.00708240767204 27.937200000000008
    vertex 28.18899667371034 35.489444317467 24.937200000000008
    vertex 28.18899667371034 35.489444317467 27.937200000000008
  endloop
endfacet
facet normal -0.9914448613738117 0.13052619222004153 0.0
  outer loop
    vertex 28.18899667371034 35.489444317467 24.937200000000008
    vertex 28.257145021132196 36.00708240767204 27.937200000000008
    vertex 28.257145021132196 36.00708240767204 24.937200000000008
  endloop
endfacet
facet normal 0.60876142900873 -0.7933533402912281 0.0
  outer loop
    vertex 31.603210236083438 34.07523075509393 27.937200000000008
    vertex 31.18899667371035 33.757393509898144 24.937200000000008
    vertex 31.603210236083438 34.07523075509393 24.937200000000008
  endloop
endfacet
facet normal 0.60876142900873 -0.7933533402912281 0.0
  outer loop
    vertex 31.18899667371035 33.757393509898144 24.937200000000008
    vertex 31.603210236083438 34.07523075509393 27.937200000000008
    vertex 31.18899667371035 33.757393509898144 27.937200000000008
  endloop
endfacet
facet normal 0.7933533402912374 -0.608761429008718 0.0
  outer loop
    vertex 31.92104748127922 34.489444317467026 24.937200000000008
    vertex 31.603210236083438 34.07523075509393 27.937200000000008
    vertex 31.603210236083438 34.07523075509393 24.937200000000008
  endloop
endfacet
facet normal 0.7933533402912374 -0.608761429008718 0.0
  outer loop
    vertex 31.603210236083438 34.07523075509393 27.937200000000008
    vertex 31.92104748127922 34.489444317467026 24.937200000000008
    vertex 31.92104748127922 34.489444317467026 27.937200000000008
  endloop
endfacet
facet normal -0.13052619222004153 -0.9914448613738117 -0.0
  outer loop
    vertex 30.188996673710353 33.48944431746702 27.937200000000008
    vertex 29.671358583505313 33.55759266488887 24.937200000000008
    vertex 30.188996673710353 33.48944431746702 24.937200000000008
  endloop
endfacet
facet normal -0.13052619222004153 -0.9914448613738117 -0.0
  outer loop
    vertex 29.671358583505313 33.55759266488887 24.937200000000008
    vertex 30.188996673710353 33.48944431746702 27.937200000000008
    vertex 29.671358583505313 33.55759266488887 27.937200000000008
  endloop
endfacet
facet normal 0.13052619222005216 -0.9914448613738104 0.0
  outer loop
    vertex 30.706634763915392 33.55759266488888 27.937200000000008
    vertex 30.188996673710353 33.48944431746702 24.937200000000008
    vertex 30.706634763915392 33.55759266488888 24.937200000000008
  endloop
endfacet
facet normal 0.13052619222005216 -0.9914448613738104 0.0
  outer loop
    vertex 30.188996673710353 33.48944431746702 24.937200000000008
    vertex 30.706634763915392 33.55759266488888 27.937200000000008
    vertex 30.188996673710353 33.48944431746702 27.937200000000008
  endloop
endfacet
facet normal 0.92387953251129 -0.38268343236508207 0.0
  outer loop
    vertex 32.120848326288474 34.971806227261986 24.937200000000008
    vertex 31.92104748127922 34.489444317467026 27.937200000000008
    vertex 31.92104748127922 34.489444317467026 24.937200000000008
  endloop
endfacet
facet normal 0.92387953251129 -0.38268343236508207 0.0
  outer loop
    vertex 31.92104748127922 34.489444317467026 27.937200000000008
    vertex 32.120848326288474 34.971806227261986 24.937200000000008
    vertex 32.120848326288474 34.971806227261986 27.937200000000008
  endloop
endfacet
facet normal -0.9238795325112923 0.3826834323650763 0.0
  outer loop
    vertex 28.34275238858816 36.21375687522329 27.937200000000008
    vertex 28.257145021132196 36.00708240767204 24.937200000000008
    vertex 28.257145021132196 36.00708240767204 27.937200000000008
  endloop
endfacet
facet normal -0.9238795325112923 0.3826834323650763 0.0
  outer loop
    vertex 28.257145021132196 36.00708240767204 24.937200000000008
    vertex 28.34275238858816 36.21375687522329 27.937200000000008
    vertex 28.34275238858816 36.21375687522329 24.937200000000008
  endloop
endfacet
facet normal -0.923879532511291 0.38268343236507973 0.0
  outer loop
    vertex 28.456945866141453 36.489444317467 27.937200000000008
    vertex 28.34275238858816 36.21375687522329 24.937200000000008
    vertex 28.34275238858816 36.21375687522329 27.937200000000008
  endloop
endfacet
facet normal -0.923879532511291 0.38268343236507973 0.0
  outer loop
    vertex 28.34275238858816 36.21375687522329 24.937200000000008
    vertex 28.456945866141453 36.489444317467 27.937200000000008
    vertex 28.456945866141453 36.489444317467 24.937200000000008
  endloop
endfacet
facet normal -0.9238795325112829 -0.38268343236509944 -0.0
  outer loop
    vertex 28.257145021132203 34.97180622726196 27.937200000000008
    vertex 28.34275238858816 34.765131759710734 24.937200000000008
    vertex 28.34275238858816 34.765131759710734 27.937200000000008
  endloop
endfacet
facet normal -0.9238795325112829 -0.38268343236509944 -0.0
  outer loop
    vertex 28.34275238858816 34.765131759710734 24.937200000000008
    vertex 28.257145021132203 34.97180622726196 27.937200000000008
    vertex 28.257145021132203 34.97180622726196 24.937200000000008
  endloop
endfacet
facet normal -0.9914448613738104 -0.13052619222005216 -0.0
  outer loop
    vertex 28.18899667371034 35.489444317467 27.937200000000008
    vertex 28.257145021132203 34.97180622726196 24.937200000000008
    vertex 28.257145021132203 34.97180622726196 27.937200000000008
  endloop
endfacet
facet normal -0.9914448613738104 -0.13052619222005216 -0.0
  outer loop
    vertex 28.257145021132203 34.97180622726196 24.937200000000008
    vertex 28.18899667371034 35.489444317467 27.937200000000008
    vertex 28.18899667371034 35.489444317467 24.937200000000008
  endloop
endfacet
facet normal 0.9914448613738119 -0.13052619222004014 0.0
  outer loop
    vertex 32.188996673710335 35.489444317467026 24.937200000000008
    vertex 32.120848326288474 34.971806227261986 27.937200000000008
    vertex 32.120848326288474 34.971806227261986 24.937200000000008
  endloop
endfacet
facet normal 0.9914448613738119 -0.13052619222004014 0.0
  outer loop
    vertex 32.120848326288474 34.971806227261986 27.937200000000008
    vertex 32.188996673710335 35.489444317467026 24.937200000000008
    vertex 32.188996673710335 35.489444317467026 27.937200000000008
  endloop
endfacet
facet normal 0.9238795325112824 0.38268343236510055 0.0
  outer loop
    vertex 31.921047481279203 36.489444317467026 24.937200000000008
    vertex 32.12084832628847 36.00708240767207 27.937200000000008
    vertex 32.12084832628847 36.00708240767207 24.937200000000008
  endloop
endfacet
facet normal 0.9238795325112824 0.38268343236510055 0.0
  outer loop
    vertex 32.12084832628847 36.00708240767207 27.937200000000008
    vertex 31.921047481279203 36.489444317467026 24.937200000000008
    vertex 31.921047481279203 36.489444317467026 27.937200000000008
  endloop
endfacet
facet normal -0.60876142900873 0.7933533402912281 0.0
  outer loop
    vertex 28.774783111337232 36.9036578798401 27.937200000000008
    vertex 29.18899667371032 37.22149512503588 24.937200000000008
    vertex 28.774783111337232 36.9036578798401 24.937200000000008
  endloop
endfacet
facet normal -0.60876142900873 0.7933533402912281 0.0
  outer loop
    vertex 29.18899667371032 37.22149512503588 24.937200000000008
    vertex 28.774783111337232 36.9036578798401 27.937200000000008
    vertex 29.18899667371032 37.22149512503588 27.937200000000008
  endloop
endfacet
facet normal -0.7933533402912409 0.6087614290087131 0.0
  outer loop
    vertex 28.774783111337232 36.9036578798401 27.937200000000008
    vertex 28.60378044914973 36.680802871653945 24.937200000000008
    vertex 28.60378044914973 36.680802871653945 27.937200000000008
  endloop
endfacet
facet normal -0.7933533402912409 0.6087614290087131 0.0
  outer loop
    vertex 28.60378044914973 36.680802871653945 24.937200000000008
    vertex 28.774783111337232 36.9036578798401 27.937200000000008
    vertex 28.774783111337232 36.9036578798401 24.937200000000008
  endloop
endfacet
facet normal 0.7933533402912281 0.60876142900873 0.0
  outer loop
    vertex 31.603210236083417 36.90365787984012 24.937200000000008
    vertex 31.921047481279203 36.489444317467026 27.937200000000008
    vertex 31.921047481279203 36.489444317467026 24.937200000000008
  endloop
endfacet
facet normal 0.7933533402912281 0.60876142900873 0.0
  outer loop
    vertex 31.921047481279203 36.489444317467026 27.937200000000008
    vertex 31.603210236083417 36.90365787984012 24.937200000000008
    vertex 31.603210236083417 36.90365787984012 27.937200000000008
  endloop
endfacet
facet normal 0.38268343236508207 0.92387953251129 0.0
  outer loop
    vertex 30.706634763915364 37.42129597004515 27.937200000000008
    vertex 31.18899667371032 37.221495125035894 24.937200000000008
    vertex 30.706634763915364 37.42129597004515 24.937200000000008
  endloop
endfacet
facet normal 0.38268343236508207 0.92387953251129 0.0
  outer loop
    vertex 31.18899667371032 37.221495125035894 24.937200000000008
    vertex 30.706634763915364 37.42129597004515 27.937200000000008
    vertex 31.18899667371032 37.221495125035894 27.937200000000008
  endloop
endfacet
facet normal -0.793353340291233 0.6087614290087235 0.0
  outer loop
    vertex 28.60378044914973 36.680802871653945 27.937200000000008
    vertex 28.456945866141453 36.489444317467 24.937200000000008
    vertex 28.456945866141453 36.489444317467 27.937200000000008
  endloop
endfacet
facet normal -0.793353340291233 0.6087614290087235 0.0
  outer loop
    vertex 28.456945866141453 36.489444317467 24.937200000000008
    vertex 28.60378044914973 36.680802871653945 27.937200000000008
    vertex 28.60378044914973 36.680802871653945 24.937200000000008
  endloop
endfacet
facet normal 0.13052619222005077 0.9914448613738106 0.0
  outer loop
    vertex 30.188996673710317 37.48944431746701 27.937200000000008
    vertex 30.706634763915364 37.42129597004515 24.937200000000008
    vertex 30.188996673710317 37.48944431746701 24.937200000000008
  endloop
endfacet
facet normal 0.13052619222005077 0.9914448613738106 0.0
  outer loop
    vertex 30.706634763915364 37.42129597004515 24.937200000000008
    vertex 30.188996673710317 37.48944431746701 27.937200000000008
    vertex 30.706634763915364 37.42129597004515 27.937200000000008
  endloop
endfacet
facet normal -0.38268343236510055 0.9238795325112824 0.0
  outer loop
    vertex 29.18899667371032 37.22149512503588 27.937200000000008
    vertex 29.671358583505278 37.42129597004514 24.937200000000008
    vertex 29.18899667371032 37.22149512503588 24.937200000000008
  endloop
endfacet
facet normal -0.38268343236510055 0.9238795325112824 0.0
  outer loop
    vertex 29.671358583505278 37.42129597004514 24.937200000000008
    vertex 29.18899667371032 37.22149512503588 27.937200000000008
    vertex 29.671358583505278 37.42129597004514 27.937200000000008
  endloop
endfacet
facet normal 0.9914448613738104 0.13052619222005216 0.0
  outer loop
    vertex 32.12084832628847 36.00708240767207 24.937200000000008
    vertex 32.188996673710335 35.489444317467026 27.937200000000008
    vertex 32.188996673710335 35.489444317467026 24.937200000000008
  endloop
endfacet
facet normal 0.9914448613738104 0.13052619222005216 0.0
  outer loop
    vertex 32.188996673710335 35.489444317467026 27.937200000000008
    vertex 32.12084832628847 36.00708240767207 24.937200000000008
    vertex 32.12084832628847 36.00708240767207 27.937200000000008
  endloop
endfacet
facet normal 0.608761429008718 0.7933533402912374 0.0
  outer loop
    vertex 31.18899667371032 37.221495125035894 27.937200000000008
    vertex 31.603210236083417 36.90365787984012 24.937200000000008
    vertex 31.18899667371032 37.221495125035894 24.937200000000008
  endloop
endfacet
facet normal 0.608761429008718 0.7933533402912374 0.0
  outer loop
    vertex 31.603210236083417 36.90365787984012 24.937200000000008
    vertex 31.18899667371032 37.221495125035894 27.937200000000008
    vertex 31.603210236083417 36.90365787984012 27.937200000000008
  endloop
endfacet
facet normal -0.13052619222006276 0.991444861373809 0.0
  outer loop
    vertex 29.671358583505278 37.42129597004514 27.937200000000008
    vertex 30.188996673710317 37.48944431746701 24.937200000000008
    vertex 29.671358583505278 37.42129597004514 24.937200000000008
  endloop
endfacet
facet normal -0.13052619222006276 0.991444861373809 0.0
  outer loop
    vertex 30.188996673710317 37.48944431746701 24.937200000000008
    vertex 29.671358583505278 37.42129597004514 27.937200000000008
    vertex 30.188996673710317 37.48944431746701 27.937200000000008
  endloop
endfacet
facet normal -0.9914448613738099 0.13052619222005613 0.0
  outer loop
    vertex 31.43899667371033 35.48944431746701 27.937200000000008
    vertex 31.396403956571667 35.16592051108886 24.93846700000001
    vertex 31.396403956571667 35.16592051108886 27.937200000000008
  endloop
endfacet
facet normal -0.9914448613738099 0.13052619222005613 0.0
  outer loop
    vertex 31.396403956571667 35.16592051108886 24.93846700000001
    vertex 31.43899667371033 35.48944431746701 27.937200000000008
    vertex 31.43899667371033 35.48944431746701 24.93846700000001
  endloop
endfacet
facet normal -0.9914448613738099 -0.13052619222005613 -0.0
  outer loop
    vertex 31.396403956571667 35.81296812384516 27.937200000000008
    vertex 31.43899667371033 35.48944431746701 24.93846700000001
    vertex 31.43899667371033 35.48944431746701 27.937200000000008
  endloop
endfacet
facet normal -0.9914448613738099 -0.13052619222005613 -0.0
  outer loop
    vertex 31.43899667371033 35.48944431746701 24.93846700000001
    vertex 31.396403956571667 35.81296812384516 27.937200000000008
    vertex 31.396403956571667 35.81296812384516 24.93846700000001
  endloop
endfacet
facet normal -0.7933533402912287 -0.6087614290087292 -0.0
  outer loop
    vertex 31.072880150193516 36.373327793950196 27.937200000000008
    vertex 31.271528428440885 36.11444431746701 24.93846700000001
    vertex 31.271528428440885 36.11444431746701 27.937200000000008
  endloop
endfacet
facet normal -0.7933533402912287 -0.6087614290087292 -0.0
  outer loop
    vertex 31.271528428440885 36.11444431746701 24.93846700000001
    vertex 31.072880150193516 36.373327793950196 27.937200000000008
    vertex 31.072880150193516 36.373327793950196 24.93846700000001
  endloop
endfacet
facet normal -0.6087614290087292 -0.7933533402912287 -0.0
  outer loop
    vertex 31.072880150193516 36.373327793950196 27.937200000000008
    vertex 30.813996673710335 36.57197607219756 24.93846700000001
    vertex 31.072880150193516 36.373327793950196 24.93846700000001
  endloop
endfacet
facet normal -0.6087614290087292 -0.7933533402912287 -0.0
  outer loop
    vertex 30.813996673710335 36.57197607219756 24.93846700000001
    vertex 31.072880150193516 36.373327793950196 27.937200000000008
    vertex 30.813996673710335 36.57197607219756 27.937200000000008
  endloop
endfacet
facet normal -0.38268343236508284 -0.9238795325112896 -0.0
  outer loop
    vertex 30.813996673710335 36.57197607219756 27.937200000000008
    vertex 30.512520480088487 36.696851600328344 24.93846700000001
    vertex 30.813996673710335 36.57197607219756 24.93846700000001
  endloop
endfacet
facet normal -0.38268343236508284 -0.9238795325112896 -0.0
  outer loop
    vertex 30.512520480088487 36.696851600328344 24.93846700000001
    vertex 30.813996673710335 36.57197607219756 27.937200000000008
    vertex 30.512520480088487 36.696851600328344 27.937200000000008
  endloop
endfacet
facet normal 0.13052619222005613 -0.9914448613738099 0.0
  outer loop
    vertex 30.188996673710335 36.73944431746701 27.937200000000008
    vertex 29.865472867332183 36.696851600328344 24.93846700000001
    vertex 30.188996673710335 36.73944431746701 24.93846700000001
  endloop
endfacet
facet normal 0.13052619222005613 -0.9914448613738099 0.0
  outer loop
    vertex 29.865472867332183 36.696851600328344 24.93846700000001
    vertex 30.188996673710335 36.73944431746701 27.937200000000008
    vertex 29.865472867332183 36.696851600328344 27.937200000000008
  endloop
endfacet
facet normal -0.38268343236507685 0.9238795325112923 0.0
  outer loop
    vertex 30.51252048008848 34.28203703460568 27.937200000000008
    vertex 30.813996673710335 34.406912562736466 24.93846700000001
    vertex 30.51252048008848 34.28203703460568 24.93846700000001
  endloop
endfacet
facet normal -0.38268343236507685 0.9238795325112923 0.0
  outer loop
    vertex 30.813996673710335 34.406912562736466 24.93846700000001
    vertex 30.51252048008848 34.28203703460568 27.937200000000008
    vertex 30.813996673710335 34.406912562736466 27.937200000000008
  endloop
endfacet
facet normal 0.38268343236508284 -0.9238795325112896 0.0
  outer loop
    vertex 29.865472867332183 36.696851600328344 27.937200000000008
    vertex 29.563996673710335 36.57197607219756 24.93846700000001
    vertex 29.865472867332183 36.696851600328344 24.93846700000001
  endloop
endfacet
facet normal 0.38268343236508284 -0.9238795325112896 0.0
  outer loop
    vertex 29.563996673710335 36.57197607219756 24.93846700000001
    vertex 29.865472867332183 36.696851600328344 27.937200000000008
    vertex 29.563996673710335 36.57197607219756 27.937200000000008
  endloop
endfacet
facet normal -0.13052619222005837 0.9914448613738096 0.0
  outer loop
    vertex 30.188996673710335 34.23944431746701 27.937200000000008
    vertex 30.51252048008848 34.28203703460568 24.93846700000001
    vertex 30.188996673710335 34.23944431746701 24.93846700000001
  endloop
endfacet
facet normal -0.13052619222005837 0.9914448613738096 0.0
  outer loop
    vertex 30.51252048008848 34.28203703460568 24.93846700000001
    vertex 30.188996673710335 34.23944431746701 27.937200000000008
    vertex 30.51252048008848 34.28203703460568 27.937200000000008
  endloop
endfacet
facet normal 0.7933533402912287 -0.6087614290087292 0.0
  outer loop
    vertex 29.305113197227154 36.373327793950196 24.93846700000001
    vertex 29.10646491897979 36.11444431746701 27.937200000000008
    vertex 29.10646491897979 36.11444431746701 24.93846700000001
  endloop
endfacet
facet normal 0.7933533402912287 -0.6087614290087292 0.0
  outer loop
    vertex 29.10646491897979 36.11444431746701 27.937200000000008
    vertex 29.305113197227154 36.373327793950196 24.93846700000001
    vertex 29.305113197227154 36.373327793950196 27.937200000000008
  endloop
endfacet
facet normal 0.9238795325112896 -0.38268343236508284 0.0
  outer loop
    vertex 29.10646491897979 36.11444431746701 24.93846700000001
    vertex 28.981589390849003 35.81296812384516 27.937200000000008
    vertex 28.981589390849003 35.81296812384516 24.93846700000001
  endloop
endfacet
facet normal 0.9238795325112896 -0.38268343236508284 0.0
  outer loop
    vertex 28.981589390849003 35.81296812384516 27.937200000000008
    vertex 29.10646491897979 36.11444431746701 24.93846700000001
    vertex 29.10646491897979 36.11444431746701 27.937200000000008
  endloop
endfacet
facet normal 0.9914448613738099 -0.13052619222005613 0.0
  outer loop
    vertex 28.981589390849003 35.81296812384516 24.93846700000001
    vertex 28.93899667371034 35.48944431746701 27.937200000000008
    vertex 28.93899667371034 35.48944431746701 24.93846700000001
  endloop
endfacet
facet normal 0.9914448613738099 -0.13052619222005613 0.0
  outer loop
    vertex 28.93899667371034 35.48944431746701 27.937200000000008
    vertex 28.981589390849003 35.81296812384516 24.93846700000001
    vertex 28.981589390849003 35.81296812384516 27.937200000000008
  endloop
endfacet
facet normal -0.7933533402912287 0.6087614290087292 0.0
  outer loop
    vertex 31.271528428440885 34.86444431746701 27.937200000000008
    vertex 31.072880150193516 34.605560840983834 24.93846700000001
    vertex 31.072880150193516 34.605560840983834 27.937200000000008
  endloop
endfacet
facet normal -0.7933533402912287 0.6087614290087292 0.0
  outer loop
    vertex 31.072880150193516 34.605560840983834 24.93846700000001
    vertex 31.271528428440885 34.86444431746701 27.937200000000008
    vertex 31.271528428440885 34.86444431746701 24.93846700000001
  endloop
endfacet
facet normal -0.9238795325112896 -0.38268343236508284 -0.0
  outer loop
    vertex 31.271528428440885 36.11444431746701 27.937200000000008
    vertex 31.396403956571667 35.81296812384516 24.93846700000001
    vertex 31.396403956571667 35.81296812384516 27.937200000000008
  endloop
endfacet
facet normal -0.9238795325112896 -0.38268343236508284 -0.0
  outer loop
    vertex 31.396403956571667 35.81296812384516 24.93846700000001
    vertex 31.271528428440885 36.11444431746701 27.937200000000008
    vertex 31.271528428440885 36.11444431746701 24.93846700000001
  endloop
endfacet
facet normal -0.6087614290087292 0.7933533402912287 0.0
  outer loop
    vertex 30.813996673710335 34.406912562736466 27.937200000000008
    vertex 31.072880150193516 34.605560840983834 24.93846700000001
    vertex 30.813996673710335 34.406912562736466 24.93846700000001
  endloop
endfacet
facet normal -0.6087614290087292 0.7933533402912287 0.0
  outer loop
    vertex 31.072880150193516 34.605560840983834 24.93846700000001
    vertex 30.813996673710335 34.406912562736466 27.937200000000008
    vertex 31.072880150193516 34.605560840983834 27.937200000000008
  endloop
endfacet
facet normal -0.9238795325112896 0.38268343236508284 0.0
  outer loop
    vertex 31.396403956571667 35.16592051108886 27.937200000000008
    vertex 31.271528428440885 34.86444431746701 24.93846700000001
    vertex 31.271528428440885 34.86444431746701 27.937200000000008
  endloop
endfacet
facet normal -0.9238795325112896 0.38268343236508284 0.0
  outer loop
    vertex 31.271528428440885 34.86444431746701 24.93846700000001
    vertex 31.396403956571667 35.16592051108886 27.937200000000008
    vertex 31.396403956571667 35.16592051108886 24.93846700000001
  endloop
endfacet
facet normal -0.13052619222005613 -0.9914448613738099 -0.0
  outer loop
    vertex 30.512520480088487 36.696851600328344 27.937200000000008
    vertex 30.188996673710335 36.73944431746701 24.93846700000001
    vertex 30.512520480088487 36.696851600328344 24.93846700000001
  endloop
endfacet
facet normal -0.13052619222005613 -0.9914448613738099 -0.0
  outer loop
    vertex 30.188996673710335 36.73944431746701 24.93846700000001
    vertex 30.512520480088487 36.696851600328344 27.937200000000008
    vertex 30.188996673710335 36.73944431746701 27.937200000000008
  endloop
endfacet
facet normal 0.6087614290087292 -0.7933533402912287 0.0
  outer loop
    vertex 29.563996673710335 36.57197607219756 27.937200000000008
    vertex 29.305113197227154 36.373327793950196 24.93846700000001
    vertex 29.563996673710335 36.57197607219756 24.93846700000001
  endloop
endfacet
facet normal 0.6087614290087292 -0.7933533402912287 0.0
  outer loop
    vertex 29.305113197227154 36.373327793950196 24.93846700000001
    vertex 29.563996673710335 36.57197607219756 27.937200000000008
    vertex 29.305113197227154 36.373327793950196 27.937200000000008
  endloop
endfacet
facet normal 0.9914448613738099 0.13052619222005613 0.0
  outer loop
    vertex 28.93899667371034 35.48944431746701 24.93846700000001
    vertex 28.981589390849003 35.16592051108886 27.937200000000008
    vertex 28.981589390849003 35.16592051108886 24.93846700000001
  endloop
endfacet
facet normal 0.9914448613738099 0.13052619222005613 0.0
  outer loop
    vertex 28.981589390849003 35.16592051108886 27.937200000000008
    vertex 28.93899667371034 35.48944431746701 24.93846700000001
    vertex 28.93899667371034 35.48944431746701 27.937200000000008
  endloop
endfacet
facet normal 0.38268343236508284 0.9238795325112896 0.0
  outer loop
    vertex 29.563996673710335 34.406912562736466 27.937200000000008
    vertex 29.865472867332183 34.28203703460568 24.93846700000001
    vertex 29.563996673710335 34.406912562736466 24.93846700000001
  endloop
endfacet
facet normal 0.38268343236508284 0.9238795325112896 0.0
  outer loop
    vertex 29.865472867332183 34.28203703460568 24.93846700000001
    vertex 29.563996673710335 34.406912562736466 27.937200000000008
    vertex 29.865472867332183 34.28203703460568 27.937200000000008
  endloop
endfacet
facet normal 0.7933533402912287 0.6087614290087292 0.0
  outer loop
    vertex 29.10646491897979 34.86444431746701 24.93846700000001
    vertex 29.305113197227154 34.605560840983834 27.937200000000008
    vertex 29.305113197227154 34.605560840983834 24.93846700000001
  endloop
endfacet
facet normal 0.7933533402912287 0.6087614290087292 0.0
  outer loop
    vertex 29.305113197227154 34.605560840983834 27.937200000000008
    vertex 29.10646491897979 34.86444431746701 24.93846700000001
    vertex 29.10646491897979 34.86444431746701 27.937200000000008
  endloop
endfacet
facet normal 0.9238795325112896 0.38268343236508284 0.0
  outer loop
    vertex 28.981589390849003 35.16592051108886 24.93846700000001
    vertex 29.10646491897979 34.86444431746701 27.937200000000008
    vertex 29.10646491897979 34.86444431746701 24.93846700000001
  endloop
endfacet
facet normal 0.9238795325112896 0.38268343236508284 0.0
  outer loop
    vertex 29.10646491897979 34.86444431746701 27.937200000000008
    vertex 28.981589390849003 35.16592051108886 24.93846700000001
    vertex 28.981589390849003 35.16592051108886 27.937200000000008
  endloop
endfacet
facet normal 0.6087614290087292 0.7933533402912287 0.0
  outer loop
    vertex 29.305113197227154 34.605560840983834 27.937200000000008
    vertex 29.563996673710335 34.406912562736466 24.93846700000001
    vertex 29.305113197227154 34.605560840983834 24.93846700000001
  endloop
endfacet
facet normal 0.6087614290087292 0.7933533402912287 0.0
  outer loop
    vertex 29.563996673710335 34.406912562736466 24.93846700000001
    vertex 29.305113197227154 34.605560840983834 27.937200000000008
    vertex 29.563996673710335 34.406912562736466 27.937200000000008
  endloop
endfacet
facet normal 0.13052619222005613 0.9914448613738099 0.0
  outer loop
    vertex 29.865472867332183 34.28203703460568 27.937200000000008
    vertex 30.188996673710335 34.23944431746701 24.93846700000001
    vertex 29.865472867332183 34.28203703460568 24.93846700000001
  endloop
endfacet
facet normal 0.13052619222005613 0.9914448613738099 0.0
  outer loop
    vertex 30.188996673710335 34.23944431746701 24.93846700000001
    vertex 29.865472867332183 34.28203703460568 27.937200000000008
    vertex 30.188996673710335 34.23944431746701 27.937200000000008
  endloop
endfacet
facet normal 0.0 0.0 1.0
  outer loop
    vertex 28.774783111337253 34.075230755093905 27.937200000000008
    vertex 28.981589390849003 35.16592051108886 27.937200000000008
    vertex 28.93899667371034 35.48944431746701 27.937200000000008
  endloop
endfacet
facet normal 0.0 0.0 1.0
  outer loop
    vertex 28.981589390849003 35.16592051108886 27.937200000000008
    vertex 28.774783111337253 34.075230755093905 27.937200000000008
    vertex 29.18899667371035 33.75739350989813 27.937200000000008
  endloop
endfacet
facet normal 0.0 0.0 1.0
  outer loop
    vertex 28.981589390849003 35.16592051108886 27.937200000000008
    vertex 29.18899667371035 33.75739350989813 27.937200000000008
    vertex 29.10646491897979 34.86444431746701 27.937200000000008
  endloop
endfacet
facet normal 0.0 0.0 1.0
  outer loop
    vertex 29.10646491897979 34.86444431746701 27.937200000000008
    vertex 29.18899667371035 33.75739350989813 27.937200000000008
    vertex 29.305113197227154 34.605560840983834 27.937200000000008
  endloop
endfacet
facet normal 0.0 0.0 1.0
  outer loop
    vertex 29.305113197227154 34.605560840983834 27.937200000000008
    vertex 29.18899667371035 33.75739350989813 27.937200000000008
    vertex 29.671358583505313 33.55759266488887 27.937200000000008
  endloop
endfacet
facet normal 0.0 0.0 1.0
  outer loop
    vertex 29.305113197227154 34.605560840983834 27.937200000000008
    vertex 29.671358583505313 33.55759266488887 27.937200000000008
    vertex 29.563996673710335 34.406912562736466 27.937200000000008
  endloop
endfacet
facet normal 0.0 0.0 1.0
  outer loop
    vertex 29.563996673710335 34.406912562736466 27.937200000000008
    vertex 29.671358583505313 33.55759266488887 27.937200000000008
    vertex 29.865472867332183 34.28203703460568 27.937200000000008
  endloop
endfacet
facet normal 0.0 0.0 1.0
  outer loop
    vertex 29.865472867332183 34.28203703460568 27.937200000000008
    vertex 29.671358583505313 33.55759266488887 27.937200000000008
    vertex 30.188996673710353 33.48944431746702 27.937200000000008
  endloop
endfacet
facet normal 0.0 0.0 1.0
  outer loop
    vertex 29.865472867332183 34.28203703460568 27.937200000000008
    vertex 30.188996673710353 33.48944431746702 27.937200000000008
    vertex 30.188996673710335 34.23944431746701 27.937200000000008
  endloop
endfacet
facet normal 0.0 0.0 1.0
  outer loop
    vertex 30.188996673710335 34.23944431746701 27.937200000000008
    vertex 30.188996673710353 33.48944431746702 27.937200000000008
    vertex 30.51252048008848 34.28203703460568 27.937200000000008
  endloop
endfacet
facet normal 0.0 0.0 1.0
  outer loop
    vertex 30.51252048008848 34.28203703460568 27.937200000000008
    vertex 30.188996673710353 33.48944431746702 27.937200000000008
    vertex 30.706634763915392 33.55759266488888 27.937200000000008
  endloop
endfacet
facet normal 0.0 0.0 1.0
  outer loop
    vertex 30.51252048008848 34.28203703460568 27.937200000000008
    vertex 30.706634763915392 33.55759266488888 27.937200000000008
    vertex 30.813996673710335 34.406912562736466 27.937200000000008
  endloop
endfacet
facet normal 0.0 0.0 1.0
  outer loop
    vertex 30.813996673710335 34.406912562736466 27.937200000000008
    vertex 30.706634763915392 33.55759266488888 27.937200000000008
    vertex 31.18899667371035 33.757393509898144 27.937200000000008
  endloop
endfacet
facet normal 0.0 0.0 1.0
  outer loop
    vertex 30.813996673710335 34.406912562736466 27.937200000000008
    vertex 31.18899667371035 33.757393509898144 27.937200000000008
    vertex 31.072880150193516 34.605560840983834 27.937200000000008
  endloop
endfacet
facet normal 0.0 0.0 1.0
  outer loop
    vertex 31.072880150193516 34.605560840983834 27.937200000000008
    vertex 31.18899667371035 33.757393509898144 27.937200000000008
    vertex 31.271528428440885 34.86444431746701 27.937200000000008
  endloop
endfacet
facet normal 0.0 0.0 1.0
  outer loop
    vertex 31.271528428440885 34.86444431746701 27.937200000000008
    vertex 31.18899667371035 33.757393509898144 27.937200000000008
    vertex 31.603210236083438 34.07523075509393 27.937200000000008
  endloop
endfacet
facet normal 0.0 0.0 1.0
  outer loop
    vertex 31.271528428440885 34.86444431746701 27.937200000000008
    vertex 31.603210236083438 34.07523075509393 27.937200000000008
    vertex 31.396403956571667 35.16592051108886 27.937200000000008
  endloop
endfacet
facet normal 0.0 0.0 1.0
  outer loop
    vertex 31.396403956571667 35.16592051108886 27.937200000000008
    vertex 31.603210236083438 34.07523075509393 27.937200000000008
    vertex 31.43899667371033 35.48944431746701 27.937200000000008
  endloop
endfacet
facet normal 0.0 0.0 1.0
  outer loop
    vertex 31.43899667371033 35.48944431746701 27.937200000000008
    vertex 31.603210236083438 34.07523075509393 27.937200000000008
    vertex 31.603210236083417 36.90365787984012 27.937200000000008
  endloop
endfacet
facet normal 0.0 0.0 1.0
  outer loop
    vertex 31.603210236083417 36.90365787984012 27.937200000000008
    vertex 31.603210236083438 34.07523075509393 27.937200000000008
    vertex 31.921047481279203 36.489444317467026 27.937200000000008
  endloop
endfacet
facet normal 0.0 0.0 1.0
  outer loop
    vertex 31.921047481279203 36.489444317467026 27.937200000000008
    vertex 31.603210236083438 34.07523075509393 27.937200000000008
    vertex 31.92104748127922 34.489444317467026 27.937200000000008
  endloop
endfacet
facet normal 0.0 0.0 1.0
  outer loop
    vertex 31.921047481279203 36.489444317467026 27.937200000000008
    vertex 31.92104748127922 34.489444317467026 27.937200000000008
    vertex 32.12084832628847 36.00708240767207 27.937200000000008
  endloop
endfacet
facet normal 0.0 0.0 1.0
  outer loop
    vertex 32.12084832628847 36.00708240767207 27.937200000000008
    vertex 31.92104748127922 34.489444317467026 27.937200000000008
    vertex 32.120848326288474 34.971806227261986 27.937200000000008
  endloop
endfacet
facet normal 0.0 0.0 1.0
  outer loop
    vertex 32.12084832628847 36.00708240767207 27.937200000000008
    vertex 32.120848326288474 34.971806227261986 27.937200000000008
    vertex 32.188996673710335 35.489444317467026 27.937200000000008
  endloop
endfacet
facet normal 0.0 0.0 1.0
  outer loop
    vertex 28.257145021132203 34.97180622726196 27.937200000000008
    vertex 28.257145021132196 36.00708240767204 27.937200000000008
    vertex 28.18899667371034 35.489444317467 27.937200000000008
  endloop
endfacet
facet normal 0.0 0.0 1.0
  outer loop
    vertex 28.257145021132196 36.00708240767204 27.937200000000008
    vertex 28.257145021132203 34.97180622726196 27.937200000000008
    vertex 28.34275238858816 36.21375687522329 27.937200000000008
  endloop
endfacet
facet normal 0.0 0.0 1.0
  outer loop
    vertex 28.34275238858816 36.21375687522329 27.937200000000008
    vertex 28.257145021132203 34.97180622726196 27.937200000000008
    vertex 28.34275238858816 34.765131759710734 27.937200000000008
  endloop
endfacet
facet normal 0.0 0.0 1.0
  outer loop
    vertex 28.34275238858816 36.21375687522329 27.937200000000008
    vertex 28.34275238858816 34.765131759710734 27.937200000000008
    vertex 28.456945866141467 34.489444317467 27.937200000000008
  endloop
endfacet
facet normal 0.0 0.0 1.0
  outer loop
    vertex 28.34275238858816 36.21375687522329 27.937200000000008
    vertex 28.456945866141467 34.489444317467 27.937200000000008
    vertex 28.456945866141453 36.489444317467 27.937200000000008
  endloop
endfacet
facet normal 0.0 0.0 1.0
  outer loop
    vertex 28.456945866141453 36.489444317467 27.937200000000008
    vertex 28.456945866141467 34.489444317467 27.937200000000008
    vertex 28.60378044914973 36.680802871653945 27.937200000000008
  endloop
endfacet
facet normal 0.0 0.0 1.0
  outer loop
    vertex 28.60378044914973 36.680802871653945 27.937200000000008
    vertex 28.456945866141467 34.489444317467 27.937200000000008
    vertex 28.632436342460274 34.26074067603635 27.937200000000008
  endloop
endfacet
facet normal 0.0 0.0 1.0
  outer loop
    vertex 28.60378044914973 36.680802871653945 27.937200000000008
    vertex 28.632436342460274 34.26074067603635 27.937200000000008
    vertex 28.774783111337232 36.9036578798401 27.937200000000008
  endloop
endfacet
facet normal 0.0 0.0 1.0
  outer loop
    vertex 28.774783111337232 36.9036578798401 27.937200000000008
    vertex 28.632436342460274 34.26074067603635 27.937200000000008
    vertex 28.774783111337253 34.075230755093905 27.937200000000008
  endloop
endfacet
facet normal 0.0 0.0 1.0
  outer loop
    vertex 28.774783111337232 36.9036578798401 27.937200000000008
    vertex 28.774783111337253 34.075230755093905 27.937200000000008
    vertex 28.93899667371034 35.48944431746701 27.937200000000008
  endloop
endfacet
facet normal 0.0 0.0 1.0
  outer loop
    vertex 28.774783111337232 36.9036578798401 27.937200000000008
    vertex 28.93899667371034 35.48944431746701 27.937200000000008
    vertex 28.981589390849003 35.81296812384516 27.937200000000008
  endloop
endfacet
facet normal 0.0 0.0 1.0
  outer loop
    vertex 28.774783111337232 36.9036578798401 27.937200000000008
    vertex 28.981589390849003 35.81296812384516 27.937200000000008
    vertex 29.18899667371032 37.22149512503588 27.937200000000008
  endloop
endfacet
facet normal 0.0 0.0 1.0
  outer loop
    vertex 29.18899667371032 37.22149512503588 27.937200000000008
    vertex 28.981589390849003 35.81296812384516 27.937200000000008
    vertex 29.10646491897979 36.11444431746701 27.937200000000008
  endloop
endfacet
facet normal 0.0 0.0 1.0
  outer loop
    vertex 29.18899667371032 37.22149512503588 27.937200000000008
    vertex 29.10646491897979 36.11444431746701 27.937200000000008
    vertex 29.305113197227154 36.373327793950196 27.937200000000008
  endloop
endfacet
facet normal 0.0 0.0 1.0
  outer loop
    vertex 29.18899667371032 37.22149512503588 27.937200000000008
    vertex 29.305113197227154 36.373327793950196 27.937200000000008
    vertex 29.671358583505278 37.42129597004514 27.937200000000008
  endloop
endfacet
facet normal 0.0 0.0 1.0
  outer loop
    vertex 29.671358583505278 37.42129597004514 27.937200000000008
    vertex 29.305113197227154 36.373327793950196 27.937200000000008
    vertex 29.563996673710335 36.57197607219756 27.937200000000008
  endloop
endfacet
facet normal 0.0 0.0 1.0
  outer loop
    vertex 29.671358583505278 37.42129597004514 27.937200000000008
    vertex 29.563996673710335 36.57197607219756 27.937200000000008
    vertex 29.865472867332183 36.696851600328344 27.937200000000008
  endloop
endfacet
facet normal 0.0 0.0 1.0
  outer loop
    vertex 29.671358583505278 37.42129597004514 27.937200000000008
    vertex 29.865472867332183 36.696851600328344 27.937200000000008
    vertex 30.188996673710317 37.48944431746701 27.937200000000008
  endloop
endfacet
facet normal 0.0 0.0 1.0
  outer loop
    vertex 30.188996673710317 37.48944431746701 27.937200000000008
    vertex 29.865472867332183 36.696851600328344 27.937200000000008
    vertex 30.188996673710335 36.73944431746701 27.937200000000008
  endloop
endfacet
facet normal 0.0 0.0 1.0
  outer loop
    vertex 30.188996673710317 37.48944431746701 27.937200000000008
    vertex 30.188996673710335 36.73944431746701 27.937200000000008
    vertex 30.706634763915364 37.42129597004515 27.937200000000008
  endloop
endfacet
facet normal 0.0 0.0 1.0
  outer loop
    vertex 30.706634763915364 37.42129597004515 27.937200000000008
    vertex 30.188996673710335 36.73944431746701 27.937200000000008
    vertex 30.512520480088487 36.696851600328344 27.937200000000008
  endloop
endfacet
facet normal 0.0 0.0 1.0
  outer loop
    vertex 30.706634763915364 37.42129597004515 27.937200000000008
    vertex 30.512520480088487 36.696851600328344 27.937200000000008
    vertex 30.813996673710335 36.57197607219756 27.937200000000008
  endloop
endfacet
facet normal 0.0 0.0 1.0
  outer loop
    vertex 30.706634763915364 37.42129597004515 27.937200000000008
    vertex 30.813996673710335 36.57197607219756 27.937200000000008
    vertex 31.18899667371032 37.221495125035894 27.937200000000008
  endloop
endfacet
facet normal 0.0 0.0 1.0
  outer loop
    vertex 31.18899667371032 37.221495125035894 27.937200000000008
    vertex 30.813996673710335 36.57197607219756 27.937200000000008
    vertex 31.072880150193516 36.373327793950196 27.937200000000008
  endloop
endfacet
facet normal 0.0 0.0 1.0
  outer loop
    vertex 31.18899667371032 37.221495125035894 27.937200000000008
    vertex 31.072880150193516 36.373327793950196 27.937200000000008
    vertex 31.271528428440885 36.11444431746701 27.937200000000008
  endloop
endfacet
facet normal 0.0 0.0 1.0
  outer loop
    vertex 31.18899667371032 37.221495125035894 27.937200000000008
    vertex 31.271528428440885 36.11444431746701 27.937200000000008
    vertex 31.603210236083417 36.90365787984012 27.937200000000008
  endloop
endfacet
facet normal 0.0 0.0 1.0
  outer loop
    vertex 31.603210236083417 36.90365787984012 27.937200000000008
    vertex 31.271528428440885 36.11444431746701 27.937200000000008
    vertex 31.396403956571667 35.81296812384516 27.937200000000008
  endloop
endfacet
facet normal 0.0 0.0 1.0
  outer loop
    vertex 31.603210236083417 36.90365787984012 27.937200000000008
    vertex 31.396403956571667 35.81296812384516 27.937200000000008
    vertex 31.43899667371033 35.48944431746701 27.937200000000008
  endloop
endfacet
endsolid V2-Joystick
