solid V2-Joystick
facet normal 0.1305261922200731 -0.9914448613738077 0.0
  outer loop
    vertex 16.18899667371033 36.73944431746702 27.937200000000008
    vertex 15.86547286733218 36.696851600328344 24.937200000000008
    vertex 16.18899667371033 36.73944431746702 24.937200000000008
  endloop
endfacet
facet normal 0.1305261922200731 -0.9914448613738077 0.0
  outer loop
    vertex 15.86547286733218 36.696851600328344 24.937200000000008
    vertex 16.18899667371033 36.73944431746702 27.937200000000008
    vertex 15.86547286733218 36.696851600328344 27.937200000000008
  endloop
endfacet
facet normal -0.13052619222005613 -0.9914448613738099 -0.0
  outer loop
    vertex 16.51252048008848 36.69685160032835 27.937200000000008
    vertex 16.18899667371033 36.73944431746702 24.937200000000008
    vertex 16.51252048008848 36.69685160032835 24.937200000000008
  endloop
endfacet
facet normal -0.13052619222005613 -0.9914448613738099 -0.0
  outer loop
    vertex 16.18899667371033 36.73944431746702 24.937200000000008
    vertex 16.51252048008848 36.69685160032835 27.937200000000008
    vertex 16.18899667371033 36.73944431746702 27.937200000000008
  endloop
endfacet
facet normal 0.9238795325112866 -0.3826834323650902 0.0
  outer loop
    vertex 15.106464918979785 36.114444317467004 24.937200000000008
    vertex 14.981589390848999 35.81296812384516 27.937200000000008
    vertex 14.981589390848999 35.81296812384516 24.937200000000008
  endloop
endfacet
facet normal 0.9238795325112866 -0.3826834323650902 0.0
  outer loop
    vertex 14.981589390848999 35.81296812384516 27.937200000000008
    vertex 15.106464918979785 36.114444317467004 24.937200000000008
    vertex 15.106464918979785 36.114444317467004 27.937200000000008
  endloop
endfacet
facet normal 0.608761429008725 -0.7933533402912317 0.0
  outer loop
    vertex 15.563996673710331 36.57197607219756 27.937200000000008
    vertex 15.305113197227145 36.373327793950196 24.937200000000008
    vertex 15.563996673710331 36.57197607219756 24.937200000000008
  endloop
endfacet
facet normal 0.608761429008725 -0.7933533402912317 0.0
  outer loop
    vertex 15.305113197227145 36.373327793950196 24.937200000000008
    vertex 15.563996673710331 36.57197607219756 27.937200000000008
    vertex 15.305113197227145 36.373327793950196 27.937200000000008
  endloop
endfacet
facet normal -0.3826834323650798 -0.9238795325112908 -0.0
  outer loop
    vertex 16.81399667371033 36.571976072197565 27.937200000000008
    vertex 16.51252048008848 36.69685160032835 24.937200000000008
    vertex 16.81399667371033 36.571976072197565 24.937200000000008
  endloop
endfacet
facet normal -0.3826834323650798 -0.9238795325112908 -0.0
  outer loop
    vertex 16.51252048008848 36.69685160032835 24.937200000000008
    vertex 16.81399667371033 36.571976072197565 27.937200000000008
    vertex 16.51252048008848 36.69685160032835 27.937200000000008
  endloop
endfacet
facet normal -0.7933533402912287 -0.6087614290087292 -0.0
  outer loop
    vertex 17.072880150193516 36.3733277939502 27.937200000000008
    vertex 17.271528428440885 36.114444317467026 24.937200000000008
    vertex 17.271528428440885 36.114444317467026 27.937200000000008
  endloop
endfacet
facet normal -0.7933533402912287 -0.6087614290087292 -0.0
  outer loop
    vertex 17.271528428440885 36.114444317467026 24.937200000000008
    vertex 17.072880150193516 36.3733277939502 27.937200000000008
    vertex 17.072880150193516 36.3733277939502 24.937200000000008
  endloop
endfacet
facet normal -0.9238795325112836 -0.3826834323650976 -0.0
  outer loop
    vertex 17.271528428440885 36.114444317467026 27.937200000000008
    vertex 17.39640395657167 35.812968123845174 24.937200000000008
    vertex 17.39640395657167 35.812968123845174 27.937200000000008
  endloop
endfacet
facet normal -0.9238795325112836 -0.3826834323650976 -0.0
  outer loop
    vertex 17.39640395657167 35.812968123845174 24.937200000000008
    vertex 17.271528428440885 36.114444317467026 27.937200000000008
    vertex 17.271528428440885 36.114444317467026 24.937200000000008
  endloop
endfacet
facet normal -0.6087614290087142 -0.7933533402912402 -0.0
  outer loop
    vertex 17.072880150193516 36.3733277939502 27.937200000000008
    vertex 16.81399667371033 36.571976072197565 24.937200000000008
    vertex 17.072880150193516 36.3733277939502 24.937200000000008
  endloop
endfacet
facet normal -0.6087614290087142 -0.7933533402912402 -0.0
  outer loop
    vertex 16.81399667371033 36.571976072197565 24.937200000000008
    vertex 17.072880150193516 36.3733277939502 27.937200000000008
    vertex 16.81399667371033 36.571976072197565 27.937200000000008
  endloop
endfacet
facet normal 0.38268343236508284 -0.9238795325112896 0.0
  outer loop
    vertex 15.86547286733218 36.696851600328344 27.937200000000008
    vertex 15.563996673710331 36.57197607219756 24.937200000000008
    vertex 15.86547286733218 36.696851600328344 24.937200000000008
  endloop
endfacet
facet normal 0.38268343236508284 -0.9238795325112896 0.0
  outer loop
    vertex 15.563996673710331 36.57197607219756 24.937200000000008
    vertex 15.86547286733218 36.696851600328344 27.937200000000008
    vertex 15.563996673710331 36.57197607219756 27.937200000000008
  endloop
endfacet
facet normal -0.9914448613738099 -0.13052619222005613 -0.0
  outer loop
    vertex 17.39640395657167 35.812968123845174 27.937200000000008
    vertex 17.43899667371034 35.489444317467026 24.937200000000008
    vertex 17.43899667371034 35.489444317467026 27.937200000000008
  endloop
endfacet
facet normal -0.9914448613738099 -0.13052619222005613 -0.0
  outer loop
    vertex 17.43899667371034 35.489444317467026 24.937200000000008
    vertex 17.39640395657167 35.812968123845174 27.937200000000008
    vertex 17.39640395657167 35.812968123845174 24.937200000000008
  endloop
endfacet
facet normal -0.9914448613738113 0.13052619222004538 0.0
  outer loop
    vertex 17.43899667371034 35.489444317467026 27.937200000000008
    vertex 17.396403956571675 35.16592051108887 24.937200000000008
    vertex 17.396403956571675 35.16592051108887 27.937200000000008
  endloop
endfacet
facet normal -0.9914448613738113 0.13052619222004538 0.0
  outer loop
    vertex 17.396403956571675 35.16592051108887 24.937200000000008
    vertex 17.43899667371034 35.489444317467026 27.937200000000008
    vertex 17.43899667371034 35.489444317467026 24.937200000000008
  endloop
endfacet
facet normal 0.7933533402912433 -0.60876142900871 0.0
  outer loop
    vertex 15.305113197227145 36.373327793950196 24.937200000000008
    vertex 15.106464918979785 36.114444317467004 27.937200000000008
    vertex 15.106464918979785 36.114444317467004 24.937200000000008
  endloop
endfacet
facet normal 0.7933533402912433 -0.60876142900871 0.0
  outer loop
    vertex 15.106464918979785 36.114444317467004 27.937200000000008
    vertex 15.305113197227145 36.373327793950196 24.937200000000008
    vertex 15.305113197227145 36.373327793950196 27.937200000000008
  endloop
endfacet
facet normal -0.0 -0.0 -1.0
  outer loop
    vertex 12.338996673710339 37.73944431746701 24.937200000000008
    vertex 15.305113197227145 36.373327793950196 24.937200000000008
    vertex 12.338996673710339 32.739444317467004 24.937200000000008
  endloop
endfacet
facet normal -0.0 -0.0 -1.0
  outer loop
    vertex 15.305113197227145 36.373327793950196 24.937200000000008
    vertex 12.338996673710339 37.73944431746701 24.937200000000008
    vertex 15.563996673710331 36.57197607219756 24.937200000000008
  endloop
endfacet
facet normal -0.0 -0.0 -1.0
  outer loop
    vertex 15.563996673710331 36.57197607219756 24.937200000000008
    vertex 12.338996673710339 37.73944431746701 24.937200000000008
    vertex 15.86547286733218 36.696851600328344 24.937200000000008
  endloop
endfacet
facet normal -0.0 -0.0 -1.0
  outer loop
    vertex 15.86547286733218 36.696851600328344 24.937200000000008
    vertex 12.338996673710339 37.73944431746701 24.937200000000008
    vertex 16.18899667371033 36.73944431746702 24.937200000000008
  endloop
endfacet
facet normal -0.0 -0.0 -1.0
  outer loop
    vertex 16.18899667371033 36.73944431746702 24.937200000000008
    vertex 12.338996673710339 37.73944431746701 24.937200000000008
    vertex 32.58899667371035 37.73944431746701 24.937200000000008
  endloop
endfacet
facet normal -0.0 -0.0 -1.0
  outer loop
    vertex 12.338996673710339 32.739444317467004 24.937200000000008
    vertex 15.305113197227145 36.373327793950196 24.937200000000008
    vertex 15.106464918979785 36.114444317467004 24.937200000000008
  endloop
endfacet
facet normal -0.0 -0.0 -1.0
  outer loop
    vertex 12.338996673710339 32.739444317467004 24.937200000000008
    vertex 15.106464918979785 36.114444317467004 24.937200000000008
    vertex 14.981589390848999 35.81296812384516 24.937200000000008
  endloop
endfacet
facet normal -0.0 -0.0 -1.0
  outer loop
    vertex 12.338996673710339 32.739444317467004 24.937200000000008
    vertex 14.981589390848999 35.81296812384516 24.937200000000008
    vertex 14.938996673710339 35.489444317467004 24.937200000000008
  endloop
endfacet
facet normal -0.0 -0.0 -1.0
  outer loop
    vertex 16.18899667371033 36.73944431746702 24.937200000000008
    vertex 32.58899667371035 37.73944431746701 24.937200000000008
    vertex 16.51252048008848 36.69685160032835 24.937200000000008
  endloop
endfacet
facet normal -0.0 -0.0 -1.0
  outer loop
    vertex 16.51252048008848 36.69685160032835 24.937200000000008
    vertex 32.58899667371035 37.73944431746701 24.937200000000008
    vertex 16.81399667371033 36.571976072197565 24.937200000000008
  endloop
endfacet
facet normal -0.0 -0.0 -1.0
  outer loop
    vertex 16.81399667371033 36.571976072197565 24.937200000000008
    vertex 32.58899667371035 37.73944431746701 24.937200000000008
    vertex 17.072880150193516 36.3733277939502 24.937200000000008
  endloop
endfacet
facet normal -0.0 -0.0 -1.0
  outer loop
    vertex 17.072880150193516 36.3733277939502 24.937200000000008
    vertex 32.58899667371035 37.73944431746701 24.937200000000008
    vertex 17.271528428440885 36.114444317467026 24.937200000000008
  endloop
endfacet
facet normal -0.0 -0.0 -1.0
  outer loop
    vertex 17.271528428440885 36.114444317467026 24.937200000000008
    vertex 32.58899667371035 37.73944431746701 24.937200000000008
    vertex 17.39640395657167 35.812968123845174 24.937200000000008
  endloop
endfacet
facet normal -0.0 -0.0 -1.0
  outer loop
    vertex 17.39640395657167 35.812968123845174 24.937200000000008
    vertex 32.58899667371035 37.73944431746701 24.937200000000008
    vertex 17.43899667371034 35.489444317467026 24.937200000000008
  endloop
endfacet
facet normal -0.0 -0.0 -1.0
  outer loop
    vertex 17.43899667371034 35.489444317467026 24.937200000000008
    vertex 32.58899667371035 37.73944431746701 24.937200000000008
    vertex 29.865472867332173 36.69685160032835 24.937200000000008
  endloop
endfacet
facet normal -0.0 -0.0 -1.0
  outer loop
    vertex 17.43899667371034 35.489444317467026 24.937200000000008
    vertex 29.865472867332173 36.69685160032835 24.937200000000008
    vertex 29.563996673710324 36.57197607219756 24.937200000000008
  endloop
endfacet
facet normal -0.0 -0.0 -1.0
  outer loop
    vertex 17.43899667371034 35.489444317467026 24.937200000000008
    vertex 29.563996673710324 36.57197607219756 24.937200000000008
    vertex 29.305113197227143 36.373327793950196 24.937200000000008
  endloop
endfacet
facet normal -0.0 -0.0 -1.0
  outer loop
    vertex 17.43899667371034 35.489444317467026 24.937200000000008
    vertex 29.305113197227143 36.373327793950196 24.937200000000008
    vertex 29.106464918979775 36.11444431746701 24.937200000000008
  endloop
endfacet
facet normal -0.0 -0.0 -1.0
  outer loop
    vertex 17.43899667371034 35.489444317467026 24.937200000000008
    vertex 29.106464918979775 36.11444431746701 24.937200000000008
    vertex 28.981589390848992 35.81296812384516 24.937200000000008
  endloop
endfacet
facet normal -0.0 -0.0 -1.0
  outer loop
    vertex 17.43899667371034 35.489444317467026 24.937200000000008
    vertex 28.981589390848992 35.81296812384516 24.937200000000008
    vertex 28.93899667371033 35.489444317467004 24.937200000000008
  endloop
endfacet
facet normal -0.0 -0.0 -1.0
  outer loop
    vertex 29.865472867332173 36.69685160032835 24.937200000000008
    vertex 32.58899667371035 37.73944431746701 24.937200000000008
    vertex 30.188996673710328 36.73944431746702 24.937200000000008
  endloop
endfacet
facet normal -0.0 -0.0 -1.0
  outer loop
    vertex 30.188996673710328 36.73944431746702 24.937200000000008
    vertex 32.58899667371035 37.73944431746701 24.937200000000008
    vertex 30.51252048008848 36.69685160032836 24.937200000000008
  endloop
endfacet
facet normal -0.0 -0.0 -1.0
  outer loop
    vertex 30.51252048008848 36.69685160032836 24.937200000000008
    vertex 32.58899667371035 37.73944431746701 24.937200000000008
    vertex 30.813996673710328 36.57197607219757 24.937200000000008
  endloop
endfacet
facet normal -0.0 -0.0 -1.0
  outer loop
    vertex 30.813996673710328 36.57197607219757 24.937200000000008
    vertex 32.58899667371035 37.73944431746701 24.937200000000008
    vertex 31.072880150193516 36.3733277939502 24.937200000000008
  endloop
endfacet
facet normal -0.0 -0.0 -1.0
  outer loop
    vertex 31.072880150193516 36.3733277939502 24.937200000000008
    vertex 32.58899667371035 37.73944431746701 24.937200000000008
    vertex 31.271528428440885 36.114444317467026 24.937200000000008
  endloop
endfacet
facet normal -0.0 -0.0 -1.0
  outer loop
    vertex 31.271528428440885 36.114444317467026 24.937200000000008
    vertex 32.58899667371035 37.73944431746701 24.937200000000008
    vertex 31.39640395657167 35.812968123845174 24.937200000000008
  endloop
endfacet
facet normal -0.0 -0.0 -1.0
  outer loop
    vertex 31.39640395657167 35.812968123845174 24.937200000000008
    vertex 32.58899667371035 37.73944431746701 24.937200000000008
    vertex 31.43899667371034 35.48944431746702 24.937200000000008
  endloop
endfacet
facet normal -0.0 -0.0 -1.0
  outer loop
    vertex 12.338996673710339 32.739444317467004 24.937200000000008
    vertex 16.188996673710346 34.23944431746701 24.937200000000008
    vertex 32.58899667371035 32.739444317467004 24.937200000000008
  endloop
endfacet
facet normal -0.0 -0.0 -1.0
  outer loop
    vertex 16.188996673710346 34.23944431746701 24.937200000000008
    vertex 12.338996673710339 32.739444317467004 24.937200000000008
    vertex 15.865472867332196 34.28203703460567 24.937200000000008
  endloop
endfacet
facet normal -0.0 -0.0 -1.0
  outer loop
    vertex 15.865472867332196 34.28203703460567 24.937200000000008
    vertex 12.338996673710339 32.739444317467004 24.937200000000008
    vertex 15.563996673710346 34.40691256273646 24.937200000000008
  endloop
endfacet
facet normal -0.0 -0.0 -1.0
  outer loop
    vertex 15.563996673710346 34.40691256273646 24.937200000000008
    vertex 12.338996673710339 32.739444317467004 24.937200000000008
    vertex 15.30511319722716 34.60556084098382 24.937200000000008
  endloop
endfacet
facet normal -0.0 -0.0 -1.0
  outer loop
    vertex 15.30511319722716 34.60556084098382 24.937200000000008
    vertex 12.338996673710339 32.739444317467004 24.937200000000008
    vertex 15.106464918979794 34.864444317467004 24.937200000000008
  endloop
endfacet
facet normal -0.0 -0.0 -1.0
  outer loop
    vertex 15.106464918979794 34.864444317467004 24.937200000000008
    vertex 12.338996673710339 32.739444317467004 24.937200000000008
    vertex 14.981589390849004 35.16592051108885 24.937200000000008
  endloop
endfacet
facet normal -0.0 -0.0 -1.0
  outer loop
    vertex 14.981589390849004 35.16592051108885 24.937200000000008
    vertex 12.338996673710339 32.739444317467004 24.937200000000008
    vertex 14.938996673710339 35.489444317467004 24.937200000000008
  endloop
endfacet
facet normal -0.0 -0.0 -1.0
  outer loop
    vertex 32.58899667371035 32.739444317467004 24.937200000000008
    vertex 16.188996673710346 34.23944431746701 24.937200000000008
    vertex 16.512520480088497 34.28203703460568 24.937200000000008
  endloop
endfacet
facet normal -0.0 -0.0 -1.0
  outer loop
    vertex 32.58899667371035 32.739444317467004 24.937200000000008
    vertex 16.512520480088497 34.28203703460568 24.937200000000008
    vertex 16.813996673710346 34.40691256273647 24.937200000000008
  endloop
endfacet
facet normal -0.0 -0.0 -1.0
  outer loop
    vertex 32.58899667371035 32.739444317467004 24.937200000000008
    vertex 16.813996673710346 34.40691256273647 24.937200000000008
    vertex 17.07288015019353 34.605560840983834 24.937200000000008
  endloop
endfacet
facet normal -0.0 -0.0 -1.0
  outer loop
    vertex 32.58899667371035 32.739444317467004 24.937200000000008
    vertex 17.07288015019353 34.605560840983834 24.937200000000008
    vertex 17.27152842844089 34.86444431746702 24.937200000000008
  endloop
endfacet
facet normal -0.0 -0.0 -1.0
  outer loop
    vertex 32.58899667371035 32.739444317467004 24.937200000000008
    vertex 17.27152842844089 34.86444431746702 24.937200000000008
    vertex 17.396403956571675 35.16592051108887 24.937200000000008
  endloop
endfacet
facet normal -0.0 -0.0 -1.0
  outer loop
    vertex 32.58899667371035 32.739444317467004 24.937200000000008
    vertex 17.396403956571675 35.16592051108887 24.937200000000008
    vertex 17.43899667371034 35.489444317467026 24.937200000000008
  endloop
endfacet
facet normal -0.0 -0.0 -1.0
  outer loop
    vertex 32.58899667371035 32.739444317467004 24.937200000000008
    vertex 17.43899667371034 35.489444317467026 24.937200000000008
    vertex 29.563996673710342 34.40691256273645 24.937200000000008
  endloop
endfacet
facet normal -0.0 -0.0 -1.0
  outer loop
    vertex 29.563996673710342 34.40691256273645 24.937200000000008
    vertex 17.43899667371034 35.489444317467026 24.937200000000008
    vertex 29.305113197227154 34.60556084098382 24.937200000000008
  endloop
endfacet
facet normal -0.0 -0.0 -1.0
  outer loop
    vertex 29.305113197227154 34.60556084098382 24.937200000000008
    vertex 17.43899667371034 35.489444317467026 24.937200000000008
    vertex 29.10646491897979 34.864444317467004 24.937200000000008
  endloop
endfacet
facet normal -0.0 -0.0 -1.0
  outer loop
    vertex 29.10646491897979 34.864444317467004 24.937200000000008
    vertex 17.43899667371034 35.489444317467026 24.937200000000008
    vertex 28.981589390849 35.16592051108885 24.937200000000008
  endloop
endfacet
facet normal -0.0 -0.0 -1.0
  outer loop
    vertex 28.981589390849 35.16592051108885 24.937200000000008
    vertex 17.43899667371034 35.489444317467026 24.937200000000008
    vertex 28.93899667371033 35.489444317467004 24.937200000000008
  endloop
endfacet
facet normal -0.0 -0.0 -1.0
  outer loop
    vertex 32.58899667371035 32.739444317467004 24.937200000000008
    vertex 29.563996673710342 34.40691256273645 24.937200000000008
    vertex 29.86547286733219 34.28203703460567 24.937200000000008
  endloop
endfacet
facet normal -0.0 -0.0 -1.0
  outer loop
    vertex 32.58899667371035 32.739444317467004 24.937200000000008
    vertex 29.86547286733219 34.28203703460567 24.937200000000008
    vertex 30.188996673710346 34.23944431746701 24.937200000000008
  endloop
endfacet
facet normal -0.0 -0.0 -1.0
  outer loop
    vertex 32.58899667371035 32.739444317467004 24.937200000000008
    vertex 30.188996673710346 34.23944431746701 24.937200000000008
    vertex 30.512520480088497 34.28203703460567 24.937200000000008
  endloop
endfacet
facet normal -0.0 -0.0 -1.0
  outer loop
    vertex 32.58899667371035 32.739444317467004 24.937200000000008
    vertex 30.512520480088497 34.28203703460567 24.937200000000008
    vertex 30.813996673710346 34.406912562736466 24.937200000000008
  endloop
endfacet
facet normal -0.0 -0.0 -1.0
  outer loop
    vertex 32.58899667371035 32.739444317467004 24.937200000000008
    vertex 30.813996673710346 34.406912562736466 24.937200000000008
    vertex 31.072880150193527 34.605560840983834 24.937200000000008
  endloop
endfacet
facet normal -0.0 -0.0 -1.0
  outer loop
    vertex 32.58899667371035 32.739444317467004 24.937200000000008
    vertex 31.072880150193527 34.605560840983834 24.937200000000008
    vertex 31.271528428440895 34.86444431746702 24.937200000000008
  endloop
endfacet
facet normal -0.0 -0.0 -1.0
  outer loop
    vertex 32.58899667371035 32.739444317467004 24.937200000000008
    vertex 31.271528428440895 34.86444431746702 24.937200000000008
    vertex 31.396403956571678 35.16592051108887 24.937200000000008
  endloop
endfacet
facet normal -0.0 -0.0 -1.0
  outer loop
    vertex 32.58899667371035 32.739444317467004 24.937200000000008
    vertex 31.396403956571678 35.16592051108887 24.937200000000008
    vertex 31.43899667371034 35.48944431746702 24.937200000000008
  endloop
endfacet
facet normal -0.0 -0.0 -1.0
  outer loop
    vertex 32.58899667371035 32.739444317467004 24.937200000000008
    vertex 31.43899667371034 35.48944431746702 24.937200000000008
    vertex 32.58899667371035 37.73944431746701 24.937200000000008
  endloop
endfacet
facet normal 1.0 0.0 0.0
  outer loop
    vertex 32.58899667371035 37.73944431746701 24.937200000000008
    vertex 32.58899667371035 32.739444317467004 27.937200000000008
    vertex 32.58899667371035 32.739444317467004 24.937200000000008
  endloop
endfacet
facet normal 1.0 0.0 0.0
  outer loop
    vertex 32.58899667371035 32.739444317467004 27.937200000000008
    vertex 32.58899667371035 37.73944431746701 24.937200000000008
    vertex 32.58899667371035 37.73944431746701 27.937200000000008
  endloop
endfacet
facet normal 0.9238795325112836 0.3826834323650976 0.0
  outer loop
    vertex 28.981589390849 35.16592051108885 24.937200000000008
    vertex 29.10646491897979 34.864444317467004 27.937200000000008
    vertex 29.10646491897979 34.864444317467004 24.937200000000008
  endloop
endfacet
facet normal 0.9238795325112836 0.3826834323650976 0.0
  outer loop
    vertex 29.10646491897979 34.864444317467004 27.937200000000008
    vertex 28.981589390849 35.16592051108885 24.937200000000008
    vertex 28.981589390849 35.16592051108885 27.937200000000008
  endloop
endfacet
facet normal 0.13052619222005388 -0.9914448613738102 0.0
  outer loop
    vertex 30.188996673710328 36.73944431746702 27.937200000000008
    vertex 29.865472867332173 36.69685160032835 24.937200000000008
    vertex 30.188996673710328 36.73944431746702 24.937200000000008
  endloop
endfacet
facet normal 0.13052619222005388 -0.9914448613738102 0.0
  outer loop
    vertex 29.865472867332173 36.69685160032835 24.937200000000008
    vertex 30.188996673710328 36.73944431746702 27.937200000000008
    vertex 29.865472867332173 36.69685160032835 27.937200000000008
  endloop
endfacet
facet normal -0.9914448613738102 -0.13052619222005388 -0.0
  outer loop
    vertex 31.39640395657167 35.812968123845174 27.937200000000008
    vertex 31.43899667371034 35.48944431746702 24.937200000000008
    vertex 31.43899667371034 35.48944431746702 27.937200000000008
  endloop
endfacet
facet normal -0.9914448613738102 -0.13052619222005388 -0.0
  outer loop
    vertex 31.43899667371034 35.48944431746702 24.937200000000008
    vertex 31.39640395657167 35.812968123845174 27.937200000000008
    vertex 31.39640395657167 35.812968123845174 24.937200000000008
  endloop
endfacet
facet normal -0.7933533402912287 -0.6087614290087292 -0.0
  outer loop
    vertex 31.072880150193516 36.3733277939502 27.937200000000008
    vertex 31.271528428440885 36.114444317467026 24.937200000000008
    vertex 31.271528428440885 36.114444317467026 27.937200000000008
  endloop
endfacet
facet normal -0.7933533402912287 -0.6087614290087292 -0.0
  outer loop
    vertex 31.271528428440885 36.114444317467026 24.937200000000008
    vertex 31.072880150193516 36.3733277939502 27.937200000000008
    vertex 31.072880150193516 36.3733277939502 24.937200000000008
  endloop
endfacet
facet normal 0.9238795325112923 -0.38268343236507685 0.0
  outer loop
    vertex 29.106464918979775 36.11444431746701 24.937200000000008
    vertex 28.981589390848992 35.81296812384516 27.937200000000008
    vertex 28.981589390848992 35.81296812384516 24.937200000000008
  endloop
endfacet
facet normal 0.9238795325112923 -0.38268343236507685 0.0
  outer loop
    vertex 28.981589390848992 35.81296812384516 27.937200000000008
    vertex 29.106464918979775 36.11444431746701 24.937200000000008
    vertex 29.106464918979775 36.11444431746701 27.937200000000008
  endloop
endfacet
facet normal -0.793353340291235 0.6087614290087209 0.0
  outer loop
    vertex 31.271528428440895 34.86444431746702 27.937200000000008
    vertex 31.072880150193527 34.605560840983834 24.937200000000008
    vertex 31.072880150193527 34.605560840983834 27.937200000000008
  endloop
endfacet
facet normal -0.793353340291235 0.6087614290087209 0.0
  outer loop
    vertex 31.072880150193527 34.605560840983834 24.937200000000008
    vertex 31.271528428440895 34.86444431746702 27.937200000000008
    vertex 31.271528428440895 34.86444431746702 24.937200000000008
  endloop
endfacet
facet normal 0.0 1.0 0.0
  outer loop
    vertex 12.338996673710339 37.73944431746701 27.937200000000008
    vertex 32.58899667371035 37.73944431746701 24.937200000000008
    vertex 12.338996673710339 37.73944431746701 24.937200000000008
  endloop
endfacet
facet normal 0.0 1.0 0.0
  outer loop
    vertex 32.58899667371035 37.73944431746701 24.937200000000008
    vertex 12.338996673710339 37.73944431746701 27.937200000000008
    vertex 32.58899667371035 37.73944431746701 27.937200000000008
  endloop
endfacet
facet normal -0.6087614290087292 0.7933533402912287 0.0
  outer loop
    vertex 30.813996673710346 34.406912562736466 27.937200000000008
    vertex 31.072880150193527 34.605560840983834 24.937200000000008
    vertex 30.813996673710346 34.406912562736466 24.937200000000008
  endloop
endfacet
facet normal -0.6087614290087292 0.7933533402912287 0.0
  outer loop
    vertex 31.072880150193527 34.605560840983834 24.937200000000008
    vertex 30.813996673710346 34.406912562736466 27.937200000000008
    vertex 31.072880150193527 34.605560840983834 27.937200000000008
  endloop
endfacet
facet normal 0.9914448613738099 0.13052619222005613 0.0
  outer loop
    vertex 28.93899667371033 35.489444317467004 24.937200000000008
    vertex 28.981589390849 35.16592051108885 27.937200000000008
    vertex 28.981589390849 35.16592051108885 24.937200000000008
  endloop
endfacet
facet normal 0.9914448613738099 0.13052619222005613 0.0
  outer loop
    vertex 28.981589390849 35.16592051108885 27.937200000000008
    vertex 28.93899667371033 35.489444317467004 24.937200000000008
    vertex 28.93899667371033 35.489444317467004 27.937200000000008
  endloop
endfacet
facet normal -0.6087614290087209 -0.793353340291235 -0.0
  outer loop
    vertex 31.072880150193516 36.3733277939502 27.937200000000008
    vertex 30.813996673710328 36.57197607219757 24.937200000000008
    vertex 31.072880150193516 36.3733277939502 24.937200000000008
  endloop
endfacet
facet normal -0.6087614290087209 -0.793353340291235 -0.0
  outer loop
    vertex 30.813996673710328 36.57197607219757 24.937200000000008
    vertex 31.072880150193516 36.3733277939502 27.937200000000008
    vertex 30.813996673710328 36.57197607219757 27.937200000000008
  endloop
endfacet
facet normal -0.3826834323650976 0.9238795325112836 0.0
  outer loop
    vertex 30.512520480088497 34.28203703460567 27.937200000000008
    vertex 30.813996673710346 34.406912562736466 24.937200000000008
    vertex 30.512520480088497 34.28203703460567 24.937200000000008
  endloop
endfacet
facet normal -0.3826834323650976 0.9238795325112836 0.0
  outer loop
    vertex 30.813996673710346 34.406912562736466 24.937200000000008
    vertex 30.512520480088497 34.28203703460567 27.937200000000008
    vertex 30.813996673710346 34.406912562736466 27.937200000000008
  endloop
endfacet
facet normal -0.9238795325112896 0.38268343236508284 0.0
  outer loop
    vertex 17.396403956571675 35.16592051108887 27.937200000000008
    vertex 17.27152842844089 34.86444431746702 24.937200000000008
    vertex 17.27152842844089 34.86444431746702 27.937200000000008
  endloop
endfacet
facet normal -0.9238795325112896 0.38268343236508284 0.0
  outer loop
    vertex 17.27152842844089 34.86444431746702 24.937200000000008
    vertex 17.396403956571675 35.16592051108887 27.937200000000008
    vertex 17.396403956571675 35.16592051108887 24.937200000000008
  endloop
endfacet
facet normal -0.7933533402912433 0.60876142900871 0.0
  outer loop
    vertex 17.27152842844089 34.86444431746702 27.937200000000008
    vertex 17.07288015019353 34.605560840983834 24.937200000000008
    vertex 17.07288015019353 34.605560840983834 27.937200000000008
  endloop
endfacet
facet normal -0.7933533402912433 0.60876142900871 0.0
  outer loop
    vertex 17.07288015019353 34.605560840983834 24.937200000000008
    vertex 17.27152842844089 34.86444431746702 27.937200000000008
    vertex 17.27152842844089 34.86444431746702 24.937200000000008
  endloop
endfacet
facet normal -0.6087614290087142 0.7933533402912402 0.0
  outer loop
    vertex 16.813996673710346 34.40691256273647 27.937200000000008
    vertex 17.07288015019353 34.605560840983834 24.937200000000008
    vertex 16.813996673710346 34.40691256273647 24.937200000000008
  endloop
endfacet
facet normal -0.6087614290087142 0.7933533402912402 0.0
  outer loop
    vertex 17.07288015019353 34.605560840983834 24.937200000000008
    vertex 16.813996673710346 34.40691256273647 27.937200000000008
    vertex 17.07288015019353 34.605560840983834 27.937200000000008
  endloop
endfacet
facet normal 0.7933533402912287 -0.6087614290087292 0.0
  outer loop
    vertex 29.305113197227143 36.373327793950196 24.937200000000008
    vertex 29.106464918979775 36.11444431746701 27.937200000000008
    vertex 29.106464918979775 36.11444431746701 24.937200000000008
  endloop
endfacet
facet normal 0.7933533402912287 -0.6087614290087292 0.0
  outer loop
    vertex 29.106464918979775 36.11444431746701 27.937200000000008
    vertex 29.305113197227143 36.373327793950196 24.937200000000008
    vertex 29.305113197227143 36.373327793950196 27.937200000000008
  endloop
endfacet
facet normal -1.0 -0.0 -0.0
  outer loop
    vertex 12.338996673710339 37.73944431746701 27.937200000000008
    vertex 12.338996673710339 32.739444317467004 24.937200000000008
    vertex 12.338996673710339 32.739444317467004 27.937200000000008
  endloop
endfacet
facet normal -1.0 -0.0 -0.0
  outer loop
    vertex 12.338996673710339 32.739444317467004 24.937200000000008
    vertex 12.338996673710339 37.73944431746701 27.937200000000008
    vertex 12.338996673710339 37.73944431746701 24.937200000000008
  endloop
endfacet
facet normal -0.991444861373812 0.1305261922200391 0.0
  outer loop
    vertex 31.43899667371034 35.48944431746702 27.937200000000008
    vertex 31.396403956571678 35.16592051108887 24.937200000000008
    vertex 31.396403956571678 35.16592051108887 27.937200000000008
  endloop
endfacet
facet normal -0.991444861373812 0.1305261922200391 0.0
  outer loop
    vertex 31.396403956571678 35.16592051108887 24.937200000000008
    vertex 31.43899667371034 35.48944431746702 27.937200000000008
    vertex 31.43899667371034 35.48944431746702 24.937200000000008
  endloop
endfacet
facet normal 0.7933533402912287 0.6087614290087292 0.0
  outer loop
    vertex 29.10646491897979 34.864444317467004 24.937200000000008
    vertex 29.305113197227154 34.60556084098382 27.937200000000008
    vertex 29.305113197227154 34.60556084098382 24.937200000000008
  endloop
endfacet
facet normal 0.7933533402912287 0.6087614290087292 0.0
  outer loop
    vertex 29.305113197227154 34.60556084098382 27.937200000000008
    vertex 29.10646491897979 34.864444317467004 24.937200000000008
    vertex 29.10646491897979 34.864444317467004 27.937200000000008
  endloop
endfacet
facet normal -0.3826834323650976 0.9238795325112836 0.0
  outer loop
    vertex 16.512520480088497 34.28203703460568 27.937200000000008
    vertex 16.813996673710346 34.40691256273647 24.937200000000008
    vertex 16.512520480088497 34.28203703460568 24.937200000000008
  endloop
endfacet
facet normal -0.3826834323650976 0.9238795325112836 0.0
  outer loop
    vertex 16.813996673710346 34.40691256273647 24.937200000000008
    vertex 16.512520480088497 34.28203703460568 27.937200000000008
    vertex 16.813996673710346 34.40691256273647 27.937200000000008
  endloop
endfacet
facet normal 0.6087614290087292 -0.7933533402912287 0.0
  outer loop
    vertex 29.563996673710324 36.57197607219756 27.937200000000008
    vertex 29.305113197227143 36.373327793950196 24.937200000000008
    vertex 29.563996673710324 36.57197607219756 24.937200000000008
  endloop
endfacet
facet normal 0.6087614290087292 -0.7933533402912287 0.0
  outer loop
    vertex 29.305113197227143 36.373327793950196 24.937200000000008
    vertex 29.563996673710324 36.57197607219756 27.937200000000008
    vertex 29.305113197227143 36.373327793950196 27.937200000000008
  endloop
endfacet
facet normal 0.0 -1.0 0.0
  outer loop
    vertex 32.58899667371035 32.739444317467004 27.937200000000008
    vertex 12.338996673710339 32.739444317467004 24.937200000000008
    vertex 32.58899667371035 32.739444317467004 24.937200000000008
  endloop
endfacet
facet normal 0.0 -1.0 0.0
  outer loop
    vertex 12.338996673710339 32.739444317467004 24.937200000000008
    vertex 32.58899667371035 32.739444317467004 27.937200000000008
    vertex 12.338996673710339 32.739444317467004 27.937200000000008
  endloop
endfacet
facet normal -0.1305261922200391 -0.991444861373812 -0.0
  outer loop
    vertex 30.51252048008848 36.69685160032836 27.937200000000008
    vertex 30.188996673710328 36.73944431746702 24.937200000000008
    vertex 30.51252048008848 36.69685160032836 24.937200000000008
  endloop
endfacet
facet normal -0.1305261922200391 -0.991444861373812 -0.0
  outer loop
    vertex 30.188996673710328 36.73944431746702 24.937200000000008
    vertex 30.51252048008848 36.69685160032836 27.937200000000008
    vertex 30.188996673710328 36.73944431746702 27.937200000000008
  endloop
endfacet
facet normal 0.9914448613738124 -0.1305261922200369 0.0
  outer loop
    vertex 28.981589390848992 35.81296812384516 24.937200000000008
    vertex 28.93899667371033 35.489444317467004 27.937200000000008
    vertex 28.93899667371033 35.489444317467004 24.937200000000008
  endloop
endfacet
facet normal 0.9914448613738124 -0.1305261922200369 0.0
  outer loop
    vertex 28.93899667371033 35.489444317467004 27.937200000000008
    vertex 28.981589390848992 35.81296812384516 24.937200000000008
    vertex 28.981589390848992 35.81296812384516 27.937200000000008
  endloop
endfacet
facet normal 0.38268343236508284 0.9238795325112896 0.0
  outer loop
    vertex 29.563996673710342 34.40691256273645 27.937200000000008
    vertex 29.86547286733219 34.28203703460567 24.937200000000008
    vertex 29.563996673710342 34.40691256273645 24.937200000000008
  endloop
endfacet
facet normal 0.38268343236508284 0.9238795325112896 0.0
  outer loop
    vertex 29.86547286733219 34.28203703460567 24.937200000000008
    vertex 29.563996673710342 34.40691256273645 27.937200000000008
    vertex 29.86547286733219 34.28203703460567 27.937200000000008
  endloop
endfacet
facet normal -0.38268343236508284 -0.9238795325112896 -0.0
  outer loop
    vertex 30.813996673710328 36.57197607219757 27.937200000000008
    vertex 30.51252048008848 36.69685160032836 24.937200000000008
    vertex 30.813996673710328 36.57197607219757 24.937200000000008
  endloop
endfacet
facet normal -0.38268343236508284 -0.9238795325112896 -0.0
  outer loop
    vertex 30.51252048008848 36.69685160032836 24.937200000000008
    vertex 30.813996673710328 36.57197607219757 27.937200000000008
    vertex 30.51252048008848 36.69685160032836 27.937200000000008
  endloop
endfacet
facet normal -0.9238795325112836 -0.3826834323650976 -0.0
  outer loop
    vertex 31.271528428440885 36.114444317467026 27.937200000000008
    vertex 31.39640395657167 35.812968123845174 24.937200000000008
    vertex 31.39640395657167 35.812968123845174 27.937200000000008
  endloop
endfacet
facet normal -0.9238795325112836 -0.3826834323650976 -0.0
  outer loop
    vertex 31.39640395657167 35.812968123845174 24.937200000000008
    vertex 31.271528428440885 36.114444317467026 27.937200000000008
    vertex 31.271528428440885 36.114444317467026 24.937200000000008
  endloop
endfacet
facet normal -0.9238795325112896 0.38268343236508284 0.0
  outer loop
    vertex 31.396403956571678 35.16592051108887 27.937200000000008
    vertex 31.271528428440895 34.86444431746702 24.937200000000008
    vertex 31.271528428440895 34.86444431746702 27.937200000000008
  endloop
endfacet
facet normal -0.9238795325112896 0.38268343236508284 0.0
  outer loop
    vertex 31.271528428440895 34.86444431746702 24.937200000000008
    vertex 31.396403956571678 35.16592051108887 27.937200000000008
    vertex 31.396403956571678 35.16592051108887 24.937200000000008
  endloop
endfacet
facet normal -0.13052619222005613 0.9914448613738099 0.0
  outer loop
    vertex 30.188996673710346 34.23944431746701 27.937200000000008
    vertex 30.512520480088497 34.28203703460567 24.937200000000008
    vertex 30.188996673710346 34.23944431746701 24.937200000000008
  endloop
endfacet
facet normal -0.13052619222005613 0.9914448613738099 0.0
  outer loop
    vertex 30.512520480088497 34.28203703460567 24.937200000000008
    vertex 30.188996673710346 34.23944431746701 27.937200000000008
    vertex 30.512520480088497 34.28203703460567 27.937200000000008
  endloop
endfacet
facet normal 0.3826834323650976 -0.9238795325112836 0.0
  outer loop
    vertex 29.865472867332173 36.69685160032835 27.937200000000008
    vertex 29.563996673710324 36.57197607219756 24.937200000000008
    vertex 29.865472867332173 36.69685160032835 24.937200000000008
  endloop
endfacet
facet normal 0.3826834323650976 -0.9238795325112836 0.0
  outer loop
    vertex 29.563996673710324 36.57197607219756 24.937200000000008
    vertex 29.865472867332173 36.69685160032835 27.937200000000008
    vertex 29.563996673710324 36.57197607219756 27.937200000000008
  endloop
endfacet
facet normal 0.1305261922200369 0.9914448613738124 0.0
  outer loop
    vertex 29.86547286733219 34.28203703460567 27.937200000000008
    vertex 30.188996673710346 34.23944431746701 24.937200000000008
    vertex 29.86547286733219 34.28203703460567 24.937200000000008
  endloop
endfacet
facet normal 0.1305261922200369 0.9914448613738124 0.0
  outer loop
    vertex 30.188996673710346 34.23944431746701 24.937200000000008
    vertex 29.86547286733219 34.28203703460567 27.937200000000008
    vertex 30.188996673710346 34.23944431746701 27.937200000000008
  endloop
endfacet
facet normal 0.6087614290087209 0.793353340291235 0.0
  outer loop
    vertex 29.305113197227154 34.60556084098382 27.937200000000008
    vertex 29.563996673710342 34.40691256273645 24.937200000000008
    vertex 29.305113197227154 34.60556084098382 24.937200000000008
  endloop
endfacet
facet normal 0.6087614290087209 0.793353340291235 0.0
  outer loop
    vertex 29.563996673710342 34.40691256273645 24.937200000000008
    vertex 29.305113197227154 34.60556084098382 27.937200000000008
    vertex 29.563996673710342 34.40691256273645 27.937200000000008
  endloop
endfacet
facet normal 0.13052619222005613 0.9914448613738099 0.0
  outer loop
    vertex 15.865472867332196 34.28203703460567 27.937200000000008
    vertex 16.188996673710346 34.23944431746701 24.937200000000008
    vertex 15.865472867332196 34.28203703460567 24.937200000000008
  endloop
endfacet
facet normal 0.13052619222005613 0.9914448613738099 0.0
  outer loop
    vertex 16.188996673710346 34.23944431746701 24.937200000000008
    vertex 15.865472867332196 34.28203703460567 27.937200000000008
    vertex 16.188996673710346 34.23944431746701 27.937200000000008
  endloop
endfacet
facet normal 0.3826834323650798 0.9238795325112908 0.0
  outer loop
    vertex 15.563996673710346 34.40691256273646 27.937200000000008
    vertex 15.865472867332196 34.28203703460567 24.937200000000008
    vertex 15.563996673710346 34.40691256273646 24.937200000000008
  endloop
endfacet
facet normal 0.3826834323650798 0.9238795325112908 0.0
  outer loop
    vertex 15.865472867332196 34.28203703460567 24.937200000000008
    vertex 15.563996673710346 34.40691256273646 27.937200000000008
    vertex 15.865472867332196 34.28203703460567 27.937200000000008
  endloop
endfacet
facet normal 0.6087614290087142 0.7933533402912402 0.0
  outer loop
    vertex 15.30511319722716 34.60556084098382 27.937200000000008
    vertex 15.563996673710346 34.40691256273646 24.937200000000008
    vertex 15.30511319722716 34.60556084098382 24.937200000000008
  endloop
endfacet
facet normal 0.6087614290087142 0.7933533402912402 0.0
  outer loop
    vertex 15.563996673710346 34.40691256273646 24.937200000000008
    vertex 15.30511319722716 34.60556084098382 27.937200000000008
    vertex 15.563996673710346 34.40691256273646 27.937200000000008
  endloop
endfacet
facet normal 0.7933533402912287 0.6087614290087292 0.0
  outer loop
    vertex 15.106464918979794 34.864444317467004 24.937200000000008
    vertex 15.30511319722716 34.60556084098382 27.937200000000008
    vertex 15.30511319722716 34.60556084098382 24.937200000000008
  endloop
endfacet
facet normal 0.7933533402912287 0.6087614290087292 0.0
  outer loop
    vertex 15.30511319722716 34.60556084098382 27.937200000000008
    vertex 15.106464918979794 34.864444317467004 24.937200000000008
    vertex 15.106464918979794 34.864444317467004 27.937200000000008
  endloop
endfacet
facet normal 0.9238795325112836 0.3826834323650976 0.0
  outer loop
    vertex 14.981589390849004 35.16592051108885 24.937200000000008
    vertex 15.106464918979794 34.864444317467004 27.937200000000008
    vertex 15.106464918979794 34.864444317467004 24.937200000000008
  endloop
endfacet
facet normal 0.9238795325112836 0.3826834323650976 0.0
  outer loop
    vertex 15.106464918979794 34.864444317467004 27.937200000000008
    vertex 14.981589390849004 35.16592051108885 24.937200000000008
    vertex 14.981589390849004 35.16592051108885 27.937200000000008
  endloop
endfacet
facet normal 0.9914448613738099 0.13052619222005613 0.0
  outer loop
    vertex 14.938996673710339 35.489444317467004 24.937200000000008
    vertex 14.981589390849004 35.16592051108885 27.937200000000008
    vertex 14.981589390849004 35.16592051108885 24.937200000000008
  endloop
endfacet
facet normal 0.9914448613738099 0.13052619222005613 0.0
  outer loop
    vertex 14.981589390849004 35.16592051108885 27.937200000000008
    vertex 14.938996673710339 35.489444317467004 24.937200000000008
    vertex 14.938996673710339 35.489444317467004 27.937200000000008
  endloop
endfacet
facet normal 0.9914448613738124 -0.1305261922200369 0.0
  outer loop
    vertex 14.981589390848999 35.81296812384516 24.937200000000008
    vertex 14.938996673710339 35.489444317467004 27.937200000000008
    vertex 14.938996673710339 35.489444317467004 24.937200000000008
  endloop
endfacet
facet normal 0.9914448613738124 -0.1305261922200369 0.0
  outer loop
    vertex 14.938996673710339 35.489444317467004 27.937200000000008
    vertex 14.981589390848999 35.81296812384516 24.937200000000008
    vertex 14.981589390848999 35.81296812384516 27.937200000000008
  endloop
endfacet
facet normal -0.1305261922200731 0.9914448613738077 0.0
  outer loop
    vertex 16.188996673710346 34.23944431746701 27.937200000000008
    vertex 16.512520480088497 34.28203703460568 24.937200000000008
    vertex 16.188996673710346 34.23944431746701 24.937200000000008
  endloop
endfacet
facet normal -0.1305261922200731 0.9914448613738077 0.0
  outer loop
    vertex 16.512520480088497 34.28203703460568 24.937200000000008
    vertex 16.188996673710346 34.23944431746701 27.937200000000008
    vertex 16.512520480088497 34.28203703460568 27.937200000000008
  endloop
endfacet
facet normal 0.0 0.0 1.0
  outer loop
    vertex 12.338996673710339 32.739444317467004 27.937200000000008
    vertex 15.30511319722716 34.60556084098382 27.937200000000008
    vertex 12.338996673710339 37.73944431746701 27.937200000000008
  endloop
endfacet
facet normal 0.0 0.0 1.0
  outer loop
    vertex 15.30511319722716 34.60556084098382 27.937200000000008
    vertex 12.338996673710339 32.739444317467004 27.937200000000008
    vertex 15.563996673710346 34.40691256273646 27.937200000000008
  endloop
endfacet
facet normal 0.0 0.0 1.0
  outer loop
    vertex 15.563996673710346 34.40691256273646 27.937200000000008
    vertex 12.338996673710339 32.739444317467004 27.937200000000008
    vertex 15.865472867332196 34.28203703460567 27.937200000000008
  endloop
endfacet
facet normal 0.0 0.0 1.0
  outer loop
    vertex 15.865472867332196 34.28203703460567 27.937200000000008
    vertex 12.338996673710339 32.739444317467004 27.937200000000008
    vertex 16.188996673710346 34.23944431746701 27.937200000000008
  endloop
endfacet
facet normal 0.0 0.0 1.0
  outer loop
    vertex 16.188996673710346 34.23944431746701 27.937200000000008
    vertex 12.338996673710339 32.739444317467004 27.937200000000008
    vertex 32.58899667371035 32.739444317467004 27.937200000000008
  endloop
endfacet
facet normal 0.0 0.0 1.0
  outer loop
    vertex 12.338996673710339 37.73944431746701 27.937200000000008
    vertex 15.30511319722716 34.60556084098382 27.937200000000008
    vertex 15.106464918979794 34.864444317467004 27.937200000000008
  endloop
endfacet
facet normal 0.0 0.0 1.0
  outer loop
    vertex 12.338996673710339 37.73944431746701 27.937200000000008
    vertex 15.106464918979794 34.864444317467004 27.937200000000008
    vertex 14.981589390849004 35.16592051108885 27.937200000000008
  endloop
endfacet
facet normal 0.0 0.0 1.0
  outer loop
    vertex 12.338996673710339 37.73944431746701 27.937200000000008
    vertex 14.981589390849004 35.16592051108885 27.937200000000008
    vertex 14.938996673710339 35.489444317467004 27.937200000000008
  endloop
endfacet
facet normal 0.0 0.0 1.0
  outer loop
    vertex 16.188996673710346 34.23944431746701 27.937200000000008
    vertex 32.58899667371035 32.739444317467004 27.937200000000008
    vertex 16.512520480088497 34.28203703460568 27.937200000000008
  endloop
endfacet
facet normal 0.0 0.0 1.0
  outer loop
    vertex 16.512520480088497 34.28203703460568 27.937200000000008
    vertex 32.58899667371035 32.739444317467004 27.937200000000008
    vertex 16.813996673710346 34.40691256273647 27.937200000000008
  endloop
endfacet
facet normal 0.0 0.0 1.0
  outer loop
    vertex 16.813996673710346 34.40691256273647 27.937200000000008
    vertex 32.58899667371035 32.739444317467004 27.937200000000008
    vertex 17.07288015019353 34.605560840983834 27.937200000000008
  endloop
endfacet
facet normal 0.0 0.0 1.0
  outer loop
    vertex 17.07288015019353 34.605560840983834 27.937200000000008
    vertex 32.58899667371035 32.739444317467004 27.937200000000008
    vertex 17.27152842844089 34.86444431746702 27.937200000000008
  endloop
endfacet
facet normal 0.0 0.0 1.0
  outer loop
    vertex 17.27152842844089 34.86444431746702 27.937200000000008
    vertex 32.58899667371035 32.739444317467004 27.937200000000008
    vertex 17.396403956571675 35.16592051108887 27.937200000000008
  endloop
endfacet
facet normal 0.0 0.0 1.0
  outer loop
    vertex 17.396403956571675 35.16592051108887 27.937200000000008
    vertex 32.58899667371035 32.739444317467004 27.937200000000008
    vertex 17.43899667371034 35.489444317467026 27.937200000000008
  endloop
endfacet
facet normal 0.0 0.0 1.0
  outer loop
    vertex 17.43899667371034 35.489444317467026 27.937200000000008
    vertex 32.58899667371035 32.739444317467004 27.937200000000008
    vertex 29.563996673710342 34.40691256273645 27.937200000000008
  endloop
endfacet
facet normal 0.0 0.0 1.0
  outer loop
    vertex 17.43899667371034 35.489444317467026 27.937200000000008
    vertex 29.563996673710342 34.40691256273645 27.937200000000008
    vertex 29.305113197227154 34.60556084098382 27.937200000000008
  endloop
endfacet
facet normal 0.0 0.0 1.0
  outer loop
    vertex 17.43899667371034 35.489444317467026 27.937200000000008
    vertex 29.305113197227154 34.60556084098382 27.937200000000008
    vertex 29.10646491897979 34.864444317467004 27.937200000000008
  endloop
endfacet
facet normal 0.0 0.0 1.0
  outer loop
    vertex 17.43899667371034 35.489444317467026 27.937200000000008
    vertex 29.10646491897979 34.864444317467004 27.937200000000008
    vertex 28.981589390849 35.16592051108885 27.937200000000008
  endloop
endfacet
facet normal 0.0 0.0 1.0
  outer loop
    vertex 17.43899667371034 35.489444317467026 27.937200000000008
    vertex 28.981589390849 35.16592051108885 27.937200000000008
    vertex 28.93899667371033 35.489444317467004 27.937200000000008
  endloop
endfacet
facet normal 0.0 0.0 1.0
  outer loop
    vertex 29.563996673710342 34.40691256273645 27.937200000000008
    vertex 32.58899667371035 32.739444317467004 27.937200000000008
    vertex 29.86547286733219 34.28203703460567 27.937200000000008
  endloop
endfacet
facet normal 0.0 0.0 1.0
  outer loop
    vertex 29.86547286733219 34.28203703460567 27.937200000000008
    vertex 32.58899667371035 32.739444317467004 27.937200000000008
    vertex 30.188996673710346 34.23944431746701 27.937200000000008
  endloop
endfacet
facet normal 0.0 0.0 1.0
  outer loop
    vertex 30.188996673710346 34.23944431746701 27.937200000000008
    vertex 32.58899667371035 32.739444317467004 27.937200000000008
    vertex 30.512520480088497 34.28203703460567 27.937200000000008
  endloop
endfacet
facet normal 0.0 0.0 1.0
  outer loop
    vertex 30.512520480088497 34.28203703460567 27.937200000000008
    vertex 32.58899667371035 32.739444317467004 27.937200000000008
    vertex 30.813996673710346 34.406912562736466 27.937200000000008
  endloop
endfacet
facet normal 0.0 0.0 1.0
  outer loop
    vertex 30.813996673710346 34.406912562736466 27.937200000000008
    vertex 32.58899667371035 32.739444317467004 27.937200000000008
    vertex 31.072880150193527 34.605560840983834 27.937200000000008
  endloop
endfacet
facet normal 0.0 0.0 1.0
  outer loop
    vertex 31.072880150193527 34.605560840983834 27.937200000000008
    vertex 32.58899667371035 32.739444317467004 27.937200000000008
    vertex 31.271528428440895 34.86444431746702 27.937200000000008
  endloop
endfacet
facet normal 0.0 0.0 1.0
  outer loop
    vertex 31.271528428440895 34.86444431746702 27.937200000000008
    vertex 32.58899667371035 32.739444317467004 27.937200000000008
    vertex 31.396403956571678 35.16592051108887 27.937200000000008
  endloop
endfacet
facet normal 0.0 0.0 1.0
  outer loop
    vertex 31.396403956571678 35.16592051108887 27.937200000000008
    vertex 32.58899667371035 32.739444317467004 27.937200000000008
    vertex 31.43899667371034 35.48944431746702 27.937200000000008
  endloop
endfacet
facet normal 0.0 0.0 1.0
  outer loop
    vertex 12.338996673710339 37.73944431746701 27.937200000000008
    vertex 16.18899667371033 36.73944431746702 27.937200000000008
    vertex 32.58899667371035 37.73944431746701 27.937200000000008
  endloop
endfacet
facet normal 0.0 0.0 1.0
  outer loop
    vertex 16.18899667371033 36.73944431746702 27.937200000000008
    vertex 12.338996673710339 37.73944431746701 27.937200000000008
    vertex 15.86547286733218 36.696851600328344 27.937200000000008
  endloop
endfacet
facet normal 0.0 0.0 1.0
  outer loop
    vertex 15.86547286733218 36.696851600328344 27.937200000000008
    vertex 12.338996673710339 37.73944431746701 27.937200000000008
    vertex 15.563996673710331 36.57197607219756 27.937200000000008
  endloop
endfacet
facet normal 0.0 0.0 1.0
  outer loop
    vertex 15.563996673710331 36.57197607219756 27.937200000000008
    vertex 12.338996673710339 37.73944431746701 27.937200000000008
    vertex 15.305113197227145 36.373327793950196 27.937200000000008
  endloop
endfacet
facet normal 0.0 0.0 1.0
  outer loop
    vertex 15.305113197227145 36.373327793950196 27.937200000000008
    vertex 12.338996673710339 37.73944431746701 27.937200000000008
    vertex 15.106464918979785 36.114444317467004 27.937200000000008
  endloop
endfacet
facet normal 0.0 0.0 1.0
  outer loop
    vertex 15.106464918979785 36.114444317467004 27.937200000000008
    vertex 12.338996673710339 37.73944431746701 27.937200000000008
    vertex 14.981589390848999 35.81296812384516 27.937200000000008
  endloop
endfacet
facet normal 0.0 0.0 1.0
  outer loop
    vertex 14.981589390848999 35.81296812384516 27.937200000000008
    vertex 12.338996673710339 37.73944431746701 27.937200000000008
    vertex 14.938996673710339 35.489444317467004 27.937200000000008
  endloop
endfacet
facet normal 0.0 0.0 1.0
  outer loop
    vertex 32.58899667371035 37.73944431746701 27.937200000000008
    vertex 16.18899667371033 36.73944431746702 27.937200000000008
    vertex 16.51252048008848 36.69685160032835 27.937200000000008
  endloop
endfacet
facet normal 0.0 0.0 1.0
  outer loop
    vertex 32.58899667371035 37.73944431746701 27.937200000000008
    vertex 16.51252048008848 36.69685160032835 27.937200000000008
    vertex 16.81399667371033 36.571976072197565 27.937200000000008
  endloop
endfacet
facet normal 0.0 0.0 1.0
  outer loop
    vertex 32.58899667371035 37.73944431746701 27.937200000000008
    vertex 16.81399667371033 36.571976072197565 27.937200000000008
    vertex 17.072880150193516 36.3733277939502 27.937200000000008
  endloop
endfacet
facet normal 0.0 0.0 1.0
  outer loop
    vertex 32.58899667371035 37.73944431746701 27.937200000000008
    vertex 17.072880150193516 36.3733277939502 27.937200000000008
    vertex 17.271528428440885 36.114444317467026 27.937200000000008
  endloop
endfacet
facet normal 0.0 0.0 1.0
  outer loop
    vertex 32.58899667371035 37.73944431746701 27.937200000000008
    vertex 17.271528428440885 36.114444317467026 27.937200000000008
    vertex 17.39640395657167 35.812968123845174 27.937200000000008
  endloop
endfacet
facet normal 0.0 0.0 1.0
  outer loop
    vertex 32.58899667371035 37.73944431746701 27.937200000000008
    vertex 17.39640395657167 35.812968123845174 27.937200000000008
    vertex 17.43899667371034 35.489444317467026 27.937200000000008
  endloop
endfacet
facet normal 0.0 0.0 1.0
  outer loop
    vertex 32.58899667371035 37.73944431746701 27.937200000000008
    vertex 17.43899667371034 35.489444317467026 27.937200000000008
    vertex 29.865472867332173 36.69685160032835 27.937200000000008
  endloop
endfacet
facet normal 0.0 0.0 1.0
  outer loop
    vertex 29.865472867332173 36.69685160032835 27.937200000000008
    vertex 17.43899667371034 35.489444317467026 27.937200000000008
    vertex 29.563996673710324 36.57197607219756 27.937200000000008
  endloop
endfacet
facet normal 0.0 0.0 1.0
  outer loop
    vertex 29.563996673710324 36.57197607219756 27.937200000000008
    vertex 17.43899667371034 35.489444317467026 27.937200000000008
    vertex 29.305113197227143 36.373327793950196 27.937200000000008
  endloop
endfacet
facet normal 0.0 0.0 1.0
  outer loop
    vertex 29.305113197227143 36.373327793950196 27.937200000000008
    vertex 17.43899667371034 35.489444317467026 27.937200000000008
    vertex 29.106464918979775 36.11444431746701 27.937200000000008
  endloop
endfacet
facet normal 0.0 0.0 1.0
  outer loop
    vertex 29.106464918979775 36.11444431746701 27.937200000000008
    vertex 17.43899667371034 35.489444317467026 27.937200000000008
    vertex 28.981589390848992 35.81296812384516 27.937200000000008
  endloop
endfacet
facet normal 0.0 0.0 1.0
  outer loop
    vertex 28.981589390848992 35.81296812384516 27.937200000000008
    vertex 17.43899667371034 35.489444317467026 27.937200000000008
    vertex 28.93899667371033 35.489444317467004 27.937200000000008
  endloop
endfacet
facet normal 0.0 0.0 1.0
  outer loop
    vertex 32.58899667371035 37.73944431746701 27.937200000000008
    vertex 29.865472867332173 36.69685160032835 27.937200000000008
    vertex 30.188996673710328 36.73944431746702 27.937200000000008
  endloop
endfacet
facet normal 0.0 0.0 1.0
  outer loop
    vertex 32.58899667371035 37.73944431746701 27.937200000000008
    vertex 30.188996673710328 36.73944431746702 27.937200000000008
    vertex 30.51252048008848 36.69685160032836 27.937200000000008
  endloop
endfacet
facet normal 0.0 0.0 1.0
  outer loop
    vertex 32.58899667371035 37.73944431746701 27.937200000000008
    vertex 30.51252048008848 36.69685160032836 27.937200000000008
    vertex 30.813996673710328 36.57197607219757 27.937200000000008
  endloop
endfacet
facet normal 0.0 0.0 1.0
  outer loop
    vertex 32.58899667371035 37.73944431746701 27.937200000000008
    vertex 30.813996673710328 36.57197607219757 27.937200000000008
    vertex 31.072880150193516 36.3733277939502 27.937200000000008
  endloop
endfacet
facet normal 0.0 0.0 1.0
  outer loop
    vertex 32.58899667371035 37.73944431746701 27.937200000000008
    vertex 31.072880150193516 36.3733277939502 27.937200000000008
    vertex 31.271528428440885 36.114444317467026 27.937200000000008
  endloop
endfacet
facet normal 0.0 0.0 1.0
  outer loop
    vertex 32.58899667371035 37.73944431746701 27.937200000000008
    vertex 31.271528428440885 36.114444317467026 27.937200000000008
    vertex 31.39640395657167 35.812968123845174 27.937200000000008
  endloop
endfacet
facet normal 0.0 0.0 1.0
  outer loop
    vertex 32.58899667371035 37.73944431746701 27.937200000000008
    vertex 31.39640395657167 35.812968123845174 27.937200000000008
    vertex 31.43899667371034 35.48944431746702 27.937200000000008
  endloop
endfacet
facet normal 0.0 0.0 1.0
  outer loop
    vertex 32.58899667371035 37.73944431746701 27.937200000000008
    vertex 31.43899667371034 35.48944431746702 27.937200000000008
    vertex 32.58899667371035 32.739444317467004 27.937200000000008
  endloop
endfacet
endsolid V2-Joystick
