solid V2-Joystick
facet normal -0.0 -0.0 -1.0
  outer loop
    vertex 14.257145021132198 36.00708240767204 24.937200000000008
    vertex 14.257145021132203 34.97180622726196 24.937200000000008
    vertex 14.188996673710339 35.489444317467 24.937200000000008
  endloop
endfacet
facet normal -0.0 -0.0 -1.0
  outer loop
    vertex 14.257145021132203 34.97180622726196 24.937200000000008
    vertex 14.257145021132198 36.00708240767204 24.937200000000008
    vertex 14.34275238858816 36.21375687522329 24.937200000000008
  endloop
endfacet
facet normal -0.0 -0.0 -1.0
  outer loop
    vertex 14.257145021132203 34.97180622726196 24.937200000000008
    vertex 14.34275238858816 36.21375687522329 24.937200000000008
    vertex 14.34275238858816 34.765131759710734 24.937200000000008
  endloop
endfacet
facet normal -0.0 -0.0 -1.0
  outer loop
    vertex 14.34275238858816 34.765131759710734 24.937200000000008
    vertex 14.34275238858816 36.21375687522329 24.937200000000008
    vertex 14.456945866141451 36.489444317467 24.937200000000008
  endloop
endfacet
facet normal -0.0 -0.0 -1.0
  outer loop
    vertex 14.34275238858816 34.765131759710734 24.937200000000008
    vertex 14.456945866141451 36.489444317467 24.937200000000008
    vertex 14.456945866141469 34.489444317467 24.937200000000008
  endloop
endfacet
facet normal -0.0 -0.0 -1.0
  outer loop
    vertex 14.456945866141469 34.489444317467 24.937200000000008
    vertex 14.456945866141451 36.489444317467 24.937200000000008
    vertex 14.60378044914973 36.680802871653945 24.937200000000008
  endloop
endfacet
facet normal -0.0 -0.0 -1.0
  outer loop
    vertex 14.456945866141469 34.489444317467 24.937200000000008
    vertex 14.60378044914973 36.680802871653945 24.937200000000008
    vertex 14.632436342460274 34.26074067603635 24.937200000000008
  endloop
endfacet
facet normal -0.0 -0.0 -1.0
  outer loop
    vertex 14.632436342460274 34.26074067603635 24.937200000000008
    vertex 14.60378044914973 36.680802871653945 24.937200000000008
    vertex 14.774783111337232 36.9036578798401 24.937200000000008
  endloop
endfacet
facet normal -0.0 -0.0 -1.0
  outer loop
    vertex 14.632436342460274 34.26074067603635 24.937200000000008
    vertex 14.774783111337232 36.9036578798401 24.937200000000008
    vertex 14.774783111337253 34.075230755093905 24.937200000000008
  endloop
endfacet
facet normal -0.0 -0.0 -1.0
  outer loop
    vertex 14.774783111337253 34.075230755093905 24.937200000000008
    vertex 14.774783111337232 36.9036578798401 24.937200000000008
    vertex 14.938996673710339 35.48944431746701 24.93846700000001
  endloop
endfacet
facet normal -0.0 -0.0 -1.0
  outer loop
    vertex 14.938996673710339 35.48944431746701 24.93846700000001
    vertex 14.774783111337232 36.9036578798401 24.937200000000008
    vertex 14.981589390849004 35.81296812384516 24.93846700000001
  endloop
endfacet
facet normal -0.0 -0.0 -1.0
  outer loop
    vertex 14.981589390849004 35.81296812384516 24.93846700000001
    vertex 14.774783111337232 36.9036578798401 24.937200000000008
    vertex 15.18899667371032 37.22149512503588 24.937200000000008
  endloop
endfacet
facet normal -0.0 -0.0 -1.0
  outer loop
    vertex 14.981589390849004 35.81296812384516 24.93846700000001
    vertex 15.18899667371032 37.22149512503588 24.937200000000008
    vertex 15.106464918979787 36.11444431746701 24.93846700000001
  endloop
endfacet
facet normal -0.0 -0.0 -1.0
  outer loop
    vertex 15.106464918979787 36.11444431746701 24.93846700000001
    vertex 15.18899667371032 37.22149512503588 24.937200000000008
    vertex 15.305113197227154 36.373327793950196 24.93846700000001
  endloop
endfacet
facet normal -0.0 -0.0 -1.0
  outer loop
    vertex 15.305113197227154 36.373327793950196 24.93846700000001
    vertex 15.18899667371032 37.22149512503588 24.937200000000008
    vertex 15.67135858350528 37.42129597004514 24.937200000000008
  endloop
endfacet
facet normal -0.0 -0.0 -1.0
  outer loop
    vertex 15.305113197227154 36.373327793950196 24.93846700000001
    vertex 15.67135858350528 37.42129597004514 24.937200000000008
    vertex 15.563996673710337 36.57197607219756 24.93846700000001
  endloop
endfacet
facet normal -0.0 -0.0 -1.0
  outer loop
    vertex 15.563996673710337 36.57197607219756 24.93846700000001
    vertex 15.67135858350528 37.42129597004514 24.937200000000008
    vertex 15.865472867332185 36.696851600328344 24.93846700000001
  endloop
endfacet
facet normal -0.0 -0.0 -1.0
  outer loop
    vertex 15.865472867332185 36.696851600328344 24.93846700000001
    vertex 15.67135858350528 37.42129597004514 24.937200000000008
    vertex 16.188996673710317 37.48944431746701 24.937200000000008
  endloop
endfacet
facet normal -0.0 -0.0 -1.0
  outer loop
    vertex 15.865472867332185 36.696851600328344 24.93846700000001
    vertex 16.188996673710317 37.48944431746701 24.937200000000008
    vertex 16.188996673710335 36.73944431746701 24.93846700000001
  endloop
endfacet
facet normal -0.0 -0.0 -1.0
  outer loop
    vertex 16.188996673710335 36.73944431746701 24.93846700000001
    vertex 16.188996673710317 37.48944431746701 24.937200000000008
    vertex 16.706634763915364 37.42129597004515 24.937200000000008
  endloop
endfacet
facet normal -0.0 -0.0 -1.0
  outer loop
    vertex 16.188996673710335 36.73944431746701 24.93846700000001
    vertex 16.706634763915364 37.42129597004515 24.937200000000008
    vertex 16.512520480088487 36.696851600328344 24.93846700000001
  endloop
endfacet
facet normal -0.0 -0.0 -1.0
  outer loop
    vertex 16.512520480088487 36.696851600328344 24.93846700000001
    vertex 16.706634763915364 37.42129597004515 24.937200000000008
    vertex 16.813996673710335 36.57197607219756 24.93846700000001
  endloop
endfacet
facet normal -0.0 -0.0 -1.0
  outer loop
    vertex 16.813996673710335 36.57197607219756 24.93846700000001
    vertex 16.706634763915364 37.42129597004515 24.937200000000008
    vertex 17.18899667371032 37.221495125035894 24.937200000000008
  endloop
endfacet
facet normal -0.0 -0.0 -1.0
  outer loop
    vertex 16.813996673710335 36.57197607219756 24.93846700000001
    vertex 17.18899667371032 37.221495125035894 24.937200000000008
    vertex 17.072880150193516 36.373327793950196 24.93846700000001
  endloop
endfacet
facet normal -0.0 -0.0 -1.0
  outer loop
    vertex 17.072880150193516 36.373327793950196 24.93846700000001
    vertex 17.18899667371032 37.221495125035894 24.937200000000008
    vertex 17.271528428440885 36.11444431746701 24.93846700000001
  endloop
endfacet
facet normal -0.0 -0.0 -1.0
  outer loop
    vertex 17.271528428440885 36.11444431746701 24.93846700000001
    vertex 17.18899667371032 37.221495125035894 24.937200000000008
    vertex 17.603210236083417 36.90365787984012 24.937200000000008
  endloop
endfacet
facet normal -0.0 -0.0 -1.0
  outer loop
    vertex 17.271528428440885 36.11444431746701 24.93846700000001
    vertex 17.603210236083417 36.90365787984012 24.937200000000008
    vertex 17.396403956571667 35.81296812384516 24.93846700000001
  endloop
endfacet
facet normal -0.0 -0.0 -1.0
  outer loop
    vertex 17.396403956571667 35.81296812384516 24.93846700000001
    vertex 17.603210236083417 36.90365787984012 24.937200000000008
    vertex 17.438996673710335 35.48944431746701 24.93846700000001
  endloop
endfacet
facet normal -0.0 -0.0 -1.0
  outer loop
    vertex 14.774783111337253 34.075230755093905 24.937200000000008
    vertex 14.981589390849004 35.16592051108886 24.93846700000001
    vertex 15.18899667371035 33.75739350989813 24.937200000000008
  endloop
endfacet
facet normal -0.0 -0.0 -1.0
  outer loop
    vertex 14.981589390849004 35.16592051108886 24.93846700000001
    vertex 14.774783111337253 34.075230755093905 24.937200000000008
    vertex 14.938996673710339 35.48944431746701 24.93846700000001
  endloop
endfacet
facet normal -0.0 -0.0 -1.0
  outer loop
    vertex 15.18899667371035 33.75739350989813 24.937200000000008
    vertex 14.981589390849004 35.16592051108886 24.93846700000001
    vertex 15.106464918979787 34.86444431746701 24.93846700000001
  endloop
endfacet
facet normal -0.0 -0.0 -1.0
  outer loop
    vertex 15.18899667371035 33.75739350989813 24.937200000000008
    vertex 15.106464918979787 34.86444431746701 24.93846700000001
    vertex 15.305113197227154 34.605560840983834 24.93846700000001
  endloop
endfacet
facet normal -0.0 -0.0 -1.0
  outer loop
    vertex 15.18899667371035 33.75739350989813 24.937200000000008
    vertex 15.305113197227154 34.605560840983834 24.93846700000001
    vertex 15.671358583505313 33.55759266488887 24.937200000000008
  endloop
endfacet
facet normal -0.0 -0.0 -1.0
  outer loop
    vertex 15.671358583505313 33.55759266488887 24.937200000000008
    vertex 15.305113197227154 34.605560840983834 24.93846700000001
    vertex 15.563996673710337 34.406912562736466 24.93846700000001
  endloop
endfacet
facet normal -0.0 -0.0 -1.0
  outer loop
    vertex 15.671358583505313 33.55759266488887 24.937200000000008
    vertex 15.563996673710337 34.406912562736466 24.93846700000001
    vertex 15.865472867332185 34.28203703460568 24.93846700000001
  endloop
endfacet
facet normal -0.0 -0.0 -1.0
  outer loop
    vertex 15.671358583505313 33.55759266488887 24.937200000000008
    vertex 15.865472867332185 34.28203703460568 24.93846700000001
    vertex 16.188996673710353 33.48944431746702 24.937200000000008
  endloop
endfacet
facet normal -0.0 -0.0 -1.0
  outer loop
    vertex 16.188996673710353 33.48944431746702 24.937200000000008
    vertex 15.865472867332185 34.28203703460568 24.93846700000001
    vertex 16.188996673710335 34.23944431746701 24.93846700000001
  endloop
endfacet
facet normal -0.0 -0.0 -1.0
  outer loop
    vertex 16.188996673710353 33.48944431746702 24.937200000000008
    vertex 16.188996673710335 34.23944431746701 24.93846700000001
    vertex 16.51252048008848 34.28203703460568 24.93846700000001
  endloop
endfacet
facet normal -0.0 -0.0 -1.0
  outer loop
    vertex 16.188996673710353 33.48944431746702 24.937200000000008
    vertex 16.51252048008848 34.28203703460568 24.93846700000001
    vertex 16.706634763915392 33.55759266488888 24.937200000000008
  endloop
endfacet
facet normal -0.0 -0.0 -1.0
  outer loop
    vertex 16.706634763915392 33.55759266488888 24.937200000000008
    vertex 16.51252048008848 34.28203703460568 24.93846700000001
    vertex 16.813996673710335 34.406912562736466 24.93846700000001
  endloop
endfacet
facet normal -0.0 -0.0 -1.0
  outer loop
    vertex 16.706634763915392 33.55759266488888 24.937200000000008
    vertex 16.813996673710335 34.406912562736466 24.93846700000001
    vertex 17.18899667371035 33.757393509898144 24.937200000000008
  endloop
endfacet
facet normal -0.0 -0.0 -1.0
  outer loop
    vertex 17.18899667371035 33.757393509898144 24.937200000000008
    vertex 16.813996673710335 34.406912562736466 24.93846700000001
    vertex 17.072880150193516 34.605560840983834 24.93846700000001
  endloop
endfacet
facet normal -0.0 -0.0 -1.0
  outer loop
    vertex 17.18899667371035 33.757393509898144 24.937200000000008
    vertex 17.072880150193516 34.605560840983834 24.93846700000001
    vertex 17.271528428440885 34.86444431746701 24.93846700000001
  endloop
endfacet
facet normal -0.0 -0.0 -1.0
  outer loop
    vertex 17.18899667371035 33.757393509898144 24.937200000000008
    vertex 17.271528428440885 34.86444431746701 24.93846700000001
    vertex 17.60321023608344 34.07523075509393 24.937200000000008
  endloop
endfacet
facet normal -0.0 -0.0 -1.0
  outer loop
    vertex 17.60321023608344 34.07523075509393 24.937200000000008
    vertex 17.271528428440885 34.86444431746701 24.93846700000001
    vertex 17.396403956571667 35.16592051108886 24.93846700000001
  endloop
endfacet
facet normal -0.0 -0.0 -1.0
  outer loop
    vertex 17.60321023608344 34.07523075509393 24.937200000000008
    vertex 17.396403956571667 35.16592051108886 24.93846700000001
    vertex 17.438996673710335 35.48944431746701 24.93846700000001
  endloop
endfacet
facet normal -0.0 -0.0 -1.0
  outer loop
    vertex 17.60321023608344 34.07523075509393 24.937200000000008
    vertex 17.438996673710335 35.48944431746701 24.93846700000001
    vertex 17.603210236083417 36.90365787984012 24.937200000000008
  endloop
endfacet
facet normal -0.0 -0.0 -1.0
  outer loop
    vertex 17.60321023608344 34.07523075509393 24.937200000000008
    vertex 17.603210236083417 36.90365787984012 24.937200000000008
    vertex 17.921047481279203 36.489444317467026 24.937200000000008
  endloop
endfacet
facet normal -0.0 -0.0 -1.0
  outer loop
    vertex 17.60321023608344 34.07523075509393 24.937200000000008
    vertex 17.921047481279203 36.489444317467026 24.937200000000008
    vertex 17.92104748127922 34.489444317467026 24.937200000000008
  endloop
endfacet
facet normal -0.0 -0.0 -1.0
  outer loop
    vertex 17.92104748127922 34.489444317467026 24.937200000000008
    vertex 17.921047481279203 36.489444317467026 24.937200000000008
    vertex 18.120848326288467 36.00708240767207 24.937200000000008
  endloop
endfacet
facet normal -0.0 -0.0 -1.0
  outer loop
    vertex 17.92104748127922 34.489444317467026 24.937200000000008
    vertex 18.120848326288467 36.00708240767207 24.937200000000008
    vertex 18.120848326288474 34.971806227261986 24.937200000000008
  endloop
endfacet
facet normal -0.0 -0.0 -1.0
  outer loop
    vertex 18.120848326288474 34.971806227261986 24.937200000000008
    vertex 18.120848326288467 36.00708240767207 24.937200000000008
    vertex 18.18899667371033 35.489444317467026 24.937200000000008
  endloop
endfacet
facet normal -0.9914448613738099 0.13052619222005613 0.0
  outer loop
    vertex 17.438996673710335 35.48944431746701 27.937200000000008
    vertex 17.396403956571667 35.16592051108886 24.93846700000001
    vertex 17.396403956571667 35.16592051108886 27.937200000000008
  endloop
endfacet
facet normal -0.9914448613738099 0.13052619222005613 0.0
  outer loop
    vertex 17.396403956571667 35.16592051108886 24.93846700000001
    vertex 17.438996673710335 35.48944431746701 27.937200000000008
    vertex 17.438996673710335 35.48944431746701 24.93846700000001
  endloop
endfacet
facet normal -0.9914448613738099 -0.13052619222005613 -0.0
  outer loop
    vertex 17.396403956571667 35.81296812384516 27.937200000000008
    vertex 17.438996673710335 35.48944431746701 24.93846700000001
    vertex 17.438996673710335 35.48944431746701 27.937200000000008
  endloop
endfacet
facet normal -0.9914448613738099 -0.13052619222005613 -0.0
  outer loop
    vertex 17.438996673710335 35.48944431746701 24.93846700000001
    vertex 17.396403956571667 35.81296812384516 27.937200000000008
    vertex 17.396403956571667 35.81296812384516 24.93846700000001
  endloop
endfacet
facet normal -0.7933533402912287 -0.6087614290087292 -0.0
  outer loop
    vertex 17.072880150193516 36.373327793950196 27.937200000000008
    vertex 17.271528428440885 36.11444431746701 24.93846700000001
    vertex 17.271528428440885 36.11444431746701 27.937200000000008
  endloop
endfacet
facet normal -0.7933533402912287 -0.6087614290087292 -0.0
  outer loop
    vertex 17.271528428440885 36.11444431746701 24.93846700000001
    vertex 17.072880150193516 36.373327793950196 27.937200000000008
    vertex 17.072880150193516 36.373327793950196 24.93846700000001
  endloop
endfacet
facet normal -0.6087614290087292 -0.7933533402912287 -0.0
  outer loop
    vertex 17.072880150193516 36.373327793950196 27.937200000000008
    vertex 16.813996673710335 36.57197607219756 24.93846700000001
    vertex 17.072880150193516 36.373327793950196 24.93846700000001
  endloop
endfacet
facet normal -0.6087614290087292 -0.7933533402912287 -0.0
  outer loop
    vertex 16.813996673710335 36.57197607219756 24.93846700000001
    vertex 17.072880150193516 36.373327793950196 27.937200000000008
    vertex 16.813996673710335 36.57197607219756 27.937200000000008
  endloop
endfacet
facet normal -0.38268343236508284 -0.9238795325112896 -0.0
  outer loop
    vertex 16.813996673710335 36.57197607219756 27.937200000000008
    vertex 16.512520480088487 36.696851600328344 24.93846700000001
    vertex 16.813996673710335 36.57197607219756 24.93846700000001
  endloop
endfacet
facet normal -0.38268343236508284 -0.9238795325112896 -0.0
  outer loop
    vertex 16.512520480088487 36.696851600328344 24.93846700000001
    vertex 16.813996673710335 36.57197607219756 27.937200000000008
    vertex 16.512520480088487 36.696851600328344 27.937200000000008
  endloop
endfacet
facet normal 0.13052619222005613 -0.9914448613738099 0.0
  outer loop
    vertex 16.188996673710335 36.73944431746701 27.937200000000008
    vertex 15.865472867332185 36.696851600328344 24.93846700000001
    vertex 16.188996673710335 36.73944431746701 24.93846700000001
  endloop
endfacet
facet normal 0.13052619222005613 -0.9914448613738099 0.0
  outer loop
    vertex 15.865472867332185 36.696851600328344 24.93846700000001
    vertex 16.188996673710335 36.73944431746701 27.937200000000008
    vertex 15.865472867332185 36.696851600328344 27.937200000000008
  endloop
endfacet
facet normal -0.38268343236507685 0.9238795325112923 0.0
  outer loop
    vertex 16.51252048008848 34.28203703460568 27.937200000000008
    vertex 16.813996673710335 34.406912562736466 24.93846700000001
    vertex 16.51252048008848 34.28203703460568 24.93846700000001
  endloop
endfacet
facet normal -0.38268343236507685 0.9238795325112923 0.0
  outer loop
    vertex 16.813996673710335 34.406912562736466 24.93846700000001
    vertex 16.51252048008848 34.28203703460568 27.937200000000008
    vertex 16.813996673710335 34.406912562736466 27.937200000000008
  endloop
endfacet
facet normal 0.38268343236508284 -0.9238795325112896 0.0
  outer loop
    vertex 15.865472867332185 36.696851600328344 27.937200000000008
    vertex 15.563996673710337 36.57197607219756 24.93846700000001
    vertex 15.865472867332185 36.696851600328344 24.93846700000001
  endloop
endfacet
facet normal 0.38268343236508284 -0.9238795325112896 0.0
  outer loop
    vertex 15.563996673710337 36.57197607219756 24.93846700000001
    vertex 15.865472867332185 36.696851600328344 27.937200000000008
    vertex 15.563996673710337 36.57197607219756 27.937200000000008
  endloop
endfacet
facet normal -0.13052619222005837 0.9914448613738096 0.0
  outer loop
    vertex 16.188996673710335 34.23944431746701 27.937200000000008
    vertex 16.51252048008848 34.28203703460568 24.93846700000001
    vertex 16.188996673710335 34.23944431746701 24.93846700000001
  endloop
endfacet
facet normal -0.13052619222005837 0.9914448613738096 0.0
  outer loop
    vertex 16.51252048008848 34.28203703460568 24.93846700000001
    vertex 16.188996673710335 34.23944431746701 27.937200000000008
    vertex 16.51252048008848 34.28203703460568 27.937200000000008
  endloop
endfacet
facet normal 0.7933533402912287 -0.6087614290087292 0.0
  outer loop
    vertex 15.305113197227154 36.373327793950196 24.93846700000001
    vertex 15.106464918979787 36.11444431746701 27.937200000000008
    vertex 15.106464918979787 36.11444431746701 24.93846700000001
  endloop
endfacet
facet normal 0.7933533402912287 -0.6087614290087292 0.0
  outer loop
    vertex 15.106464918979787 36.11444431746701 27.937200000000008
    vertex 15.305113197227154 36.373327793950196 24.93846700000001
    vertex 15.305113197227154 36.373327793950196 27.937200000000008
  endloop
endfacet
facet normal 0.9238795325112896 -0.38268343236508284 0.0
  outer loop
    vertex 15.106464918979787 36.11444431746701 24.93846700000001
    vertex 14.981589390849004 35.81296812384516 27.937200000000008
    vertex 14.981589390849004 35.81296812384516 24.93846700000001
  endloop
endfacet
facet normal 0.9238795325112896 -0.38268343236508284 0.0
  outer loop
    vertex 14.981589390849004 35.81296812384516 27.937200000000008
    vertex 15.106464918979787 36.11444431746701 24.93846700000001
    vertex 15.106464918979787 36.11444431746701 27.937200000000008
  endloop
endfacet
facet normal 0.9914448613738099 -0.13052619222005613 0.0
  outer loop
    vertex 14.981589390849004 35.81296812384516 24.93846700000001
    vertex 14.938996673710339 35.48944431746701 27.937200000000008
    vertex 14.938996673710339 35.48944431746701 24.93846700000001
  endloop
endfacet
facet normal 0.9914448613738099 -0.13052619222005613 0.0
  outer loop
    vertex 14.938996673710339 35.48944431746701 27.937200000000008
    vertex 14.981589390849004 35.81296812384516 24.93846700000001
    vertex 14.981589390849004 35.81296812384516 27.937200000000008
  endloop
endfacet
facet normal -0.7933533402912287 0.6087614290087292 0.0
  outer loop
    vertex 17.271528428440885 34.86444431746701 27.937200000000008
    vertex 17.072880150193516 34.605560840983834 24.93846700000001
    vertex 17.072880150193516 34.605560840983834 27.937200000000008
  endloop
endfacet
facet normal -0.7933533402912287 0.6087614290087292 0.0
  outer loop
    vertex 17.072880150193516 34.605560840983834 24.93846700000001
    vertex 17.271528428440885 34.86444431746701 27.937200000000008
    vertex 17.271528428440885 34.86444431746701 24.93846700000001
  endloop
endfacet
facet normal -0.9238795325112896 -0.38268343236508284 -0.0
  outer loop
    vertex 17.271528428440885 36.11444431746701 27.937200000000008
    vertex 17.396403956571667 35.81296812384516 24.93846700000001
    vertex 17.396403956571667 35.81296812384516 27.937200000000008
  endloop
endfacet
facet normal -0.9238795325112896 -0.38268343236508284 -0.0
  outer loop
    vertex 17.396403956571667 35.81296812384516 24.93846700000001
    vertex 17.271528428440885 36.11444431746701 27.937200000000008
    vertex 17.271528428440885 36.11444431746701 24.93846700000001
  endloop
endfacet
facet normal -0.6087614290087292 0.7933533402912287 0.0
  outer loop
    vertex 16.813996673710335 34.406912562736466 27.937200000000008
    vertex 17.072880150193516 34.605560840983834 24.93846700000001
    vertex 16.813996673710335 34.406912562736466 24.93846700000001
  endloop
endfacet
facet normal -0.6087614290087292 0.7933533402912287 0.0
  outer loop
    vertex 17.072880150193516 34.605560840983834 24.93846700000001
    vertex 16.813996673710335 34.406912562736466 27.937200000000008
    vertex 17.072880150193516 34.605560840983834 27.937200000000008
  endloop
endfacet
facet normal -0.9238795325112896 0.38268343236508284 0.0
  outer loop
    vertex 17.396403956571667 35.16592051108886 27.937200000000008
    vertex 17.271528428440885 34.86444431746701 24.93846700000001
    vertex 17.271528428440885 34.86444431746701 27.937200000000008
  endloop
endfacet
facet normal -0.9238795325112896 0.38268343236508284 0.0
  outer loop
    vertex 17.271528428440885 34.86444431746701 24.93846700000001
    vertex 17.396403956571667 35.16592051108886 27.937200000000008
    vertex 17.396403956571667 35.16592051108886 24.93846700000001
  endloop
endfacet
facet normal -0.13052619222005613 -0.9914448613738099 -0.0
  outer loop
    vertex 16.512520480088487 36.696851600328344 27.937200000000008
    vertex 16.188996673710335 36.73944431746701 24.93846700000001
    vertex 16.512520480088487 36.696851600328344 24.93846700000001
  endloop
endfacet
facet normal -0.13052619222005613 -0.9914448613738099 -0.0
  outer loop
    vertex 16.188996673710335 36.73944431746701 24.93846700000001
    vertex 16.512520480088487 36.696851600328344 27.937200000000008
    vertex 16.188996673710335 36.73944431746701 27.937200000000008
  endloop
endfacet
facet normal 0.6087614290087292 -0.7933533402912287 0.0
  outer loop
    vertex 15.563996673710337 36.57197607219756 27.937200000000008
    vertex 15.305113197227154 36.373327793950196 24.93846700000001
    vertex 15.563996673710337 36.57197607219756 24.93846700000001
  endloop
endfacet
facet normal 0.6087614290087292 -0.7933533402912287 0.0
  outer loop
    vertex 15.305113197227154 36.373327793950196 24.93846700000001
    vertex 15.563996673710337 36.57197607219756 27.937200000000008
    vertex 15.305113197227154 36.373327793950196 27.937200000000008
  endloop
endfacet
facet normal 0.9914448613738099 0.13052619222005613 0.0
  outer loop
    vertex 14.938996673710339 35.48944431746701 24.93846700000001
    vertex 14.981589390849004 35.16592051108886 27.937200000000008
    vertex 14.981589390849004 35.16592051108886 24.93846700000001
  endloop
endfacet
facet normal 0.9914448613738099 0.13052619222005613 0.0
  outer loop
    vertex 14.981589390849004 35.16592051108886 27.937200000000008
    vertex 14.938996673710339 35.48944431746701 24.93846700000001
    vertex 14.938996673710339 35.48944431746701 27.937200000000008
  endloop
endfacet
facet normal 0.38268343236508284 0.9238795325112896 0.0
  outer loop
    vertex 15.563996673710337 34.406912562736466 27.937200000000008
    vertex 15.865472867332185 34.28203703460568 24.93846700000001
    vertex 15.563996673710337 34.406912562736466 24.93846700000001
  endloop
endfacet
facet normal 0.38268343236508284 0.9238795325112896 0.0
  outer loop
    vertex 15.865472867332185 34.28203703460568 24.93846700000001
    vertex 15.563996673710337 34.406912562736466 27.937200000000008
    vertex 15.865472867332185 34.28203703460568 27.937200000000008
  endloop
endfacet
facet normal 0.7933533402912287 0.6087614290087292 0.0
  outer loop
    vertex 15.106464918979787 34.86444431746701 24.93846700000001
    vertex 15.305113197227154 34.605560840983834 27.937200000000008
    vertex 15.305113197227154 34.605560840983834 24.93846700000001
  endloop
endfacet
facet normal 0.7933533402912287 0.6087614290087292 0.0
  outer loop
    vertex 15.305113197227154 34.605560840983834 27.937200000000008
    vertex 15.106464918979787 34.86444431746701 24.93846700000001
    vertex 15.106464918979787 34.86444431746701 27.937200000000008
  endloop
endfacet
facet normal 0.9238795325112896 0.38268343236508284 0.0
  outer loop
    vertex 14.981589390849004 35.16592051108886 24.93846700000001
    vertex 15.106464918979787 34.86444431746701 27.937200000000008
    vertex 15.106464918979787 34.86444431746701 24.93846700000001
  endloop
endfacet
facet normal 0.9238795325112896 0.38268343236508284 0.0
  outer loop
    vertex 15.106464918979787 34.86444431746701 27.937200000000008
    vertex 14.981589390849004 35.16592051108886 24.93846700000001
    vertex 14.981589390849004 35.16592051108886 27.937200000000008
  endloop
endfacet
facet normal 0.6087614290087292 0.7933533402912287 0.0
  outer loop
    vertex 15.305113197227154 34.605560840983834 27.937200000000008
    vertex 15.563996673710337 34.406912562736466 24.93846700000001
    vertex 15.305113197227154 34.605560840983834 24.93846700000001
  endloop
endfacet
facet normal 0.6087614290087292 0.7933533402912287 0.0
  outer loop
    vertex 15.563996673710337 34.406912562736466 24.93846700000001
    vertex 15.305113197227154 34.605560840983834 27.937200000000008
    vertex 15.563996673710337 34.406912562736466 27.937200000000008
  endloop
endfacet
facet normal 0.13052619222005613 0.9914448613738099 0.0
  outer loop
    vertex 15.865472867332185 34.28203703460568 27.937200000000008
    vertex 16.188996673710335 34.23944431746701 24.93846700000001
    vertex 15.865472867332185 34.28203703460568 24.93846700000001
  endloop
endfacet
facet normal 0.13052619222005613 0.9914448613738099 0.0
  outer loop
    vertex 16.188996673710335 34.23944431746701 24.93846700000001
    vertex 15.865472867332185 34.28203703460568 27.937200000000008
    vertex 16.188996673710335 34.23944431746701 27.937200000000008
  endloop
endfacet
facet normal 0.0 0.0 -1.0
  outer loop
    vertex 14.329789940620397 36.75666581493027 24.937200000000008
    vertex 14.188996673710339 35.489444317467 24.937200000000008
    vertex 14.094420823959528 36.31118150759575 24.937200000000008
  endloop
endfacet
facet normal 0.0 0.0 -1.0
  outer loop
    vertex 14.188996673710339 35.489444317467 24.937200000000008
    vertex 14.329789940620397 36.75666581493027 24.937200000000008
    vertex 14.257145021132198 36.00708240767204 24.937200000000008
  endloop
endfacet
facet normal 0.0 0.0 -1.0
  outer loop
    vertex 14.257145021132198 36.00708240767204 24.937200000000008
    vertex 14.329789940620397 36.75666581493027 24.937200000000008
    vertex 14.34275238858816 36.21375687522329 24.937200000000008
  endloop
endfacet
facet normal 0.0 0.0 -1.0
  outer loop
    vertex 14.34275238858816 36.21375687522329 24.937200000000008
    vertex 14.329789940620397 36.75666581493027 24.937200000000008
    vertex 14.658387446249613 37.13860634492583 24.937200000000008
  endloop
endfacet
facet normal 0.0 0.0 -1.0
  outer loop
    vertex 14.34275238858816 36.21375687522329 24.937200000000008
    vertex 14.658387446249613 37.13860634492583 24.937200000000008
    vertex 14.456945866141451 36.489444317467 24.937200000000008
  endloop
endfacet
facet normal 0.0 0.0 -1.0
  outer loop
    vertex 14.456945866141451 36.489444317467 24.937200000000008
    vertex 14.658387446249613 37.13860634492583 24.937200000000008
    vertex 14.60378044914973 36.680802871653945 24.937200000000008
  endloop
endfacet
facet normal 0.0 0.0 -1.0
  outer loop
    vertex 14.60378044914973 36.680802871653945 24.937200000000008
    vertex 14.658387446249613 37.13860634492583 24.937200000000008
    vertex 14.774783111337232 36.9036578798401 24.937200000000008
  endloop
endfacet
facet normal 0.0 0.0 -1.0
  outer loop
    vertex 14.774783111337232 36.9036578798401 24.937200000000008
    vertex 14.658387446249613 37.13860634492583 24.937200000000008
    vertex 15.063736089811247 37.43785100456369 24.937200000000008
  endloop
endfacet
facet normal 0.0 0.0 -1.0
  outer loop
    vertex 14.774783111337232 36.9036578798401 24.937200000000008
    vertex 15.063736089811247 37.43785100456369 24.937200000000008
    vertex 15.18899667371032 37.22149512503588 24.937200000000008
  endloop
endfacet
facet normal 0.0 0.0 -1.0
  outer loop
    vertex 15.18899667371032 37.22149512503588 24.937200000000008
    vertex 15.063736089811247 37.43785100456369 24.937200000000008
    vertex 15.525509997728577 37.63939441707274 24.937200000000008
  endloop
endfacet
facet normal 0.0 0.0 -1.0
  outer loop
    vertex 15.18899667371032 37.22149512503588 24.937200000000008
    vertex 15.525509997728577 37.63939441707274 24.937200000000008
    vertex 15.67135858350528 37.42129597004514 24.937200000000008
  endloop
endfacet
facet normal 0.0 0.0 -1.0
  outer loop
    vertex 15.67135858350528 37.42129597004514 24.937200000000008
    vertex 15.525509997728577 37.63939441707274 24.937200000000008
    vertex 16.02055389805872 37.73313035417775 24.937200000000008
  endloop
endfacet
facet normal 0.0 0.0 -1.0
  outer loop
    vertex 15.67135858350528 37.42129597004514 24.937200000000008
    vertex 16.02055389805872 37.73313035417775 24.937200000000008
    vertex 16.188996673710317 37.48944431746701 24.937200000000008
  endloop
endfacet
facet normal 0.0 0.0 -1.0
  outer loop
    vertex 16.188996673710317 37.48944431746701 24.937200000000008
    vertex 16.02055389805872 37.73313035417775 24.937200000000008
    vertex 16.524044222515812 37.71435850458512 24.937200000000008
  endloop
endfacet
facet normal 0.0 0.0 -1.0
  outer loop
    vertex 16.188996673710317 37.48944431746701 24.937200000000008
    vertex 16.524044222515812 37.71435850458512 24.937200000000008
    vertex 16.706634763915364 37.42129597004515 24.937200000000008
  endloop
endfacet
facet normal 0.0 0.0 -1.0
  outer loop
    vertex 16.706634763915364 37.42129597004515 24.937200000000008
    vertex 16.524044222515812 37.71435850458512 24.937200000000008
    vertex 17.010733863839068 37.58402016721782 24.937200000000008
  endloop
endfacet
facet normal 0.0 0.0 -1.0
  outer loop
    vertex 16.706634763915364 37.42129597004515 24.937200000000008
    vertex 17.010733863839068 37.58402016721782 24.937200000000008
    vertex 17.18899667371032 37.221495125035894 24.937200000000008
  endloop
endfacet
facet normal 0.0 0.0 -1.0
  outer loop
    vertex 17.18899667371032 37.221495125035894 24.937200000000008
    vertex 17.010733863839068 37.58402016721782 24.937200000000008
    vertex 17.456218171173592 37.34865105055696 24.937200000000008
  endloop
endfacet
facet normal 0.0 0.0 -1.0
  outer loop
    vertex 17.18899667371032 37.221495125035894 24.937200000000008
    vertex 17.456218171173592 37.34865105055696 24.937200000000008
    vertex 17.603210236083417 36.90365787984012 24.937200000000008
  endloop
endfacet
facet normal 0.0 0.0 -1.0
  outer loop
    vertex 17.603210236083417 36.90365787984012 24.937200000000008
    vertex 17.456218171173592 37.34865105055696 24.937200000000008
    vertex 17.838158701169153 37.020053544927734 24.937200000000008
  endloop
endfacet
facet normal 0.0 0.0 -1.0
  outer loop
    vertex 17.603210236083417 36.90365787984012 24.937200000000008
    vertex 17.838158701169153 37.020053544927734 24.937200000000008
    vertex 17.921047481279203 36.489444317467026 24.937200000000008
  endloop
endfacet
facet normal 0.0 0.0 -1.0
  outer loop
    vertex 17.921047481279203 36.489444317467026 24.937200000000008
    vertex 17.838158701169153 37.020053544927734 24.937200000000008
    vertex 18.137403360807017 36.6147049013661 24.937200000000008
  endloop
endfacet
facet normal 0.0 0.0 -1.0
  outer loop
    vertex 17.921047481279203 36.489444317467026 24.937200000000008
    vertex 18.137403360807017 36.6147049013661 24.937200000000008
    vertex 18.120848326288467 36.00708240767207 24.937200000000008
  endloop
endfacet
facet normal 0.0 0.0 -1.0
  outer loop
    vertex 18.120848326288467 36.00708240767207 24.937200000000008
    vertex 18.137403360807017 36.6147049013661 24.937200000000008
    vertex 18.18899667371033 35.489444317467026 24.937200000000008
  endloop
endfacet
facet normal 0.0 0.0 -1.0
  outer loop
    vertex 18.18899667371033 35.489444317467026 24.937200000000008
    vertex 18.137403360807017 36.6147049013661 24.937200000000008
    vertex 18.338946773316056 36.15293099344877 24.937200000000008
  endloop
endfacet
facet normal 0.0 0.0 -1.0
  outer loop
    vertex 18.18899667371033 35.489444317467026 24.937200000000008
    vertex 18.338946773316056 36.15293099344877 24.937200000000008
    vertex 18.283572523461142 34.667707127338275 24.937200000000008
  endloop
endfacet
facet normal 0.0 0.0 -1.0
  outer loop
    vertex 18.283572523461142 34.667707127338275 24.937200000000008
    vertex 18.338946773316056 36.15293099344877 24.937200000000008
    vertex 18.41391086082844 35.15439676866154 24.937200000000008
  endloop
endfacet
facet normal 0.0 0.0 -1.0
  outer loop
    vertex 18.41391086082844 35.15439676866154 24.937200000000008
    vertex 18.338946773316056 36.15293099344877 24.937200000000008
    vertex 18.43268271042108 35.65788709311863 24.937200000000008
  endloop
endfacet
facet normal 0.0 0.0 -1.0
  outer loop
    vertex 13.964082486592229 35.82449186627248 24.937200000000008
    vertex 14.039046574104614 34.82595764148525 24.937200000000008
    vertex 13.945310636999592 35.3210015418154 24.937200000000008
  endloop
endfacet
facet normal 0.0 0.0 -1.0
  outer loop
    vertex 14.039046574104614 34.82595764148525 24.937200000000008
    vertex 13.964082486592229 35.82449186627248 24.937200000000008
    vertex 14.094420823959528 36.31118150759575 24.937200000000008
  endloop
endfacet
facet normal 0.0 0.0 -1.0
  outer loop
    vertex 14.039046574104614 34.82595764148525 24.937200000000008
    vertex 14.094420823959528 36.31118150759575 24.937200000000008
    vertex 14.240589986613655 34.36418373356792 24.937200000000008
  endloop
endfacet
facet normal 0.0 0.0 -1.0
  outer loop
    vertex 14.240589986613655 34.36418373356792 24.937200000000008
    vertex 14.094420823959528 36.31118150759575 24.937200000000008
    vertex 14.188996673710339 35.489444317467 24.937200000000008
  endloop
endfacet
facet normal 0.0 0.0 -1.0
  outer loop
    vertex 14.240589986613655 34.36418373356792 24.937200000000008
    vertex 14.188996673710339 35.489444317467 24.937200000000008
    vertex 14.257145021132203 34.97180622726196 24.937200000000008
  endloop
endfacet
facet normal 0.0 0.0 -1.0
  outer loop
    vertex 14.240589986613655 34.36418373356792 24.937200000000008
    vertex 14.257145021132203 34.97180622726196 24.937200000000008
    vertex 14.539834646251519 33.95883509000629 24.937200000000008
  endloop
endfacet
facet normal 0.0 0.0 -1.0
  outer loop
    vertex 14.539834646251519 33.95883509000629 24.937200000000008
    vertex 14.257145021132203 34.97180622726196 24.937200000000008
    vertex 14.34275238858816 34.765131759710734 24.937200000000008
  endloop
endfacet
facet normal 0.0 0.0 -1.0
  outer loop
    vertex 14.539834646251519 33.95883509000629 24.937200000000008
    vertex 14.34275238858816 34.765131759710734 24.937200000000008
    vertex 14.456945866141469 34.489444317467 24.937200000000008
  endloop
endfacet
facet normal 0.0 0.0 -1.0
  outer loop
    vertex 14.539834646251519 33.95883509000629 24.937200000000008
    vertex 14.456945866141469 34.489444317467 24.937200000000008
    vertex 14.632436342460274 34.26074067603635 24.937200000000008
  endloop
endfacet
facet normal 0.0 0.0 -1.0
  outer loop
    vertex 14.539834646251519 33.95883509000629 24.937200000000008
    vertex 14.632436342460274 34.26074067603635 24.937200000000008
    vertex 14.92177517624708 33.63023758437707 24.937200000000008
  endloop
endfacet
facet normal 0.0 0.0 -1.0
  outer loop
    vertex 14.92177517624708 33.63023758437707 24.937200000000008
    vertex 14.632436342460274 34.26074067603635 24.937200000000008
    vertex 14.774783111337253 34.075230755093905 24.937200000000008
  endloop
endfacet
facet normal 0.0 0.0 -1.0
  outer loop
    vertex 14.92177517624708 33.63023758437707 24.937200000000008
    vertex 14.774783111337253 34.075230755093905 24.937200000000008
    vertex 15.18899667371035 33.75739350989813 24.937200000000008
  endloop
endfacet
facet normal 0.0 0.0 -1.0
  outer loop
    vertex 14.92177517624708 33.63023758437707 24.937200000000008
    vertex 15.18899667371035 33.75739350989813 24.937200000000008
    vertex 15.367259483581602 33.3948684677162 24.937200000000008
  endloop
endfacet
facet normal 0.0 0.0 -1.0
  outer loop
    vertex 15.367259483581602 33.3948684677162 24.937200000000008
    vertex 15.18899667371035 33.75739350989813 24.937200000000008
    vertex 15.671358583505313 33.55759266488887 24.937200000000008
  endloop
endfacet
facet normal 0.0 0.0 -1.0
  outer loop
    vertex 15.367259483581602 33.3948684677162 24.937200000000008
    vertex 15.671358583505313 33.55759266488887 24.937200000000008
    vertex 15.85394912490486 33.2645301303489 24.937200000000008
  endloop
endfacet
facet normal 0.0 0.0 -1.0
  outer loop
    vertex 15.85394912490486 33.2645301303489 24.937200000000008
    vertex 15.671358583505313 33.55759266488887 24.937200000000008
    vertex 16.188996673710353 33.48944431746702 24.937200000000008
  endloop
endfacet
facet normal 0.0 0.0 -1.0
  outer loop
    vertex 15.85394912490486 33.2645301303489 24.937200000000008
    vertex 16.188996673710353 33.48944431746702 24.937200000000008
    vertex 16.35743944936195 33.24575828075627 24.937200000000008
  endloop
endfacet
facet normal 0.0 0.0 -1.0
  outer loop
    vertex 16.35743944936195 33.24575828075627 24.937200000000008
    vertex 16.188996673710353 33.48944431746702 24.937200000000008
    vertex 16.706634763915392 33.55759266488888 24.937200000000008
  endloop
endfacet
facet normal 0.0 0.0 -1.0
  outer loop
    vertex 16.35743944936195 33.24575828075627 24.937200000000008
    vertex 16.706634763915392 33.55759266488888 24.937200000000008
    vertex 16.852483349692093 33.33949421786129 24.937200000000008
  endloop
endfacet
facet normal 0.0 0.0 -1.0
  outer loop
    vertex 16.852483349692093 33.33949421786129 24.937200000000008
    vertex 16.706634763915392 33.55759266488888 24.937200000000008
    vertex 17.18899667371035 33.757393509898144 24.937200000000008
  endloop
endfacet
facet normal 0.0 0.0 -1.0
  outer loop
    vertex 16.852483349692093 33.33949421786129 24.937200000000008
    vertex 17.18899667371035 33.757393509898144 24.937200000000008
    vertex 17.314257257609423 33.54103763037033 24.937200000000008
  endloop
endfacet
facet normal 0.0 0.0 -1.0
  outer loop
    vertex 17.314257257609423 33.54103763037033 24.937200000000008
    vertex 17.18899667371035 33.757393509898144 24.937200000000008
    vertex 17.60321023608344 34.07523075509393 24.937200000000008
  endloop
endfacet
facet normal 0.0 0.0 -1.0
  outer loop
    vertex 17.314257257609423 33.54103763037033 24.937200000000008
    vertex 17.60321023608344 34.07523075509393 24.937200000000008
    vertex 17.719605901171057 33.84028229000819 24.937200000000008
  endloop
endfacet
facet normal 0.0 0.0 -1.0
  outer loop
    vertex 17.719605901171057 33.84028229000819 24.937200000000008
    vertex 17.60321023608344 34.07523075509393 24.937200000000008
    vertex 17.92104748127922 34.489444317467026 24.937200000000008
  endloop
endfacet
facet normal 0.0 0.0 -1.0
  outer loop
    vertex 17.719605901171057 33.84028229000819 24.937200000000008
    vertex 17.92104748127922 34.489444317467026 24.937200000000008
    vertex 18.048203406800273 34.22222282000376 24.937200000000008
  endloop
endfacet
facet normal 0.0 0.0 -1.0
  outer loop
    vertex 18.048203406800273 34.22222282000376 24.937200000000008
    vertex 17.92104748127922 34.489444317467026 24.937200000000008
    vertex 18.120848326288474 34.971806227261986 24.937200000000008
  endloop
endfacet
facet normal 0.0 0.0 -1.0
  outer loop
    vertex 18.048203406800273 34.22222282000376 24.937200000000008
    vertex 18.120848326288474 34.971806227261986 24.937200000000008
    vertex 18.283572523461142 34.667707127338275 24.937200000000008
  endloop
endfacet
facet normal 0.0 0.0 -1.0
  outer loop
    vertex 18.283572523461142 34.667707127338275 24.937200000000008
    vertex 18.120848326288474 34.971806227261986 24.937200000000008
    vertex 18.18899667371033 35.489444317467026 24.937200000000008
  endloop
endfacet
facet normal 0.0 0.0 1.0
  outer loop
    vertex 14.92177517624708 33.63023758437707 27.937200000000015
    vertex 14.981589390849004 35.16592051108886 27.937200000000008
    vertex 14.938996673710339 35.48944431746701 27.937200000000008
  endloop
endfacet
facet normal 0.0 0.0 1.0
  outer loop
    vertex 14.981589390849004 35.16592051108886 27.937200000000008
    vertex 14.92177517624708 33.63023758437707 27.937200000000015
    vertex 15.367259483581602 33.3948684677162 27.937200000000015
  endloop
endfacet
facet normal 0.0 0.0 1.0
  outer loop
    vertex 14.981589390849004 35.16592051108886 27.937200000000008
    vertex 15.367259483581602 33.3948684677162 27.937200000000015
    vertex 15.106464918979787 34.86444431746701 27.937200000000008
  endloop
endfacet
facet normal 0.0 0.0 1.0
  outer loop
    vertex 15.106464918979787 34.86444431746701 27.937200000000008
    vertex 15.367259483581602 33.3948684677162 27.937200000000015
    vertex 15.305113197227154 34.605560840983834 27.937200000000008
  endloop
endfacet
facet normal 0.0 0.0 1.0
  outer loop
    vertex 15.305113197227154 34.605560840983834 27.937200000000008
    vertex 15.367259483581602 33.3948684677162 27.937200000000015
    vertex 15.563996673710337 34.406912562736466 27.937200000000008
  endloop
endfacet
facet normal 0.0 0.0 1.0
  outer loop
    vertex 15.563996673710337 34.406912562736466 27.937200000000008
    vertex 15.367259483581602 33.3948684677162 27.937200000000015
    vertex 15.85394912490486 33.2645301303489 27.937200000000015
  endloop
endfacet
facet normal 0.0 0.0 1.0
  outer loop
    vertex 15.563996673710337 34.406912562736466 27.937200000000008
    vertex 15.85394912490486 33.2645301303489 27.937200000000015
    vertex 15.865472867332185 34.28203703460568 27.937200000000008
  endloop
endfacet
facet normal 0.0 0.0 1.0
  outer loop
    vertex 15.865472867332185 34.28203703460568 27.937200000000008
    vertex 15.85394912490486 33.2645301303489 27.937200000000015
    vertex 16.35743944936195 33.24575828075627 27.937200000000015
  endloop
endfacet
facet normal 0.0 0.0 1.0
  outer loop
    vertex 15.865472867332185 34.28203703460568 27.937200000000008
    vertex 16.35743944936195 33.24575828075627 27.937200000000015
    vertex 16.188996673710335 34.23944431746701 27.937200000000008
  endloop
endfacet
facet normal 0.0 0.0 1.0
  outer loop
    vertex 16.188996673710335 34.23944431746701 27.937200000000008
    vertex 16.35743944936195 33.24575828075627 27.937200000000015
    vertex 16.51252048008848 34.28203703460568 27.937200000000008
  endloop
endfacet
facet normal 0.0 0.0 1.0
  outer loop
    vertex 16.51252048008848 34.28203703460568 27.937200000000008
    vertex 16.35743944936195 33.24575828075627 27.937200000000015
    vertex 16.852483349692093 33.33949421786129 27.937200000000015
  endloop
endfacet
facet normal 0.0 0.0 1.0
  outer loop
    vertex 16.51252048008848 34.28203703460568 27.937200000000008
    vertex 16.852483349692093 33.33949421786129 27.937200000000015
    vertex 16.813996673710335 34.406912562736466 27.937200000000008
  endloop
endfacet
facet normal 0.0 0.0 1.0
  outer loop
    vertex 16.813996673710335 34.406912562736466 27.937200000000008
    vertex 16.852483349692093 33.33949421786129 27.937200000000015
    vertex 17.072880150193516 34.605560840983834 27.937200000000008
  endloop
endfacet
facet normal 0.0 0.0 1.0
  outer loop
    vertex 17.072880150193516 34.605560840983834 27.937200000000008
    vertex 16.852483349692093 33.33949421786129 27.937200000000015
    vertex 17.314257257609423 33.54103763037033 27.937200000000015
  endloop
endfacet
facet normal 0.0 0.0 1.0
  outer loop
    vertex 17.072880150193516 34.605560840983834 27.937200000000008
    vertex 17.314257257609423 33.54103763037033 27.937200000000015
    vertex 17.271528428440885 34.86444431746701 27.937200000000008
  endloop
endfacet
facet normal 0.0 0.0 1.0
  outer loop
    vertex 17.271528428440885 34.86444431746701 27.937200000000008
    vertex 17.314257257609423 33.54103763037033 27.937200000000015
    vertex 17.396403956571667 35.16592051108886 27.937200000000008
  endloop
endfacet
facet normal 0.0 0.0 1.0
  outer loop
    vertex 17.396403956571667 35.16592051108886 27.937200000000008
    vertex 17.314257257609423 33.54103763037033 27.937200000000015
    vertex 17.719605901171057 33.84028229000819 27.937200000000015
  endloop
endfacet
facet normal 0.0 0.0 1.0
  outer loop
    vertex 17.396403956571667 35.16592051108886 27.937200000000008
    vertex 17.719605901171057 33.84028229000819 27.937200000000015
    vertex 17.438996673710335 35.48944431746701 27.937200000000008
  endloop
endfacet
facet normal 0.0 0.0 1.0
  outer loop
    vertex 17.438996673710335 35.48944431746701 27.937200000000008
    vertex 17.719605901171057 33.84028229000819 27.937200000000015
    vertex 17.456218171173592 37.34865105055696 27.937200000000015
  endloop
endfacet
facet normal 0.0 0.0 1.0
  outer loop
    vertex 17.456218171173592 37.34865105055696 27.937200000000015
    vertex 17.719605901171057 33.84028229000819 27.937200000000015
    vertex 17.838158701169153 37.020053544927734 27.937200000000015
  endloop
endfacet
facet normal 0.0 0.0 1.0
  outer loop
    vertex 17.838158701169153 37.020053544927734 27.937200000000015
    vertex 17.719605901171057 33.84028229000819 27.937200000000015
    vertex 18.048203406800273 34.22222282000376 27.937200000000015
  endloop
endfacet
facet normal 0.0 0.0 1.0
  outer loop
    vertex 17.838158701169153 37.020053544927734 27.937200000000015
    vertex 18.048203406800273 34.22222282000376 27.937200000000015
    vertex 18.137403360807017 36.6147049013661 27.937200000000015
  endloop
endfacet
facet normal 0.0 0.0 1.0
  outer loop
    vertex 18.137403360807017 36.6147049013661 27.937200000000015
    vertex 18.048203406800273 34.22222282000376 27.937200000000015
    vertex 18.283572523461142 34.667707127338275 27.937200000000015
  endloop
endfacet
facet normal 0.0 0.0 1.0
  outer loop
    vertex 18.137403360807017 36.6147049013661 27.937200000000015
    vertex 18.283572523461142 34.667707127338275 27.937200000000015
    vertex 18.338946773316056 36.15293099344877 27.937200000000015
  endloop
endfacet
facet normal 0.0 0.0 1.0
  outer loop
    vertex 18.338946773316056 36.15293099344877 27.937200000000015
    vertex 18.283572523461142 34.667707127338275 27.937200000000015
    vertex 18.41391086082844 35.15439676866154 27.937200000000015
  endloop
endfacet
facet normal 0.0 0.0 1.0
  outer loop
    vertex 18.338946773316056 36.15293099344877 27.937200000000015
    vertex 18.41391086082844 35.15439676866154 27.937200000000015
    vertex 18.43268271042108 35.65788709311863 27.937200000000015
  endloop
endfacet
facet normal 0.0 0.0 1.0
  outer loop
    vertex 14.039046574104614 34.82595764148525 27.937200000000015
    vertex 13.964082486592229 35.82449186627248 27.937200000000015
    vertex 13.945310636999592 35.3210015418154 27.937200000000015
  endloop
endfacet
facet normal 0.0 0.0 1.0
  outer loop
    vertex 13.964082486592229 35.82449186627248 27.937200000000015
    vertex 14.039046574104614 34.82595764148525 27.937200000000015
    vertex 14.094420823959528 36.31118150759575 27.937200000000015
  endloop
endfacet
facet normal 0.0 0.0 1.0
  outer loop
    vertex 14.094420823959528 36.31118150759575 27.937200000000015
    vertex 14.039046574104614 34.82595764148525 27.937200000000015
    vertex 14.240589986613655 34.36418373356792 27.937200000000015
  endloop
endfacet
facet normal 0.0 0.0 1.0
  outer loop
    vertex 14.094420823959528 36.31118150759575 27.937200000000015
    vertex 14.240589986613655 34.36418373356792 27.937200000000015
    vertex 14.329789940620397 36.75666581493027 27.937200000000015
  endloop
endfacet
facet normal 0.0 0.0 1.0
  outer loop
    vertex 14.329789940620397 36.75666581493027 27.937200000000015
    vertex 14.240589986613655 34.36418373356792 27.937200000000015
    vertex 14.539834646251519 33.95883509000629 27.937200000000015
  endloop
endfacet
facet normal 0.0 0.0 1.0
  outer loop
    vertex 14.329789940620397 36.75666581493027 27.937200000000015
    vertex 14.539834646251519 33.95883509000629 27.937200000000015
    vertex 14.658387446249613 37.13860634492583 27.937200000000015
  endloop
endfacet
facet normal 0.0 0.0 1.0
  outer loop
    vertex 14.658387446249613 37.13860634492583 27.937200000000015
    vertex 14.539834646251519 33.95883509000629 27.937200000000015
    vertex 14.92177517624708 33.63023758437707 27.937200000000015
  endloop
endfacet
facet normal 0.0 0.0 1.0
  outer loop
    vertex 14.658387446249613 37.13860634492583 27.937200000000015
    vertex 14.92177517624708 33.63023758437707 27.937200000000015
    vertex 14.938996673710339 35.48944431746701 27.937200000000008
  endloop
endfacet
facet normal 0.0 0.0 1.0
  outer loop
    vertex 14.658387446249613 37.13860634492583 27.937200000000015
    vertex 14.938996673710339 35.48944431746701 27.937200000000008
    vertex 15.063736089811247 37.43785100456369 27.937200000000015
  endloop
endfacet
facet normal 0.0 0.0 1.0
  outer loop
    vertex 15.063736089811247 37.43785100456369 27.937200000000015
    vertex 14.938996673710339 35.48944431746701 27.937200000000008
    vertex 14.981589390849004 35.81296812384516 27.937200000000008
  endloop
endfacet
facet normal 0.0 0.0 1.0
  outer loop
    vertex 15.063736089811247 37.43785100456369 27.937200000000015
    vertex 14.981589390849004 35.81296812384516 27.937200000000008
    vertex 15.106464918979787 36.11444431746701 27.937200000000008
  endloop
endfacet
facet normal 0.0 0.0 1.0
  outer loop
    vertex 15.063736089811247 37.43785100456369 27.937200000000015
    vertex 15.106464918979787 36.11444431746701 27.937200000000008
    vertex 15.525509997728577 37.63939441707274 27.937200000000015
  endloop
endfacet
facet normal 0.0 0.0 1.0
  outer loop
    vertex 15.525509997728577 37.63939441707274 27.937200000000015
    vertex 15.106464918979787 36.11444431746701 27.937200000000008
    vertex 15.305113197227154 36.373327793950196 27.937200000000008
  endloop
endfacet
facet normal 0.0 0.0 1.0
  outer loop
    vertex 15.525509997728577 37.63939441707274 27.937200000000015
    vertex 15.305113197227154 36.373327793950196 27.937200000000008
    vertex 15.563996673710337 36.57197607219756 27.937200000000008
  endloop
endfacet
facet normal 0.0 0.0 1.0
  outer loop
    vertex 15.525509997728577 37.63939441707274 27.937200000000015
    vertex 15.563996673710337 36.57197607219756 27.937200000000008
    vertex 16.02055389805872 37.73313035417775 27.937200000000015
  endloop
endfacet
facet normal 0.0 0.0 1.0
  outer loop
    vertex 16.02055389805872 37.73313035417775 27.937200000000015
    vertex 15.563996673710337 36.57197607219756 27.937200000000008
    vertex 15.865472867332185 36.696851600328344 27.937200000000008
  endloop
endfacet
facet normal 0.0 0.0 1.0
  outer loop
    vertex 16.02055389805872 37.73313035417775 27.937200000000015
    vertex 15.865472867332185 36.696851600328344 27.937200000000008
    vertex 16.188996673710335 36.73944431746701 27.937200000000008
  endloop
endfacet
facet normal 0.0 0.0 1.0
  outer loop
    vertex 16.02055389805872 37.73313035417775 27.937200000000015
    vertex 16.188996673710335 36.73944431746701 27.937200000000008
    vertex 16.524044222515812 37.71435850458512 27.937200000000015
  endloop
endfacet
facet normal 0.0 0.0 1.0
  outer loop
    vertex 16.524044222515812 37.71435850458512 27.937200000000015
    vertex 16.188996673710335 36.73944431746701 27.937200000000008
    vertex 16.512520480088487 36.696851600328344 27.937200000000008
  endloop
endfacet
facet normal 0.0 0.0 1.0
  outer loop
    vertex 16.524044222515812 37.71435850458512 27.937200000000015
    vertex 16.512520480088487 36.696851600328344 27.937200000000008
    vertex 16.813996673710335 36.57197607219756 27.937200000000008
  endloop
endfacet
facet normal 0.0 0.0 1.0
  outer loop
    vertex 16.524044222515812 37.71435850458512 27.937200000000015
    vertex 16.813996673710335 36.57197607219756 27.937200000000008
    vertex 17.010733863839068 37.58402016721782 27.937200000000015
  endloop
endfacet
facet normal 0.0 0.0 1.0
  outer loop
    vertex 17.010733863839068 37.58402016721782 27.937200000000015
    vertex 16.813996673710335 36.57197607219756 27.937200000000008
    vertex 17.072880150193516 36.373327793950196 27.937200000000008
  endloop
endfacet
facet normal 0.0 0.0 1.0
  outer loop
    vertex 17.010733863839068 37.58402016721782 27.937200000000015
    vertex 17.072880150193516 36.373327793950196 27.937200000000008
    vertex 17.456218171173592 37.34865105055696 27.937200000000015
  endloop
endfacet
facet normal 0.0 0.0 1.0
  outer loop
    vertex 17.456218171173592 37.34865105055696 27.937200000000015
    vertex 17.072880150193516 36.373327793950196 27.937200000000008
    vertex 17.271528428440885 36.11444431746701 27.937200000000008
  endloop
endfacet
facet normal 0.0 0.0 1.0
  outer loop
    vertex 17.456218171173592 37.34865105055696 27.937200000000015
    vertex 17.271528428440885 36.11444431746701 27.937200000000008
    vertex 17.396403956571667 35.81296812384516 27.937200000000008
  endloop
endfacet
facet normal 0.0 0.0 1.0
  outer loop
    vertex 17.456218171173592 37.34865105055696 27.937200000000015
    vertex 17.396403956571667 35.81296812384516 27.937200000000008
    vertex 17.438996673710335 35.48944431746701 27.937200000000008
  endloop
endfacet
facet normal -0.88417787664779 0.4671503852579014 0.0
  outer loop
    vertex 14.329789940620397 36.75666581493027 27.937200000000015
    vertex 14.094420823959528 36.31118150759575 24.937200000000008
    vertex 14.094420823959528 36.31118150759575 27.937200000000015
  endloop
endfacet
facet normal -0.88417787664779 0.4671503852579014 0.0
  outer loop
    vertex 14.094420823959528 36.31118150759575 24.937200000000008
    vertex 14.329789940620397 36.75666581493027 27.937200000000015
    vertex 14.329789940620397 36.75666581493027 24.937200000000008
  endloop
endfacet
facet normal -0.7580589512519503 0.6521860366695941 0.0
  outer loop
    vertex 14.658387446249613 37.13860634492583 27.937200000000015
    vertex 14.329789940620397 36.75666581493027 24.937200000000008
    vertex 14.329789940620397 36.75666581493027 27.937200000000015
  endloop
endfacet
facet normal -0.7580589512519503 0.6521860366695941 0.0
  outer loop
    vertex 14.329789940620397 36.75666581493027 24.937200000000008
    vertex 14.658387446249613 37.13860634492583 27.937200000000015
    vertex 14.658387446249613 37.13860634492583 24.937200000000008
  endloop
endfacet
facet normal -0.5939277846618101 0.8045183569109625 0.0
  outer loop
    vertex 14.658387446249613 37.13860634492583 27.937200000000015
    vertex 15.063736089811247 37.43785100456369 24.937200000000008
    vertex 14.658387446249613 37.13860634492583 24.937200000000008
  endloop
endfacet
facet normal -0.5939277846618101 0.8045183569109625 0.0
  outer loop
    vertex 15.063736089811247 37.43785100456369 24.937200000000008
    vertex 14.658387446249613 37.13860634492583 27.937200000000015
    vertex 15.063736089811247 37.43785100456369 27.937200000000015
  endloop
endfacet
facet normal -0.4000145989222988 0.9165087673607015 0.0
  outer loop
    vertex 15.063736089811247 37.43785100456369 27.937200000000015
    vertex 15.525509997728577 37.63939441707274 24.937200000000008
    vertex 15.063736089811247 37.43785100456369 24.937200000000008
  endloop
endfacet
facet normal -0.4000145989222988 0.9165087673607015 0.0
  outer loop
    vertex 15.525509997728577 37.63939441707274 24.937200000000008
    vertex 15.063736089811247 37.43785100456369 27.937200000000015
    vertex 15.525509997728577 37.63939441707274 27.937200000000015
  endloop
endfacet
facet normal -0.18604301087730077 0.982541601207658 0.0
  outer loop
    vertex 15.525509997728577 37.63939441707274 27.937200000000015
    vertex 16.02055389805872 37.73313035417775 24.937200000000008
    vertex 15.525509997728577 37.63939441707274 24.937200000000008
  endloop
endfacet
facet normal -0.18604301087730077 0.982541601207658 0.0
  outer loop
    vertex 16.02055389805872 37.73313035417775 24.937200000000008
    vertex 15.525509997728577 37.63939441707274 27.937200000000015
    vertex 16.02055389805872 37.73313035417775 27.937200000000015
  endloop
endfacet
facet normal 0.03725755058102211 0.9993056964336301 0.0
  outer loop
    vertex 16.02055389805872 37.73313035417775 27.937200000000015
    vertex 16.524044222515812 37.71435850458512 24.937200000000008
    vertex 16.02055389805872 37.73313035417775 24.937200000000008
  endloop
endfacet
facet normal 0.03725755058102211 0.9993056964336301 0.0
  outer loop
    vertex 16.524044222515812 37.71435850458512 24.937200000000008
    vertex 16.02055389805872 37.73313035417775 27.937200000000015
    vertex 16.524044222515812 37.71435850458512 27.937200000000015
  endloop
endfacet
facet normal 0.258689862879237 0.9659604313032297 0.0
  outer loop
    vertex 16.524044222515812 37.71435850458512 27.937200000000015
    vertex 17.010733863839068 37.58402016721782 24.937200000000008
    vertex 16.524044222515812 37.71435850458512 24.937200000000008
  endloop
endfacet
facet normal 0.258689862879237 0.9659604313032297 0.0
  outer loop
    vertex 17.010733863839068 37.58402016721782 24.937200000000008
    vertex 16.524044222515812 37.71435850458512 27.937200000000015
    vertex 17.010733863839068 37.58402016721782 27.937200000000015
  endloop
endfacet
facet normal 0.4671503852578993 0.884177876647791 0.0
  outer loop
    vertex 17.010733863839068 37.58402016721782 27.937200000000015
    vertex 17.456218171173592 37.34865105055696 24.937200000000008
    vertex 17.010733863839068 37.58402016721782 24.937200000000008
  endloop
endfacet
facet normal 0.4671503852578993 0.884177876647791 0.0
  outer loop
    vertex 17.456218171173592 37.34865105055696 24.937200000000008
    vertex 17.010733863839068 37.58402016721782 27.937200000000015
    vertex 17.456218171173592 37.34865105055696 27.937200000000015
  endloop
endfacet
facet normal 0.6521860366696065 0.7580589512519398 0.0
  outer loop
    vertex 17.456218171173592 37.34865105055696 27.937200000000015
    vertex 17.838158701169153 37.020053544927734 24.937200000000008
    vertex 17.456218171173592 37.34865105055696 24.937200000000008
  endloop
endfacet
facet normal 0.6521860366696065 0.7580589512519398 0.0
  outer loop
    vertex 17.838158701169153 37.020053544927734 24.937200000000008
    vertex 17.456218171173592 37.34865105055696 27.937200000000015
    vertex 17.838158701169153 37.020053544927734 27.937200000000015
  endloop
endfacet
facet normal 0.8045183569109532 0.5939277846618226 0.0
  outer loop
    vertex 17.838158701169153 37.020053544927734 24.937200000000008
    vertex 18.137403360807017 36.6147049013661 27.937200000000015
    vertex 18.137403360807017 36.6147049013661 24.937200000000008
  endloop
endfacet
facet normal 0.8045183569109532 0.5939277846618226 0.0
  outer loop
    vertex 18.137403360807017 36.6147049013661 27.937200000000015
    vertex 17.838158701169153 37.020053544927734 24.937200000000008
    vertex 17.838158701169153 37.020053544927734 27.937200000000015
  endloop
endfacet
facet normal 0.9165087673607053 0.40001459892228997 0.0
  outer loop
    vertex 18.137403360807017 36.6147049013661 24.937200000000008
    vertex 18.338946773316056 36.15293099344877 27.937200000000015
    vertex 18.338946773316056 36.15293099344877 24.937200000000008
  endloop
endfacet
facet normal 0.9165087673607053 0.40001459892228997 0.0
  outer loop
    vertex 18.338946773316056 36.15293099344877 27.937200000000015
    vertex 18.137403360807017 36.6147049013661 24.937200000000008
    vertex 18.137403360807017 36.6147049013661 27.937200000000015
  endloop
endfacet
facet normal 0.982541601207656 0.18604301087731262 0.0
  outer loop
    vertex 18.338946773316056 36.15293099344877 24.937200000000008
    vertex 18.43268271042108 35.65788709311863 27.937200000000015
    vertex 18.43268271042108 35.65788709311863 24.937200000000008
  endloop
endfacet
facet normal 0.982541601207656 0.18604301087731262 0.0
  outer loop
    vertex 18.43268271042108 35.65788709311863 27.937200000000015
    vertex 18.338946773316056 36.15293099344877 24.937200000000008
    vertex 18.338946773316056 36.15293099344877 27.937200000000015
  endloop
endfacet
facet normal 0.99930569643363 -0.03725755058102792 0.0
  outer loop
    vertex 18.43268271042108 35.65788709311863 24.937200000000008
    vertex 18.41391086082844 35.15439676866154 27.937200000000015
    vertex 18.41391086082844 35.15439676866154 24.937200000000008
  endloop
endfacet
facet normal 0.99930569643363 -0.03725755058102792 0.0
  outer loop
    vertex 18.41391086082844 35.15439676866154 27.937200000000015
    vertex 18.43268271042108 35.65788709311863 24.937200000000008
    vertex 18.43268271042108 35.65788709311863 27.937200000000015
  endloop
endfacet
facet normal 0.9659604313032287 -0.25868986287924084 0.0
  outer loop
    vertex 18.41391086082844 35.15439676866154 24.937200000000008
    vertex 18.283572523461142 34.667707127338275 27.937200000000015
    vertex 18.283572523461142 34.667707127338275 24.937200000000008
  endloop
endfacet
facet normal 0.9659604313032287 -0.25868986287924084 0.0
  outer loop
    vertex 18.283572523461142 34.667707127338275 27.937200000000015
    vertex 18.41391086082844 35.15439676866154 24.937200000000008
    vertex 18.41391086082844 35.15439676866154 27.937200000000015
  endloop
endfacet
facet normal 0.8841778766477876 -0.4671503852579061 0.0
  outer loop
    vertex 18.283572523461142 34.667707127338275 24.937200000000008
    vertex 18.048203406800273 34.22222282000376 27.937200000000015
    vertex 18.048203406800273 34.22222282000376 24.937200000000008
  endloop
endfacet
facet normal 0.8841778766477876 -0.4671503852579061 0.0
  outer loop
    vertex 18.048203406800273 34.22222282000376 27.937200000000015
    vertex 18.283572523461142 34.667707127338275 24.937200000000008
    vertex 18.283572523461142 34.667707127338275 27.937200000000015
  endloop
endfacet
facet normal 0.7580589512519552 -0.6521860366695885 0.0
  outer loop
    vertex 18.048203406800273 34.22222282000376 24.937200000000008
    vertex 17.719605901171057 33.84028229000819 27.937200000000015
    vertex 17.719605901171057 33.84028229000819 24.937200000000008
  endloop
endfacet
facet normal 0.7580589512519552 -0.6521860366695885 0.0
  outer loop
    vertex 17.719605901171057 33.84028229000819 27.937200000000015
    vertex 18.048203406800273 34.22222282000376 24.937200000000008
    vertex 18.048203406800273 34.22222282000376 27.937200000000015
  endloop
endfacet
facet normal 0.5939277846618101 -0.8045183569109625 0.0
  outer loop
    vertex 17.719605901171057 33.84028229000819 27.937200000000015
    vertex 17.314257257609423 33.54103763037033 24.937200000000008
    vertex 17.719605901171057 33.84028229000819 24.937200000000008
  endloop
endfacet
facet normal 0.5939277846618101 -0.8045183569109625 0.0
  outer loop
    vertex 17.314257257609423 33.54103763037033 24.937200000000008
    vertex 17.719605901171057 33.84028229000819 27.937200000000015
    vertex 17.314257257609423 33.54103763037033 27.937200000000015
  endloop
endfacet
facet normal 0.4000145989222988 -0.9165087673607015 0.0
  outer loop
    vertex 17.314257257609423 33.54103763037033 27.937200000000015
    vertex 16.852483349692093 33.33949421786129 24.937200000000008
    vertex 17.314257257609423 33.54103763037033 24.937200000000008
  endloop
endfacet
facet normal 0.4000145989222988 -0.9165087673607015 0.0
  outer loop
    vertex 16.852483349692093 33.33949421786129 24.937200000000008
    vertex 17.314257257609423 33.54103763037033 27.937200000000015
    vertex 16.852483349692093 33.33949421786129 27.937200000000015
  endloop
endfacet
facet normal 0.18604301087730077 -0.982541601207658 0.0
  outer loop
    vertex 16.852483349692093 33.33949421786129 27.937200000000015
    vertex 16.35743944936195 33.24575828075627 24.937200000000008
    vertex 16.852483349692093 33.33949421786129 24.937200000000008
  endloop
endfacet
facet normal 0.18604301087730077 -0.982541601207658 0.0
  outer loop
    vertex 16.35743944936195 33.24575828075627 24.937200000000008
    vertex 16.852483349692093 33.33949421786129 27.937200000000015
    vertex 16.35743944936195 33.24575828075627 27.937200000000015
  endloop
endfacet
facet normal -0.037257550581010934 -0.9993056964336305 -0.0
  outer loop
    vertex 16.35743944936195 33.24575828075627 27.937200000000015
    vertex 15.85394912490486 33.2645301303489 24.937200000000008
    vertex 16.35743944936195 33.24575828075627 24.937200000000008
  endloop
endfacet
facet normal -0.037257550581010934 -0.9993056964336305 -0.0
  outer loop
    vertex 15.85394912490486 33.2645301303489 24.937200000000008
    vertex 16.35743944936195 33.24575828075627 27.937200000000015
    vertex 15.85394912490486 33.2645301303489 27.937200000000015
  endloop
endfacet
facet normal -0.25868986287924745 -0.9659604313032268 -0.0
  outer loop
    vertex 15.85394912490486 33.2645301303489 27.937200000000015
    vertex 15.367259483581602 33.3948684677162 24.937200000000008
    vertex 15.85394912490486 33.2645301303489 24.937200000000008
  endloop
endfacet
facet normal -0.25868986287924745 -0.9659604313032268 -0.0
  outer loop
    vertex 15.367259483581602 33.3948684677162 24.937200000000008
    vertex 15.85394912490486 33.2645301303489 27.937200000000015
    vertex 15.367259483581602 33.3948684677162 27.937200000000015
  endloop
endfacet
facet normal -0.4671503852578993 -0.884177876647791 -0.0
  outer loop
    vertex 15.367259483581602 33.3948684677162 27.937200000000015
    vertex 14.92177517624708 33.63023758437707 24.937200000000008
    vertex 15.367259483581602 33.3948684677162 24.937200000000008
  endloop
endfacet
facet normal -0.4671503852578993 -0.884177876647791 -0.0
  outer loop
    vertex 14.92177517624708 33.63023758437707 24.937200000000008
    vertex 15.367259483581602 33.3948684677162 27.937200000000015
    vertex 14.92177517624708 33.63023758437707 27.937200000000015
  endloop
endfacet
facet normal -0.6521860366696065 -0.7580589512519398 -0.0
  outer loop
    vertex 14.92177517624708 33.63023758437707 27.937200000000015
    vertex 14.539834646251519 33.95883509000629 24.937200000000008
    vertex 14.92177517624708 33.63023758437707 24.937200000000008
  endloop
endfacet
facet normal -0.6521860366696065 -0.7580589512519398 -0.0
  outer loop
    vertex 14.539834646251519 33.95883509000629 24.937200000000008
    vertex 14.92177517624708 33.63023758437707 27.937200000000015
    vertex 14.539834646251519 33.95883509000629 27.937200000000015
  endloop
endfacet
facet normal -0.8045183569109532 -0.5939277846618226 -0.0
  outer loop
    vertex 14.240589986613655 34.36418373356792 27.937200000000015
    vertex 14.539834646251519 33.95883509000629 24.937200000000008
    vertex 14.539834646251519 33.95883509000629 27.937200000000015
  endloop
endfacet
facet normal -0.8045183569109532 -0.5939277846618226 -0.0
  outer loop
    vertex 14.539834646251519 33.95883509000629 24.937200000000008
    vertex 14.240589986613655 34.36418373356792 27.937200000000015
    vertex 14.240589986613655 34.36418373356792 24.937200000000008
  endloop
endfacet
facet normal -0.9165087673607053 -0.40001459892228997 -0.0
  outer loop
    vertex 14.039046574104614 34.82595764148525 27.937200000000015
    vertex 14.240589986613655 34.36418373356792 24.937200000000008
    vertex 14.240589986613655 34.36418373356792 27.937200000000015
  endloop
endfacet
facet normal -0.9165087673607053 -0.40001459892228997 -0.0
  outer loop
    vertex 14.240589986613655 34.36418373356792 24.937200000000008
    vertex 14.039046574104614 34.82595764148525 27.937200000000015
    vertex 14.039046574104614 34.82595764148525 24.937200000000008
  endloop
endfacet
facet normal -0.982541601207656 -0.18604301087731262 -0.0
  outer loop
    vertex 13.945310636999592 35.3210015418154 27.937200000000015
    vertex 14.039046574104614 34.82595764148525 24.937200000000008
    vertex 14.039046574104614 34.82595764148525 27.937200000000015
  endloop
endfacet
facet normal -0.982541601207656 -0.18604301087731262 -0.0
  outer loop
    vertex 14.039046574104614 34.82595764148525 24.937200000000008
    vertex 13.945310636999592 35.3210015418154 27.937200000000015
    vertex 13.945310636999592 35.3210015418154 24.937200000000008
  endloop
endfacet
facet normal -0.99930569643363 0.03725755058102792 0.0
  outer loop
    vertex 13.964082486592229 35.82449186627248 27.937200000000015
    vertex 13.945310636999592 35.3210015418154 24.937200000000008
    vertex 13.945310636999592 35.3210015418154 27.937200000000015
  endloop
endfacet
facet normal -0.99930569643363 0.03725755058102792 0.0
  outer loop
    vertex 13.945310636999592 35.3210015418154 24.937200000000008
    vertex 13.964082486592229 35.82449186627248 27.937200000000015
    vertex 13.964082486592229 35.82449186627248 24.937200000000008
  endloop
endfacet
facet normal -0.9659604313032287 0.25868986287924084 0.0
  outer loop
    vertex 14.094420823959528 36.31118150759575 27.937200000000015
    vertex 13.964082486592229 35.82449186627248 24.937200000000008
    vertex 13.964082486592229 35.82449186627248 27.937200000000015
  endloop
endfacet
facet normal -0.9659604313032287 0.25868986287924084 0.0
  outer loop
    vertex 13.964082486592229 35.82449186627248 24.937200000000008
    vertex 14.094420823959528 36.31118150759575 27.937200000000015
    vertex 14.094420823959528 36.31118150759575 24.937200000000008
  endloop
endfacet
endsolid V2-Joystick
